<mxfile host="app.diagrams.net" agent="Mozilla/5.0 (Windows NT 10.0; Win64; x64) AppleWebKit/537.36 (KHTML, like Gecko) Chrome/128.0.0.0 Safari/537.36 OPR/114.0.0.0" version="24.9.3">
  <diagram name="Strona-1" id="tYRoc7ceUxPsuC7y0E0b">
    <mxGraphModel dx="3691" dy="1548" grid="1" gridSize="10" guides="1" tooltips="1" connect="1" arrows="1" fold="1" page="1" pageScale="1" pageWidth="827" pageHeight="1169" math="0" shadow="0">
      <root>
        <mxCell id="0" />
        <mxCell id="1" parent="0" />
        <mxCell id="jcv9un-va7KM5RT3XpyI-4" style="edgeStyle=orthogonalEdgeStyle;rounded=0;orthogonalLoop=1;jettySize=auto;html=1;jumpSize=6;strokeWidth=6;strokeColor=#FFFFFF;" edge="1" parent="1" source="jcv9un-va7KM5RT3XpyI-1" target="jcv9un-va7KM5RT3XpyI-2">
          <mxGeometry relative="1" as="geometry" />
        </mxCell>
        <mxCell id="jcv9un-va7KM5RT3XpyI-1" value="" style="shape=image;verticalLabelPosition=bottom;labelBackgroundColor=default;verticalAlign=top;aspect=fixed;imageAspect=0;image=data:image/png,iVBORw0KGgoAAAANSUhEUgAAAtIAAAMOCAYAAAAz4eFKAAAgAElEQVR4nOzdYWgbV7o38L+WXnCgFxzowggSqEIKdWghMu+CR9x+iJwsRKGFSLhgiV5IlS5klRYau122UvzBlrpsa6fQRl1o7Qa2aAwxUmBLFFjXkw+9SIZd7EBLVKjJFGLQwBZsaMCCFub9INkeybItjSWPZvT/wVB7LNknp0dnnjlzznmgdYmi5NcAaBjPmV2UzvXLhvZoOa1NX49o/nOi5gLKdQaXJp4La3EppxV/MbuQnWhDWyssaKmPR7TwOa/WJ2zWGzTXgFcLvzOt3f1hzexCWsiGlhsXt+ownje7PB0mH9+qm0YOv1Q0u8Sd6T8Ptbtf1PvMRrW7/LhqmqZpufHG29nWMZTS2OK2rf1wV5t+J6x5XxC26kh4wav5r9zU7hbY0Haz9sNd7eYVvyae1MUhQxFtMrOkrXVYHAKzC3A4HmmpITCQ3tOSFhca6CRPhrXpwobZhe0gS9rkyUYuMILmvb6gsdvc3yMpqAm6umMgXYOB9MH88khLv+PTDRTUHn4t9djsQnYGBtIHsaYtXPdW9WX1DvHNu9ojs4vaURqot4GIdlcxu5zbfgM7K61D/T6LqVcHEZozuzCdrgSoAIQ+BMdTyClr2PhFg6Zp0DbW8DAbh08AsDKDy2dGkf3J7PJ2ihJKKwDggu/KTdwtFLG2Uak3bQNrygImh1wAVMgTgwh9rphc3s5WWkwgFJSgml0Qi4jnN9va7kd6WDC7mJ3jSR6J33sQ+DALRfAi/PFdPCxubNXVxn8e4u77fegxu5wdQry+f/vaPB594TO7uB2khPyED4MTMlS44P9gAY/WdO1MyWH6bS8EAPlPLiA0kUfJ7CJ3BH29iYh8kcOjn+vEIYtJXBhOIP/E7PJWHFrIfqhyWny3OxmOSO9iSbv5dkp7uMeQ6UY+romVevR+xnvospw2OTSpLew5BPNImz5faX+nJ7Wlwyqa1SgpLShAA0QtPh7hiPRudCPSrJtmFLX0a8LWiFZaMbs8NvLzgjZSeaLp47VB036Y1nybT4T+vlt9bGi5624+BdHZ+OdIZSRa0Eb+Wf/J98by5FbdusdzWic8H7f3iDQ1wY3IjSD6end/Rc9AEOFz5a/l+TxHDQEAIkZuj8C756CfC6fEypcPShx5qOdJHonhECRVQFBKIXrOaXaJyGbWv4oj8qUKwI/U7E34nzW7RPax/HkMUyoAYQQjwy6zi2M6dVlGFgDgR+DMbvXRA9EfghsAkIGyekiF61gqMp9PleOK83FEztV/LtRzegTxD8q1tjyWgrx+eCXcjU0DaRHRqsdOOcTNLpItHMGRPQJt2sMvlf+e7uFj41pP8kic8yC2CIjjGczwQkwtpyD9tyRUAO4PYgg+a3Z5bOSnLGY+yAMAfO9H4H3a5PJ0lHVscOSkMaWHWKpMwRVe6sdeVwH3SwGUx66SkP9lfgXbNJCm9tjARgfc/VnOjxJufl7+0vdHf2UEgsoUSH/0I7YICK+lkLou8kaDWu9BBsl7AOBG6Bw/ga1TQv5vMSRVAKfjiPEmGAAgPNdf6edlxMYl7LYyRi3ksAwAQhTi6cMqXYf6Sd2qJ8+z+zyRfN6NQOXL5R+L7SxVQxhIU+NWZGTmy1+6xT5wCdM+nqgo3JtC4Fx5yoL3/RxSb/BCs62E/EQIoS9VCK9NQ/40uOcoBO0UEx1wODYPJ055B3H53RlkV3jHq6d8WwlY4IPnhXUo95K4+uogTjk36+4EPL+/jMRsHuqvJhfWSlZSiI+Va9b/bhgi74LLTkeQHC/P51O/DMHjHYX0oOYz+SSPmx9kAAgI3gjDy7rb9uvG3j/vPYrNUFtWO2CSqdmTtA+HbvEhFxsapF8Y4dYml80uT6eqXegqaN43JrX0t9z4rtbWNncDcS33c80PuaBudw1tf8ftFvW2tnF7XtTtS2uNrbU614a28I7ARdS7WtNyH/irtlkUXghqI1/c1ZbyKS0yUN4bOfzFw45YMGc+3Ra87yzsUyedFdNxRJoaUlqcwshEeeRBeGcSkW5/DNUwFfJXM5j5NAW5A26cO8XWNndCEKnZKETOq2zcQLT+FmQ/F/FQnsbIGQGb2y36Plo2u7QdQIXybeXL7/NQ3XGk5Ico/rxddxtrj5D7IgIR6LyttTrVgyRiH6oABETGw5yytkMvxDcmMflnceuM+p2EqdcvoF8MIbnYh/DtBUxf4naLZX0QL1Wec38Yw9Si+XOfG2ZiEH+IOuvuxXK2tiXbZfSQ6vtlQ1tTctr0m5UsfYJXi+c59rBRmN7e5m63+uCItHE/L2mTm9stIqyl/2N2gcxW3E7IdTG1Z/KLtezIViII3xfcxm13a9rdK5tbCXI0up6N5Zua/2S5n4tmi+XMwfmUNnmlOhmQa2hSy3X9Z7RCH2sIXi2aeagVdfHGxtojbSlzUwuf2c4S2QkxHQNp2puS1sKbj0KFoJZSzC6QFekuOqfjWq7LY+nyY3ZBC0p7BCoMpA9kQ45uBYSRf3T7BA9dIL1v1r1H2vS5xoLubraRj2vuffb77WqP05WAcJd+bu2Rdvd933b2Pg5Qbdm+Adn9EM54t3JadELmVk7toN39JCM2HMDMCgAhiOn7M9w2ypBe+ILh8pcPbkL+ztzSdAYVUvCEbqFczSHGtl65vaAuAKnr91ptTM9zp+CpfF18YqFHpKZz4dRA5cs7CvfKr0tBajxWXry5x36/3asE+dMIJBXAuVj9nUx6XfD9+S5yUrC8aH8xhsjnnIYFAD2nI0h/W8TCxxH4z+g2NTgpwnspjlS+COWL8NZiw77j5m97wECa6vsxi6svDyKxiK0gOvw8O0zDjp2CHwCgYukHXp6JDo8A14uVL79RsO9mWf/V5uJYXGk+idg9ABAQfSfEnXZ2KCB/q9LHv9SPvj1e6RoexWhlvdFyvsAbt009Arxv3kRafoji5hqQH3JY+CKK4IAA/LCEDAAgAs8LJpcVDKSpnh8lXD53AclFACfDSOVTDKIP6icFucqXzqe7uy7F63UWytUe+e0USvH85vk0gsdMLLiVlDawudlWz1OmlqQjuE6Wb2OhLqGw51ONdaxtRtpMnlTHMpJjlexzQ1O4eoY1tFMJjUfETjifa2dZ7KiE3Hyq/OUVHzwdkCSOgTRVKT2YwgUxVJ7OMRDFQn6a0zlaQPk2V+lbvXDvlYedqAWUbzKQAQA+eN3mP/o0m/A7H3wAgAxS87ulxwBQWkLuTuU9fg93oqix/tUMJhcBwI34NT9zCdTVg57NXa2+WUJhz9cqUL6pfPlML2/cGlBanKrsFiNi8g8+dMLVlIE0bVmfj8HrHkVWBYTXpvFwPg7vM2aXqrOpc6MYnS1gz/QXP0qIvZctf30+CO/JwygZ2dJqBqNjWah7TXvWtTfhSgQBtjfgZACRK+WwL/teDNKP9V+mzCWRUAFAxOjLYv0XdatSHsmxcpp1XIohMsCwrz43vP9baTvzccRnd79xU2Zv4qYKAAKiQ96OCAo72o8SwhdjyAMQx6c6Zxtes1Y5Hi7u2rGftWxkawWx+OZdrlZvUFHyb220H5cWtIfFte2N5H9+pC1lJrdXIHPXk8Zx1476Hqc0P6BB6NOC4yktp+ja28aa9jDL9rYr/dZaJ/3apPxI2/il8rOfH2kLuuQZ4vtLTJJRY7OvA0Qm5NrPzzktPrCdHMn3/l3t4X+2W9TGfx5qd3XtzXUpvc9uMl3kcVqLf7CgPdraxWRDW1OWtHRNfXVSjGLTQLo2u9weBwNrTdP0nWQTB+tOK2bC21sY7XWc9Gs3l3lpbhgD6fqKaS3YUHsLa9MFtrdaG4Xp7e086x4uzf8xg+gdfl7QRio3IcKVu8yY2Yj/LGhR/X7HdQ9mIN1hc7Bgj89np9UXp3YQHYBwcRrFnx9hKTON6BU/vAO6NexCH7xDEUxKORQLaURO81EoHZDgR2qjuHd7yyxhrTDNBcJ19DwfxnShiJwUR1i3tZbwghfhd6axUHyE9JtuzlWtsfx5DFMqAPgQv9YZ81I73jNexGUFxXwK8UteeF/YnlHuGqi0t8cKFsY5paPKU71w1b2OLuDRWvnz2Wn15dA0TTO7EEREREREVsMRaSIiIiIiAxhIExEREREZwECaiIiIiMgABtJERERERAYwkCYiIiIiMuCpVv9Ch8PR6l9JRERERNRxOCJNRERERGQAA2kiIiIiIgMYSBMRERERGcBAmoiIiIjIAAbSREREREQGMJDuUGfPnjW7CJbC+qLDwHbWHNYXHQa2s+awvlqLgXSHOnv2LBt7E1hfdBjYzprD+qLDwHbWHNZXax16IK1pGo8GDqDc2M0uh1UO1lfz9cXPpbF6YztjfbWzvvi5NFZvbGesr3bW1144Ik1EREREZAADaSIiIiIiAxhIExEREREZwECaiIiIiMgABtJERERERAYwkCYiIiIiMoCBNBERERGRAQykiYiIiIgMYCBNRERERGQAA2kiIiIiIgMYSBMRERERGcBAmoiIiIjIAAbSREREREQGMJAmIiIiIjKAgTQRERERkQEMpImIiIjaYVVCwOGAo+pIIG92uahlGEgTERERtYH6TRqQitA0bevIjcfgcQQgrZpdOmoFBtJEREREbSAMp5EeFqrOiddziCOD9DeqSaWiVmIgTURERHTIMiuK2UWgFmAgTURERHRYFmXEAPhPuswuCbUAA2kiIiKiQ6FCuhED4EfgJWHfV1PnYyBNREREdAjU2QhCc4BfSiJ4zOzSUCswkCYiIiJqM3U2AGcwA4zndixAJOtiIE1ERETURvogWrsuml0caqE9A+nS/Ricuk3EL99ZP6xytV5pHcqDLKRPYrj66iAGxRPVG6Q/58Hg7y9j9BMJ8vfrKJldXqIusv69DOnDqwj83oMTW59LJ055B3H53SSk+wWs/2p2KTtVqVx/m33bi86qvs354iACf5yCzD1riUyxGUT7pSKDaBvaI5AuITc/A/0uhzNfybBWKL0O5V4SV185BeeRozjhvoDQWwkk52TIizXbzqzkIc/PYOqtEAb7jsL1YghT97nHI1E7lb6XMOo7gaN9gwi9m0RmPo/tT6aKwn0ZMx9eRch7Ckf7LmB0tsCb3E2/qsjfGsWF546U62+zb/uuut9Sv5OR+dso8l0QSKuzgZoMcq04mIWOjNMH0ZzOsTfl88Htz92EdT51uwfSpRyyfyl3yL7zvvK5WylkrdQZr2Yx6ruK5FcFNBsSq99JGPW6MThmtZsHIisooXDrMk71hTB1r8G9VFeymAqegvetLLp999X1fycR6HPC8/oUsitml4aI6lMh38kAADJBZ52bNGY33KZAviObXQhDdg2k1+czmAIAhBH+IIwwACCD1Hw3XcJUyBOD8P1lmaNgRC1TQuHzMLyvzxgKiPOfXMDg65kuDaZLKHweQt/vriLDAJqowwkI3taq0oNXH2nu3AEAWEf+L5cRu2d2OYzZJZBeh3wnWf7yih/eF7zwXSp/m52TrXkBE/rguxLFdGYBS8oa1n6ubtAba2t4lE8hPrRzg/T8ezGkeNEiaonS4hTCf5CqnxIJXoQ/vouHxTVsbH0uN7CmLCH9gR+1n0rlVgSxWUv2RAeizIbhra07AK7zEdzM5Mr194uub/t5DY+W07h5xYceU0pMRLRTaX0d6z8uIzs7hcvePnjek5ueOdAp6gfSP8nI3ip/OXLRi170wnsxUj5xT4JsmaCyB0eH40jli9goPsTdT+MIX/TC/Wwvep+ueWVvL1wDQURvP8KjvwdRPZMpC+l+9120iVqulMfUlVj1nNOBKBa+XcD0mz70Cb26gK8Hvc+64X8njUfFu4gO6N+kQro2hexPh1TuDlBaTCAUrAmiT4YxvbyGR9mbiFwUy/X3lO7nT/fCddqPyKd3MTIA2xOG03uM/jV6LGGyC+qK6PCpkF4tT2s5cvQojrr6cSE4ihmLr0erG0ir8ynMAIAQhe+l8mWt95wfIwAAGcmvlg+rfAdzzI9pKYrggNDUaIzrtRnMvFl9Tl4ucK400QGt35tB7IHuhBBEajYO7zP7vFHwIT6bQlB/h6smkfyqS25w69yACGfiyP1rGuHTvaYVy47U2ThGF7e/d4974TavOETU4eoE0gruflmeHC9c8sKzGYH2eOB7p/zl8t9lWCSUNqgH/aK/+tRP3BKP6GBUZGdnqs74xuMIPtvg258NYupG9ecy+3HG5n1RmfJlvPoGZCCOzD+iEBlDt9YTGZPXMroTfoxeEjkthoh2tTOQXpGRuQcAAsLnPFWPWT3no+UpDw9SkB/seKe9PdPLzpToIEoPsTSnP+GF/8zONQl7ES5GENWPSndDX1SSMTOW1Z1wI/rhCMSnd30HGbT8eQxTuqfM4o0YF4MR0Z52BNLKfQlZABCu4sKZ6tCxR/QiLADAMia/ss4ef0YUV6sfGft+1wcO/hAdgKrWLFQWcepkk7+jpx+ei/oTy1j6wdrz6/azfk9CQv9PvBTD6P/wtr7lViXEr+mua8II4m9wUgdR6+yxi0k+bnbhDKsJpBXIc+V9/NzXfNiRf6fHiwt/LA8HqZ/ehWzXuQ5PZKRu6B4YCxFEXm5u5MyO9kp2EJi1dzBDLaAqyFSdOGLgl/Siz+2tOiOvFA9QqE63jty8fjqMgOhrPt7Ut1wJ8scjVe3T934EXjuP+i8mDPbdeSS6MXkN64t2UR1IP8ggOQ8AboTO1b8TF89dLU/vUGcg520YSa8vYyoY0j3eExC8MQLffouhukYcuTp3k8zYRIflSG91W1MfF+27ELi0BPlv+hMheEWORrfcgyRiH+oCpNNxxIZtPHiyKiEgxg70K/xSsc7IYnTnAJwdsL5oD1WB9PJ8qrJwZxmj7l3uoMRYZfslFYl7OXsswHuyDuVBFtJEACeO9mP0q80OVUDwMxkzdu5QiQ6L4EL1UsEi1gxEwMLxU9Un7LwQ+PtlVOX6es2DU5U4urS6jMytUVz+/SBOOfX99Al4fh/A1bEZZL+37S1GC6mQ3h/VjQwKiIxHYN/7FRXStRAy43FY92H6YWJ90d50gfQyZKnJ9e8fZiBbsp+uedTy30dxwn0BobHtbGnCmRGkvi0g9UYfFxkStYIg1CRWSSO3bNsQuCXWHyvVu5I850TPdxJGfSdw5Hg/Aq9PYWZeRqHqabOC/HwGyYnLuNB3FCd8o5C+Zz3vpjQ/iRH9ItjzcYy8bN/JM/kJJ0JIoXjdu/+LifVF+9oOpBezmHwAAG5MLu+zYf3yZGVfzSSy31gykt7dpZvIFdZQlCcRfMG+nalxMXj0NyGv7syyRlRXzyn0D+lPqEh8mLJmptRDsqYWqr4X/h5C34shTN1rvNaUe1MI9XlxtVv23G7KMpJjU7o+TED0ndCOTJp2oc4G4BmLI3e7NulY8zJBZ9XT6sTi/u+xGtYXNaISSJcg/+NmuTM5HYL39D7vOu1FqPKa5B3ZXvMTb12F5+UQrn6YwXIXZU1rxM6sYTnE50JwcsEENUSAbzhcfereZQy+LkH5tcFfUVKRzaRbXrJOpapy9fcrisEb1zySr4SQWOTItF5t8hUMTeHqGZs+g1xMwBkEUo8POi9XRLRmcK0o+RETbbbonPVFDSoH0qUc5Fvl/6HeP/obyOLkhvd/K6+6lYVst4BzJYvkuwH0//YEAp8s2+tGoaVERPNxADHIvLumBvSejyBek35ZuRXCib4AErMyCuo6Svqg+tcS1tUC8ndmMPq6ByeOOHHhw25IwQIAJWz8XO+8gL7hEUxncnhYXMPGL/qL9AbW1h5hKXMT4TO1Y2h5xC6OdlVa9T3tSL4iYvK9g488dqTKYjm/lGzLvtjCcBKpISBzR7bHE0rWFzXhNwBQ+iZb2afUi2CDCRLcZ0KVgHsGqXmrNYXaO8QNrK0V8VBOIT7cp+tIFWTe6odvIm/fxUwHNeBFHMCSYrU2QKbocWPko/jOEZ6VDGLBQZxyHsWR/9JNHfqvIzjqPAWP/zKmbuXrTwPpsekIItah/lh9xn0lhaX/FPFQmkT4oog+oRc9T+lf0YPeXhfcFyOYlgtY+HNNTatJxG51y43I3mqTrwjvxBHZ72msRanfpJEZz7VxdyUB3ot+YE6xxVQt1hc14zfAOuQ7U+XvzgfhbTRBwmk/IufKX2a+vGvxxtCD3l4BfWeCiEoPUfhn9aOc/JgfsXmG0nWtKlgyuwxkKT0DUWS/icNr8BolCDVvfM5pz1HEOlwveeFueCvOXnjfTyH1WnXtLEtyV6RV31Nt8hX4EP+D194Ly8c8NbtweRDD9tzdg87ZVVYy+7/ISlhf1KDf4CcZmco+pb4hbxOLLFzwDlVWsd7LQF5pQ+lM0nsujtRnPt0ZFVMfcVFUXasKMvAj8FK3hDLUCr3/E8XC8gImhxrvcYQzYdyUi8h94Kk673+WbW93LgSvjVZP13uQQ+FHk4rTEXYmX3GPxxBqNsumhexc31JZ44Lt/Y2jA/v+mj2oUL4FMO61xb7IrC9qxm/wjB/TlYZy91Jza5VdbyxUGthdhG3WCbkuhlG1LOqeZKubheblkahdVLi5Sf34aFvmkZHNCV6M3H6EtR8WkPp4BOFzXvTpY2KhD95zYYx8nMJCYQ1FeRqRMwLUH6pHcvpcdt1jQYDrxRb8mtMe+KpOZNDVM7Fqk68IEcSviPYejW4hdTawY5FcfsKJ0JwfqUsMC2uxvuzvqf1f0qWecUM8B8zMb56Qyxcfm90wNM4F11AMHkd1die/VITGrIZ0AL0nvQi+6UXwzUZevYzcV/rvI/C80J5y2YcLp4YAzO37wi5Qm3wFEN8NM3NtEwRXPzKiE46g/mwcOWbpq4v1ZX8MpHd1BEdqtpEuPFaBrpmNWUtA8LaG4P4vJGqflSVkH+i+H/Kg38bbvbtO+gHdJITMioLu7YMObkfyFWEE8Tf236fKnsqL7ps2EIWmRVtfnI7H+qL6frP/S7rVBjZq9r3r4W0HkamW7ySrUmb7zou2DiuF5/qr/33LRlb5F1H8oWVFsrDa5CuA/8YovE+bViAisgEG0rspKSjMV586ddzOl2yiDrcqIf6ufr+JMMIv23V+dMVJNwL67++kkV9t8nesF6HoR/ERRN+zBy2Y9exIvjIwiRinpRHRATGQ3kXpmyxSVWe68+JD1BkUSO/V7rTQBXNbez3wXtKfyGBytrnN69bvZ5DUnzjdD1e3xY87kq8IiLwXbiD5GBHR3hhI1/Mkj/i71Y8AMXQBnm67+BB1BAXZt0IIfdmNOy30wjsUqZresfxupPFU30/ySH4wU3XK91Yj2WvtpTb5Cs7HMfKyjSfXE9GhsW8gvSrhsu8qkvcKWG8ml8pPMmKv+JGoehQqIHrFb+u5mEQdSZWReMWDC5/o91kQEPw4Zv/R6Ire82GMVu1Zm0fsYgBT/17f7S1lTwqY+aMfMf10BiGCiN2nw9TakXzFjfhYqImcCUREu7NvIA1g7V4SV32ncPSIE6deuYrYrQzkBwrW19erU34/WYfyIIOZdwM48dtBJO5X7/kovJbE1TP2H/siOjSrGVwOJiDdL0B9ov9BCevrCpbvSUgET8HpHETsq+rPoziewcxQN93WuhGpTauuZjH6uz4MXpuB/L2K0q/bPyqpBcizCQTcp3BZP4rfZTcgZTuTr+BSDJEB9udEh0+F9KqjJmNk5RCrt9bdmVly8whAanadSJt1yT4UKgpfJZH4KolEs28diCPzKUejN+UnHPCM6U4MpVC8HWT97IL1tZsS1mZjCM3G9n/pFgHe9zO4++dumNJRrWdgBFPvy/C/J+umnKmQP7oM+aPGfkf33YBgZ/IViJh8yw9O6iCiVrH1iPRBCS9PYuleFCK3R8LmnaTn2xSKWylTi0ghBGdtxkMC66vFBC+i2WUsdGEQXdYD8c93kb3hM3ATJsB3Ywny9W6ru53JV4R34oicNq1ARGRD9g2kj/kwKacQvyQ2PxfupA8j0kMU/jECN4cuylZlpOeA+DX9aKqA4I0U/IhBXtzjvd2I9dUaQh+CHyygqCwgfr7LRlN36IH77bso/Gsa4TON1YVwZgSpbwu4+7a7y4LoOslX4MfUW96uqwciai8bT+3ohetMENEzQUQ/K0FdWUYun8PSv3LIrxShzOd1iQ1cEM+50T/gg9fvhe8FF5Ov7GJJUYGBbg9oGsf62sXTLniv+LG+vAx5UZdi5KQIr+sU3OdEeM7xs1hP7/8LY1oOIf4gi7tSFtK/c3h4v1CZ8iGg78wpeP5fEP7XA/A9370jAT3nJlHUJs0uBhFtsWeG5O64RD3VA+F5Ef7nRfgvjZhdGms65kVgCAgFnXCs5KBdLy99yt8KITOUQnJgn/d3G9bX3npFRD5NI2J2OSyrB8JpP8Kn/QibXRQioi5m36kd1GLlO8mi5K9aTetBDhoXz9XB+iIiIrI7BtLUsPyEA847gcriuRziQDlIfFWqTl5DAFhfREREdsdAmhqzmIBnzI/Ujc3RVBFRTYOWjwNzIURmGRpWYX0RERHZHgNpaoiqLAHoh+tYzQ8GwkgNAZkVpd7buhbri4iIyP4YSFMTlqDsyCikQJmr91pifREREdkbA2lqiDA8ijgyCB2vTiaSn/Aghjhy18Vd39uNWF9ERET21x3b31ELlOf4eicc8Dh0aZ2HUihq3IViJ9YXERGR3TGQpqaI1zVo180uhXWwvoiIiOyLUzuIiIiIiAxgIE1EREREZAADaSIiIiIiAxhIExEREREZwECaiIiIiMgABtJERERERAYwkCYiIiIiMoCBNBERERGRAQykiYiIiIgMYCBNRERERGQAA2kiIiIiIgMYSBMRERERGcBAmoiIiIjIAIemaVpLf6HDUff82bNncfbs2Vb+KSI6gK+//hoA+Lkk6iD8XBJ1nq+//nrrs1nrqcMsBMDOgagT1HYK/FwSmY+fS6LOs1cQDeqx54wAACAASURBVBziiPSmFv852/rrX/8KAPjTn/5kckmsgfXVnNrPKT+XjWE7aw7rqzn8XBrDdtYc1ldz9otrOUeaiIiIiMgABtJERERERAYwkCYiIiIiMoCBNBERERGRAQykiYiIiIgMYCBNRERERGQAA2kiIiIiIgMYSBMRERERGcBAmoiIiIjIAAbSREREREQGMJAmIiIiIjKAgTQRERERkQEMpImIiIiIDGAgTURERERkAANpIiIiIiID7BNILybgcCSQN7scZE9sX0RERFTDJoG0CulGzOxCkG2xfREREdFOT5ldgIPJI+HwgCEOtQfbFxEREe3O4iPSIqKaBk3TUJT8ZheGbIfti4iIiHZn8UCaiIiIiMgcDKSJiIiIiAxgIE1EREREZAADaSIiIiIiAxhIExEREREZYPHt74jI0krrUL7PIf9NDrlv8ig8ViAvKts/PynC6zoF98te+M754Hm+Fz3mlZYsprSuoJDPI5fPQV4soKjIyK9s/lRA35lT6HtehO9cABfOuyGwcdEBlFaXkZ1PITu7jIdVbc0F8Zwb/QM+eP0X4DstsB+zEQbSZFhpMQGvGNNl+4sjp0UhmlgmsoJ1KPdSmPpbEumvClD3eulKHvJKHvL8DKYACC8EMfrxFEbOCIdUVrKcdQXZL6eQ/CyN7Hd7tS4VhfsqCvdlZP6WAOCC/4NpJN/2QuCVkZqhyph66zJG55RdXqAgP68gP59BcgLAST/iH8QxcrGPAbUN6KZ25JFwOODY43C+OIjB10cxc0/Bunll1tkuszOYARCDp/J9YtHsstncjxLCF2M2T5nN9tUWq1mM+q4iuV8QXYf6nYRRrxuDY3KH9EHUadR7o7jwVnKfILoeBZl3B+F8KQb5p7YUjWxIuXMVHufgHkF0HSsZxPyn4H0riybeRR2qqTnS6ncy5FtTuOw7gb5XprD8pF3FatR2wozaIzpgdtlsbD2PxHAIUrPXKcth++pMKuSJQfj+soyS2UUh+1lMYPDlBPKmX9+o0ymzIXj8ScMDSvlPLsDzv5mmBxSos9QPpMdzdYKHDawVl5B62wsBgPrVKHzvy7yQdZsneSTOexDjiCy1gtAH35UopjMLWFLWsPZzdb+zsbaGR/kU4kOuHW/NvxdDaqXO7ySqEF7wIXJ9Gml5CY/W1rDxi659/bKBNSWH1LgfO1rXYgyRj/K8vtHufpQwGpRqgmAB3jduIr38qLov21hDsXAXN6/4drQ19csI4l/x+ZqVNTEi3YNewY3gjWnEz5fPqLfyKLSnXNSRFEh/9DOIpgPqwdHhOFL5IjaKD3H30zjCF71wP9uL3qdrXtnbC9dAENHbj/Do70FUz4zOQrrPB6NU6yj84ynkHm+g+O1d3BwPw3/GDVdvL3r0c5+f6kHvsyKC19N4pKQQrJl2vzyWgsz4huoqQf5sBBn9KcGHyX8VsPBZBP7Truq+rKcXwvM+RD69i4eF6Zq2piL5SZpTPCzMwPZ3LpzaXE2mgnfsXaOE/EQIoS83778FBKUUoqaWiSzpmB/TUhTBgeZWrrtem8HMm9Xn5OUC50pTFWF4GunrQYjHmmhdzwYxMxeFu+pkEvK/eIWjepaRv1U9Fu2/MYOR/9e77zt7ng/vbGvzWeR/bGX56DAZCKRL2Pi58qUArjjtCiUUPg/DP7Y9E0wcz2Bm2IUjJpaKuk0P+kV/9amf1nkzTy3R8z8BhE5Xn1N+4m0a1bGqYKkqjo4gfL7xnYR2trUMFE6UtqzmA+knOWS/LH8pvuuruYMnO1Jmw/D+YXsumDieg3xd5E0Ume8Z7itNreJCH/fuJEOcOLr/YHTV653PtassdNgaD6R/LUF9IGH0lRCmVMB1KY3U2wyj7a60mEBIt6BCeC2FFINoMklxtXomoe93fWjq+kW0qx70PL3/q4jwVE/NNVDGwwMtfPbDdexAJSIT1Q+kxzw795H+ryNwukOYuq+i740U0h/UWencrRYT1XU1YZPdlWv3ih6II/NpkP/fD5td21eznshI3Vje/l6IIPIyW6M6G9h17//ALJ8XN64ItSYYcj7NIYP8xO65JQztp2+H/kxwob9qaoaM5N+b2OWl9BBLc7rvz/sgdmkgbYf2ZWCONFD4PIT+3zqZFAGVRiACOf1Wgddt8Hzwxwwun9PtFT0Qwd3ZKESO2Bwq27avZq0vYypYfhpWJiB4YwS+Z8wsVCeJV7eRypEeZgbIhq0XkLujP+GFu4/POwAAQykUW7Cfvn36Mzf8b/mqzixP+BH4aLmhmGj9noSpre8ERK4EunuAyuLtq4l9pCt7SSs5TL/thVBJitD3x2zXBtPqbACeMRumxX6SR2I4gJnN0RkhiNTsTfieNbNQ3ce27atRT9ahPMhCmgjgxNF+jH6l2zHmMxkzw1196aEWW7+fQVJ/4nwQ3pNmlcZ+7NafuS7dROo1/Y2qiuy1fvR5RzGzqO4+Ov2jhMgfZ7a+FV6bwsjLvGE7KDPbV5Mj0uV9N8M3FpD7rHw3pv4thuRiN66bz2MmmIFfCtuiU9hWu1e0iPidGQSfNbFIXcmu7Wsv2ynZHQ4HHP99FCfcFxAay2ztsSqcGUHq2wJSb/Rxnj61TimP5PhM1anwG10+SthSduzPXAh+msXky9VPfdT7U7gsOnHkuQu4+kkWBX26+R8zuKrLCiyc4XTJ1jC3fRma2gEArqEIIgCAZdy834VpWVYVLMGPAGZq5vUEIK2aXTij1uvvFT3AkOXQ2bJ9HcClm8gV1lCUJxF8gaM3O8Xg0beTV2szrtHuSsh/OILYA92pgUlELrKdbZkLwXmQead27c+edmPkHwUsfVxnzdhKFsm3LuDUbx04IV7G6NhleFwBJBcBQID37TRy/+R0SQCWb1+GA2n0HoWz8qVaULqv015VkEEGoRVv1fSX3HgGoeNW7BxKyE/44NnaK1pA8O85pPj43By2a18HdOsqPC+HcPXDDJZ/2v/l3UQYTtdMwcshPheC05GABZdxHTpltnqPfEDE5N9GuLVrhXi9Zorn4xT8Y57mbtZs3Z/1wv3mDNI3fLu+QlmcwdTETOXz2IeRfyxj4YYfrqd2fUvXsEP7Mh5I6wm9XbcFlaosAfAjdan6QYJ4PYc4MgjdstYlrPZiIo5nMPMag2iz2K19tcRKFsl3A+j/7QkEPmlsUU93EhHNxwHEIBtZ9d5Farf33HwKN3J6jzd1u2NBJCU/MJeG3GCAYuf+bP07CVfFo+i/lgVQnn42Ld1E5OU+1F/qW8DUK24MXpNQYCe2kwXbl/FAeuUh5MqX3udcXTdfUXD17/ITF1xDAL61zig994ruPHZqX40TEa1d3LxWxEM5hfiw/qKkIPNWP3wTTWw31W0GvIgDWGK6tF2VFhPwirGqUfvNjK20N+GlAPzIQGkw0LFrf6Z8dRW+F0OV6RqA+OcFFORJhIcjuPmPhyj+/AhLmZuInK9tUyrkj0I41TeIxP8xmq5ltfZlMJBWII3HKoG0D8Ez3drxNP4/unMtY0q3VzQXP3QSO7Svg+hBb6+AvjNBRKWHKPyzejV2fsyP2DxD6bpWFSyZXYYOVlpM4MLF2iCaGVsbtqog0/Sb7NWflRYTCL2S3GpD4ngO8vve6qfzT7vgvhjBzewjbDze3PFMR5URe8mHRFdu2LAHi7WvpgLp0vo6lEUJiVcHKwvSBASlmwh34xZBlRGf2HztIwMFyhzgv+jd5bFOpylBf6um3o/B89+7b5BefXgQq/pdNQuerLrZfiewTftqnd5zcaQ+089DVDH1UQrKru/oYqsKMvAj8FK3tZL9rf9fOYiWdf2eOJ5DlkF0w8qP0uPwNrrPr936s1IeU1d0N2Kno5h6e+/203OsvOOZUkghUlVvecQuhpGx0U3GQVmtfTWe2dDhwJGjR3FCDCE2pwAQEZG6eS9XEWHJD4x5dNl3VEivehBDHKNMhEAHwvZVj+tiGGH9iXsS5AOl5rW6PBK1iwpXJQTEGDA+imCXZkvbzfp8DL6X9EG0AO/75ZHoblvn05BVCYHaRV+LCTib3mrMXv2ZMhuv2uXF91a44d03ep4P4uZ8DnF9kKhKiM8u7/oe27JJ+2puzajQB++LHriH/Yhc9MHV5T2PMJyG5krAITq2R2aHUihqQWvdXVNHYvuq4xk3xHPAzPzmCRmKCqAbn4oBKM8BjMHjqH425JeK0CwWnLSbMnsZg8EZ3RMMAb4bWaTfdnMkejfHXOif88DpCFWdjuebzzpnn/5MRf5eVve9G153kwOKT4uIvBtGzL+9d/myJGP5HXd37RZjk/alC6TLC32ibf6DtjMQhaax1qhN2L5qHMGRmhv4wuPyNLPuJCB4W0PQ7GJ0tHUsfxSC71pWN/LlQlhawHTXPlFtVIvjAlv0Z+XpAttccD7T/G/pfVGEFzNbmzbggYLiOuDuqgFKe7Sv1mx/RxZWu1NCM0cO8arfFa/OcX9Iee6pm2xgo2aRew/3YqXd/KpAer0f/fogWvAi+s8lBtFkTKsW8vYcqZlOVMT6k1b8YjpsDKSJyDpKCgrz1adOHe/W0Wja008yYr/3IHRLtxz1ZBjT9+8ifq6rhv2olY650Fd1IoOlgoFdN34q1iyUdqKXWQ4tiYE0EVlG6ZssUlVnguh71pyyUOcqfT+D0IuDSNzXpVo5E8VCfhrh5zkjmg6iB0drEvak5nNN72mvLMuoWl542gUn7+8siYE0EVnDkzzi705Vr/AeugAPB6RJR7lzFd6+y5B0DcV1KYXcP+PwGpjLSlTNDY+/utNRPxxF/P+aCKWfyEi+l6065Q56u2uhoY0wkCaiw7Mq4bLvKpL3ClhvZgjnJxmxV/xIPNCfFBC94u/aZYZUx78T8PiTuu0Ay9vbLX0RhItz6alFxJdHa7ZmW0biJS9i9xrIn/eTjNgrIUxVvdSHyEWG0VbFQJqIDtXavSSu+k7h6BEnTr1yFbFbGcgPFKyvr1c/Hn2yDuVBBjPvBnDit9WP6QFAeC2Jq2f4mJ50fkVNKmAV8nseHG0owdQuR+0+t0SnI5i6Xhv45pHwOXHi1QSk+wWo+oWDpXWo38uQJkI49eLOvkx8P45Q127haX0WDqTzSOzZAdYkKSBqSme0r/xE9d8NzNrpkq6i8FUSidcDGHSfwNGjR3FEX8f/fRQn3AFc/jCzM3vhQByZTzkaTWQl9unPeiC+m0T8zM4eSJmLIeQ9Bac+Q/CRo3D2DSI0JqFQ8092XUoj9WfuZd4KZrUvCwfSu23bVkRqCMCQC9zciIwzu32pkF51wPNtCsXNv/04BQSdXZ92XXh5Ekv3og1nEiMis9mwP3taRPQfWdwcMnolEOC9voClL/yMVQ7M3PZl4UB6F4szCM0B8WtWy5ZElnBY7WtxBqE5P1I3dH/nWBDpfBwYm4S02s4/3kbHfJiUU4hfEpu/eJz0YUR6iMI/RrosaQGRxdm1P3vajcjtJTyURuBrYmqGcGYE0/8qYGHcy9T0rWBy+7LZ8gsV0o0YMJRCuMn0kmREt2XDPLz2pSpLAPrhOlbzg2Mu+BFD+hsVQUumgO6F60wQ0TNBRD8rQV1ZRi6fw9K/csivFKHM53XTOFwQz7nRP+CD1++F7wUXk6/Q3myROc9+7NufAUAv+oYncXc4DvVBFnczMrKLBRS+lbencQh98L7ogftlL3znfPA+z/C5lcxuX/a6LK3KSM8B8TxHo6kNDrF9KSsZAP07f3DMhX4AsRUFlk+L/VQPhOdF+J8X4b80YnZpiKhNuqI/Qw+E036ET/sRNrsoXcbs9mWrqR35WyFkOBpNbXKY7ct10g9gCYpVH3kSEVWwP6N2Mrt92SeQXpUwOca50dQmh9y+hOFRxJFB6Fr11lvq7CRiAPwnuTyFiKyB/Rm1k9ntyzaBdP5WCBnE4eVoNLXB4bcvEVGtiBRCcOq284kggDiAfhdvF4nIKtifUTuZ277sEUhXRgv9Urgm2xBRC5jWvgQEb1dvv5d2KYjBv3NRBRFRR2N/Ru1kXvuyxWLDzdHCnGVX/VIn66T2lZ+PAeM5BHnhISKLY39G7XRY7cv6gTRHo6mdOqZ9qZBedSKEFIq32dKJyMrYn1E7HW77svjUDhXStfJo4WgHjBaS3ZjbvtTZgC7dqRPpi0Vot7mYloish/0ZtZOZ7cviI9LlOTFBs4tBNmVu+xKG09CGTfrjREQtxP6M2snM9mXxEWkiIiIiInMwkCYiIiIiMoCBNBERERGRAQykiYiIiIgMYCBNRERERGQAA2kiIiIiIgMYSBMRERERGcBAmoiIiIjIAAbSREREREQGMJAmIiIiIjKAgTQRERERkQEMpImIiIiIDGAgTURERERkgEPTNK2lv9DhqHv+7NmzOHv2bCv/FBEdwNdffw0A/FwSdRB+Lok6z9dff7312az11GEWAmDnQNQJajsFfi6JzMfPJVHn2SuIBg5xRHpTi/+cbf31r38FAPzpT38yuSTWwPpqTu3nlJ/LxrCdNYf11Rx+Lo1hO2sO66s5+8W1nCNNRERERGQAA2kiIiIiIgMYSBMRERERGcBAmoiIiIjIAAbSREREREQGMJAmIiIiIjKAgTQRERERkQEMpImIiIiIDGAgTURERERkAANpIiIiIiIDGEgTERERERnAQJqIiIiIyAAG0kREREREBjCQJiIiIiIygIE0EREREZEB9gmkFxNwOBLIm10OspX8hAOOCbYqw/i5JCK9VQkBhwOOqiMAadXsghEZY5NAWoV0I2Z2IchuViVMjpldCCvj55KIqqnfpAGpCE3Tto7ceAah4w4kFs0uHVHzLB5I55FwOOBwOBGaM7ssZBuLifIoyfEQMmaXxZL4uSSi+oThNNLDQtU58XoOcQBLimpOoYgOwOKBtIho5Y62KPnNLgzZxUC0MlJSRGrI7MJYET+XRNSEVQVLZpeByKCnzC4AERERdSsV0rUQMkMpFGtGqomswOIj0kRERGQ5W4sOnUhfLEK7HQTDaLIiBtJERER0uI4Fka5MAUsiwp07yLIYSBMREZFphOEkUkMZhG5xo0yyHgbSREREZL5vFXDfDrIaLjakukrrCgr5PHL5HOTFAoqKjPzK5k8F9J05hb7nRfjOBXDhvBtCj5mlJSIi61KgzAEYd3GeNFkOR6Rp27qC7CdXceFFJ44cPYF+XwhXJ5LIzOuDaABQUbgvI/O3BC77++E8cgKBD2Wov5pVcCIi6nwqpFd3zoXOT3gQgx+pS6I5xWqSOhuoyczYioMZYK3K4oH0ZuIHB5zBDIAYPJXvmSGpeeq9UVx4K4nsd80+XFOQeXcQzpdikH9qS9EO12ZCls2EImMednRN4eeSiOoR4L0IhI5XB5GesThyWhrBY2aXj6h5Fp/aUU78EDW7GFS2mMDgy0eQm49CfNrswhzAQBSaxlZlHD+XRFSfMJyGNmx2KYhaZ/cR6V/XUbg3g9HXBzH4onP77vE5DwZfvYrYrQyWV0uHWFQ6TMILPkSuTyMtL+HR2ho2ftEq2f40aL9sYE3JITXuh6v2jYsxRD7Kgy2DiIiI7K5OIF1CYXYUg8eP4pTvMqZuyZD1j/pX8pDnkki8HkD/8SM44RvFzL/XD6/E1EZH4R9PIfd4A8Vv7+LmeBj+M264envRo3928VQPep8VEbyexiMlhWDN6pDlsRRkNgkiIrIhYTi9PbBk+FjC5IDZ/xJqhZpAeh3ye16cCk5BVgHhTBg3sw9R/Fn3P//nIh7KKcSH+yAAUO5N4fIHWW5ZYwPC8DTS14MQjzWxBcezQczMReGuOpmE/C+OSRMREdWjzsYxqlsz4h731lxHySp0gXQJy3/xYfAv5eVU4ngOBXkakfN9EPTzXZ8W0HcmiKj0EIVvpxE+ebgFps7T8z8BhE5Xn1N+4pA0ERHRDk9kTF7L6E74MXpJBHeRtabtQPpBEpH3ykG08FoKqesievd5c+8LYUwvL2HyJP/3dzcX+qyxaxEREZGplj+PYUr3GF+8EeOOJRZWmflagnx7srK1lx9T7wd3LiLbzdNujLzPBxLdrQc9Vt6lg4iI6DCsSohf022kKowg/gZjKCsrj0iXcsj+pXJ7dCUMH++MmrO173DlmOi23YaLUFeqzzif5lOK1tven9lS+1pXPh+B2WZXUtT+ey34bzeC9dUcw/XVnfITDjgcO5Oi7GevJCTG6t6i/dmBlCB/PAL9pA7f+xF4u3ggqtwe6x+G8g6YEI+VA+nvlyFXTvhf6t93Sgdty0844BCBnH417vUum+ewXkDujv6EF+4+tqKWWkzA4fAAef2q7yg6vqWtSgiIsQP9Cr9UrLPi3QL/diNYX81pQX11E3U2AM/YQX5DvPpaVznSw00m9rZqf3ZQD5KIfai76TgdR2y44ef/9jWUQrFOu4o2uauJWfHYbwBg/bGC5cqJfhcz3Teq3CnFkeuGDmAP6/czSOpPnA/Cy0WorVMJFuL55jsWc6mQroWQGY8jbnZRLIH11RzWV1NWJUSCGcTHTa4ty/ZnB6VCen9UN+ouIDIegciHty1hZjz2GwAoPSke8p+1gzxmghn4pXBXB9Eo5ZEcn6k6FX4j0Pgce9pX/lYImaEUwha76OQnnAghheJ1r9lFsQTWV3NYX83II3E8BEhFRM+ZXBKL9mcHVZqfxMic7sT5OEZe5pPb1jA3Hts9syHtbVXBEvwIYKZmXk/zc8+sq4T8hyOIPdCdGphE5CI7h9ZRoXwL+C8CMy2Zl3g4tkYHbgdx0GdcmaDz4PPmOhzrqzmtrC/7UyG96kFsPNf8FIwdYvDo+6FXpSZzSFizPzu4ZSTHpnR1JSD6TogDTpvmQnAeZF6zyfHYbwCg52ln+/+S3awqyCCD0Iq3ak5PbjyD0PHuCKaV2TD8Y/oGL2LybyPcVL6lFChzQCaowKuf95WPIxN0dubFZzEBZxBIPT7oIzYR0Zo5c0XJj5hos4su66s5Lauv7rA9cn+w2tqZzS+H+FwIzqYWCVqwP2uB2uQrGJrC1TOc0wEA4vWaudGPU/CPeZq7STM5HvsNAPQ6nVt39Q8f27Mht5qqLAHwI3WpunMSr+cQRwahW/Zef1xaTCAUlKrusINSCiOn93gTNW9VwRKw85HVQBS5cSATnOmsle6V+Y9+KdmWfVGF4SRSQ0DmjmyPbKqsr+a0ub7spjxy70fqRjtG7kVE83EAMciNPvWwWn/WCjuSr4iYfI9PUnZ1LIik5Afm0pAbDIDNjsfKUztOuhGonJDu5cCcdPsTXP27/MQF1xCAbxV7XLjqKC0m4BVjVR2eOJ7BDFcft94xF3ZtaSf9AJagdNDTD/WbNDIteYS8GwHei35gToHSpr9wmFhfzWl/fdmJCvlOBvF8un03HQNexAEsKQ1e7SzWn7VCbfIV4Z04Ihxw2pPwUgB+ZBpuC2bHY+VAutcD35XKmVszSK/s/gbSa/x/tF2UFhO4cLE2iM5Bvs70pu2UWbFQGDTmqZmn5kEM23N3DzpnV1nJ7P8iK2F9NafN9WU3MbFmf14xBiCD0PEW7N1cGWFulqX6s4OoTb4CH+J/8PJauZ9VBc33WubFY5XFhr3w/m+8Mrc1i9i41PjoxZMCZv6Sse3o664qd+Kx+dpuqDwHzH/Ra7tHN+v/Vw6iZX1q0/Ecsgyi20iEdxzAmLzjgqesZIChALwd9Ih75zzKylxKbO9vfLAtr8qLlTDutcX8WNZXc9pfX3YiIHh75968Wj4OwI/U4xbs3byqIAM/Ai81erWzVn92MDuTr7jHYwhxa9h9ladqxOFt9LNscjy2tWtHz8AIkuPlj5T6ZQih9+R9p3isfyfh6rlTuLxcamMRO5WIsOQHxjy6EZDK6mjEMWqzR4/r8zH4XtIH0QK875dHorlHR3uJl1LwIwaPbiXzZmKF+DX7zrVTZwM7Fh/lJ5wIze2cC0esL2qnPBK1o9ebyXDGR5uaOtI1/Vlt8hUhgvgVDjpVWZUQqF1UuJiAs+mt7MyNx57a/rIH4vUUUj94EPpSRf4vg+hbDCP2zggCogtCb+V//5N1KCsysp8mEf+8soDleFvL2LGE4TQ0VwIO0YGt3FpDKRQ1G3UGAJTZyxgMzuieUgjw3cgi/babncJhOBZEWnMh4fDAsZWVrDyiZOcFV4KrHxnRCUdQf5YJkHbD+qL2ccE1FIPHUZ1F0i8VoTUbpHRFf1abfAUQ3w3D94xpBepMx1zon/PA6QhVnTaSrMfMeOyp6m9dCP69ANeLYYTezUC5P4Or92dwdde3C+gbHsXkuM9WgWNTBqLQtKjZpWiTdSx/FILvWlZ3x+hCWFrANBcWHrLy1mbWbGnlsjfN1p+tvbC+mmOwvrrVQBTNV1d5mkhw/xc2yMr92f52JF8RRhB/gxvD7tTidmBSH/jUzlO9EN9J49GbKvJ30kjPZ7D8r4eQv6uEUidFeF/ywH/OB+85L/p4h2VPvyqQ/jCI0C3dbHnBi+jf04if42QOIiKinWqTrwD+G6PwPm1agajN6gTSFT0CxOEIxOHIIRaHOsJPMmKvhpC4r+sKToYx/dVNhJ/nZA4iIqJ6diRfGZhEzGZrpqja7oE0daXS9zMIn7kMSb9G4kwUqdtxePn0gYiIqL4dyVcERN4LM9uvzTGQpi3KnasI+ZNVCyRcl1JY+CwIF1sKERHRrmqTr+B8HCMvcyqk3TE8orJ/J+DxJ6tSfnvfzyD9Z25vR0REtKcdyVfciI+FwGX59veb/V9CXeFX1CTVUSG/58FRR01WrGaO2v0hiYiIbGdn8hVciiEywDVF3YCBNFEb5SdadHOxmOBNCu1vVUKg5oaWKbP3wPoyh936s9rkKxAx+ZafT3MPWe31tjZBVbswkCZqCxXSqw54vk2huJWet4gUQnDWZgjb7zfNBuAQlyopfY3/HrK5xQQcx0Poz1eng46Jh3dBsRTWlyns15/tZxJ8+QAAIABJREFUTL4ivBNH5LRpBepCda63j1NA0AnHRPtbFQNponZYlZGeq015KyB4o5weV2541CuPmWAGfimpy/olIHg7hzhimOQFnyry8zFgKIWwPiPYQBS5cSBzR7b2iF8bsL7MYL/+bEfyFfgx9ZaXWX8P0+IMQnN+pG7orrfHgkjn48DYJKTV9v55BtJUNhDdHpVp1XHbXqnSjVhSDnhhWFWwBKDfVVuTLriGeMGnGnMKlP1fRZtYX4fLhv1Zz7lJ3VNHDZqWtlGqc2tQlSUA/XDV1vsxF/zIIP1Ne1sVA2midjjmRWAIyNQ8WsrfCiFTOwq2l1WlegHLFgGuF8FAgLaI5+IAYvA4AtsjMKsSJsdqn4wQwPoyBfszagNlpX6rwjEX+gFkVtrbqhhIE7WFgOBtDUXJD4x5thY/eJBrbqT+mAt+tGBkm+xvIApNyyGODELHKwtujqcReKwh2uiNWzdhfR0+9mfUBq6TfgBLUNo8hWM3DKSJ2iQ/4YDzTqDy2C+HOFAOqptZoX4siNFxIBOMVM/zqoycYcjFfUqpbFVCwOEBKovnipIfqASJ3ImiDtbX4WN/Rm0gDI+Wb4ivVV9b1dlJxAD4T7a3VTGQJmqHxQQ8Y/rFDyKilV0BMBdCpIlFNeJ1DUUJ26NmDgcc14DAOIAXXXwETQBUSNdCyIzntkZTheF0eUeEISAmWnVHhHZhfZmF/Rm1nojo1u4v2+0qggDiqDcnv7UYSBO1wa6LHwbCSA01P2erfJHXL+R0QRlr/502WYUCZa5eexAQvBaHmY89OxPry0zsz6j1ytMp9e0q7VIQg3/ndbjFGEgTtU29i3H5An5gizJiiGN0mOM3tK3eDVr5po7qYX11CPZn1Ab5+RgwPtr2XVQYSBO1wdacrePVj4jzEx7EEEfuumj4d28nNIjC+G8hexERrixsrUomsiohsmPfXmJ9dQ72Z9R6ugQtB7jWNoqBNFFblOdE58Zj8OjmbJUzLzV5wahJY1xewMi9SqmaMJzezua12V4qmfvSHOnbgfVlEvZn1AbqbECXHtyJ9MXioeWyeOoQ/gZR1xKva9CuH/CXHAsirQVbUh6yObaV5rC+Dh/rnNpAGE5DGzbnb3NEmoiIiIjIAAbSREREREQGMJAmIiIiIjKAgTQRERERkQEMpImIiIiIDGAgTURERERkAANpIiIiIiIDGEgTERERERnAQJqIiIiIyAAG0kREREREBjCQJiIiIiIygIE0EREREZEBDKSJiIiIiAw49EDa4XDwaOAAgK+//tr0cljlYH01X1/8XBqrN7Yz1lc764ufS2P1xnbG+mpnfe1JazEAPFpwnD171vQyWOlgffE4jIPtjPXFo/MOtjPWl5kHp3YQERERERnAQLpDnT17FmfPnjW7GJbB+qLDwHbWHNYXHQa2s+awvlrr0ANpTdN4NHAA5cZudjmscrC+mq8vfi6N1RvbGeurnfXFz6WxemM7Y321s772whFpIiIiIiIDGEgTERERERnAQJqIiIiIyAAG0kREREREBjCQJiIiIiIygIE0EREREZEBDKSJiIiIiAxgIE1EREREZAADaSIiIiIiAxhIExEREREZwECaiIiIiMgABtJERERERAYwkCYiIiIiMoCBNBERERGRAQykiYiIiIgMsHwgnZ9wwDGRN/5eR/URmFVbXEKyso5oX6sSAo7a3xWAtGqoWNZR99+dgLH/G0RE1FlUSK/uvE4mFs0uV3OsHUivSpgcM/rmPOSxOHKaBm3zeJwCgk7DgRPZTIe0L/WbNCAVt3+PpiE3nkHouPU6nGbU/3fH4OmGmwgiIrtblZFGCkX9dTIfR0y01qCmNQPpxUT5zuV4CBnDv0REVItC1J86FkRS8gNjMke9ulmHtS9hOI30sFD926/nEAewpFins2nW7v/uDNLf2PffTUTUFY4Fkb4dRFUvPxBFbhzI3JFhlV7emoH0QLRy91JEaqgdf2AJCke8upcV2teqgqWWlMWaMiuK2UUgIqJ2mVNglV7emoF026iQ72QA9MN1zOyykP20qn2pkK6FkBlKIVkzYmt7izJiAPwnXWaXhIiIWi4PeQzAkAtW6eUZSOstziA0B2DcW/1InqgVDtq+thbfOZG+WIRW+0jM9lRIN2IA/Ai81F3/ciKibqDOTpYHSy56LXN9YyC9JY+EGAMQR+46w2hqtRa0r2NBpCsLMpKIdMfOHTrqbAShOcAvJRHkEyMiIntZlRAJZgCLPW1lIA0AyCPh8CAGP1KPoxyNphZrffsShpNIDWUQutUdy2LV2QCcwQwwntuxAJGIiCxuVULgeAgZxJGz2NNWBtJVQU6aI13/n737DW3jSvcH/tWSCw50wYEujMCBKmShDi3E5i54xO2LyMlCVbKQEQ54RH+Q6+xCr9LAxm6XrSZ+YY962a2dhTbuhW19A7toDDGawJY6cJOoL7poDAt2oEtcWNMpRKB5UbDhBmK4C/q9kP+MJNuRxpLmj74fEMRjSz4+OXPmmTPnnIdarM3t6xvTNyubnbIH0WU+LSIiChZ7EF2725UPdHkgvRPkqCiUGURTq7WzfZkwFwG8HvHVnXuzdoJoSSsxiCYiT9v8Ng/to2tI/DyKU7sJRsI4ExvG1ffnoH21hs1/ul1Kj9kJokeyKPkwiAa6OpC2Bzn+/M9rJWshUZdd6Oivbs5C16r2ZUG7XD8X2pjeHuW+EtyWaw+iOZ2DiLxq61sNE/FTONE/jOT7c9AfGLat2yysfZXH/EfXkIydwYn+tzCxsIYtF8vrGfYg2mfTOez8GUjvJMwIhSu7IExGmw/ctrfRAhRE9wsCmd2we3mqfQmIXQKSJ6vfH50M+lOUna0CAV0O73OT1l0LLYnIi7awducqzvQnMXu/wV2P15cwK59B7PqSb/ZJbhfr61wl6dliEuF9rpN+yW54zO0CODKURrmcdv8zKJg81r6E0RzKoy35KB8RIN8tQ3a7GERE+9rC2mdjiP1Kc7ROxfjkLQw/y+HRf0u+2S+51YJybauMSO+OwO33OoXoz4eR+A8FcwsGzGcul5iIiIjIRVvLsxirDaKFGMY+/hJPSht4vr1Vabn8HBvmCnK/rw+YzTspKAvdPi7tfw1M7TBhPMhD/68MrslRnPpxGMM3NKxttr9w1DnCaG77pD/KawUzQ27/JURERG20ZWD2HaV6qt9QGo++eYTP342jX+hFz+43etD7ygCk93L4rvQl0lXXSAvajVks/dChclNb1AXSqlETHP3fc2xsfIcV/TZSb0YAWMj/IYkzP7uK+W85XZ72WAsqJpb3vh6YimHAveIQERG13Ob9eSiPbQcEGdkFFbGXX/BGIQ51IQvZvqrOmsPcFxyV9rMXj0gf60FvbwQDl1K4vfQdSnkVcQHA+jyunhuD9n3by0h+8CyPmRu67YCEiSui7a6ciIjI7ywsLcxXHYlPqZBfafDtr8iYvSVVHVr6WMdqawpHLmh61w7hXBpfGtt3VJaG5PvOJtpTsKx+pmDW1hDEW0qAd5QgIqKutPUEK4v2AzFI55pbLihcSiFtH5V+nEX+8YE/Th7nbPs7+x3V4jhuf8UpHl2tqEG9YZstJoxD/SUndRARUcBYVs22dSLOnG7yM3oGEb1kP7CKlX9wSNKvHO8jvXdHZSGzmIebaw+Naa/sK2sg03UJSbaQ/3gc9kkd8Q9TiL3kWoECzKfta3tXoOb3BK39e334tzvB+mqO4/pqze/1W+4Bp9fLw5J2Oat7n/Znlll1vQOOO/iQXvQPxKqO5NdLRyiUf1Xa4/6vzPKL31/HhfPSeUIW+x3VfxWw1pryNM1aSCA66dIvt1vOIBSKAlWLNbsgY+LjOSgf2TrRsyqU0W7dFbON/Nq+ihoSonKkj5C00j47xPjgb3eC9dWcFtSXE8Z0CCERKNjr2Acp7I9+vVSr/+btV9OZR/3an7XQ8d7qOrOellwdkHTVSBalfdpVusldwNw6L4+Q2dB+R7UG043R4KKGlKxDnVJd+OXV5UiIClSj+f94f7OgfThhG0UQkJpKQeQKw9bybfuyoN1IQp9S4fIZ6hOsr+a4U1+VYFRFwW+BH6+XrSFEUL1UsIQNBxGwcPJM9YEfNpk2/AjcPC+PlCL8+Eu9rSqHAwYyJ5OAVkL6govFAGDcqeSKH/Njp3AEWw9mMG5fdPGmivGLbraJYPJr+zKmw0gii9LN2It/mFhfTXKnvgzMyzokbcxfQTSvl60jCDWJVXIorDIEdpe75+WRAmn3WNAuR6FMFZp/pNSGspjfANIlYN6neeKdWcXc5KxtxxYB6feSXZvqtH382b52RwfuyjjqGarL4aPPm/M41ldzWllfTSmaWIGEBOZr5nN6YY3OQVp5vVQQtf/dl5vdtcuf/VmVnjMYHLEfsJD5KAvuBH0Ei0mEjzKv2eXz8kiB9PNn7szo2RuJ8MKYgAlzEdBlEzH7vBxDhS6H/dM5NKk2+QpGZnHtHOd0tJ4P29dyBmEZyD496iM2EemaOXMlTYIi+uii2wjWV3NaVl8OFE3o0JFcj1XVc2FKR/KkN4PpVl0v67PfFqAuJhFuapGgD/uzOgLio2PVh+5fxfC/azD/2eBHbFlY0nMtL5kfiTdr5kY/zUKajDZ3k+byeXmEQHoL5j/ylX8Kg+jv0J7BlZEICdlbHR6JOEjRxApQ/0hhKI3CFKDL8/5YidyMuuQrImY+8Mj/R9D4rX1tz3+UtLm27CMujM4hOwLo9/LB2L+e9dWcNtfXi1jmCgAJ2SvVQal4swAVOpJ3PHU2tvl6KSJtqAAU5Bt96uG3/uwAvW+moNZMTTHvJHGqP4HMQh5r1ia27EH1P7ewaa3BuDePiX+P4tTxMN76iClY9tUnY06TgMUc8g0GwG6fl84D6a0C8n+u/FO4IqK/RQU6nIX8PR2qkfNOso++CAYP+FbktARgxZ2FmG1Um3xFeE9F6qx75Qk0n7Uv6+sc9LZOuRIQuyQBi2YgHqWyvprT/vo6nBA58GxEZATAN6aHblg6cL0cikEFsGI2+Ff7rD87UM8Axv+g1j8RWdehyMM4Ez6B4/9im2LwL8dxInwGUekqZu8Y+5+LPXyiu0N4IwEJesNtwe3z0nEgbd2bQ8YCgAFMXI51NBW0ItbsNygqAHQkT7q3F6W+HoTLVANqk68gDvVXnf3/70a+al+T0Zp5alEo2Ju7e9Q5u+a6/uIf8hPWV3PaXF8v1vgF3gvaer3cHmFulq/6swP0DKWx9LWKmMN7OkGoeeNPw3yqu6NYu1d3I9w7L50F0t9rGN9+tC+8o2KsY6ORAuS79XsNlg0VgITsUzf2ohQRmwIwma/rkMx1HRhJIOaV0fMjq0++MjClINlsVidqgr/aV/08yu25lNjb3/hoW15VFithKuazXRP2x/pqTvvr6wW2R2CVB3VnI8xFQLoU81Aw1IHrZdGEDgmJNxr9q/3Vn71I77+l8Wj1EWZGGl9mL5wbw+18CYXfR6uOS694p+W4rTJVQ0Ws0XPZ5fOy6UB68+/zSIpJaBaAIRX67+Po9g3PxCtZSFAQta003dn4Xr0RoLnDtclXhBTUd0SORrdZ17SvGtZCom7xkTEdRnKxfi4csb46Q8SYJgGTUdvI9/auGFAx4fouUu1iIFM7er2TDGdqoqmpI4Hrz4QYxu9+h41/PEL243GMXYih3/5HCP2IXRjD+MdZPFrbQCn/OVLnBFj/qB5z7Y904Z5XRQ2J2kWFyxmEm97Kzt3z8tiLf2QLm5slmIaBpT+ruL2wVvmjT48ht5CGyFTQQJ+MXDmCTCiK0G7WqModv2fmch9ZbfIVQHx/DPGXXStQ9+iK9lVPiAxCF8MIyfajPkyE0SGsr84QRnMoRzIIiSHs5lQcyaJU9mEQ2LAIIiMKoqHqLJKSVkK52SAloP1Z7+kY5HdjkN9t5KdXUfjC/nUK0dfaUy5P64tgcDGKcChZddhJsh43z8u6QFqxF2JfEcTfUzEzKaPfK0H0UBrlstuFqGw9lXa7GG1Sl3xFGIf6ywHXytN9/Ny+KmVv2lAa5bI//+KjYX01x2F9HYWf69rR9bIyTUR+8Q82yM/9WQusr2Dpse3rkSgGu/LRfovbgUvnZQMj0gL6z51B+JUBSBfiiF2IoZ+jkF2mNvkKIN2aQMwrN1JEREQ+sXpvDnnb1/E3xQA/zQi+SiDt57traru65CtDM1ACOxeQiIioTYoa1Pfte0iPYexiF86PDhCfpginjqlLviIg9cEYOKmDiIioGSa0D2p3vuJaI79jIE2Hqk2+gjdVjF/syslcREREDplYup5E8s/c+SpoGEjTweqSrwxAnUyCD6GIiIgaZOWR+UUUb31iv54KkD9WOBodAAyk6QD1yVdwRUFqiPfOREREKOq4KmegfbUG65n9G1vY3DSxel9DRj6DcHgYyhfVe7yLUzrmR7jWKAgYSNP+apOvQMTMdanrk+80y5iuSc9bu/k8EZFPsD+rtYWNBQXJ2BmEf2yvm+M4ceIUBuNJKDu5N3YJiH1YQP4mp3RUWNAu17Sr6SMlru84BtK0j/rkK8J7KlIdSwUfBJXOIfpNFqXd9LwlZJFEuDZDGBGRp7E/awkhhvTSKh79lkF0hYFMKIzk6wVbGvsC1Mmor27SGEhTnbrkK5Awez3GE78ZxTxyi7UpbwXItyrpcfPLh7yXiMhL2J8djdAP+fePUDIfQX2T0zl2LeehQEL2ij33qoi0oQKLOeSLrpWsKQ0kZKFu03NhBqXyjNvFCIQV0wKG2HESkf+xP6vxUgSxdyRsrq4iv2zuHT8tIhY5g4ELIqIXYoi/FkEPo60D6DCLAHycHp7/tUTt0BdDYgRIymGE1gso36zccRt3ktBHspgbcrl8RESNYn+2v14RqU9zSLldDr8aikEFoIghrGgl5EYFABa0WwowVYDsk+CaUzuI2kKAfLeMkiYBk9HdRRRRFFC+KzMdLBH5CPszagcR6XIZhSlAl8Pb7SqM3KXS7s2aHzCQJmoTYzqE8L3E9uKcAlSgchHy0SIKIiKA/Rm1w/YiVmwvNnyahYTtoNpHO3cwkCZqh+UMopMSsrd2Rmsqd95lQwUWk0gt8NJDRD7B/ozawFpIIbmoorAz+twnI1fee/KR8ckiVgbSRG1gmSsABhGpneM1NIbsCKCvm/u9jYjIc9ifUTuY6zowEqnLliyMTkDF9uJWH2AgTdQ2K5XVyFVMmIv7/SwRkZexP6M2WDRRdxtWNLHiRlkcYiBN1AaVO2odyZPVyQqM6SgU2B5lERF5HPszagfxSmUf8mjVPHsL2o3t3WBG/bGMldvfEbVFZQ5hbDqEaEjZOzySRanMVe5E5Cfsz6gN+mTkyjFol8MIh5J7x6cKvtq1g4E0URuJN8so33S7FERER8f+jFqvsrWi7HYxjoBTO4iIiIiIHGAgTURERETkAANpIiIiIiIHGEgTERERETnAQJqIiIiIyAEG0kREREREDjCQJiIiIiJygIE0EREREZEDDKSJiIiIiBxgIE1ERERE5AADaSIiIiIiBxhIExERERE5wECaiIiIiMiBULlcLrf0A0OhfY+fP38e58+fb+WvIqIjePjwIQDwvCTyEJ6XRN7z8OHD3XOz1rFOFgJg50DkBbWdAs9LIvfxvCTynsOCaKCDI9I7WvzrAut3v/sdAOA3v/mNyyXxB9ZXc2rPU56XjWE7aw7rqzk8L51hO2sO66s5L4prOUeaiIiIiMgBBtJERERERA4wkCYiIiIicoCBNBERERGRAwykiYiIiIgcYCBNREREROQAA2kiIiIiIgcYSBMREREROcBAmoiIiIjIAQbSREREREQOMJAmIiIiInKAgTQRERERkQMMpImIiIiIHGAgTURERETkAANpIiIiIiIHfB9IG9MhhKYN5+8NVb8SC1aLS+hRyxmEQhk4q7nuwfZFRNSd2P+3mwXtcn09ZZbdLldz/B1IFzXMTDp9s4H8pIpCuYzyzutpFpDDjk8c/7Cg3VLcLoT3sX0REXUn9v/tV8wjhyxK9noyVCiiv246/BlIL2cqdy4nk9Adf4iIdDkN0X6oT8acJgGT+YCO1BrIhEIIhcJILrpdFg9j+yIi6k7s/zunT0burgzBfmwojcIUoN/Lwy+htD8D6aH09t1LCdmRdvyCFZjFdnyu20Skt+/6SprkdmG8i+2LiKg7sf/3hkUTpttlaJA/A+m2sZC/pwMYRKTP7bJQ8LB9ERF1J/b/jTGQnwQwEkHE7aI0iIG03fJ8ZcrDVKz6kQxRK7B9ERF1J/b/DbEWZqAAkC7Fqqd8eBgD6V0GMqICQEXhJps5tRrbFxFRd2L/35CihpSsAyNZzI36JYxmIL3NQCYUhQIJ2adp3i1Si7F9ERF1J/b/DSlqSJxMQoeKQu0CRI9jIF3VyHOQOXeJWorti4ioO7H/b4g9iK7d7cQHjrldAHftNHJ//ueR17F9NWqruIqlB1ksLaziiZmHsb7znQjECwMYHIojJr2F+FkBPW4WlPxlaxPmtwUYXxdQ+NrA2lMT+WXbXgCnRcQiZzBwMYb4hTiir/ayfVGLsP9vyE4QPZJFyWcj0Tu6OJBmI6d2YvtqiJXH7PWrmFg8aKMjE8YDE8YDHXPTAE5LUH+vYvxSf1cEPNZCAmHZ+W62+wt6m9yEeT+L2f+aQ+6LtcP3ol03kF83kH8wj1kAwmsyJj6exfg5P17OyTvY/zckAEE04NepHTsbpu8kFpmMbn/dRMrr5Twquf0UREP1KSqDmX1oJyFLaPvivPe3+y0lZ1uxfXWEee8aouHhQ4LofazrUKQziF1f8s0eo9RhxSVMxK9h7kVB9D6sv2uYiA1geDKPzbYUjjyP/X/HWF/nKklvFpMI71NPfslu6M8R6aE0yuW0+5/hO5WELN32VzeN7avtzIUkorLmOHOV8clbiG7msPonybejGORVFvLTw4gfX0H+twNd8eSDbNj/d4wwmkN51O1SHJ0/R6SJyL++1zBRF0QLiP3yNnKr32Hjf8vbmcXKKD/fQGntS9x+J163Ob/15xTULzhuSIcQ+hF/J43P9UdYMTeq21a5jOcbG/jOyEIdqU/9YHygILu+z2cSEdkwkCaiDtpC/o/jqJr1K8Qx87c1PPpjCtLZCHpfsn2vpxfCq3GkPv0ST9Y+h1w1/Gxh7pNcoKd4CKO5qsDP2WsFM0Nu/yWd1IMToyqyRgnPS0/w5acqxi7FMPBKb3XbAtDT24vIkIz03e/w3Z9q52guQfsqyK2LiFqhOpDenRvU+Msvc1iIyAtWYdyp7jOkW/MY/9feF76z59UxzC+mMWA/+GAJxvetLF/wWAsqJmxrIAamYtV1GDR9Ej7X0pCHmtvhJfL2PObfrT6WX13jXGkiOhRHpImoc4omVqri6BTG3mx8lnPPvyWQPGs/osPkvfzBnuUxc8M+/i9h4orIeb/76sGgKFUf+mETW+4Uhoh84sBAWjUae2yY81EaRyLymjBOvHgwuurnwz9tV1mCZ/UzBbO2Gw3xlsKkEM14mftKE9HhOCJNRJ1zrKcmMMnjyZEWdEmIMDDcX1GDesO2zZYwDvWXgZ7UcWSlYvWc6PjP+tHUfR4RdZ1ABNLGdAihUAJa0fWS7O7T3PS+k92kdi4+99RsUADalxDBYNXUjDzm/mQ0/vh86wlWFm1fvxmHyEB6H1vIf1y9qDP+YQqxlw58Az3LI3trde9rIYXUxfrdPPzO6fXSWki0eK2UP/oz1ld7Vep3/5ej/BYuxBe+D6SthQSik26XAtv/eVGgakoMMxrVMqZDCIlAwT5F6CZr6YUC074GIF2PVx1ZnZaQ+MNqQ4u6Nu9rmN39SkDqnUTdtngE4PEclI9sF+uzKpRR1tSBNlcxKydt02AEyLfGEX/ZzUK13tGvl2p13+10iqdP+jPWV4eMZFHap57STe425FZ84e9AuqghJetQp1TXy5EQFahG8//x3aTSKTFlatMC1r4iV24j+7b9QmJh6cYg+mMTmF+2Dh6d/l5D6j/md78U3p7F+EU+eK9nQftwwjZaJSA1lYLIyb7Vnm3CfLwEbTqBUycGMfHFThQtQP5jHvNBu/Hg9bI5rC9fcTO+8HEgbSBzMgloJaQvuFySO5Vc8WNs5IcwMC/rkLQxBtFNCl77ikD+dAkzF6tHZayvZnFVDOP4T9/CtU+WsPaD7Zvf67g2moS2HesI51Ton8ocjd7H1oMZjFdNf1F5wwGg7tH4j0/g1MBbSE7qu3uRC+fGkf1mDdlf9gdskSGvl81hffmLu/HFgYG0Inp5H2kL2uUolKmCB3YNsWB+A0iXgHlP1I1HFU2sQEIC8zVtyAtz270soO3rpQGM/2UNKx9L9cHw+hLmrr+FMz8J4ZR4FROTVxGNJDC3DAACYr/OofA/aYic77uPVcxNztqyRgpIv5fkDceLXLmNwtoGSvkZyK8F7aajlddLBVF7P3S5NkPpi8vi/f6M9dVxi0mEjzKv2eX4wpcj0sZ0GElkUfLE3FoT5iKgyyZi9nk5hgpdDgersR9F0YQOHcn1WNUcqMKUjuRJBtMHC3L76sXAu/PI3Yof+BPm8jxmp+e3pyn0Y/wvq3h0S0LkWKfK6C+1yVcwMotr54I1ttoWd64hejGJax/pWP3hxT/uJ626XtZn2SxAXUwi3NSiN+/3Z6yvzhJv1syNfpqFNBlt7qbD5fjCd/tIV+bBSMjeqk3n6pKiiRWg/pHCUBqFKUCX5wOxsvaoLHMFgITslerOSbxZgAodyTuspX0FuH1t/l3DNfEEBm8sAag8Vv9cu43Uxf4Dzu01zP5iAMM3NKwx3Vy9uuQrImY+8Eg/6QfrS5h7P4HBn5xC4pPGFr96XXuvlyLShgpAQb7R3RU83p+xvjygT8acJgGLOeQbDIDdji98NiJtIX9Ph2rkvJNUoC+CwQMat2keAAAgAElEQVS+FTktAViBydFWCJEDawmREQDfmE0+8uoSAW1f5hfXEH89uT1dAxB/+whr+RmMjaZw+y9PUPrf77Ci30bqzdpJCRbyf0jiTP8wMn8NQqjTOrXJV4T3VKTOHvzz3UdEumog6Dk2Nkp4ks9CHbXfvJnQrw8iPt3Etoye1IHr5VAMKoCVRtOLero/Y315hfBGAhL0hv82t+MLnwXSFXXzt0UFgI7kSff2VtTXzRf/UNdr/MSgakFqX1vLGSR/Mbd7nopTBeQ/jFUnvngpgoFLKdxe+g7Pnxbw+a9j1SNEVh7KG3Fklv0d6rRMbfIVxKH+KhawBXOt1oPeXgH952SktSdY+5/q1f7GpATlgf/bV1uvl9sjps3ycn/G+vKAolm1B35j3IsvfBZIC5Dv7jPFxFABSMg+dWNvRRGxKQCT+boTzFzXgZEEYl4ZPXfT9p248qCulmAuAtKlGB9B7ytg7WvLwOw7yt7fcjaN2V+LhwZ8PX0ixm49grmWRapq5boB5dIY9K6/OatPvjIwpSB52rUC+VLvBRXZP9rn61uY/UMW/g1hOnC9LJrQISHxRqO9t5f7M9aXV1SmaqiINbpTicvxhc8CaW8Sr2QhQUHUttJ0ZyN39QbnKFaIGNMkYDJqy1a0vToaKiZc333Fu4LUvswFFcrjva/j18ca3n2j51UZtx8UoNo7V0uDurB64Hu6Qm3yFSEF9Z3Db05of5FLYxizH7ivIX+kFPZBYSBTOxq7vb8xpiaamgoRpP7sYKyvhhQ1JGoXFS5nEG56Kzt34wuufW+FPhm5cgSZUBSh3SxIlTtYz8zl9gBhNIdyJIOQGIKyc3Aki1LZ551BuwWmfVkw7i/Zvh5AbKDJjdleEpF6fwyKtJeYZVXLY/W9AQy0ppA+U5t8BRDfHwtcRr6OeXkA4gVg/sHOgTxMC0DXj+5HEBlREA0pVUclrYRys0FKYPqzw7C+GtIXweBiFOFQsuqwk+QzbsYXwQikh9Iol90uRGUhS9rtYnjdUBrlMmupeUFoX5XHbHsiCDsI+HpfFxHDPPI7Bx6bKG0CA0Hb/rcBdclXhHGov+zOW4rWOI7jNe1o7akFBOlW39H1sjLtQW5ZIXzUn7G+2qjFf5dL8QWndhBRZzhcaFOn53j1wkSUsPmsFR/sN7XJVwDp1gRiTFRzBM/xvGYzmJ5gDDcRUZv4NLMhEflOXwT9VQd0rKw52BXhh1LNArAwersweKxLvjI0A4VrDY5my8Tag+pDZ06yTonoYByRJqIO6cGJmn2Nsw8KTe/Va67mUbW88GwE4W6b1lGXfEVA6oOxLp0n3jpbXy8hW3VERv8r7pSFiPyhOpAeSjeUzdDNzIZE5FcDiErV/YX10QTUvzYRSj/LY+6DpapDA3Ks6wLI2uQreFPF+MVuu5tosWcG1Perp8pg5C1EeYkjokNwRJqIOka8OFGzpdEqMm/EoNxvYIrYD3kov0hWB5CII3Wpy8LouuQrA1Ank2hy/5NgKmq4Gr+Guftr2GzmUccPeSi/kJB5bD8oIP2OFKRlhkTUBgykiahzzqYwe7M28DWQiYdx6nIG2ldrsOwLB7c2YX2bhzadxJnXh5H5qjrgFj9UuyzxSH3yFVxRkBrirtE7Nu7P4Vr8DE4cD+PML65BuaMj/9jE5uZm9TSiZ5swH+uYfz+BUz+pb1vC23O4do71SkSH43pk6ihjOoTo5N7Xklbi9KBGLGe2U9VuG8midNeP+2/3QHx/DupfJSg1gYu5qCC5qBzwvnqRKzlkfzvQXYlHapOvQMTMdQmc1LEfC2tfzCHzxRwyzb51SIX+KUejiejFOCJNHWJBuxxC9JssSjtz7J9mATmM0HRtWk+ysxYSCIkr2ylqyyiXS8giiXBt5iy/eElE+i9LuD3idDKCgNjNR1j5b6nLpjPUJ18R3lOROnvgG8gB4eIMVu6nG864SUTdjYE0dcbyPJKLErK3bKOofTJyhgpMzkArulk4LzMwL+uQtDlbFisB8t0CVCiY8ev2ky8NIHV3BU+0ccSbmJohnBvH539bw6OpWNeNwtYlX4GE2eux7hqRf5G+OGbyWahXxOZvsk7HMa49wdpfxrsyuQ8ROcOpHdQRlrkCYBCR2pSmfRFIUJD72oLMKR71tpOYDEZq6yaCyAig3MvDGvXjFA8A6EX/6Ay+HFVhPV7Cl3oeS8trWPsmj7Wd+wOhH7HXoxi4GEP8QhyxV7s3wum5MINSecbtYnhcLyLnZKTPyUj/cQvW+ioKRgErfyvAWC/BfGDY9iCPQLwwgMGhOGJSDPHXIky+QkRNY7dBHWGu6wAG67/RF8EgAGXdRKDS8LZK0cT+NScg8jqASRP+r7keCGcljJ2VMOZ2USg4jvVAeFWE9KoI6cq426UhooDi1A7qiMhpCcAKTE7haE5fBBKAFdOnUziIiIgCjIE0dYQwOgEVOpI3tKqEB9bCDBQA0unuWjbWsD4ZE1OALqeq55EXNcxMAhiJdNmCOyIiIu9gIE0dIiK9u9tECKHtVwoJqNhvDjDtEG+WUdKA5Mm9egvdABJTAF6P+HxaBxERkX8xkKYOEiDfrUkxHzGhQKpfhEhVhNFcVb2V70ZgTnIkn4iIyE1cbEiuMh4owFTBtrUbNWQ5DwUqCtzphIiIyDUMpMklFrTLYSSRRemu6HZhfMVaSCAsA9mnObDmiIiI3MOpHdQx1kJib45vKIzcpRLKvkxz3WFFDQnbvPLwvQRK5RxH8YmIiFzGEWnqGGE0h/Ko26XwoT4ZubLsdimIiIioBkekiYiIiIgcYCBNREREROQAA2kiIiIiIgcYSBMREREROcBAmoiIiIjIAQbSREREREQOMJAmIiIiInKAgTQRERERkQMMpImIiIiIHGAgTURERETkAANpIiIiIiIHGEgTERERETnAQJqIiIiIyIFQuVwut/QDQ6F9j58/fx7nz59v5a8ioiN4+PAhAPC8JPIQnpdE3vPw4cPdc7PWsU4WAmDnQOQFtZ0Cz0si9/G8JPKew4JooIMj0jta/OsC63e/+x0A4De/+Y3LJfEH1ldzas9TnpeNYTtrDuurOTwvnWE7aw7rqzkvims5R5qIiIiIyAEG0kREREREDjCQJiIiIiJygIE0EREREZEDDKSJiIiIiBxgIE1ERERE5AADaSIiIiIiBxhIExERERE5wECaiIiIiMgBBtJERERERA4wkCYiIiIicoCBNBERERGRAwykiYiIiIgcYCBNREREROQAA2kiIiIiIgcYSBO1lAXtcgihUPUrs+x2uXyoqCERqq3LDAy3y0VE9ALGdP11ILFguV0sagMG0kStVMwjhyxK5TLKOy9DhSKyE22W9XUO0Ep79VguozClIBpKQCu6XToiooMYyE+qKNivA0+zgBxGaJpDAUHDQJqolfpk5O7KEOzHhtIoTAH6vTwYSjdOGM0hN1pVkxBvFqBCR+5r1iQReZWIdDkN0X6oT8acJgGTeT5VCxgG0kSdsmjCdLsMAaGvsyaJyI9WYPKJWqAwkCZqOwP5SQAjEUTcLorfLeehAJBOsyaJyE8s5O/pAAYR6XO7LNRKDKSJ2sxamKkEf5di1VM+qEkWtFsKAAmJN1iTROQjy/NILgKYilVP+SDfYyBN1E5FDSlZB0aymBtl8HcU1kIKyUVA0uYgc0SHiHzDQEZUAKgo3GQYHTQMpInapaghcTIJHSoKtQsQqSnWQgJhWQemCnULEImIvMtAJhSFAgnZp2mORgcQA2midrAH0bWrt6kp9iC6zNEcIvINexCd45O0gAp+IL2cqdsU3emL+wBTQ3aC6JEsSgyij2QniJa0EoNoIvKRnSBaRaHMILrK1ibMx0vQPlFw7fIwhsVT1fHWT6MY/vlVTHyiIf/tJrbcLu8LHHO7AESBYg+iOZ3jSOxBNKdzHM78bBinfpWvfMGReyKX2YNoDqZUbMK8n8Xsf80h98Xa4TkV1g3k1w3kH8xjFoDwmoyJj2cxfs6b14Hgj0gTdZD1dQ46ACwmEeZTjSPY2SoK0OXwPk+ImN1wj4n8vbzbhSCiHdvbdAIKovs94e7G7IbFJUzEr2HuRUH0Pqy/a5iIDWB4Mo/NthTuaDgiTdRCwmgO5VG3SxEEAuS7ZchuF8PzNmH851Uo990uBxHtGkqjXE67XYqAsZCfHkb8+Aryvx1Aj9vFsem+EempQiXvvYMXHy8Tkdu2Njex+f0qlhZmcTXWj+gHTD1PRD4i9CP+Thqf64+wYm5g43+rY63nGxv4zshCHalPvGV8oCC77kKZD8ERaSIiz7OgXQ5XEjoQEflOD06MqsheH4M0JBw6otzT24vIkIz0XRnyn5OI/j/NNliwBO0rE2Meym7LQJqIiIiI2qdPwuda82+LvD2P+b9peOuTvWP51TVsIoLe1pXuSLpvagcRERER+UAPBkWp+tAP3toSry6QthYSTe6vnEEXrj8lIiIiok57uZeLDYmIqBmVXUz2XQhtqG4XjoiobUpFs+rr+M/6PTOtAzg0kJaQfdrIbhbcbJyaVJttshv31GyG3+tru/zcQ5vawq325dPz0pj2yj7sBjI+eLrN+nLZszyyt1b3vhZSSF30zkJDgCPS1GHGdAghESjYb8aYhe1Avq+vooaEqLhdCgoql9qXX89LayGB6KTbpcD2TUgUMLw9KMf6ctnmKmblJGZ375EFyLfGEX/ZzULV675A+k/jiP60fq73KXEYw5evQdnO7U6tV+mUmDK1Uf6vLwvajST0KRWcfECt50778u15WdSQknWoUy6fjds3P6pRRnrI3aIcivXljmebMB8vQZtO4NSJQUx8sRNFC5D/mMf8qLdGo4FuDKTXDRj7bOZtLueRX5xD5noSw/0nEI5dxdxfGVC3joF5WYekjfnr4uMa/9eXMR1GElmUbsbcLgoFkDvty6/npYHMySSglZC+4HJJ7iShj2Qx5umgkPXVOTVTVn58AqcG3kJyUsfOzGjh3Diy36wh+8t+Ty0y3NF9gXSDrK/mce2Nfs/mdvedookVSEhgvuZpgBfmnnmQz+trd9TurgzmA6VWc619+fK8tKBdjkKZKnggO68F8xtAugTM1zwV9s4aCtaXZ1y5jcLaBkr5GciveWl5YTUG0ofazu0+bXhqz0JfKprQoSO5HqtarFqY0pE86eWLkEv8XF/LGYRlIPvUZ4++yR/cbF8+PC/3Ru69cDaaMBcBXTYRq9l5RpfDnggOWV8ecucaoheTuPaRjtUf3C7MwQ4JpHUkT75gD2lfrFLugTiSQvrjLL40nqC0sYHnNTuPPN/YQGmtgNzHKcRP13+CMZmC+leG0kdhmSsAJGSvVHdO4s0CVOhI3vFDW+oc39bX9nw+SZuD3Od2YShwXG5ffjsvKyP3ErK3PPJkqGhiBaifGjOURmEK0OV5V3eiYH150PoS5t5PYPAnp5D4ZNWTMwSCPyI9NI7C3dtQ35URH+qH0Fu/kXdPby+EV0VI797Gl//YQOHDeM1JtIrMh1mYIKeEyOAB34kgMgLgGxMBv7duil/ry/o6B90Tj0QpiNxuX/46Ly3k7+lQjZx3bmr7IjiwBk9LAFZgujaqz/pyh4h01eDmc2xslPAkn4U62m+LxUzo1wc9OUPgaPtIe+LRR6v1QvxtDvpUzd92X0N+n0WK1Aw9ACd9J/m0viajNU+volAA6HIYoVAImWW3C0i+5nr78td5qYg1T5JFBXtPnN3Zi1hf9+6wFOvLbT3o7RXQf05GWnuCtf+pnsJlTEpQHngrlA7+iLQjPRDfU5GuGvTIY3XNiw8VfGIoBhWA8qC2G6rMAZMuxbzxKM0rfFpfwmhun5vuAlQAklZCudwlWzhRW7jevnx1Xh6QDdNQsTdQ1ul55iJiUwAm83UBqbmuAyMJxFwbDWZ9eVHvBRXZP8ZtRyzM/sFbMwQYSB+kJ4rY29WH1qwNd8oSCCLGNAmYjNpGjLZXR0PFBKcC1GB9EXkPz8ujEq9kIUFB1LbGaifxiXrDI3OTPYT1BUQujWHMfsBjMwSOuV0A7+rB8R9XH8lbFgDvbQbuF8JoDuVIBiExhN1cZCNZlMrd0Rk0i/VF5D08L4+oT0auHEEmFEVoN2tgZcTXM3OTvYT1Bbw8APECMP9g50AepgVgn80h3MBAmjprKI1yOe12KfwjEPVVWUxC1B4utC8/n5dDabh/Olb+z3xRg6wvDziO4zXbSK89tQCP3Lpyasdh/q/6S+kVb/ynEREREXWH53hes0Stx0PDwAykD7SKwhfVRyJC2J2iEBEREXWjLRNrD6oPnTnpnYFNBtIH2FpeQvax/UgKsZ95Mcs7ERERUTBtfb2EbNURGf2vuFOW/TCQ3s8zA7O/VrBqP3Ylhqh3U70TERERBcszA+r7s9WJjkbeQtQ7A9LBDqSN/xzG1U+WsPZDE5t3b65iVpagVG3qP4CZ6xIYRxMRERE1oajhavwa5u6vYbOZXCo/5KH8QkKmanaAgPQ7kkeWGVbUBdJ7G957KE2mU//MY/76Wzjzk+MIv/4Wrk3OQ19eg7W5ia1/2n5uaxOb369C/+QqhvsHMfFFdZJX4b0ZpM52tuhERHssaJdrMq5VZV6zqcv8t/NKQPNRRj4iCo6N+3O4Fj+DE8fDOPOLa1Du6Mg/NrG5uVmd8vvZJszHOubfT+DUT4aR+aomHnt7DtfOeWuabaBHpO2svy9hbvoqEuIZhE+cwPF/sV1gjp/AicggEtfnka/+P4NwToU+GYO3/ts6bZ+L+LSzRKnGdPXnJBasF7/Jd1hfREHmm/NyOXPATZWzfqn27w5d1uDRv5w8y8LaF3PI/HsCwwOncOLECRy3t6kfn8CpgQSufqTXZy8cUqF/6q3RaKCLAmknIiO3sfSXNMSX3C6JmwxkQmEkXy9Up+SdjDbZiVaCy+g3WZR2PudpFpDDjoNMb2J9EQWXz87LofQ+KdUrZZYASKcbTTC2z99dLiGLJMKhTF36aqJWEy7OYOW+N+OxQAfS/RezmHkn3nwuwtNxjGtPsHI3hQEP/qd11HIeCiRkr4i2gyLShgos5pBv9FHx8jySixKyt2zZv/pk5AwVmJwJziNn1hdRcAXkvDTuJKE3k9K8mEdusTYltQD5ViV9dX75kPcS9cUxk89CvSI6jsfW/jKOAY8uVPPQltat13tWxvinMsY/3oK1voqCUcDK3wow1kswHxi2xwYRiBciOHNWQkyKQ/rXiKc2+3afDrMI4Ahz5i1zBcAgIrWf0ReBBAW5ry3IjXbqnsf6olYTIN8tQ3a7GF0uEOdlUcPMJCBpYxBf/NNVVkwLGPL430ce1IvIORnpczLSf2wkHhvA4FAcMSmG+Gvej8c8XrwWOdYD4VUR0qsipCvjbpfGX4ZiUAEoYggrWgm5UQGABe2WAkwVGl6Qaq7rAAbrv9EXwSAAZd2EV9J9HgnriyiwgnBeWl/noENFoZmAvy+GxAiQlMMIrRdQvlkJwY07SegjWcwNtamwFDwBjMcCPbWDWkFEulxGYQrQ5fD2goAwcpdKu51pIyKnJQArlZHaQGN9EQWV/89LA/Oy7mA0uvJEpKRJVbvCRFFA+a7s8VsHovZiIE0vsL3IBIWqRSp6k4trhNEJqNCRvFG94M5amIGCZha9eB3riyio/H5eVsrZxNxoG2M6hPC9xPZiwwJUoBJUc+cO6nIMpOlQ1kIKyUUVhZ3R1D4ZufLeyESm4UUmItK7q7z3trpJIQEVwGAkGGMarC+iIPPzeVkZjcZUrOm50VjOIDppX2RZefJWNlRgMYmUV7f/I+oABtJ0KHNdB0YidSttKyMz24tPGlZ5PGjfhikXMaFAql+841OsL6Kg8+d5WRmNrt1RqMH3HrTIcmgM2RFAX6/b8Zeoa3THYkM6mkUTdUtoiiZWWvDRxoPmFuH5AuuLqKt4/7zcGY0+Shkrc8PFqvebMBcBvH7kAhL5Fkek6VDilco+odGqeXAWtBvbq7Udb/Vk2+C/iUV4Xsf6Iuom/jgvjzIaDdjmhp+sTr5iTEehwDaVjagLMZCmw/XJyNXNCdzO3Nfkam1rIWFLL7u9k0XQVnyzvogCzXfnZVFDStaBqYkjjEbv7EakIGqbG17JdJhufs41UYBwagc1oDXJIITRHMqjLSmQx7G+iILKd+dln4xcuTWpfMSbZZRvtuSjiAKDI9JERERERA4wkCYiIiIicoCBNBERERGRAwykiYiIiIgcYCBNREREROQAA2kiIiIiIgcYSBMREREROcBAmoiIiIjIAQbSREREREQOMJAmIiIiInKAgTQRERERkQMMpImIiIiIHGAgTURERETkQMcD6VAoxFcDLwB4+PCh6+Xwy4v11Xx98bx0Vm9sZ6yvdtYXz0tn9cZ2xvpqZ30dqtxiAPhqwev8+fOul8FPL9YXX514sZ2xvvjy3ovtjPXl5otTO4iIiIiIHGAg7VHnz5/H+fPn3S6Gb7C+qBPYzprD+qJOYDtrDuurtToeSJfLZb4aeAGVxu52OfzyYn01X188L53VG9sZ66ud9cXz0lm9sZ2xvtpZX4fhiDQRERERkQMMpImIiIiIHGAgTURERETkAANpIiIiIiIHGEgTERERETnAQJqIiIiIyAEG0kREREREDjCQJiIiIiJygIE0EREREZEDDKSJiIiIiBxgIE1ERERE5AADaSIiIiIiBxhIExERERE5wECaiIiIiMgBBtJERERERA50YSBtQbscQihU/cosu12u4DKm6+s7NG24XSwiAmAtJOrPz8saLLcLRtSFeL30n+4LpIt55JBFqVxGeedlqFDEEBILvHS0noH8pIqCvb6fZiFNRnmxJnKdhfw9IPvUdn6WC1AXkwiHMuDlm6iTeL30o+4LpPtk5O7KEOzHhtIoTAH6vTwbasuJSJfTEO2H+mTMaRKwaMJ0q1hEBECAfDcHuc9+TETaUAGswCy6VCyirsTrpR91XyB9GDbUjjHXdbeLQEQHsMwVt4tARNt4vfS2Y24XwBsM5CcBjEQQcbso3WA5g+gkoBo1d95E5L6ihpSsQ9JKNSPVRNRxvF56HkekAVgLM1AASJdi1VM+qKV2F1GIQKFcRnrI7RIR0Y7dRYcnc0g8LSM3yt6QyC28XvoHA+nt0ReMZDHHC0dbiTd3FlDEkOdKZCJPEUZz2+fnHHCDO3cQuYnXS//o7kC6qCFxMgkdKgq1CxCpjbYXM03OQONiJiKPESDfykJaTGKe24ISuYzXS6/r3kDaHkTXrpKlDtG5KwCRh62YHJMm8gZeL72qOwPpnSB6JIsSg2hXVHYFkBDhYiYi7yma0AEMRnz6nG45U5/UwuGL+QXIbbxeelv3BdL2IJrTOdpvOVM/t2tnXvrURFftCrC1nEG06iLdfQkv9s2id+RX99VjyxQ1JOrmQhvIiAowksUYFziRjfnZMLPttROvl77UddvfWV/noAPAYhLhULLu+5JW4mr1VhqKQRWjCE1WH5a0EsrdVM/faxi7pDDgI2/piyGBcH1fOFVA+Saf1ZGdify9vNuFCDZeL32p6wJpYTSH8qjbpegmItLlMtJuF8NNmwYyo0lofEJMniNAvluG7HYxyOM2YfznVSj33S5H0PF66UddF0gTddQzA5k3o1C4+wGRezjC3rStzU1sbZooGHnon81g/iuOBBDth4E0UduY0P5DYhBt05onQquYFQcxwXolajEL2uUwkotul4PIP7pvsSFRR2zBmE4i+eedURwBspblI7sWsBbUqiB6YCqGAfeKQ0REXYyBNFHLbWHtszFIk3tLC8UpHfOjERx3sVSB8CyPmRu67YCEiSsielwrEBERdbMDA+nNb5cwP3kNiZ9Hccq21VT49WEM//sE5haWsFrc6mRZiXzBXBhD7Fd7W4qJUwXkbzLYa4XVzxTM2qZqircUbglFRESuqZsjvfl3Der1ccwesLDA+nse1t/zyN+ZBQBE3kxh/N1xjL0ZYaBAXW9rOYOkvBdEC29nkWUQ3RpFDeoN2waCwjjUX3JSB1HrHLKLy3IGIVHpdIGIPM82Ir2Ftc+S6H89WQmiT0tQtUd4UnqOcrm8+3q+8R1W9NtIvRkBAJj353AtrmHVpT/AE2qzaHGj+n3VJuMIXMaw2r2ih1Ton8qIuFmmwNhC/uNx2Cd1xD9MIfaSawUiImqbwF8v28WFeGw3kLY/jo5cyeK7tRzSozH0C9VjaT29EQxcSuH20nfY+OZzjJ1uexk9zZgOISQCBdvNBrdZqmVBuxxC+F4CJVs9BSrxzfc6rl6w7RU9lMKXC2mIDPRa4/EclI9sF5KzKpRR3qIQUdB0wfWyTdyKxyqBdFHDxPbjaOHtLB79t4xIAxvj9b42hs9Xn+DzK9354NpaSCA6qaJQToOh88GM6TCSCHBK9mcGMqMJzK9vfy3IyC7cRvwVNwsVJBa0DydsWSEFpKZSELuz2yEn/jSO6E/r08ufEocxfPkalE805L/ddLuURMG/XraJm/HYMWAL+U93HpnGoU42+Sj6pX6M/Xd/WwrnbQbmZR2SNscg+jBFDTOTgGoEtVOo3StahHpvHvIrLhYpYLYezGDcvq/tmyrGL/a6Vh7yoXUD+z3gNZfzMJfzyC/OIQNAODcGZWoGqX9j+yIXBP562S7uxmM/wlYB+Tvbj0yvjCHR5VM1GlY0sQIJCczXjHIkoBXdLpyHFE3oUBExEzX1lNn3wuYvm/vvFT3EodLWWcXc5Cz2JnUISL+X5Lxzagvrq3lce6Mfw5N5cHyaOi7Q18s2cjke+xG+XcXS9lVKuhAF78MbVDShQ0dyPVa1GLMwpSN5ksH0DstcAaAghzlbPZWQHVEQ9XXnsAVjOo7o7l7RAuQ/FZDlvN2Wqk2+gpFZXDvHGxVqJwv56WHEpw1wg1fqpOBeL9vM5XjsR5tPzd0dNwYjfJjQqEqDl5C9UjrizeAAACAASURBVP0gQbxZgAodyTts8gBgrusAVExULZQQIN/KQoKCGZ+uRDYX9km48jaD6JaqS74iYuYDPvKkRvRAHEkh/XEWXxpPUNrYwHP7AqRyGc83NlBaKyD3cQrxfZ7EGpMpqH9lKE2dE9TrZbu5HY/9aOtZqa2/IKiEyOAB34kgMgLgGxNs8kDktLT/N/oiGASgr5sdLU8rcK/ozqhNviK8pyJ11r3ykI8MjaNw9zbUd2XEh/oh9PbWnZ89vb0QXhUhvXsbX/5jA4UP4zU3aavIfJiF/3oo8qsgXi87we14rMEU4ZXtWGpXPHP+jg6TUzgasBKgelrFrG2vaOEc94pui9rkK4hD/VWMNyvUJr0Qf5uDPlWzVOm+hvz6/u8gao8gXS87yb147Ec9L4Xd+c1+NxSDCkB5UHsLYcJcBKRLMT6CBiC8kYAEHbmva+4HiyZWAKgX/LbnyRbst7bWVwqiPz7sJtP+iqI6L5iCaO3PMJkP9ku+MjClIMmF0NRWPRDfU5Gu6rjzWF3jskPqjOBdLzvE5XjsR70nI9hJsrvyj4MeG1TShpZr5pgVptpYMs8TMaZJwGQUmd3FUBa0y1EodXOculifjIkpQJdTtgn/BjInk9BHshgbcrNw5Em1yVeEFNR3OHWGOqAnitjb1YfWrA13ykLdh9dLh9yNx47h1QHEAKwC0L9axebbEe7c0SBhNIdyJIOQGNobaRzJolTmgig78WYZpdMJhE+GkNw5OFVgBkjaR23yFUB8fwzxl10rEHWVHhz/cfWRvGUBnLxFHcLrpTNuxmM/Qk8U8d9u/5o7M5h/3ObfGDRD6eqRemYj2pcwmquuJ3YKtI+65CvCONRfDhz480REQcPrpUMuxWM/AnoQ+3cVcQCAgYl3MjCedeA3E/mSiHS5fppTY68C1KrPUlGo/Zmu7jBrk68A0q0JxF5yrUDUjf6v+kvpFQ6NENHBKrt2nB6Demv7Ar6sQJJnscr1FUTUQXXJV4ZmoHCtAXXUKgpfVB+JCFyQT0QH293+buDXSyh8WFnZaH0xgcH+YVz9RMfq95tV2Z22NjdhPl6C9tE1qH/qfIGJKIDqkq8ISH0wBk7qoE7aWl5Ctmp6Ywqxn3GZKxEd7NjeP3sh/vYRVodmkfrVBPT1POav5zF//fAPiLyZwvi7Mi94RORYbfIVvKli/CKXPVMHPTMw+2tlN9MvAOBKDFE2QyI6xLHaA8K5ceT+kYL1eAlf6nksLa9g9YGxm90pMhTDwICI+IUEYhcGEOH8RSI6irrkKwNQJ5PcJ4EcMf5zGPMvjWN8NIb+lxscTd5cxez/k6DYpxZhADPXJe5iRUSHqgukK3ognJUwdlbCWGfLQ0RdpT75Cq4oSA3xcTo59M+9p6nCa3EkLkmIxaOIvhpG70u96Nm56m1tYtMykf9iDnMfziNfkwNDeG+mC1PSW9Auh5FcfPFPYjKK0OR+35CQfZqD3NfiohF5VIMpwomI2qA2+QpEjgI2zIJ2uTWZMY3p6s9JLFgvfpMPWH9fwtz0VSTEMwifOIHj/2L7O4+fwInIIBLX9wmiz6nQJ5mSnqj9/N+PMZAmIpfUJ18R3lO7cBTQCQOZUBjJ1wvV2ytORhG6rKHxy0flIhb9JovSzuc8zQJyuGvT1UdGbmPpL2mInLZI1GbB6McYSBORK+qSr0DC7HWOAjZkOQ8FErJX7PuOi0gbKrCYQ7544DtrPmceyUUJ2Vu2xAV9MnKGCkzO2NIU+0f/xSxm3ok3P8f+dBzj2hOs3E1hgEE0UfsFpB87YI40EbVeJZlL2u1ieETPhRmUyjNuF8PHdJhFAEeYi2qZKwAGEan9jL4IJCjIfW1B9tle3r1nZYx/KmP84y1Y66soGAWs/K0AY70E07ZwHohAvBDBmbMSYlIc0r9G9uZPdy0B8t0yZLeLQV3E//1Y13cbRES+MxSDCkARQ1jRSsiNCgAsaLcUYKrQ8EIvc10HMFj/jb4IBgEo6ybQkSS7bXCsB8KrIqRXRUhXxt0uDRHVCkg/xqkdRES+U3m6UZgCdDm8vbgmjNylUlNp5iOnJQArlREhIqKOCkY/xkCaiMh3thfXoLC7sEbC9sWoicU1wugEVOhI3qhe2GMtzEABIJ3mbt5E1C7B6McYSBMR+Yy1kEJyUUVhZ9SmT0auXEZJk4DJKDLLh79/j4h0uYQskgjbto1KIQEVwGDEp9M6iMjzgtKPMZAmIvIZc10HRiJ1O1NURmaAFbOZ/VMrC8z2tp8qIxcxoUCqX7xDRNQiQenHuNiQiMiPFk3ULaEpmlhpwUcbD5pb7ENE5EgA+jGOSBMR+Yx4JQsJCqJVSQssaDeS0EeymHO81ZMtsUETi32IiJoVlH6MgTQRkd/0ycjVzQnczhB2V25qoydrIWFLq7u9Yr7JzyAialpA+jFO7SAi8qXWJM8QRnMoj7akQERETfJ/P8YRaSIiIiIiBxhIExERERE5wECaiIiIiMgBBtJERERERA4wkCYiIiIicoCBNBERERGRAwykiYiIiIgcYCBNREREROQAA2kiIiIiIgcYSBMREREROcBAmoiIiIjIAQbSREREREQOMJAmIiIiInIgVC6Xyy39wFBo3+Pnz5/H+fPnW/mriOgIHj58CAA8L4k8hOclkfc8fPhw99ysdayThQDYORB5QW2nwPOSyH08L4m857AgGujgiPSOFv+6wPrd734HAPjNb37jckn8gfXVnNrzlOdlY9jOmsP6ag7PS2fYzprD+mrOi+JazpEmIiIiInKAgTQRERERkQMMpImIiIiIHGAgTURERETkAANpIiIiIiIHGEgTERERETnAQJqIiIiIyAEG0kREREREDjCQJiIiIiJygIE0EREREZEDDKSJiIiIiBxgIE1ERERE5AADaSIiIiIiBxhIExERERE5wECaiIiIiMgBBtLdajmDUCgDo4O/0lpIIBQKVb8ua7A6WAYiOkBRQ6L2/AwloBXdLhhR9zCma8/BEELTnbxSU7MYSHclC9otpeO/M38PyD4to1zeeRWgLiYR7nBAT0T1rK9zgFaynZ9lFKZ0JE+GkFl2u3RE3cBAflJFwXYOlp9mIU1GOejkYQyku4qBTCiEUCiM5GKnf7cA+W4Ocp/9mIi0oQJYgclRLyJXCaM55EaFqmPizQJUACsmL+FE7SciXU5DtB/qkzGnScCiCdOtYtGhGEh3FRHp7bvckia5XRgAgGWuuF0EIjpI0QTPUCJ3meu620WgQxxzuwDUxYoaUrIOSSvVjFQTkfssaDeS0EeyKNWMVBNRhyxnEJ0EVKNmpJo8gyPS1HG7iw5P5pB4Wq57nExELtpddBhG7lIJ5bsyeIYSddbuokMRKJTLSA+5XSI6CANp6jhhNLe9kGIOuMGdO4g8pU9GbnsK2BxS3LmDyAXizZ0FhzHkuXOHpzGQJhcJkG9lIS0mMc9dAYg8RxidQ3ZER/IOL+JE7thelD85wxtaj2IgTZ7AXQGIPOwbk0+NiFylc3crj+q6QHrz2zy0j64h8fMoTu1ueB7Gmdgwrr4/B+2rNWz+0+1SdpGiCR3AYMSnszCXM/Wb5zt8JRYYqpDXmDAXAbwe4TzpLrK1aWL1voa5yWtI/HwY0Z/a+6rK9TLxHwrm763C2nK7tMFX2d1KQoSL8j2pawLprW81TMRP4UT/MJLvz0F/YNj2ZLSw9lUe8x9dQzJ2Bif638LEwhrYP7RQUUOibi60gYyoACNZjHEhBZGLLGiX6+dCG9NRKJCQvcL9AgJv08TSJ9fw1uthHD9xCoPxJK5Nz0F/kIexbv/ByvVS/68MrkqDCB8/hcRHeVgcgDq65Uz9XOjt3a0wNeHb3a32zWp85Jd3Erl1QSC9hbU7V3GmP4nZ+w1uZ76+hFn5DGLXlwK2AfpOQpYQwrIOQEF0++u2Zy7riyGBJMJVJ0IUylSBuwIQuU5A7BKQPFl9sYpOqiiUaxMpURBZ9yfw1vU5LP292SdjJvT3hxF+Q0H+h7YUrXsMxaBORqsDxpPJSsbRm7yZ9aqA7yO9hbXPxhD7lbNdIYxP3sLwsxwe/beESMvL5oZKQpa0K79bgHy3DNmV301ELyKM5lAedbsU5FvLGQxfPI7CgzTEl9wujF+5eY0mpwI9Ir21PIux2iBaiGHs4y/xpLSB57v57J9jw1xB7vf1AbN5JwVlIVjj0tRGU4XtNtX8i/tpE5EXCK/Fkbr5OXL5FXy3sYHn/2frq/7vOTbMArJT+wwwLStI/cHgtEjqKsENpLcMzL6jVM+hGUrj0TeP8Pm7cfQLvejZ/UYPel8ZgPReDt+VvqzZ+NyCdmMWS3xkRUREgXUC0lQWhafPUfrmS9yeGoN0bgCR3l702J9dH+tB7ysi5Js5fGdmIdfc/69OZpHf7GjByeP2ckcc5bWCGY+upQpsIL15fx7KY9sBQUZ2QUXs5Re8UYhDXajpHKw5zH3BUWkiIgomYfRz5G7KEPt6XvzDO16RMb+YxkDVwTnk/8YxaWota0HFhG0t18BUrKbduSeggbSFpYX5qiPxKRXyKw2+/RUZs7ekqkNLH+tYbU3hiIiIAqHn3xJInq0+Zv7AIWlqoWd5zNzQbQckTFwR0cQtX1sFM5DeeoKVRfuBGKRzzS0XFC6lkLaPSj/OIv/4wB8nIiLqQhH0c0MJaqPVzxTM2ha7ibcUT+0kFMxA2rJqtq0TceZ0k5/RM4joJfuBVaz8gwkziIiI9vSgh7t0ULsUNag3bKvdhHGov/TKpI6K7UB6b3/hus3AD2BMe29T7F1WJVvenuMOPqQX/QOxqiP59dIRCkW7arMBNtjmyOeKGhL8/z7Q/2/vjkLbuNI9gP8NveBAFhzYCyNIoAop1GEDsdkLHrF9iNwUopBCRjhgiT6k8l5o5QYau11aKX6wR1l2a6eQRi3cG22gRWOI0QRaosCmUR62SIYWq9ASB9Z0AjFo4BYs2EIFG9B9sJPMSLYjjeWMZub/Az1oLKmnJ9KZb86c833rY2pzURR6ho3xhJVB7VKBvmI+4tvbLTfdnauxiIk3v981FC5PmOK50MU4gl124ebOGekO2dNn3o6sP6yAK792pjTTgx4RKBp34zLRvAeUkDoQbbjApcf0+TACU3a3woFWFYTFpN2t8LbqMoo3jAeCGOjvs6s1LqBDOdMD340wKl5Pj/p9GsmPDBcQR2UkR7uvqoc7A2nBD/NWwQrWLETAwoHD5gM/V5kfcwfWgwUZxXoCrg2dP59A4KXmcqYHxWEMnxlH8hMFhfveuxwrzQSQHJEhj9jdki60UQJYnpbtbonD6FDOR6FOy2DP2ad6V0XaeOBEBMF2l1LSE6UZH6LIouL5ir86lIuThhUPAuLTcYhdeLPDpYG00JAoPodimSGwvUrIRFRISsy9QTQArJRQWmk+rC0WUFhII3UuiuH+ffAFx5D+xhsB9ZMLqOsxl1QI7aT1mXooFSSO290WZ3kScFwIPvvFtDtqJaSnzRmyYn8M83du1aqC2SlAPu/1IBqo3Z7FhDFpxAkZE6e6806HOwPp3sMYNM186Uh9lAUzQdtoVcMSJISRaZit9eaaUP1uBuOv9GN4quDu5UKLKfgiQPahi+9CWKZDORNAcrrozdu2O/D04owBh31qKH00Ya7XMDSL+OnuDHYcYVWDChl+LdxwnuzCvWi7qoz01JyhKrWAxHvRrr1Ac2cgDQGh0Zj50K0xDL+pQHvU4kfUdOTVXMdb5lmrGlSoiK4ETdWKitMqoge8GUwDOgozwwjNuLSk7sb6VbmU66pURd3i6YwqLzHawouzrqDNxyBNGcM7EbOfTXRNkQwn0rUlAEnkkDacJyvIjiQR8FAw3Vh8BSNzGD/WhWs6Nrg0kAb6TsQhN5ST1K5FcbA/jNR8Act6FTVjUP2ohqq+jNKNDCbfDODgHh9OfsQSLJ2yPkBIyJ41n/rEC0XIUBG95tQhohfiSByJy1ncLN1DZW0NvzaUNv11bQ2V5SJyl+MIbbJ2sDQVh/yN20Lpjc2F00UkurSsq53WZ1QlZC9xRrUtGxdnkpLmxZmNaospRCOKacYwomQxcXSbN9EzaSsqABmTpjtUAiKXspCQxKwXMnc0FV8RMfthd4+TL9jdgF3TO4CJj2XcFJPmq7gVFcmICkv7vHu794qo2wn+QQBLm/zFD/8IgB806BC7+seyqaEJFK9v/5Levj4IfSKkl0VI78go/TkK6cO84SRURupiFrG8i9YQLxaQHOFs6+Z0FG6okEt1BoNt0v+RgzpdRJ1LYWxTW0wh2HBeFadVZLowm4LT+A9Jm/9hvx+DAJIrGuC8s2RbGouvCO/JiHf5BVrzjPRUoCnjwGYPJ6Rq6h1KIP8PGUGL3ztBaHjjSz6Xf4V3mwrNk0s4jPogfpCDOt0QYN5SUNhkk6KjLUThM40bPkQX8GSM8WZe1KeSYsO4KiYBqIge8OKayDY0naMCSAJQIz709PQgtfjMTyCLaospnDzdGEQXUbjQPeWanW/Ju+fJxuIrCEH+72DXf7dcu7Tjsb4/JHCnfAezI61fLQvHYrhSqKD414DpuPQiw2jLhoKQASRvN4YHGrQFQDod9NBFSi/E92RzCXoUUF520bbDoYRpecvTtX4ApovezYsKABAQud7YN3XUSzIACdmHddTdnCJyB4TR3CbfqyJkAJJSQb1e51KiXVL9Zj2ILhhLNU8XkWcQ3THCK2FIUJH7R8Mkw6qGJQDycTePCs3FVwamk4g6IJVicyC9cZJ71qM4bUNrrRKCmLj+E9b+eQfZyxOIHQ+i37QEqR/B4zFMXM7izvIaKoWriB8ToP/TXD6i389bV9aJiCkSMBUwzBhtZC1oWhPmAb0BBN8wH1rW1+xpCxHRNqq3kwi9YgyiBQQvrs9EM0dHB+2PYHIaUCNxwwb8jf0mI1nE3HyR2Fh8RYhDfssZF2nuXSO9ib5DQUTeCSLyTiuvLqP4lfF5HIHf7U67vEIYzaHuT6FH7Hm6Rn0ki0q9uzcS7I5e7PmN+UhB1wH3rJImIhfQ5scwHMkY0scKCF3KI/fugCOCHKcRL9RRORSG70APoo8PThddXgG4sfgKIL4fQ+i3tjWoLZ4KpNuysoS8MT/mSACDvPTeuaEE6vWE3a0gW6wvaYjY3YxuNZRAvW53I5xIRIIdtwuqKH8cRei8cWO0HzHlDq5yY+GuEkZzqI/a3Yrnp6n4ijAB+Y/OSaTo+jXSVpVvpFEwPA+dcGBGCepu/zY/5Rp8IuoKjzQobw5i0BhEC0Ek/r7EIJo6rLH4CiBdmkRwr20NahsD6c2sKpDfN+aQjiF2ioMHdVLj0iHAL/jsaQoR0WM/F5B8LYDoNUMt4EMxXL17E/Jx3palzmoqvjI0i6TD9kxxaUcTDcqHjTtHnbNWh5yhtphH1rh0CHEE/4srDonIPrX7GcSOjUEx7vk6lkD2uowgz4HUaU3FVwTEP4w5rjomA2kTDflzUUS/cObOUXKIX0qYezcJU93Ms0EEONlDRDbRbowjKqVNG778Z7O48z8R+Bkp0C5oLL6CEzImTjnvRMilHY/pBaReD+DkJ8ZhREDkcpKz0bSp0p+HMfZJHss/t1Heu1rGXERC0lQ0YgCz5ySmkSIie3yXQsAURK+nt1v6G4No2iVNxVcGIE9FHZm3yv2B9KqKsUgKyt1l6L8Y/1BDtaqhfEtBKnIYPt8wkl+Zk6CL0yoyI85aq0PP0aMCMudO4vB/7oHvyEmMT2WgLi5Dr1ZRe2R4Xa2K6oMy1E/GMNw/iMmG75nw3mzXl0AlIhd7BJhHJR2FDwPY10KV4y0fZxR4u3Ypba25+ArOJhEfcua9fw9ca9awNp9EdD757Jc+ISB4UcXND7ikg1qj/5hH+sc80jPtvU84JkOd6v4SqNTdSjM9CEwZDoxkUbnuxfzsbVpVED4QNZ3Q5RKrIxLtqsbiKxAdfVd2Y0Z6PQ9nvV5vOem3eOFxlUOXlbIVgkjky7jDIJp2mX/kCvJfJiA6KM0PdRsdypkeBH7IomIsxY4ofD0p03pXarCYQs+BKAZL5jLtSbEH4XnOpRLtjubiK8J7sqPvyrp/aUerhH5E/noHFe0O5BOcx6Fn6z+VxexbofbXdB0KYUK5h6XrcQwwiKadWC0gtwDI542zzwIil7KQkERhcZv3elzpdhJoLLs8lEBxGlBvFLgsgWgXNBVfgYS5c86+K+v+pR17/Qi+JaFaLqOwaMyLKSLoP4yB4yICx4MI/c6PXvf3BnVQ39EIJj6NYOJyDfpKGcVSEUvfFlFaqUC7XTKU1PVDPO7H4aMSglII0u/5XaPOWtJ0YIgTAG1b0KABXALDirP0nPQen0WlPmt3MzrK/afzPhHxT3OI290Ocq8XeiG8LEJ6WYR0dsLu1pCX7A8iPAJEIz70rBSfLM0rXYtCHckizbW+WxKPy8BUEoGeJWQf5hDZD2BVwewUIJe4vpyIWsOlHUREjiUgcr2OiiIBU4EnGRMCKKLOzYbbG0qgXi9ChorogY1MEwdyCD/kZkMiah0DaSIiByvN9MB3I7yx2bAIGVgPqpl+bHurCsI9AWBjs2FFkYCNoDrFteVE1CIG0kRETrWYQmBKQvbS49nnjQxMJRlYiCLO7BNb0KGcj0KdLj6ZfRZGc+sZT0aApMiMJ0TUGgbSREQOpWtLAAbh39/wh6EYsiOAuqJt9jaCBm0BkA415twREDkvA1iCtmpHu4jIaRhIExE52mZB33qgSNvb7EJj/eKEiKg1DKSJiBxKGJ3c2CxnXopQmgkgCRnFFgtseY+I2MYGTVPxlVUF8YgKSUmvZ/EgInoG96e/IyJyrfU10cGZHgR6kk8Pj2RRqTNrx3aE0RzqrygIH/ChJ/L0OEuEE1E7GEgTETmceKGO+gW7W+FA+yPI1SPPfh0R0Ra4tIOIiIiIyAIG0kREREREFjCQJiIiIiKygIE0EREREZEFDKSJiIiIiCxgIE1EREREZAEDaSIiIiIiCxhIExERERFZwECaiIiIiMgCBtJERERERBYwkCYiIiIisoCBNBERERGRBQykiYiIiIgs6KnX6/WOfmBPz6bHX331Vbz66qud/E8R0Q58/fXXAMDfJVEX4e+SqPt8/fXXT36bjV54no0AODgQdYPGQYG/SyL78XdJ1H22C6KB5zgj/ViH/3Ou9Ze//AUA8Kc//cnmljgD+6s9jb9T/i5bw+9Ze9hf7eHv0hp+z9rD/mrPs+JarpEmIiIiIrKAgTQRERERkQUMpImIiIiILGAgTURERERkAQNpIiIiIiILGEgTEREREVnAQJqIiIiIyAIG0kREREREFjCQJiIiIiKygIE0EREREZEFDKSJiIiIiCxgIE1EREREZAEDaSIiIiIiCxhIExERERFZwECaiIiIiMgCBtK060ozPejpaXjMlOxuVtfT58PN/XZGgW53w4iI2sTxrD3sL+dgIE27rITClIxivY7648fDLKSpAAeFbeko3ACyDw39Vi9CXojC15MCL0OIyDk4nrWH/eUkDKRpl4lI1BMQjYf2R5BWJGBBg2ZXs7qegMj1HCL7jcdEJEoygCVoqzY1i4iobRzP2sP+chIG0mQLbUW1uwmOpGtLdjeBiKgjOJ61h/3VnV6wuwHkQYspBKYAudQwU03bW1UQj6iQlErDTAURkcNwPGsP+6trcUaanpsnmw5FoFivIzFkd4uc4cmmkwM5hB/WkRsV7G4SEZElHM/aw/7qfgyk6bkRLzzeNBFEgZk7WiaM5jb6LQ2c585tInIujmftYX91PwbSZIONTRNTs1C4aaINAiKXspAWosgs2t0WIqKd4HjWHvZXt2IgTTZSufvYoiWNcxJE5A4cz9rD/uounguka6tlqNcmMfbaMAIvGZOdH0TgtTDGpzJQv9dRs7uhLre++1iCn5sm2rOqQQUw6HfzOrkaqvcLUD5JYvzMMIaP+ExFCXxHhhF+ew4FD16E1aoayrcUpKfGEW4aw3w4HBxG+O0kMjfK0DmIUbfzxHjWQeyvruSdQFovYO7MQew5MIjwm3PI3C6gtGJ8gYbSbRXpmTGEB3zY81IYqRvLDKh3ajHVvBZ6Y/cxpie5+3grqwrCTWvhSkiJSWAki5gbN2o+0lG6NomTL+3Bvv5hRM+lkF4ooPCjuRf0HwtQP5tEySuBdFVD/pNxnDziw559BzEYimJ8Jg21aQzTsXy3APWzFMakQfj2HET4owL0R3Y1vHtp/zvMKqvPkxfHs51gf6G2mELAVNmxewvReCL9nXZjHFEp3d4/woqKpKTi5js3kb0cgn+3Gud2Q0HIYgA9U+bDklJBnbuPt7Y/iDB88PVEzceni6hfcF/SwOp3acRGx6GuPPu1XqPfmsTJc1byrmtQ3x+GqiZw5ysZwd92vGkOpaFwo2B3I7zFY+PZjnm9vx4oiJ1Odm3g3Mj1gbQ2H0UgYn2Xa+mTkwhUcyh/LoFhnxUiEvU6EnY3w3EERK7XEbG7GbuuhuX/jSH439yJvmsWUxg+tQfF2wmIe+1ujN2qKP15DMlbdrfDa7wynnWKh/urWkJqNArFQScEdy/teKBgsimIFhD84xXkyj9h7V+GOva/rqGyfBNX3mqefda/iEP+qvr82k3kEdr85kG0/0QcV9Qi7lXW8Ou/Db/Tf63hp3IOV94KodeWFttL+F0I8QtXkSss4ae1hr75969Y04rITkvNd9AWk4h/XPLkUrVatYrqgzLy83MYC/Yj8GGBF21E3eiXElInAkg6LCuJi2ekayj8zwRMN0SFEGa/ymLi933NL+/tg/ByCPFPQ4idyyB2bMxwRaQj/UkOE6diXOJB1CG1xRSijRe6h2K4ujCL2NFNfqMAsLcP/qMS4p9Kz6OJXWIfpOksJs9KEPdvc/nwQi/6XhQRuZBD5A0FUdE8q1OeyqLwjojQFl3rLjqUMz5E8fTH+wAADRNJREFUF+xuBxG1RoPytuS4IBpw9Yx0GaVr5nkH6VJm8yC6Qe/LMWQWEhgwHrydR+lBJ9tH5GG1EubeMq+BE47JKH57desg2qOE0avIXYhsH0Q3ejHSPIYhjcK3XpyTJqLuVkNpJoroF49jNgERJeuYJaHuDaRXNSyZ4ug4YidaX+Xc+4cwokeNR1QwdSNRZ2hfyEh+bzgwJEP9MgGRMXTHNI9hgPYzl6gRUTdZ3ycjTT2dVhGnVWRG/dhjY6va4d5AuokP+9o6Sfvge2m32kLkYbUCMlN5w4EBJD6a4Ea4jvOj3wMb/InIuRr3yYjTRRQuiI7aA+PeQPqF3oZ/iALu7Si1FouHEHVC9ZaClPHuztkkJv/gpGHTKXrR69mLk/WsB082YhofJdnuxhERmvfJCG9kkXVYEA24OZAW/Bg03dYsIP15G7vWa/ewZNyociIEkYE00Q5VUbydMTwXkHgjBK7o2A0V6A2TB769TjtFkd1KMz2myqLGR8qBG8N2G/urRY25oodkqJ9GHJnQwb2BNAYgnQuZjpRnJIQ/LqOVVYLVWwrmnjwTEH8r7Mh/YKKuUltC4TPjgSiCIoO7XVFdRvGG8UAQA/28ZCELRrKobDK7n/BAhT1L2F/be6Bi7Lghq9BQHDfnnZvnfstAWp8Pb3FVFYbikNK8/rNXkH3DuMFQR/78IPqDk8gs6lvPTj9QEH/76ayZ8MYcJk7xBES0Y/fLMNWUeyOAwxtxdG21DPXaJMZeG8Zhn3HMOYjAa2GMT2WQv8/Ncq2q3lWRNh44EUHwkF2tISLCeq7o0TAyj++WCRFk568g9KKdjdoZF89IA4AfkU/zmD1lztah353DmOjDnpdOYvyTPJZ/NvzxgYpxQ1Ud4ZhzbzcQdZvqQw1l44GXfOj9UcFk6CD2HBhE+M05ZG4XsGzKkKOhdFtFemYMJ/v34WBoEsp9pnHbVq2E9HTGdCj2R95VIyI7NeaKFiHfyCDyoo1N6oAtA2lhNGe6JVFRHFoAYe8AJr5cxtLlTap9reSRPncSh/+zBwfFMUxOjSHgDyO9CAACgu/mUPy7c283EHWbNX3Z9Fz4PIr+I1HM3dJa/gzt1hyi/UGMf9X6e7ylhtJHEw3pBWcRP827amTRQhQ+453pmdKz3+Nl7K9NVDfPFT3k/KV9Lp+RfqwPA+9kkLsU2vIV2mIGczOZjYXv/Zj4sow7lyT4XVz7keh50/WC+fmKZrFccwnp16NILXJmupE2b87JCoiY/WyioTgLUWvECw1rfR9mIU0F0HNGYan1TbC/NlNDaSaEwJNxSUDk8yKyo+64R+aJQLr6o4JxcR8Gz6/nrhWOTeCqcgXxU/3YvETLMuZeH8DweQXLXJJJ1CE1/PqvzY4L6B+dwFW1iHuVNfz6b+OJ6Fesrf2EJfUKYscaf60lJE9PIv/zZp/pTc1l19dnfSaObvMmonbsjyCtSMBCDgWH7JeyFfur6eJenFaRecMdQTTggUBa+2ocoSPRjeUagPjBHSwXZhEbjePKl/dQ+df6STp+ovEfVUfh4ygO9w8j9Q2jaaKdq0J/YD4y8FYWS/9XwT1lFrHTIvqFPvSa7gL1oq/Pj4HTcVwtLOPOBw0VRvQ0ktfKoPUgOiiay64/rhBG1EnCK2FIUKF5NDBsl5f7yy25orfj6kC6tphC9PX0kxOLOF1E4WLQnLN27/pJ+kr+J/z6sIir7wbNs9R6AclXQryFTLQL/K8EMfDbVl/dh+DFbEMmHqCsFOD1ULq2mMLJ041BtPMqhJFDrGpQ7W6Dk3i2v8qYM4xLbk3e4N5AulbC3FuGE8vRBObe3f6k0rtfROzSHWjLWcRN+R5LSJ6OQfXg1SRRd/Ejcn7SvN73+yKWH9jUnC5Q/WY9iC4YFmCK00XkGUTTLtG1JQAygsyL3BLv9lcNxoXh+t0kAr/ZumCN+RFA0vRZSQQaX9MlmzhdG0hr87Jp13roXKzl7Bu9L0dw5XYRsvFLryuQ570+70W0EwL8RzrwMUcDMG8bVqF5dBdP9XYSoVeMQbSA4MX1mWjm6KAdW1UQbtwkt5iCL6JCUmIQt3qfV7G/PMmlgbSO0q284fkAggNt3kzYKyL+fsx0iLeQibqBH4dH7G6D/bT5MQy+ljIs5xAQupTHzQ84E00dst+PwcZUbmIScqmO3OjmW/U9jf3lSS4NpDVoC8bnfvhaXof5VN8REUHjge81VLjvkMgy/yFzPnp1hbmg21dF+eOTCEQyeNp7fsSUIm6+O8AgmjpIRIKlrtvA/vIidwbSqxqWOvE5vXsabo9WUP2lEx9M5E3CS4PmzbxlDe2H0hVU/tmxJjnLIw3Km4MYPJ9/evtYCCLx9yVcZXYOIuoqm19YtPYoQjZ9loxi42sudMdiGXcG0vv96DcdULG0bCHrxs+VhpO8D32sckhk3aEBhI3Pb+RQancTb7UCzVi1DxH0v7jThjnAzwUkXwsges0wKh2K4erdm5CPc0U0EZEd3BlIoxf7GgoQZG8X0W4orZUb1kQf9cPH8xWRdX0BBM8aD6iYbXMTb/WuirTxwNFB+F2+/LB2P4PokWGk7hpKrRxL4E7pKmIvczEHEZFdXBpIDyAgmc+s+keTkL9pI5T+pYD0h3nToYFIkGV2iXakD8GRuGl5R/n9eOt52n8pIf3XjOlQ6Jzk6t+ldmMcwf4xKIZUAP6zWRT/LiNoYe8HERF1jksDaUA8NdmQaqaM1CtBJG+1kCfr5wKSr0cxZ3ppCPHTbj5dEz0ffSdimGzK0x7G3HfP2Mn7yzIyb0tILhqOCXHET7l4bfB3KQSktCkzR/BiEUt/i8D/wjbvIyKi56LFQLqK4u2NujxHA+jfv3sN6pijccxdaAx8S0iFfDh4JgXl7jJ048bBWhX6/QKUmSgON9xCBQDxoozooV1vNZEHDCD+sWy+0NXzmPyvfgyfz6BwX0ft0dM/1fRlFOZTCA8cxtgXxt+lgMjlJEJunpV9BHNOWugofBjAvpYKGmzxaMxz60o6lDNb/P+L5jIPmAps0VdhKCzCRUTPYA6kV1WMReaQv199up74Fw2FP0cRv7b+VHo/6pDbqL0Q309DPta8eFJbSCIaPAyfscLOnn3w9Q8jOqVgueEs4z+bQ/YDppXylhJS2wYkKXRHTSVn6h2awNzFIBoWYKHw8RiG+33Y8x9P+3qP7zCGI0moK+bPEKdVZEZcvjiayEVKM+ZxNDzv/ks6cr+GGeka1uYncbJ/H/Y8/rL/5iCGP8xDh4DghTvIOCmp+F4RiS/zuDJi9dbv+v/z0t8k19WGp2fZKm1PBdkRACN+fid2pBfiBzeRvxRC+yOKgNClJRRYApvIIdbvEAR+yKLyeCx9mAUivq4p80xklTmQ3utH4GwQwWP9T09uh0QEz8rIlsq4Mx10XtnZvQOIX1/CPWUCoTaWZgjHJnD122Vn/j/T7lnMILoAyOcjFgJAMuvFwLs3sfztVcQ2uXO0GeHYBLI/LLPwCJGTLGYQXZCQvWQYN/dHkCvJwNQsl9CQo5m3q/SJmPjbHUzY1Jjd04f+0VncHJWhf5/HTbWA/OIyln8oPF3GIfQjeCSAgVNBhI6HEHyZ4TM10qFcSgIjWcRYqapj+n4fw9VCFPL3edxU8lC+K+Le3eWNdbwC+o8dRuD3EUhvhhHy2u9yKIF6PWF3KxxIQOR6HRG7m0EAAF1bAjAIf+P+qv1+SEgi9w8dESfd7abnYP2usBNGP4/t++6FcFRC7KiEmN1NIedZLSC3AMglzkZ3Hn+bRG6lragABpv/sN+PQQDJFQ3gqEoO5dr0d0SdVroWhcrZaCKitvgPSQCWoHEJB7kQA2miVqwqmJ3i2mgionYJo5OQoSJ63px6UZ+fRRKAdIhbt8m5GEgTtaB0LQoVMoKcjSYiapOIRL2CLKLwGdLfxRGGDGDQz+kJci4G0kTPsjEbLSmxhmqZRETUmvUNoMZ0ojm/hiSk5k2IRA7isc2GRO17PBtd5K5yIqKOKd1OAtNFRBhIk4MxkCbaDmejiYg6TIdyxocosqhc58hKzsalHURb0qGcX5+NnuRsNBGRZfp82FAe3Ifc6Qrq17l5m5yPM9JEW2JRByKiThBGc6iP2t0Kos7jjDQRERERkQUMpImIiIiILGAgTURERERkAQNpIiIiIiILGEgTEREREVnAQJqIiIiIyAIG0kREREREFjCQJiIiIiKygIE0EREREZEFDKSJiIiIiCxgIE1EREREZAEDaSIiIiIiCxhIExERERFZ8NwD6Z6eHj5aeADA119/bXs7nPJgf7XfX/xdWus3fs/YX7vZX/xdWus3fs/YX7vZX9uqdxgAPjrwePXVV21vg5Me7C8+nseD3zP2Fx/d9+D3jP1l56NnI/jtmJaidyIiIiIih+MaaSIiIiIiCxhIExERERFZwECaiIiIiMgCBtJERERERBYwkCYiIiIisuD/AcObj/F8X00DAAAAAElFTkSuQmCC;" vertex="1" parent="1">
          <mxGeometry x="-800" y="150" width="722" height="782" as="geometry" />
        </mxCell>
        <mxCell id="jcv9un-va7KM5RT3XpyI-5" style="edgeStyle=orthogonalEdgeStyle;rounded=0;orthogonalLoop=1;jettySize=auto;html=1;strokeWidth=6;strokeColor=#FFFFFF;" edge="1" parent="1" source="jcv9un-va7KM5RT3XpyI-2" target="jcv9un-va7KM5RT3XpyI-3">
          <mxGeometry relative="1" as="geometry" />
        </mxCell>
        <mxCell id="jcv9un-va7KM5RT3XpyI-2" value="" style="shape=image;verticalLabelPosition=bottom;labelBackgroundColor=default;verticalAlign=top;aspect=fixed;imageAspect=0;image=data:image/png,iVBORw0KGgoAAAANSUhEUgAAAtIAAAMOCAYAAAAz4eFKAAAgAElEQVR4nOzdb2gbV7oG8MdLLziQBQe6MIIUqpBCHRqIzF3wiNsPlptCFFLICBcs0YVU7kIqN9DY7dJK8QdHyrKtnUJrdaG1G2jRGBKkQIMVWNeTD10kQxcr0GIVajKFGjSwAQsasKCFuR8k2yNZtiVZ9ujP8wNReyI7J6dHM++cOed9obeJjCzpAHSMJ8xuSuP6bV1/lIrq09d8unRW1K1Avs9g1cWzXj0oJ/TMb2Y3shGt62vpBT3y8YjuPevQu4WNfoNu7XXo3nem9bmf1sxuZBNZ1xPj4mYfBpNmt6fBJIObfVPJS5IzZre4Mf13WZ/7otxn1q/P8eOq67quJ8YrH2ebr4GIzhG3Ze2nOX36Ha/ueEHY7CPhBYcuXZ7S59IcaDtZ+2lOn7os6eJJQxwy4NMnYkv6WoPFITC7AYfjkR4ZAAPpXS3pQaGCk+RJrz6dXje7sQ1kSZ84WckFRtAd1xZ0njb39kh264Kh7xhIl2AgvT+/PdKj7zgNEwWlL0mP/GJ2IxsDA+n9WNMXrjmKzmXlXuJbc/ojs5vaUCrot16fPqea3c4tf0Ary2Wh/RjH5Kv98NwxuzGNLgdoAIRuuMcjSKhrWP9Nh67r0NfXsBwPwikAWJnBUN8o4o/Nbm+jyCG3AgBWOC9PYS6dwdp6od/0daypC5gYsALQoFzvh+dz1eT2NrbcYggetwzN7IY0iWByY6zt/IoOCmY3s3E8SSL0sh2uD+NQBQe8H89hObO+2Vfr/13G3I1udJrdzgYhXtt7fG28Hn3hNLu5DSSH5HUn+q8r0GCF9MECHq0ZxpmawPTbDggAkp+ch+d6Ejmzm9wQjP0mwvdFAo9+LROHLIZxfjCE5BOz21twaCH7oUrowZ3uZDgjvYMlfertiL68y5TpejKoi4V+dHzGe+i8hD4xMKEv7DoF80ifPlcYf2cm9KXDalqzUSO6W4AOiHpw3McZ6Z0YZqTZN9XI6NHXhM0ZrahqdntayK8L+kjhiaaT1wZd/2lad248Efpyp/5Y1xPXbHwKYrD+r5HCTLSgj/yr/JPv9dTEZt/axhN6Izwfb+0ZaaqCDb6bbnR37fyOzl43vGfzXyvzSc4aAgBEjNwegWPXST8rTomFLx/mOPNQzpMkQoMeyJoAtxyB/6zF7BZRi8neC8L3lQZAQmR2CtKzZreodaQ+D2BSAyCMYGTQanZzTKelFMQBABJcfTv1RydEyQMbACAGdfWQGtewNMQ+n8zHFeeC8J0t/1yo88wIgh/key01FoGSPbwW7qRFA2kR/qLHTgkEzW5SSziCI7sE2rSL3wr/PdPJx8alniQROmtHYBEQx2OY4YWY6k5F9J9haABsHwTgftbs9rSQx3HMfJAEADhv+OA4anJ7GkoW65w5qUxuGUuFJbjCiz3Y7Spge9GF/NxVGMp35ndwiwbSdDDWsd4Ad39N52cZU5/nv3S+KRVmIChPhfymhMAiILwWQeSayBsNqr+HMYTvA4ANnrP8BNZPDsl/BhDWAJwJIsCbYACA8FxP4TyvIDAuY6edMVo6gRQACH6IZw6rdQ3qsbbZT/Zn93gi+bwNrsKXqZ8zB9mqijCQpsqtKIjN57+0id3gFqY9PNGQvj8J19n8kgXHjQQib/BCsyWH5HUPPF9pEF6bhvKpe9dZCNouIHago2PjZcEpRz+G3p1BfIV3vEbq94WABU7YX8hCvR/G8Kv9OGXZ6LsTsL88hNBsEtrvJje2maxEEBzL96z0rhci74LzzvgQHs+v59O+8sDuGIX8sOQz+SSJqQ9iAAS4b3rhYN9t+X199z/vOoaNUFvRGmCRqdmLtA+HYfMhNxvWyLgxwqZPpMxuT6Mq3egq6I43JvTo90x8V2ozzV1vUE/8WvKH3FC3s4rS3zHdotFmGrfnRUNe2uZIrdW41vWFdwRuot7Rmp74QCpKsyi84NZHvpjTl5IR3debz43s/WK5ITbMmc+QgvedhT36pLFiOs5IU0Vyi5MYuZ6feRDemYCv3R9DVUyDcm8GM59GoDTAjXOj2ExzJ7gRmfVD5LrKyvX6y6cg+zWDZWUaI30CNtItOj9Kmd3aBqBB/b7w5Y9JaLYgIsoyMr9u9d362iMkvvBBBBovtVajehhG4EMNgADfuJdL1rbpgvjGBCbeEzePaD/ImHz9PHpED8KL3fDeXsD0JaZbzOuGeKnwnPvDACYXzV/7XDETg/hD1Fh3L01nMy3ZDrOHVN5v6/qamtCn3ypU6RMcejDJuYf19PRWmrud+oMz0rX7dUmf2Ei3CK8e/a/ZDTJbZqsg18XIrsUv1uIjm4UgnF8wjdvO1vS5yxupBDkbXc56akqXTubPc/54Jl85OBnRJy4XFwOyDkzoibb/jBYYYw3Boftjy3rGEG+srz3Sl2JTurdvq0pkI8R0DKRpd2pU9248ChXcekQ1u0HNyHDRORPUE20eS+cfswu6W94lUGEgvS/rin8zIPR93e4LPAyB9J5V9x7p02crC7rb2XoyqNv2yPfb1n6JFgLCHc5za4/0uRvOrep9nKDatHUDsvNL6HNs1rRohMqtXNpBO3usIDDowswKAMGN6QczTBtVky443d78lw+noPxgbmsagwbZfcKwUa7kJQY237m1oc4Fue1zrVam87lTsBe+zjxpokekprPiVG/hy7sqc+WXpSIyHshv3twl32/7ykH51AdZA3A2UD6TSZcVzvfmkJDd+U37iwH4PucyLADoPOND9PsMFj72QeozJDU4KcJxKYhIMgP1C+/mZsPuZ8xPe8BAmsr7OY7hC/0ILWIziPY+zxNmzY6fggQA0LD0Ey/PRIdHgPV04ctvVeyZLOt/Drg5TS43H0bgPgAI8L/jYaadbdJI3iqc41/sQfcu77QOjmK0sN8olUzzxm1DpwDHW1OIKsvIbOwB+SmBhS/8cPcKwE9LiAEAfLC/YHJbwUCayvlZxtDZ8wgvAjjpRSQZYRC9X49VJApfWo62d1+K18pslCt9JbdKKAWTG8ejcB83seHNJLeOjWRbnU+Z2pKGYD2Zv42FtoT0rk81sljbiLRZPKmMFMJjhepzA5MY7mMPbZdD5RGxBZbnDrItrSiHxHwk/+VlJ+wNUCSOgTQVyT2cxHnRk1/O0evHQnKayznqQP0+UTi3OmDbrQ47UR2o38agAACccNjMf/RpNuHPTjgBADFE5ncqjwEgt4TE3cLPSHZmoiiRvTeDiUUAsCF4VWItgbI60bmR1erbJaR3fa8K9dvCl0938catArnFyUK2GBETf3WiEa6mDKRpU3Y+AIdtFHENEF6bxvJ8EI6nzW5VY9PujGJ0No1dy1/8LCPwfjz/9Tk3HCcPo2XUklZjGB2LQ9tt2bNhvAmXfXBxvAEnXfBdzod98fcDkH8u/zb1ThghDQBEjF4Qy7+pXeWSCI/ly6zjUgC+XoZ95dng+Eth7MwHEZzd+cZNnZ3ClAYAAvwDjoYIChvazzK8FwNIAhDHJxsnDa9ZuxwPF7N27GUt7tvcQSy+Ncfd6hXKyNJmov2gvKAvZ9a2Esn/+khfik1s7UBm1pPKMWtHeb9EdAnQIXTr7vGInlAN4219TV+Oc7ztyJha66SkTyiP9PXfCn/26yN9wVA8Q7yxxCIZJTbOdYDIglx7+TWhB3u3iiM5b8zpy//dGlHr/13W5wzjzXopukc2mTbyS1QPfrCgP9rMYrKur6lLerSkvxopRmnRQLq0utwuLwbWuq4bT5JVvNh3eibm3UphtNvrpKRPpXhprhgD6fIyUd1d0Xjz6tNpjrdS6+nprXSeZV9WXfqYQfQ2vy7oI4WbEOHyHCtmVuK/C7rfmO+47IsVSLfZmCzY5fPZaP3FpR1E+yBcnEbm10dYik3Df1mCo9ewh13ohmPAhwk5gUw6Ct8ZPgqlfRIkRNYzu4+32BLW0tPcIFxG5/NeTKczSMhBeA2ptYQXHPC+M42FzCNE37JxrWqJ1OcBTGoA4ETwamOsS214TzsQVFRkkhEELzngeGFrRbm1tzDeflGxMM4lHUWe6oK17HV0AY/W8p/PRuuvDl3XdbMbQURERETUbDgjTURERERUAwbSREREREQ1YCBNRERERFQDBtJERERERDVgIE1EREREVIOn6v0LOzo66v0riYiIiIgaDmekiYiIiIhqwECaiIiIiKgGDKSJiIiIiGrAQJqIiIiIqAYMpImIiIiIasBAukG99NJLZjehqbC/6DBwnFWH/UWHgeOsOuyv+mIg3aBeeuklDvYqsL/oMHCcVYf9RYeB46w67K/6OvRAWtd1vip4AfnBbnY7muXF/qq+v/i5rK3fOM7YXwfZX/xc1tZvHGfsr4Psr91wRpqIiIiIqAYMpImIiIiIasBAmoiIiIioBgykiYiIiIhqwECaiIiIiKgGDKSJiIiIiGrAQJqIiIiIqAYMpImIiIiIasBAmoiIiIioBgykiYiIiIhqwECaiIiIiKgGDKSJiIiIiGrAQJqIiIiIqAYMpImIiIiIasBAmoiIiIioBgykiYiIiA7CqgxXRwc6il4hJM1uF9UNA2kiIiKiA6B9GwXkDHRd33wlxgOwd7ggr5rdOqoHBtJEREREB0AYjCI6KBQdE68lEEQM0W81k1pF9cRAmoiIiOiQxVZUs5tAdcBAmoiIiOiwLCoIAJBOWs1uCdUBA2kiIiKiQ6FBvhkAIMH1orDnu6nxMZAmIiIiOgTarA+eO4Akh+E+bnZrqB4YSBMREREdMG3WBYs7Bowntm1ApObFQJqIiIjoABmDaP2aaHZzqI52DaRzDwKwGJKID93NHla76i+XhfowDvmTAIZf7Ue/eKI4QfpzdvS/PITRT2QoP2aRM7u91JRyqynEbo1i6OV+2J8zJuA/AfvLLgyPzSD2UOP4KpH9UYH84TBcL9txYrPPLDjl6MfQu2HID9LI/m52KxtVLt9/G+e205aic5vldD9cb05CYc5aIlNsBNGSnGEQ3YKe2vmPckjMz8CY5XDmnoKJixK6DrxZ9ZKFej+CyX+GEb2Xxq4ZG1eSUFaSUOZnMAlAeMGN0Y8nMdLHxy9UAU3B5JUhjN7ZKZ2RiuS8iuR8DOHrAE5KCH4QxMjFbnQeZjsbTO5HGYGrAUzeL9dvGtIPNKQfKJj5EMBJJ0bGJxAcbO8+2/S7huRXEwjemER8Zee3aT8oiP2goOcvI3C0+JrMzVm/ugoiofvB8IdqYQyiuZxjd+rn/TjxVyX/TRPN3O88I51LIP73fOjpPOfMH7sVQbyZZjVW4xh1DiO8VxBdhvaDjFGHDf1jCpp4Hp4OgXp3GHZL/y5BdBkrMQSkU3BciaM9M4nmkL41hFPdnh2C6DJW4ph0t3Ofbcn+JwxXtwX213cPoonITBqUu/kbu5jbUlImvAMdrG5ooEK5q5jdiJrsGEhn52OYBAB44f3ACy8AIIbIfDtdwjQo1/vh/HuKj+KpLHXWA7sURrLGn09+ch72v8SqvtFrbjmkP/fC8fpMTQFx8pPz6H891qbBdA7pzz3o/vMwYgygiRqcAPdtvag8ePEryswdAIAskn8fQuC+2e2ozQ6BdBbK3XD+y8sSHC844LyU/zZ+R2nOC5jQDedlP6ZjC1hS17D2a/GAXl9bw6NkBMGB7QnSk+8HEOFFi0r9LGPULZcEwQIcb0whmnpUPMbW15BJz2HqshOlI0z7yofgvfZ57pFbnIT3ryX9Jjjg/XgOy5k1rG9+Ltexpi4h+oG0rc/UWz4EZpvyTLQv6qwXjtK+A2A958NULJHvv98M4+7XNTxKRTF12cnlMETUMHLZLLI/pxCfncSQoxv295WmnVAqH0g/VhC/lf9y5KIDXeiC46Ivf+C+DKVpgspOHBsMIpLMYD2zjLlPg/BedMD2bBe6jpa8s6sL1l43/Lcf4dGXbhSvZIpDftB+F23aTQ7KZyMoWo0pODHxXRoLn/kgnbEWj7HOLgjPO+H7dA7L6Wm4iwaYhvAn0ea8Qa1WLonJy4HiGfxePxa+X8D0W050C12GgK8TXc/aIL0TxaPMHPy9xh/SIF+dRPzxIbW7AeQWQ/CU3rid9GI6tYZH8Sn4Lor5/jPufDnaBesZCb5P5zDSi5YnDEZ3mf2r9LWEiTboK6LDp0F+Nb+s5cixYzhm7cF59yhmHjRrCJ1XNpDW5iOYAQDBD+eL+cta11kJIwAABeF7qcNq3/4clzAt++HuFaqajbG+NoOZt4qPKak010qTQQrJW8UffunmDEb+d++tuJ3PezFzxw+b8eB8HMmf69m+xpS9P4PAQ8MBwY3IbBCOp/f4QcGJ4Gyk+AZECyN8ry1uP8regAh9QSS+m4b3TPNs/24G2mwQo4tb39vGHcWfVSIigzKBtIq5r/LzbMIlB+wbEWinHc538l+mvlTQJKF0jTrRI0rFhx4zJR4ZrKpYKoqjffCeq3xHduf/ueA5YzwSg9rcN+UV0BCfnSk64hwPwv1shT/+rBuTN4s/l/GPYy1+LspTvwoW34D0BhH72g+RMXR9PVEwcdX4nEnC6CWRy2KIaEfbA+kVBbH7ACDAe9Ze9JjVfs6fX/LwMALl4bafbG1Pd/FkSruw4FhVQY0FlucOqi0NKreMpTvGAw5Ifdv3JOxGuOiD33i/0g7nopyCmbG44YAN/g9HIB7d8SeoRqnPA5g03NCKNwPcDEZEu9oWSKsPZMQBQBjG+b7i0LFTdMArAEAKE/dqzVPQHDKrxY+MnX/ubqL82XTgnuosubFSsLyvvQMSrK1+wda0knXgIk6drPJ3dPbAftF4IIWln1p7Kj97X0bI+E+8FMDo//G2vu5WZQSvGq5rwgiCb3BRB1H97JLFJBk0u3E1KwmkVSh38nn8bFed2xPQdzpw/s38dJD26RyUVl3r8ERB5KbhgbHgg+9CdTNnrUibdZXJg5l/uWZbO5jZRrCip2hphoLwl8nKl/+Uzs6ec0Js+UBaLd6ciSM1/JIudNscRUeUlcw+GtXoskjMG5fDCPC/5uRNfd3loHxcvHnYecMHRyvP+i+Gajx3JxHa4TrQ0RGqORVow2N/0Q6KA+mHMYTnAcAGz9nyd+Li2eH88g5tBkqyBSPpbAqTbo/h8Z4A980ROPfaDNU2gkiUuZtsv4pNNkhXnEVHUtcluD5KVbQpNXtfLuRpBwABvsuubSneqLwjXcVjTfsl07obgXNLUP5pPOCBQ+RsdN09DCPwoSFAOhNEYLCFP5GrMlxiYF+/QpIzZWYWW7QCJPuLdlEUSKfmI4WNOymM2na4gxIDhfRLGkL3E62xAe9JFurDOOTrLpw41oPRexsnVAHuzxTMtPIJlWpmvTSFyGtFaSQQv9qDbscoZha1nT8bP8vwvbk1yyi8NomRC20wxyhYUbxVMIO1GiJg4ZlTxQdaeSPwjykU1fp6zY5ThTg6t5pC7NYohl7uxymL8Tx9AvaXXRgem0H8x5a9xagjDfKNUcPMoADfuA+te7+iQb7qQWw8iOZ9mH6Y2F+0O0MgnYIiV7n//cMYlKY8T5c8avnjMZywnYdnbKtamtA3gsj3aUTe6OYmQ9qBFe5P45i4UDJD+mASQ6IFR547j+FP4kgbcx3/HMPwoAdy4V5N6Asi9qm7PWajBaHk3xlFItWyIXBdZH9Ri7OSPGdB5w8yRp0ncOSZHrhen8TMvIJ00dNmFcn5GMLXh3C++xhOOEch/8h+3klufgIjRcusgi19Y5u8boEHEWSuOfZ+M7G/aE9bgfRiHBMPAcCGidQeCetTE4W8mmHEv23KSHpnl6aQSK8ho0zA/ULrnkxrF4DdeBPy6vYqa23lqA0jX6ex9PH26ntYiSN85TxO/akDJ8QhjI4NwW51IbwIAAIcb0eR+Je/fbIvdJ5Cz4DxgIbQh5H2KERTozUtXfS98KUH3ac9mLxfea+p9yfh6XZguF1yblclhfDYpOEcJsD/jqdlb2y1WRfsY0EkbpcWHatezG0pelodWtz7Z5oN+4sqUQikc1C+nsqfTM544Diz248AOOPYzIEbvqu01vrEW8OwX/Bg+MMYUm1UNa0S26uGJRC844Gl7TdMdMH21gyiN507vkNdnMHk9ZlCP3Vj5OsUFm5KsD6144+0IAHOQW/xoftD6H9dhvp7hb8ipyEei9a9ZY1K05Ti71fUGm9ckwi/4kFokTPTRqXFVzAwieG+Fn0GuRiCxQ1EftnvulwR/pLJtYwsISC22KZz9hdVKB9I5xJQClXaHG9KFVRxssHxl8K7bsWhtFrAuRJH+F0Xev50Aq5PKts81p5E+JNBAAEobXx3nf1BxrB4DD1X87l+hb4RTMtT8F3o3mEWI43JV2zovyoj3WaDq+ucD8GS8svqLQ9OdLsQmlWQ1rLIGYPq33PIamkk785g9HU7Thyx4PyH7VCCBQByWP+13HEB3YMjmI4lsJxZw/pvxov0OtbWHmEpNgVvX+noSyJwcbStyqrvalvxFRET7+9/5rEhFTbLSXL4QPJiC4NhRAaA2F2lNZ5Qsr+oCn8AgNy38UKeUgfcFRZIsPV5CgH3DCLzzTYUSu8Q17G2lsGyEkFw0Bj8qIhd6YHzehVpzdpNrwNBAEutX5avLPXeMJynPYXlGoD43gLSygS8gz5Mfb2MzK/5oMZ3rvRzpUH5yINT3f0I/buNoulOG0Y+Cm6f4VmJIeDuxynLMRz5H8PSof85gmOWU7BLQ5i8lSy/DKSzRWcQkYX2c/ER2+UIlv6bwbI8Ae9FEd1CFzqLnmp0oqvLCttFH6aVNBbeK+lpLYzArXa5EdldafEV4Z0gfHs9jW1S2rdRxMYTB5hdSYDjogTcUVtiqRb7i6rxByAL5W4hEdc5NxyVFkg4I8F3Nv9l7Ku5Jh8MnejqEtDd54ZfXkb6X8WPcpJjEgLzDKXLWlWxZHYbTJJbDMHzSnhzWYs4noByw1Gc4/doPqiZij/C+i8JTL/tKJ7x0hQEXnS21SP3zl4/4t8G4ajxGiUIJT/4nKU1ZxHLsL7ogK3iVJxdcNyIlGSWAVKy0hZl1XdVWnwFTgT/6mjtjeVj9pIsXHYEsLV2d79rdtWV2N5vaibsL6rQH/BYQayQp9Q54Khik4UVjoHCLtb7MSj7qurWWLrOBhH5zLjeVcPkR9wUVdaqihgkuF5sl1CmIJfE5OXA1trwM35Mvi3ueiHuPC7Ce3MBajoCX9HyhiQCF72IrR5YaxtO1//5sZBawMRA5Wccoc+LKSWDxAf2ouPSs2029qpihfvqaPFyvYcJpH82qTkNYXvxFdt4AJ5qq2w2ke37Wwp7XLCV39jfu+ev2YUG9XsA446WyIvM/qJq/AFPS5guDJS5S9XtVba+sVAYYHPwtthJyHrRi6JtUffllrpZqF4SodJNhRtJ6sdHD2QdWSNTZ4MIPNz63nnFW3H2jc7n3ZiaTxSvFdZkBGfbbJ5QcGDk9iOs/bSAyMcj8J51oNsYEwvdcJz1YuTjCBbSa8go0/D1CdB+Kp7J6ba2ao4FAdbTdfg1Z+wo3gYbQ5uuxMorLb4i+BC8vPtNMG3RZl3bNsklr1vguSMhcolhYSn2V+trq5wBVXnaBvEsMDO/cUDJX3xa7IahclZYBwKwdxRXd5LkDPS2q2qoIXk/bvjeBoetymDuqAjfu14EpK3CLClZQeodWwWbfVtL10kH3G854H6rknenkLhn/N4H+wsH067WYcWpAQB39nxjGygtvgKI73pZubYKgrUHMdGCDrfxaBAJVukri/3V+hhI7+gIjpSkkU7/ogFtsxqzlAD3bR3uvd/YBlSoRUGJFZYaLsRdp0U4MLNVue6hikwWsDF9+c5WlhA3PAnAgB09Ldxf1pMSYFiEEFtR0b7noP3bVnxFGEHwjXa7dd2Q33RftV4/dN1f/+Y0PPYXlfeHvd/SrtaxXpJMoZO3HQTUb4Nl55HijYnIIPukHr+4daXuhotKZjvPiS0dVgrP9RT/+1K17PLPIPNT3ZrUxEqLrwDSzVE42qUgEhEdCAbSO8mpSM8XHzr1TCtfsqlix63oLjoQw1K6hqwbjzMlQZEFXbyo72xVRvBd4zpyL7wXWnV9dMFJG1zG7+9Gkax2U2o2A9U4iw83up/db8Oaz7biK70TCLTdsjQiqjcG0jvIfRtHpOhIe158qJxOHCvJNxuZT1Sda1xNlaQhO2OFpYWXKeyPCvn90kwLbbC2tcsOxyXjgRgmqtyUmn0QQ9h44EwPrO0WP24rviLA97637fYjEFH9MZAu50kSwXeLHwFi4Dzs7XbxoR3YYJeKB4P24SiC/64ilH6iIPx+vOiQze3ghb0sFfErHni+asdMC11wDPiKlnek3vVVnnf8SRLhD2aKDjmvVFK9trWUFl/BuSBGLvCulYj2r3UD6VUZQ85hhO+nka1mqvCxgsArEkJFj0IF+C9LLb0Wk6ojXhgt2XGdQuhFBwL3K8gr9lhB4BVP8YUdTvgutlt4UwFNQegVO85/YsyzIMD9caD1Z6MLus55Mbot77gLk//ZoyLmkzRm3pQQMC5nEHzwtfpymFLbiq/YEBzzVFEzgYhoZ60bSANYux/GsPMUjh2x4NQrwwjcikF5qCKbzRY/hn+Shfowhpl3XTjxp36EHhQHQ8JrYQz3tf7cF1XhjA+T10oD3yRCTgtOvBqC/CANzbhxMJeF9qMC+boHp05vH2PijWBLF4TYZjWGIXeZfkIO2ayK1H0ZIfcpWCz9CNwr6avxGGYG2um21gZfaVl1LY7RP3ej/+oMlB815H7f+qOcloYyG4LLdgpDxln8NrsBydtefAWXAvD18nxOdPg0yK92lFSMLLzE4tS62ytLbrxckBuseFmb5KHQkL4XRuheGKFqf7Q3iNinnI2mUp0Q3w0j+G8JgZKgWL0TgOdOYIef2856KYrIe7Y2WKZglMPabACe2cr7CRDguBHD3HvtsKSjWGfvCCZvKJDeV5IQ6BUAACAASURBVAxLzjQoHw1B+aiy39F+NyDYXnwFIiauSOCiDiKql5aekd4v4cIElu77K65YR23mqAj/13FMVVHmupgAx7UFLH0h8THzXgQH/PEUFtowiM7rhPjeHOI3nTXc1Atw3lyCcq3d+m578RXhnSB8Z3b8ASKiqrVuIH3ciQklguAlsfog5aQTI/Iy0l+PsDgG7e6oDb7bS1iWR+CsYmmG0DeC6e/SWBh3cHZsN0I33B8sIKMuIHiuzWZTt+mE7e05pL+bhrevsr4Q+kYQ+T6Nubfb7YlHmeIrkDB5xdF2/UBEB6uFl3Z0wdrnhr/PDf9nOWgrKSSSCSx9l0ByJQN1PmnI4WuFeNaGnl4nHJIDzhesLL5CVehC9+AE5gaD0B7GMRdTEF9MI/29gvTGU2WhG47TdtguOOA864Tj+TYPn49a4bgsIZtKQVk0ZNM+KcJhPQXbWRH2s/wsltP1v15MKx4EH8YxJ8ch/yeB5QfpwpIPAd19p2D/Xzek111wtvE46zw7gYw+YXYziGhTa1ZIbo9L1FOdEJ4XIT0vQro0YnZrqGV1QjgjwXtGgtfspjS6LhG+T6Pwmd2OpsWxRkTUCFp3aQcRERER0QFiIE1EREREVAMG0kRERERENWAgTURERERUAwbSREREREQ1YCBNRERERFQDBtJERERERDVgIE1EREREVAMG0kRERERENWAgTURERERUAwbSREREREQ1YCBNRERERFQDBtJERERERDVgIE1EREREVAMG0kRERERENWAgTURERERUAwbSREREREQ1YCBNRERERFQDBtJERERERDVgIE1EREREVAMG0kRERERENejQdV2v6y/s6Ch7/KWXXsJLL71Uz7+KiPbhm2++AQB+LokaCD+XRI3nm2++2fxslnrqMBsB8ORA1AhKTwr8XBKZj59LosazWxANHOKM9IY6/3Ut6x//+AcA4G9/+5vJLWkO7K/qlH5O+bmsDMdZddhf1eHnsjYcZ9Vhf1Vnr7iWa6SJiIiIiGrAQJqIiIiIqAYMpImIiIiIasBAmoiIiIioBgykiYiIiIhqwECaiIiIiKgGDKSJiIiIiGrAQJqIiIiIqAYMpImIiIiIasBAmoiIiIioBgykiYiIiIhqwECaiIiIiKgGDKSJiIiIiGrAQJqIiIiIqAYMpImIiIiIatA6gfRiCB0dISTNbge1Jo4vIiIiKtEigbQG+WbA7EZQy+L4IiIiou2eMrsB+5NEqMMOhjh0MDi+iIiIaGdNPiMtwq/r0HUdGVkyuzHUcji+iIiIaGdNHkgTEREREZmDgTQRERERUQ0YSBMRERER1YCBNBERERFRDRhIExERERHVgIE0EZknl4X6MA75kwCGX+1Hv3gCHR0dW6/n7Oh/eQijn8hQfswiZ3Z7zbIYKu6Xfbxcs5rZ/5pDk8uqSN2XER4bhuvlftifM/aFBacc/XC9GcDM3RS0th1cVC+51RRit0YxtG2snYD9ZReGx2YQe6i173msRTV5HmkyU24xBIcYMFT7CyKh+yGa2CZqBlmo9yOY/GcY0Xtp7BrWrSShrCShzM9gEoDwghujH09ipE84pLZS08mqiH81ifBnUcR/2G10aUg/0JB+oCD2zxAAK6QPphF+2wGBV0aqhqZg8soQRu+oO7xBRXJeRXI+hvB1ACclBD8IYuRiNzoPs510IAwz0kmE9pjJsJzuR//ro5i5ryJrXpsNttpscccABGAvfB9aNLttLe5nGd6LgRYvmc3xdSBW4xh1DiO8VxBdhvaDjFGHDf1jSoOcg6jRaPdHcf5KeI8guhwVsXf7YXkxAOXxgTSNWpB6dxh2S/8uQXQZKzEEpFNwXImjip+iBlXV0g7tBwXKrUkMOU+g+5VJpJ4cVLMqtVUwo/Tl7zW7bS0sm0Ro0AO55Z8Qc3w1Jg3K9X44/57iI1Kqv8UQ+i+EkDT9+kaNTp31wC6Fa55QSn5yHva/xKqeUKDGUj6QHk+UCR7WsZZZQuRtBwQA2r1ROG8ovJC1mydJhM7ZEeCMLNWD0A3nZT+mYwtYUtew9mvxeWd9bQ2PkhEEB6zbfjT5fgCRFRPa3AjKnqMre0UH22dZjPCCE75r04gqS3i0tob13wx98ds61tQEIuMSto2uxQB8HyV5faOd/Sxj1C2XBMECHG9MIZp6VHwuW19DJj2HqcvObWNN+8qH4D0+X2tmVcxId6JLsMF9cxrBc/kj2q0k0gfTLmpIKuQ3JQbRtE+dODYYRCSZwXpmGXOfBuG96IDt2S50HS15Z1cXrL1u+G8/wqMv3SgOAeOQH/DBKJU6Bmk8gsQv68h8P4epcS+kPhusXV3oNK59fqoTXc+KcF+L4pEagbvk/iI1FoHC+IbKykH5bAQx4yHBiYnv0lj4zAfpjLX4XNbZBeF5J3yfzmE5PV0y1jSEP4lyiUcTqyFrhxWnNnaTaeAde9vIIXndA89XG/ffAtxyBH5T20RN6biEadkPd69Q1UYb62szmHmr+JiSSnOtNBURBqcRveaGeLyK0fWsGzN3/LAVHQxD+Y5XOConheSt4rlo6eYMRv63a8+f7Hzeu32szceR/Lme7aPDVEMgncP6r4UvBXDHaVvIIf25F9LY1kowcTyGmUErjpjYKmo3negRpeJDj9s4JR7VVef/ueA5U3xMfczbNCpjVcVSURztg/dc5Uumto+1GFQulG5a1QfSTxKIf5X/UnzXWXIHT61InfXC8dettWDieALKNZE3UWS+p7s4DqlOrOhm7k6qiQXH9p6MLnq/5bmDagsdtsoD6d9z0B7KGH3Fg0kNsF6KIvI2w+hWl1sMwWPYUCG8FkGEQTSZJLNavJLQ+eduVHX9ItpRJzqP7v0uIjzVWXINVLC8r43PEqzH99UiMlH5QHrMvj2P9P8cgcXmweQDDd1vRBD9oMxO53ZVWnXseotkVy7NFd0bROxTN/+/H7ZWHV/VeqIgcjO19b3gg+8CRyPVSwZaSTBkOcopg3rRZl2tU2FTsKKnaGmGgvCXVWR5yS1j6Y7h+3NOiAyk98XM8VVTifD05x70/MnCoggAktc70CECCWOKqWst8Hzw5xiGzhpyRff6MDfrh8gZm0PVsuOrWtkUJt35p2F5Atw3R+B82sxGUUvJppG4azzggK2bzzv2T4P8agcsd13ItEwaRhukK86iI6nrElwfpSqKibL3ZUxufifAd9nFCaqamT++qsgjXcglrSYw/bYDQqEoQveb8bYNprVZF+xjLVgW+0kSoUEXZjZmZwQ3IrNTcD5rZqPaT8uOr0o9yUJ9GId83YUTx3owes+QMeYzBTODbXzp+XIE9ue2V589Ifaj/9VhBD6RofzYrmfm2mQfxBA2HjjnhuOkWa1pHcnrFngQQeZ2afrK5ma9NIXIa8Z/kYb41R50O0Yxs6jtPDv9swzfmzOb3wqvTWLkAm/YatUI46vKGel83k3vzQUkPsvfjWn/DCC82I775pOYcccgyd4WC3JKc0WLCN6dgftZE5vUllp1fO1mqyR7R0cHOv54DCds5+EZi23mWBX6RhD5Po3IG93tvU5/JYlkmTWZ6qIC5U4YoSse9Hcfg8UxhPC/GVDvKZdEeHym6JD3Dc4S7tuqjIkxIHi1tYLoPCvcn8YxcaH4X6Y9mMSQaMGR585j+JM40sZy8z/HMGyoCiz0cbnkvjTI+KppaQcAWAd88AEAUph60IZlWVZVLEGCCzMls0IuyKtmN65W2fK5onvbOmQxR0uOr324NIVEeg0ZZQLuFzh7UyntwQyGX+zmMrxd5ZD8cASBh4ZDvRPwXeQ427dVFTEEYVVdJeexUM1ltRvKURtGvk5j6eMye8ZW4ghfOY9Tf+rACXEIo2NDsFtdCC8CgADH21Ek/sXlkvvSIOOr5kAaXcdgKXyppdX2qxW/qiKGGDwrjqLlL4nxGDzPNGOwk0PyuhP2zVzRAtxfJhBp58fnZmq58bVPt4Zhv+DB8IcxpB7v/XYyyi/Dc15nyety1NniHPmAiIl/jjC1ax1o6hKAAKIIG85jGUQGArC3SjCNLtjemkH0pnPHd6iLM5i8PlP493Zj5OsUFm5KsD61449QBRplfNUeSBsJXW2Xgir/P1BC5FLxg3fxWgJBxOC51VyniNKLiTgew8xrDKLN0mrjqy5W4gi/60LPn07A9Ullm3paRyfEAR/8H0cwl1xGZm0N6yV7WNbX1pBJJxD92AdnmbW9yTEfgv9mKG1Umt5z4yncyJldfogqpq7EAAQxWrTxS4D7ZgQSApho5swdBdkfZAyLx9BzNQ4gv/xsWp6C70L3DssN0ph8xYb+qzLS7XUSq7tGGV+1B9Iry1AKXzqes7bdekXB2rPDn1hhHQDwffPM0jNXdONppfFVORH+0s3NaxksKxEEB40XJRWxKz3tNcPaO4LE7SkE33LD2dsNoWt7IZrOri4Iz4uQ3prC3E9rSNxwllzIUwjdiEAFAfnznkMMFM1abVRspfqwnpTK/8FxK3oAxFaaezSq94bhPO0pLNcAxPcWkFYm4B30YerrZWR+fYSl2BR850rHlAblIw9OdfcjxD0MNWuU8VVjIK1CHg8UAmkn3H3teuKJQW36R+wpTBpyRXPzQyNphfG1H53o6hLQ3eeGX15G+l/F2UuSYxIC820TSlepC+J7UcTGS7aq3peh7KtwRGvILYZw/mJpEM2KrQdjqSXPY7nFEDyvhDfHkDiegHLDUfx0/qgVtos+TMUfYf2XjYxnBpqCwItOhNoyYUO9mD++qgqkc9ks1EUZoVf7CxvSBLjlKXjbMUVQrwNBAIH50kfsKtQ7gHTR0SS7lHMwTm1qDwKw/3F7Wq3yLzsCRb8rAHvpe9q1eMh+tcz4qp+us0FEPjOuQ9Qw+RFnWHfWCfGdIPxFA0VBqs2fJ2f/nQ+iFcN5TxxPIM4guu6EF12QEEP025LnZ6sqlgAEzzZpTqJcEpOXDTdiZ/yYfHv38dN5PJ/xTE1H4Os1/kkSgYtexFrwZuOgNcr4qryyYUcHjhw7hhOiB4E7KgARPrmdc7mK8MoSMGZHaDNVnAb5VTsC29bsEFWL46sc60UvvMYDnGHdXacdjteKD6W1NXPa0gCy8wE4XzQG0QIcN/Iz0e22z+dQHHdjdByIuX2GDdJJhJ7xIDYQgbd3tx9uXOpssCjLi/OKt+LsG53PuzE1n0DQ+G/XZARnUzv+DO2gQcZXdUs7hG44znox8sUcHq0lMDXY3rlchcEo9GQQAXHjZqOQGLxdC2hQXXF8lfG0DeJZ4wEFaustFq+jThz5Y/ERRWvPDlNnh9DzsnEnvwDnzTjm3uNM9EESr+nIyIDnGcOTzPEE9KYt0KIheT9u+N4Gh63KCcWjInzvFk0JICUrYChdvUYYX4bkK/mNPv5D+otbRq8fus5eowPC8VXiCI6UTB2mf8kvMyMqL4vURx44r8YNq9is8MoLmG7bJ6qHSxiMQh80uxX1kl9et8UKy9PV/5au0yIcmNlM2oCHKjJZwMZHI1Uze3zVJ/0dNbHSTAnVvBIIFv2uIBKl77nWtnOndCDWsV6yxLeTuVh391vxt9KzbXTT8bsK+fUe9BiDaMEB/7+WGERTbQrrb/et80jJcqIMsk/q8YvpsDGQJqLmkVORni8+dOqZNgoMq5ZC4l7xEatgKf/WVvNYQeBlOzy3DNtRT3ox/WAOwbOc9qMaHbeiu+hADEvpGrJuPM6UbJS2oItVDpsSA2kiahq5b+OIFB1xo/tZc9rSDHKLcUSMpa/hg+PPrb8iOPfjDDyn+xF6YCi10ufHQnIa3udb/99PB6kTx0oK9kTmE1XntFdTJWuiz1hh4f1dU2IgTUTN4UkSwXcniwvRDJyHnRPS5T1JYvLtQPHF+pID9ha/WKt3h+HoHoJsGCjWSxEk/hWEo4a1rETFbLBLxScd7cPR6qqGPlEQfj9edMjmdrAsfZNiIE1Eh2dVxpBzGOH7aWSrmcJ5rCDwioRQ0eyqAP9lqeW3GSb/3o+hT+JIP66iw7IpTLolBBaNB22YuCK1dpq3/4Rgl8JFmTkcNxJY+sINK9fSU52IF0ZLMielEHrRgcD9CjLiPFYQeMWDyaK3OuG7yDC6WTGQJqJDtXY/jGHnKRw7YsGpV4YRuBWD8lBFNpstfjz6JAv1YQwz77pw4k/Fj+kBQHgtjOG+NnhM/7uCmSvncepPR2A5fR7DYzOILaahZbPI/W54Xy6L7M8pxD4ZQn93D0bvlfTXOxPwlTySbjm/o/iJBTQo79txrKICUzu8XpXRngkDaUdnfJi8Vhr4JhFyWnDi1RDkB2loxo2DuSy0HxXI1z04dXr7uUy8EYSnHQvbtYgmDqSTCO16AgyBNfWodo0xvpLXi/9e12wrXdI1pO+FEXrdhX7bCRw7dgxHjH38x2M4YXNh6MPY9uqFvUHEPm392ehS2g9xhK8PwSWeguXYMRz5H0N/HTmGY9YeuK7MFFXtAwChL4jYmIP5kskEGuRXi89jocW9f6qxdUJ8N4xg3/YzkHonAI/jFCx/LP5sWrr74RmTkS75bFovRRF5z8bPZs3MH19NHEjvlLYtg8gAgAErmNyIamf2+MqfHOzfR5DZ+Lt/iQBuS9uXXRcuTGDpvr/iSmLtzjowhfjX7C8yQxKhDgs8pxNb59BCkammnxQ4KsL/dRxTA7VeCQQ4ri1g6QuJsUrNGmN8NXEgvYPFGXjuAMGrzVo1iRraYY2vxRl47kiI3DT8PcfdiCaDwNiEoRxqkznuxIQSQfCSWP3F46QTI/Iy0l+PtFXRgu4LEUxcdtbcX0u3fbAxiCYTaLMTCCCIhLGeQK8fGVlCzD3T/E+Nj9rgu72EZXkEziqWZgh9I5j+Lo2FcUdr71k4YI0yvlps+4UG+WYAOMQa6+2t3aphHt740tQlAD2wHi/5g+NWSAgg+q0G92Az3ip2wdrnhr/PDf9nOWgrKSSSCSx9l0ByJQN1PmlYxmGFeNaGnl4nHJIDzhesbVl8peuMGyOfujHycSX9ZcWpMxIckhPS/7Zhf7ESaENRV2LAgGvbTaBg7QEQgLLoh9j01+oudA9OYG4wCO1hHHMxBfHFNNLfK1vLOIRuOE7bYbvggPOsE47nGT7XQ6OMr9Y6za4qiN4BgknORtMBOMTxpa7EAPRs/4PjVvQACKyoaPqy2E91QnhehPS8COnSiNmtaXzsL2oqGtTvd/ij41ZIAJZUDeht8vPYpk4IZyR4z0jwmt2UttA446ullnYkb3kQ42w0HZDDHF/WkxKAJajNuoSDiNqcAOtpAHfU7ZuFifatccZX6wTSqzImxrg2mg7IIY8vYXAUQcTguVqceiu/JgyQTnJ7ChE1NvFSBBICsJdskE7e8iAGoMfKqzXVrlHGV8sE0vmOC8LB2Wg6AIc/vkT49Qwi8MBiSOvjgwtB8AJERE3guBtRPYHgmL0oPZlyMgIJ0vY9IETVaJDx1RqBdGG2UJK9JdWGiOrAtPElwH27OP1e1KoiwAsQETWN7alEvYgiVm4zNVHVzB9fLbHZcGO2MNGUWQyo0TXS+ErOB4DxBNy8ABFRU9Kg3I1BksOc+KIDcPjjq/lnpDkbTQepYcaXoUDLNY50ImpGWwU0og0wMUGtxpzx1eSBtAb5an62cJQfSqo7c8eXNusyrPuyIHoxA/02N9MSUfNIXjeWb7YDSR06JwOoThphfDX50o78GlK32c2gFmXu+BIGo9AHTfrLiYjqQLymQ79mdiuoVTXC+GryGWkiIiIiInMwkCYiIiIiqgEDaSIiIiKiGjCQJiIiIiKqAQNpIiIiIqIaMJAmIiIiIqoBA2kiIiIiohowkCYiIiIiqgEDaSIiIiKiGjCQJiIiIiKqAQNpIiIiIqIaMJAmIiIiIqoBA2kiIiIiohp06Lqu1/UXdnSUPf7SSy/hpZdequdfRUT78M033wAAP5dEDYSfS6LG880332x+Nks9dZiNAHhyIGoEpScFfi6JzMfPJVHj2S2IBg5xRnpDnf+6lvWPf/wDAPC3v/3N5JY0B/ZXdUo/p/xcVobjrDrsr+rwc1kbjrPqsL+qs1dcyzXSREREREQ1YCBNRERERFQDBtJERERERDVgIE1EREREVAMG0kRERERENWAgTURERERUAwbSREREREQ1YCBNRERERFQDBtJERERERDVgIE1EREREVAMG0kRERERENWAgTURERERUAwbSREREREQ1YCBNRERERFQDBtJERERERDVonUB6MYSOjhCSZreDWhPH1/6synB1uCCvmt0QIjLVqgxXRwc6il48N1DzapFAWoN8M2B2I6hlcXztV/KWBzGzG0FEptO+jQJyBrqub74S4zF4nulAaNHs1hFVr8kD6SRCHR3o6LDAc8fstlDr4fjaHw3yq/kZJ/uY2W0hokYgDEYRHRSKjonXEggCWFI1cxpFtA9NHkiL8BfuaDOyZHZjqOVwfO2PAPftwqxTMmh2Y4ioUa2qWDK7DUQ1esrsBhAREVG70iBf9SA2EEGmZKaaqBk0+Yw0ERERNZ3NTYcWRC9moN92g2E0NSMG0kRERHS4jrsRLSydC8PHzB3UtBhIExERkWmEwTAiAzF4bjHBKDUfBtJERERkvu9VMG8HNRtuNqSyclkV6WQSiWQCymIaGVVBcmXjTwV0951C9/MinGddOH/OBqHTzNYSEVHzUqHeATBu5TppajqckaYtWRXxT4Zx/rQFR46dQI/Tg+HrYcTmjUE0AGhIP1AQ+2cIQ1IPLEdOwPWhAu13sxpORESNT4P86va10MnrdgQgIXJJNKdZVdJmXSWVGevxYuXcZtXkgfRGwYwOWNwxAAHYC9+zQlL1tPujOH8ljPgP1T5cUxF7tx+WFwNQHh9I00zC8bU/WwVZOsQAgHz1so6ODrhm+QCXqP0IcFzE5nlg42UfCyKhR+E+bnb7iKrX5Es78gUz/GY3g/IWQ+i/cASJeT/Eo2Y3ph44vvYnX5DFbXYziKhhCINR6INmt4Kofnaekf49i/T9GYy+3o/+05atu8fn7Oh/dRiBWzGkVnOH2FQ6TMILTviuTSOqLOHR2hrWfytUqNN16L+tY01NIDIuwVr6g4sB+D5KgiODiIiIWl2ZQDqH9Owo+p85hlPOIUzeUqAYH/WvJKHcCSP0ugs9zxzBCecoZv6TPbwW0wE6Bmk8gsQv68h8P4epcS+kPhusXV3oND67eKoTXc+KcF+L4pEagbtkd0hqLAKFQ4KIiFqQMBjdmliq+bWEiV6z/yVUDyWBdBbK+w6cck9C0QChz4up+DIyvxr+5/+awbISQXCwGwIA9f4khj6IM2VNCxAGpxG95oZ4vIoUHM+6MXPHD1vRwTCU7zgnTUREVI42G8SoYa+NbdxRch2lZmEIpHNI/d2J/r/n942K4wmklWn4znVDMK53PSqgu88Nv7yM9PfT8J483AZT4+n8Pxc8Z4qPqY85JU1ERLTNEwUTV2OGAxJGL4lgFtnmtBVIPwzD934+iBZeiyByTUTXHj/c9YIX06klTJzk//72ZkV3c2QtIiIiMlXq8wAmDY/xxZsBZixpYoWVrzkotycKOQwlTN5wb99EtpOjNozc4AOJ9taJzpbI0kFERHSAVmUErxoyRgsjCL7BGKqZ5WekcwnE/164PbrshZN3RtVZDBUnVr/ebmnVM9BWio9YjvIpRd20/fhqM4X/38y1XSH2V1WS1zvQ0bG9KMpeditCUlvfb+Xpb5+CJDkoH4/AuKjDecMHRxtPROXHY/lXTfUaTLhe5gPpH1NQCgekF3v2XNJBW5LXO9AhAgnjbtxrbbbOIZtG4q7xgAO2bo6ieuD4ajOrMlxiwOxWNA/2V1W0WRfsY/v5DcHic1HhFR2ssrD3YggdHXYgafw9frT8me1hGIEPDTcdZ4IIDFb8/L91DUSQKTOu/FVmNTHrevkHAMj+oiJVONBjZaX7SuVPSkEk2uEEsIvsgxjCxgPn3HBwE+q+cXy1Gw3yVQ9i40EEzW5KU2B/VWVVhs8dQ3Dc5N4q3PwEk9UHSs1Ng3xj1DDrLsA37oPIh7d1Yeb18g8AkHuSOeS/thUkMeOOQZK97R3k5JIIj88UHfK+4ap8jT3tgOOr3SSvW+BBBJlrDrOb0hTYX9VIIvSMB5Az8J81uSW3PIgNROBtqyAayM1PYOSO4cC5IEYu8MltfZh7vdy5siHtblXFEiS4MFOyrqf6tWfNK4fkhyMIPDQc6p2A7yJPDvvG8dVWNmdTbrvBZ4J7Y39VQ4P8qh2B8UT1SzC2CcBuPB+9KldZQ0KD+j0gXQRm6rLOulmkEB6bNPSVAP87Hk44bbjjgWU/65pNvl7+AQA6j1oO/m9qNasqYojBs+IoWtOTGI/B80x7BDvqrBfSmHHAi5j45wiTytcDx1f7WAzB4gYiv3AJT0XYX1XZmrnfX29tr+aXQPCOB5aqNgmqUO8AMbcKh/F3JYOIuS0tG0yXFl/BwCSG+7imAwDEayVro3+JQBqzV3eTZvL18g8A0GWxbN7VL//SmgO53jR1CYCEyKXik5N4LYEgYvDcau39x7nFEDxuuegO2y1HMHJmlx+iirX7+GobhfWikhxmHtlKsL+qkp+5lxC5eRAz9yL8ySCAAJRKsyusqlgCtj+C7/UjMQ7E3DOtl7ljW/EVERPv80nKjo67EZYl4E4USoUBsNnXy/zSjpM2uAoH5PsJsCbd3gRrzw5/YoV1AMD3asuWTc8thuAQA0UnPHE8hhnuPq6bdh5f7UT7NopYXR65twf2VzU0KHdjCCajB3fT0etAEMCSWuHZ6LgVO57ZTkoAlqC22NO20uIrwjtB+DjhtCvhRRckxCoeC2ZfL/OBdJcdzsuFI7dmEF3Z+QfIqPL/0a0itxjC+YulQXQCyjWWN62/9htfbWnMXrKuz44AgJjbUnsu1VbG/qpKQCzJqpTpFAAAIABJREFUzysGAMTgeaYOuZsLM8zViq2o+/lbm0dp8RU4Efyrg9fKvayqRbm2K2Pe9bKw2bALjr8EC2tb4wiMy6h4mD9JY+bvsfabHSvciQfmS09D+TVg0kVHyz26yf47H0QrxtKm4wnEGUTXXxuOr3a0fd1pYe0pAEnO1JRLtZWxv6ohwH17e25ePRkEICHySx1yN6+qiEGC68VKz0YiHOMAxpRtAby6EgMGXHC0zJKd7cVXbOMBeJgadk/5pRpBOCr9LJt8vdzM2tHZO4LweP4jpX3lged9Zc8lHtkfZAyfPYWhVO4Am9ioRHhlCRizG2ZACrujEcRoiz16zM4H4HzRGEQLcNzIz0QzR8dBaK/xRUSNLIlQ6ez1RjGc8dGqlo6IlyKQEIDdkJlho1BM8GoLrR0uLb4i+BC8zEmnIqsyXKWbChdDsFSdys7c6+VTW192QrwWQeQnOzxfaUj+vR/di14E3hmBS7RC6Cr873+ShbqiIP5pGMHPlXwHPHOgbWxYwmAUujWEDrEDm7W1BiLI6C10MgCgzg6h3z1jeEohwHkzjujbNp4UDlC7jC8ianRWWAcCsHcUV5GU5Az0aoOU425EdStCHXZ0bFZZzM+Qt84G0tLiK4D4rhfOp01rUGM6bkXPHTssHZ6iw7UU6zHzevlU8bdWuL9Mw3raC8+7MagPZjD8YAbDO/64gO7BUUyMO9v3wt7rh677zW7FAcki9ZEHzqtxwx2jFV55AdPcWHg4Wnp8UXki/LpudiOaCPurKr1+VN9d+WUi7ro1Iv//rFXPbNuKrwgjCL7BxLDb1XkcmHS9fGr7oS6I70Tx6C0NybtRROdjSH23DOWHQih1UoTjRTuks044zjrQzTus1vS7Cvmv/fDcMqyWFxzwfxlF8CwXcxAREW1XWnwFkG6OwnHUtAbRASsTSBd0ChAHfRAHfYfYHGoIjxUEXvUg9MBwKjjpxfS9KXif52IOIiKicrYVX+mdQIB7WlrazoE0taXcjzPw9g1BNu6R6PMjcjsIB58+EBERlbet+IoA3/teVvttcQykaZN6dxgeKVy0QcJ6KYKFz9ywcqQQERHtqLT4Cs4FMXKBSyFbHcMjyvtPCHYpXFTy23Ejhuh7TG9HRES0q23FV2wIjnnAbfmt7w97v4Xawu8oKaqjQXnfjmMdJVWxqnmV5ockIiJqOduLr+BSAL5e7ilqBwykiRpY8nrxzYlrlrcmtItVGa6SG1qWzN4F+8sci6HWmnQpLb4CERNXJD7NPWRmXS8ZSBM1JA3yqx2wfx9BZqO07y8RwG1Bx/XSMqhEyAcnz3jQkywuBx0QeQNWFvvLFNqsCx3iUqFEuQ5dzyACDyyllRObxvbiK8I7QfjOmNagNmTu9ZKBNFEjWpyB546EyE1DVabjbkSTQWBsAvKqmY2jRpScDwADEXiNFcF6/UiMA7G7SnPP+B0A9pcZkphxxyDJYUMVQwHu2wkEEcBEE97AbCu+AgmTVxys+nuYTL5eMpCmvF7/1qxMvV63Wcq6Vpq6BKAH1tKSucetkBBD9Nvmu+DQIbijQt37XbSB/XW4VlUsAeixll4ZrLAONOcNTOfZia1ZUF2HrkdbqNR5czD7eslAmqgBqSux8n9w3IoeALEVXv6pmHg2CCAAe4drawZmVcbEGBC8ypvaUuwvE6yqKH9mE2A9Dd7YUE3Mvl4ykCZqQNaTEoAlqFzCQZXq9UPXEwgiBs8zhQ03z0Th+kWHv3fvH2877K/Dd9wKCcCS2mzzztTIzL5eMpAmakDC4Gj+An+1eDe7NjuBAADpJLOTUolVGa4OO1DYPJeRJaAQJDITRRnsr8N33I3RcSDm9hWvWy08CcCAlXmXqWpmXy8ZSBM1JBH+zd3sW+l8fHAhiHJrDKm9aZCvehAbT2zOpgqD0XxGhAEgIDZrRoSDwv4yi3hNR0bG1lOAjg50XAVc4wBOW7mkhmpg7vWSgTRRwxLgvl28gTNqVRGAtH1TBbU5FeqdcjMvAtxXg+AyoVLsLzPlb1qMG9OtUMf4pI32w7zrJUuEEzWR5HwAGE9wVziVld9UUzz7kt/RTuWwvxrEooIAgkgMcj6a6uewrpeckSZqCoaE89dEsxtDDUeEV5aAMXtxMZFVGb5teXuJ/dU4tgq0+MEzG9XH4V4vGUgTNSht1mUod2pB9GKGublpR8JgdKua18a4KVTui3Kmbxv2l0lKyrJb7rqQYe5l2iczr5dc2kHUoITBKPRBs1tBTeW4G1HdbXYrmgf76/Cxz+kAmHm95Iw0EREREVENGEgTEREREdXg/9m7/9C27nv/4y+NXnCgAwc2kMCBKmRQhxVqcy9Y4u6PKMmgLh1EwgFL7Au5zga9zgKL3Y5Niv+wj3rZrZ1BG+/CVt/AhmSIkQIrdeEmVf/okAwDu9BRD2Z6CjFIfxRiuIUa7kDfP/wj+mE70rGsc470fIAgPrbkjz/5fM55n8/5fD5vAmkAAADAAgJpAAAAwAICaQAAAMACAmkAAADAAgJpAAAAwAICaQAAAMACAmkAAADAAgJpAAAAwAICaQAAAMACAmkAAADAAgJpAAAAwIK2B9Iej4dXAy9JevToke3lcMuL+mq+vuiX1uqNdkZ9nWR90S+t1RvtjPo6yfo6UrnFJPFqwevSpUu2l8FNL+qLVztetDPqi5fzXrQz6svOF1M7AAAAAAsIpB3q0qVLunTpkt3FcA3qC+1AO2sO9YV2oJ01h/pqrbYH0uVymVcDL2mnsdtdDre8qK/m64t+aa3eaGfU10nWF/3SWr3Rzqivk6yvozAiDQAAAFhAIA0AAABYQCANAAAAWEAgDQAAAFhAIA0AAABYQCANAAAAWEAgDQAAAFhAIA0AAABYQCANAAAAWEAgDQAAAFhAIA0AAABYQCANAAAAWEAgDQAAAFhAIA0AAABYQCANAAAAWOD6QLow45FnpmD9vZ7qV2Sx1OISws0c0b4204p4aj8rovSmpWI5Hv0SALpBSemr9ef75Ird5WqOuwPpzbRmp6y+uaDclKF8uazy3utxSor6LAdO6DAOaV+lTzJSuvj0c8pl5aezip1x3wnn2eiXANAVNnPKKKVi5fm+YCgRcNfgiTsD6ZXkzp3LmZiylj8koHg5rkDlob6o5tNhaSonLtldzGHtyzuaUWbUW/3pt/MyJK2a7jnZNIZ+CQBdoS+qzP2oqq5uQ3Hlp6Xsg5zccnVzZyA9FN+9eykqNXISv2BVZoc+NkcD3NC+Nk2ttqQsbkK/BICusGTKtLsMDXJnIH1iSso9yEoalL/P7rKg87SqfZWUvhVTdiSl+ZqR6s5EvwSA7lBQbkrSiF9+u4vSIALpSisLii1Jmg5VP1oGWuG47Wt/0aFPmStFlWsfiXUq+iUAdIXS4qwSksJXQq65vhFI7ysoGUhIMpS/zeUardaC9tUXVWZ3Qca8xjt6546n6JcA0BU20xqPZiWXPW0lkJYkFZT0BJVQWKnHcUa90GKtb1/e0XmlRrKK3evk5Xf0SwDoCptpRc7ElJWhvMuethJIV12sM4oyBxMtdcLt6zPTNSubm0O/BICuUBlE1+7a5AJdHkjvXawN5ctcrNFqJ9m+TJlLkl7yu+rOvTH0SwDus/W3nNJv31Dkh0Gd3U8w4tP50EVdf3Ne6Y/XtfUPu0vpMHtB9EhKRRcG0VJXB9KVF2t3/ue1UmkxUpdd6PivZBfv+9uq9lVS+mr9XOjCzO5o7bVOa7n0SwDusv23tCaHz+p0/0XF3pxX9mGhYuu2ktY/zmnh7RuKhc7rdP+rmlxc17aN5XWMyiDaZdM5KrkzkN5LmOHx7azmnwo2H7it5JSQJCUUPCgIJIta93JU+/IqdEWKnal+f3CqQ0dr6ZcAXGNb6/eu63x/THMfNrjr8cay5qLnFbq57Jp9kk9K6ZPMTtKzpZh8B5zv3ZLd8Dm7C2DJUFzlctz+z0Bnclj78o5mVB5tyUc5H/0SgCtsa/33Ywr9NG1pnUrh3Vd18euMPvrvsGv2S261Trm27YxI74/AHfQ6q+APLyry7wnNLxZkfm1ziQEAAGy0vTKnsdog2hvS2Dsf6PPiE32zu1VpufyNnpiryvxnfcBs3htXYrHbx6Xdr4GpHaYKD3PK/ldSN6JBnf22TxdvpbW+dfKFQ/t4RzO7nf44r1XNDtn9lwAAcIK2C5p7PVE91W8oro8++0jv/WxY/d5e9ex/o0e9Lwwo/EZGXxQ/ULzqGllS+taclr9qU7lxIuoCaaNQExz93zd68uQLrWbvavwVv6SScr+J6fy/XNfC35guj6dKi4YmV55+PTAd0oB9xQEAoOW2PlxQ4tOKA96oUouGQt95xhu9wzIWU4pWrqorzWv+fUal3ezZI9LP9ai316+BK+O6u/yFijlDw15JGwu6fmFM6S9PvIxwg69zmr2VrTgQ1uS1QMVdOQAAblfS8uJC1ZHhaUPRFxp8+wtRzd0JVx1afiertdYUDjZoetcO74W4Pijs3lGV0oq9aW2iPTrL2u8TmqtoCIE7ic7bUQIA0N22P9fqUuWBkMIXmlsu6L0yrnjlqPSnKeU+PfTH4XDWtr+rvKNamtDdj5ni0dU20zJuVcwW807I+AmTOgAAHaZUqtm2LqDz55r8jJ5BBa9UHljT6t8ZknQry/tIP72jKim5lJOdaw8LMx55PPVJK2woiZJdl5BkW7l3JlQ5qWP4rXGFnretQB2sO9rXUcmB3LKvaEtsphVh7+xn2911qu1to3a3K5f8P1m9Xra+X7r0fFYyq6530ikLH9Kr/oFQ1ZHcRvEYhXKvnfZ48Cu58uz317GhX1pPyFJ5R/Vfea23pjxNKy1GFJyy6ZdXWknK4wlKVYs1uyAz26fzSrxdcRJ92VBitFt3xTxBXde+DOUP2BkmM+rW3FfNKih5JlZzwUadzbQigUTbf21hxiNPQNVt9Lbze+Pxr5ct6pdddz6rd6q3us5Kj4u2DkjaaiSl4gHtKt7kLmB29ctjZDasvKNal2nHaPBmWuPRrIxpw4ZfXl2OSCAho9D8f7y7lZR+a7JiFMGr8elxBVhh2Fpd2766V2EmqMSIIWPE7pI4WUnpWzFlpw218wqwE4y6MIU918vW8PpVvVSwqCcWImDvmfPVB77aIm34MdjZL4+VIvzU872tKocFOyM2ShcVv2xjMSQV7u3kih9z40nhGLYfzmqictHFK4YmXrOzTXSmbm1f3Wr/gnB/rGsznjWiMONTTCkVb4ee/cOt+61aiGYVTo+5K4jmetk6Xm9Nv8wov0YIbC97++WxAmn7lJS+GlRiOu+AR70lmZ9J4SvSQlfN51zT/NRcxY4tXsXfiHHhb7lubV8JBSv/3qtdsjvQSlK+qJR67LLRzjZ7erMRVVuvAJumVhVWRAs18zmdsEbnMK28Xh63X3bA+aznvAarnhSVlHw7JXaCPoalmHzHmddsc788ViD9zdf2zOh5OhLhhEuNKXNJykZNhSrn5RQMZaM+95wcmlSbfEUjc7pxgTkdrdd97as+y2ZexlJMPrcsRrJq/5F3hq0jj2Lnzcamqayyim2Eqtpofjqr2BlnBtOtul62pl92wvnMq+HRsepDH17XxX9Ly/xHgx+xXdJyNtPykrlR4HbN3OjHKYWngs3dpNncL48RSG/L/Htu55/eQfW36cS/MxIRVupOm0ciDrNpalWqf6QwFFd+WspGFzrv4l+XfCWg2V855P+j03Rj+6oTULxgSEooZ2UVtyvsLi6czrtz3mi77N5shNPzttxslMxVSWGlrlUHpYHbeRnKKnbPWb3xZK+XFvplh5zPel8Zl1HTT817MZ3tjyi5mNN6aUvblUH1P7a1VVpX4cGCJv8tqLOnfHr1bVKwHKgvqvl0WFrKKNdgAGx3v7QeSG/nlfvjzj+91wLqb1GBjlZS7kHWWSM2fX4NHvIt/7mwpFV7FmKeoNrkK943DI2/bF95OloXtq8DDYVkSFo13TBiZcFKTokRpzxlc67SJxllbZzS5/Uf2hvlH5H0memgKUhtuF422y875XzWM6CJ3xj1T0Q2skpEL+q877RO/VPFFIN/OqXTvvMKhq9r7l7h4GkgPTzR3eP9QURhZRtuC3b3S8uBdOnBvJIlSRrQ5NVQW1NBJwI1+w0GEpKyip2xby/K7EaXzJCqTb6iYRk/be//fzfqmvZ1mN2RrI5WO0/Q41NsSdJU0F1zSE/abn08fQWVkJSN+qzvPduUxi/wTnCi10uL/bITzmc9Q3Etf2IoZPGezuuteeP3fDzV3bNZu1d3I+zrl9YC6S/Tmth9tO993dBY20YjvYrer99rsFwwJIWVemzHXpQBhaYlTeXqTkjmRlYaiSjklNHzY6tPvjIwnVCs2axOaEI3ta8jbJrKKqzIDzr0UjMUrz+vlYtKjUiaznfZHtqHq5+nuztXV1I4XbS092xTdkdgEw/reqPMJSl8JeSgYKgN18um+2Vnnc96/zWuj9Y+0uxI48vsvRfGdDdXVP4/g1XHwy84p+XYbWeqhqFQo33Z5n7ZdCC99dcFxQIxpUuShgxl/3NY3b7hWeBaSmElFKxYabq38b1xq4PmDtcmX/GOy3g9wGj0Ceua9iVpJ9tZzSjZXtKN6UnnTOlClwpoLB2WpoIVI9+7u2LI0GTH3uy0rl923PnMG9LE/S/05O8fKfXOhMYuh9Rf+Ud4+xW6PKaJd1L6aP2Jirn3NH7Bq9Lfq8dc+/1duOfVZlqR2kWFK0n5mt7Kzt5++dyzf2RbW1tFmYWClv9o6O7i+s4ffW5MmcW4AqSClvqiypT9SnqC8uxnjdq54++cC39t8hUp8OaYhr9jW4G6R1e0rz1++UcSCnqqs9WF00WVOzZIgZt4RzMq+5PyBDzab6UjKRXLLgwCG9bCftmh57PecyFFfxZS9GeN/PSa8u9Xfj2u4PdPplyO1ufX4FJQPk+s6rCVZD129su6QDpRWYgD+TX8hqHZqaj6nRJED8VVLttdiIDi5bLidhfjhNQlX/FOyPjJgG3l6T6d3b6e2nkcHbW7GI5AXTRmp2+01VBc5bJLe6Ol62Wr22K3nM8OsbGq5U8rvh4JarArH+23uB3Y1C8bGJH2qv/CefleGFD48rBCl0PqZxSyy9QmX5HCdyYVcsqNFAAALrH2YF65iq+HXwl08NOMzrcTSLv57honri75ytCsEjxmBwCgOZtpGW9W7iE9prHXunB+dAdxaYpwtE1d8hWvxn81JiZ1AADQDFPpX9XufMVaI7cjkMaRapOv6BVDE6915WQuAAAsMrV8M6bYH9n5qtMQSONwdclXBmRMxcRDKAAAGlTKKfmjoF59t/J66lX0nQSj0R2AQBqHqE++omsJjQ9x7wwAgDazuh5NKv3xukpfV35jW1tbptY+TCsZPS+f76IS71dnJg1MZ7UwwlqjTkAgjYPVJl9RQLM3w12ffAcAulVhpibdeG0yja6zrSeLCcVC5+X7dmXdnNLp02c1OBxTYi/3xj6vQm/llbvNlI4dJaWv1rSrmWMlrm87AmkcoD75ivcNQ+NtSwUPAHCOnWAn+FlKxcoU9orJV5vxEIfzhhRfXtNHvySI3lFQ0uNT7KV8RRr7vIypoKtu0gikUacu+YrCmrsZouMDQDfazCmzVJvC26vonZ1037mVI94Lyduv6H9+pKL5kYxXmM6xbyWnhMJKXatMBh5QvGBISxnlNm0rWVMaSMiCbtNzeVbF8qzdxQAAOMiqWZKGCAT3Pe9X6PWwttbWlFsxnx4/F1DIf14DlwMKXg5p+Pt+9RBtHSIrc1OSi9PD818LAAAO1xdSZESKRX3ybORVvr0zgli4F1N2JKX5IZvLZ5fegMZ/m9G43eVwq6GQDEmJgEer6aIyo15JJaXvJKTpvKIuCa6Z2gEAAI7gVfR+WcV0WJoK7i8KCyqv8v0o6a1hUUDxcln5aSkb9e22K58yV4r7N2tuQCANAACOVJjxyPcgsrvYMC9D2gmqXbQoDE6zu4hVu4sNH6cU1m5Q7aKdOwikAQDA4VaSCk6FlbqzN/q8M5JYLhjSUkzji4TSaF5pcVyxJUP5vdHnvqgy5adPPpIuWcRKIA0AAA5VMlclDcpfO2d1aEypESm7YR70NuBI5kZWGvHXZUv2jk7K0O7iVhcgkAYAAM+wurO7QhVT5tJBPws0aMlU3W3YpqlVO8piEYE0AAA41M4IYVaxM9XJVwozQSVU8WgeaELg2s4+5MGqefYlpW/t7gYz6o5lrATSAADgCHu7KyQUrEjlvJPpMC7CaFjSF1VmP0OmZ3/XjthL7toNhn2kAQDAMwVul1W+bXcp0Fl2tlaM2l2MY2BEGgAAALCAQBoAAACwgEAaAAAAsIBAGgAAALCAQBoAAACwgEAaAAAAsIBAGgAAALCAQBoAAACwgEAaAAAAsIBAGgAAALCAQBoAAACwgEAaAAAAsIBAGgAAALDAUy6Xyy39QI/nwOOXLl3SpUuXWvmrABzDo0ePJIl+CTgI/RJwnkePHu33zVrPtbMQEicHwAlqTwr0S8B+9EvAeY4KoqU2jkjvafGv61i//vWvJUm/+MUvbC6JO1Bfzantp/TLxtDOmkN9NYd+aQ3trDnUV3OeFdcyRxoAAACwgEAaAAAAsIBAGgAAALCAQBoAAACwgEAaAAAAsIBAGgAAALCAQBoAAACwgEAaAAAAsIBAGgAAALCAQBoAAACwgEAaAAAAsIBAGgAAALCAQBoAAACwgEAaAAAAsIBAGgAAALDA9YF0YcYjz0zB+ns91a/IYqnFJXSolaQ8nqSs1Vz3oH0BQHfi/H/SSkpfra+n5Ird5WqOuwPpzbRmp6y+uaDclKF8uazy3utxSor6LHcc9ygpfSdhdyGcj/YFAN2J8//J28wpo5SKlfVUMJQIuOumw52B9Epy587lTExZyx8SULwcV6DyUF9U8+mwNJXr0JHagpIejzwen2JLdpfFwWhfANCdOP+3T19UmftReSuPDcWVn5ayD3JySyjtzkB6KL5791JUauQkfsGqzM2T+Fy7BRTfvesrpsN2F8a5aF8A0J04/zvDkinT7jI0yJ2B9IkpKfcgK2lQ/j67y4LOQ/sCgO7E+b8xBeWmJI345be7KA0ikK60srAz5WE6VP1IBmgF2hcAdCfO/w0pLc4qISl8JVQ95cPBCKT3FZQMJCQZyt+mmaPVaF8A0J04/zdkM63xaFYaSWl+1C1hNIH0roKSnqASCiv1OM7dIlqM9gUA3Ynzf0M204qciSkrQ/naBYgORyBd1cgzijJ3CS1F+wKA7sT5vyGVQXTtbicu8JzdBbDXXiN3538enI721ajtzTUtP0xpeXFNn5s5FTb2vuNX4PKABoeGFQq/quGXveqxs6Bwl+0tmX/Lq/BJXvlPClp/bCq3UrEXwLmAQv7zGngtpOHLwwq+2Ev7Qotw/m/IXhA9klLRZSPRe7o4kKaR4yTRvhpSymnu5nVNLh220ZGpwkNThYdZzc9IOheW8Z+GJq70d0XAU1qMyBe1vpvtwTq9TW7J/DCluf+aV+b99aP3ot0oKLdRUO7hguYkeb8f1eQ7c5q44MbLOZyD839DOiCIltw6tWNvw/S9xCJTwd2vm0h5vZLTTm6/hIKe+hSVnZl9aC8hi2f34vz0b3dbSs4TRftqC/PBDQV9F48Iog+wkVUifF6hm8uu2WMUbba5rMnhG5p/VhB9gNJf05oMDejiVE5bJ1I4OB7n/7YpfZLZSXqzFJPvgHpyS3ZDd45ID8VVLsft/wzX2UnI0m1/ddNoXyfOXIwpGE1bzlxVePdVBbcyWvtD2LWjGHCqknIzFzV8alW5Xw50xZMPVOD83zbe0YzKo3aX4vjcOSINwL2+TGuyLoj2KvSTu8qsfaEn/1vezSxWVvmbJyquf6C7rw/Xbc5f+uO4jPcZN8QRvP0afj2u97IfadV8Ut22ymV98+SJviikZIzUp34o/Cqh1MYBnwkAFQikAbTRtnK/m1DVrF/vsGb/sq6Pfjeu8Mt+9T5f8b2eXnlfHNb4bz/Q5+vvKVo1/FzS/LuZjp7i4R3NVAV+1l6rmh2y+y9ppx6dHjWUKhT1TfFzffBbQ2NXQhp4obe6bUnq6e2Vfyiq+P0v9MUfaudoLiv9cSe3LgCtUB1I788NavzlljksAJxgTYV71eeM8J0FTfxz7zPf2fPimBaW4hqoPPhwWYUvW1m+zlNaNDRZsQZiYDpUXYedpi+s99JxRYea2+HF/+MFLfys+lhubZ250gCOxIg0gPbZNLVaFUePa+yVxmc59/xrRLGXK49kZXIvf7ivc5q9VTn+H9bktQDzfg/Uo8FAuPrQV1vatqcwAFzi0EDaKDT22DDjojSOAJzGp9PPHoyu+nnf906qLJ1n7fcJzVXcaATuJEgK0YzvsK80gKMxIg2gfZ7rqQlMcvr8WAu6wvITGB5sMy3jVsU2W94JGT/p6Ekdx1bcrJ4TPfwv/WrqPg9A1+mIQLow45HHE1F60/aS7O/T3PS+k92kdi4+e2o2qAPal9evwaqpGTnN/6HQ+OPz7c+1ulTx9SvDChBIH2BbuXeqF3UOvzWu0POHvgFf55S6s/b0a++4xl+r383D7axeL0uLkRavlXLH+Yz6Olk79Xvwy1J+CxviC9cH0qXFiIJTdpdCu/95QalqSgwZjWoVZjzyBKR85RSh29TSM3VM+xpQ+OZw1ZG1mbAiv1lraFHX1odpze1/5dX465G6bfEg6dN5Jd6uuFi/bCgxSk0damtNc9FYxTQYr6J3JjT8HTsL1XrHv14a1eduq1M8XXI+o77aZCSl4gH1FG9ytyG74gt3B9KbaY1HszKmDdvLEQkkZBSa/4/vJjsnJVKmNq3D2pf/2l2lflx5ISlp+dag+kOTWlgpHT46/WVa4/++sP+l98dzmniNB+/1Skq/NVkxWuUM9l6YAAAgAElEQVTV+PS4Akz2rfb1lsxPl5Weiejs6UFNvr8XRXsV/V1OC51248H1sjnUl6vYGV+4OJAuKHkmJqWLil+2uST3dnLFj9HIj1DQQjSrcHqMILpJnde+/Ir+dlmzr1WPypQ+ntP1gE+nvveqbry7rPWvKr75ZVY3RmNK78Y63guGsr+NMhp9gO2Hs5qomv5icMMhqe7R+LdP6+zAq4pNZff3IvdemFDqs3WlftLfYYsMuV42h/pyF3vji0MD6UTAyftIl5S+GlRiOu+AXUNKMj+TwlekBUfUjUNtmlpVWBEt1LQhJ8xtd7IObV/PD2jiT+tafSdcHwxvLGv+5qs6/12Pzgaua3LquoL+iOZXJMmr0M8zyv9PXAHm+x5gTfNTcxVZI72KvxHjhuNZrt1Vfv2JirlZRb/faTcdrbxeJhSsPA9drc1Q+uyyOP98Rn213VJMvuPMa7Y5vnDliHRhxqeYUio6Ym6tKXNJykZNhSrn5RQMZaO+zmrsx7FpKqusYhuhqjlQ+emsYmcIpg/Xye2rVwM/W1DmzvChP2GuLGhuZmF3mkK/Jv60po/uhOV/rl1ldJfa5CsamdONC501tnoi7t1Q8LWYbryd1dpXz/5xN2nV9bI+y2ZexlJMvqYWvTn/fEZ9tVfgds3c6McphaeCzd102BxfuG4f6Z15MGGl7tSmc7XJpqlVqf6RwlBc+WkpG13oiJW1x1UyVyWFlbpWfXIK3M7LUFaxe9TSgTq4fW39Na0bgdMavLUsaeex+nvpuxp/rf+Qvr2uuR8N6OKttNZJN1evLvlKQLO/csh50g02ljX/ZkSD3z2ryLuNLX51upO9XgYULxiSEso1uruCw89n1JcD9EU1nw5LSxnlGgyA7Y4vXDYiXVLuQVZGIeOcpAJ9fg0e8i3/ubCkVZmMtsrrP7SW5B+R9JnZ5COvLtGh7ct8/4aGX4rtTteQAr/8SOu5WY2Njuvunz5X8X+/0Gr2rsZfqZ2UUFLuNzGd77+o5J87IdRpndrkK943DI2/fPjPd5+A4lUDQd/oyZOiPs+lZIxW3ryZyt4c1PBME9syOlIbrpdDIRmSVhtNL+ro8xn15RTeH0QUVrbhv83u+MJlgfSOuvnbgYSkrGJn7NtbMbthPvuHul7jHQPVOql9ba8kFfvR/H4/DUznlXsrVJ344nm/Bq6M6+7yF/rmcV7v/TxUPUJUyinxg2ElV9wd6rRMbfIVDcv4aajDFsy1Wo96e73qvxBVPP251v+nerV/YSqsxEP3t68TvV7ujpg2y8nnM+rLATbNqj3wG2NffOGyQNqr6P0DppgUDElhpR7bsbdiQKFpSVO5ug5mbmSlkYhCThk9t9PunXjiYV0tyVySwldCPII+UIe1r+2C5l5PPP1bXo5r7ueBIwO+nr6Axu58JHM9pfGqlesFJa6MKdv1N2f1yVcGphOKnbOtQK7Ue9lQ6neV8/VLmvtNSu4NYdpwvdw0lVVYkR80evZ28vmM+nKKnakahkKN7lRic3zhskDamQLXUgoroWDFStO9jdyNW8xR3BHQWDosTQUrshXtro6WoUnbd19xrk5qX+aiocSnT78evjnW8O4bPS9GdfdhXkblybWUlrG4duh7ukJt8hXvuIzXj745wcH8V8Y0Vnngw7Ryx0ph3ykKStaOxu7ub6zpyaamQnTS+exw1FdDNtOK1C4qXEnK1/RWdvbGF6x9b4W+qDJlv5KeoDz7WZB27mAdM5fbAbyjGZX9SXkCHiX2Do6kVCy7/GRw0jqmfZVU+HC54usBhQaa3Jjt+YDG3xxTIvw0MctaOqe1NwY00JpCukxt8hUp8OZYx2Xka5vvDChwWVp4uHcgJ7MkqetH9/3yjyQU9CSqjobTRZWbDVI65nx2FOqrIX1+DS4F5fPEqg5bST5jZ3zRGYH0UFzlst2F2FnIEre7GE43FFe5TC01rxPa185jtqf88lkI+HpfCiikBeX2DnxqqrglDXTa9r8NqEu+4p2Q8ZPuvKVojVM6VdOO1h+XpE661bd0vdyZ9hBtWSFcdD6jvk5Qi/8um+ILpnYAaA+LC23q9JyqXpioora+bsUHu01t8hUpfGdSIRLVHMM3+qZmM5iezhhuAnBCXJrZEIDr9PnVX3Ugq9V1C7sifFWsWQDmU28XBo91yVeGZpVgrcHxbJtaf1h96PwZ6hTA4RiRBtAmPTpds69x6mG+6b16zbWcqpYXvuyXr9umddQlX/Fq/FdjXTpPvHW2P1lWqupIVP0v2FMWAO5QHUgPxRvKZmhnZkMAbjWgYLj6fFF6e1LGn5sIpb/Oaf5Xy1WHBqKhrgsga5Ov6BVDE691291Ei31dkPFm9VQZjbyqIJc4AEdgRBpA2wRem6zZ0mhNyR+ElPiwgSliX+WU+FGsOoDUsMavdFkYXZd8ZUDGVExN7n/SmTbTuj58Q/MfrmurmUcdX+WU+FFYyU8rD3oVfz3cScsMAZwAAmkA7fPyuOZu1wa+BSWHfTp7Nan0x+sqVS4c3N5S6W85pWdiOv/SRSU/rg64A28ZXZZ4pD75iq4lND7ErtF7nnw4rxvD53X6lE/nf3RDiXtZ5T41tbW1VT2N6OstmZ9mtfBmRGe/W9+2vD+e140L1CuAo7EeGW1VmPEoOPX063C6yPSgRqwkd1PV7hpJqXjfjftv9yjw5ryMP4eVqAlczKWEYkuJQ95Xz38to9QvB7or8Uht8hUFNHszLCZ1HKSk9ffnlXx/Xslm3zpkKPtbRqMBPBsj0miTktJXPQp+llJxb47945QU9ckzU5vWE5VKixF5Aqu7KWrLKpeLSikmX23mLLd4PqD4n5Z1d8TqZASvQrc/0up/h7tsOkN98hXvG4bGXz70DbDA+9qsVj+MN5xxE0B3I5BGe6wsKLYUVupOxShqX1SZgiFNzSq9aWfhnKyghWhW4fR8RRYrr6L38zKU0Kxbt598fkDj91f1eXpCw01MzfBemNB7f1nXR9OhrhuFrUu+orDmboa6a0T+WfqGNZtLybgWaP4m69ywJtKfa/1PE12Z3AeANUztQFuUzFVJg/LXpjTt8yushDKflBRlike93SQmg/7auvHLPyIlHuRUGnXjFA9J6lX/6Kw+GDVU+nRZH2RzWl5Z1/pnOa3v3R94+xV6KaiB10Iavjys0IvdG+H0XJ5VsTxrdzEcrlf+C1HFL0QV/922ShtryhfyWv1LXoWNosyHhYo9yP0KXB7Q4NCwQuGQhr/vJ/kKgKZx2kBbmBtZSYP13+jza1BSYsNUR6XhbZVNUwfXnFf+lyRNmXJ/zfXI+3JYYy+HNWZ3UdA5nuuR98WAwi8GFL42YXdpAHQopnagLfznwpJWZTKFozl9foUlrZouncIBAEAHI5BGW3hHJ2Uoq9itdFXCg9LirBKSwue6a9lYw/qimpyWstHx6nnkm2nNTkka8XfZgjsAAJyDQBptElB8f7cJjzy7r3FFZOigOcDYE7hdVjEtxc48rTfPLSkyLeklv8undQAA4F4E0mgjr6L3a1LM+00lFK5fhIgq3tFMVb2V7/tlTjGSDwCAnVhsCFsVHiak6XzF1m5oyEpOCRnKs9MJAAC2IZCGTUpKX/UpppSK9wN2F8ZVSosR+aJS6nFG1BwAAPZhagfaprQYeTrH1+NT5kpRZVemuW6zzbQiFfPKfQ8iKpYzjOIDAGAzRqTRNt7RjMqjdpfChfqiypSjdpcCAADUYEQaAAAAsIBAGgAAALCAQBoAAACwgEAaAAAAsIBAGgAAALCAQBoAAACwgEAaAAAAsIBAGgAAALCAQBoAAACwgEAaAAAAsIBAGgAAALCAQBoAAACwgEAaAAAAsMBTLpfLLf1Aj+fA45cuXdKlS5da+asAHMOjR48kiX4JOAj9EnCeR48e7ffNWs+1sxASJwfACWpPCvRLwH70S8B5jgqipTaOSO9p8a/rWL/+9a8lSb/4xS9sLok7UF/Nqe2n9MvG0M6aQ301h35pDe2sOdRXc54V1zJHGgAAALCAQBoAAACwgEAaAAAAsIBAGgAAALCAQBoAAACwgEAaAAAAsIBAGgAAALCAQBoAAACwgEAaAAAAsIBAGgAAALCAQBoAAACwgEAaAAAAsIBAGgAAALCAQBoAAACwgEAaAAAAsIBAGmipktJXPfJ4ql/JFbvL5R6Fmfr6iyyW7C4WADSM81j3IJAGWmkzp4xSKpbLKu+9CoYSAU6ijSkoN2UoX1l/j1NS1CfPTMHuwgFAAziPdRMCaaCV+qLK3I/KW3lsKK78tJR9kBOh9LMEFC/HFag81BfVfDosTeXEJQiA83Ee6yYE0kC7LJky7S6Dq63K3LS7DABwHJzHOg2BNHDiCspNSRrxy293UVyppNyDrKRB+fvsLgsAWMF5rFMRSAMnrLQ4q4Sk8JVQ9ZQPNGZlQbElSdOh6kelAOAWnMc6FoE0cJI20xqPZqWRlOZHCaObV1AykJBkKH+byw8AN+I81skIpIGTsplW5ExMWRnK1y5ARAMKSnqCSiis1OM4ozgAXIjzWKcjkAZOQmUQXbt6Gw2ovPhkFGVOIQDX4TzWDTo/kF5J1m2KbvXFPsBoyF4QPZJSkSDagr2Lj6F8mYsPADfiPHao7S2Zny4r/W5CN65e1MXA2ep463tBXfzhdU2+m1bub1vatru8z/Cc3QUAOkplEM10DgsqLz7chDTK/P1Fnf1pbueL6bzKzMMEbMR5rN6WzA9TmvuveWXeXz86p8JGQbmNgnIPFzQnyfv9qCbfmdPEBWdeUTt/RBpoo9InGWUlaSkmH081mreSU0KSlFDwoCdDZAU7gKncg5zdhQCwh/NYvc1lTQ7f0PyzgugDlP6a1mRoQBencto6kcIdDyPSQAt5RzMqj9pdChcbiqtcjttdChfZUuE/rivxod3lALCP89gJKCk3c1HDp1aV++WAeuwuToXuG5Gezu/kvbfwyrB9GQCbbW9taevLNS0vzul6qF/BX5F6HoCLePs1/Hpc72U/0qr5RE/+tzrW+ubJE31RSMkYqU9hVvhVQqkNG8p8BEakAcDxSkpf9e0kdAAA1+nR6VFDqZtjCg95jxxR7untlX8oqvj9qKJ/jCn4/9IVgwXLSn9sauycc/IEE0gDAADg5PSF9V66+bf5f7yghb+k9eq7T4/l1ta1Jb96W1e6Y+m+qR0AAABwgR4NBsLVh75y1pZ4dYF0aTHS5P7KSXXh+lMAAAC023d6WWwIAGiGV9H7hyyELhh2Fw4ATkxx06z6evhf+h0zrUM6MpAOK/W4kd0s2GwcTarNNtmNe2o2g/oCDrfbP9q+R7tL+2VhxiOPJ6L0pu0lUdIFT7epL5t9nVPqztrTr73jGn/NOQsNJUak0WaFGY88ASlfeTNGFrZDUV/AETbTigQSbf+1bu2XpcWIglN2l0K7NyFBqeDsQTnqy2Zba5qLxjS3f4/sVfTOhIa/Y2eh6nVfIP2HCQW/Vz/X+2zgoi5evaHEbm53tN7OSYmUqY2ivoCjlJS+FVN22lA7J7e4tl9upjUezcqYtnkq0O7Nj1EoKz5kb1GORH3Z4+stmZ8uKz0T0dnTg5p8fy+K9ir6u5wWRp01Gi11YyC9UVDhgM28zZWcckvzSt6M6WL/aflC1zX/ZwLq1iloIZpVOD3mrouPbagv4CiFGZ9iSql4O9TO3+rSfllQ8kxMShcVv2xzSe7FlB1JaczRQSH11T41U1a+fVpnB15VbCqrvZnR3gsTSn22rtRP+h21yHBP9wXSDSp9vKAbP+h3bG5319k0taqwIlqoeRrghLlnDkR9AYfaHxW+H1Vb8826sl+WlL4aVGI674DsvCWZn0nhK9JCzVPhts9xPxT15RjX7iq//kTF3Kyi33fS8sJqBNJH2s3tPlNw1J6FrrRpKqusYhuhqsWq+emsYmecfBGyCfUFHGwlKV9USj22YWqFC/vl05F7J4yhmzKXpGzUVKhm55ls1OeI4JD6cpB7NxR8LaYbb2e19pXdhTncEYF0VrEzz9hD2hWrlHsUGBlX/J2UPih8ruKTJ/qmZueRb548UXE9r8w74xo+V/8JhalxGX8mlD6OkrkqKazUteqTU+B2Xoayit1zQ1tqH+oLOMDufNFwel7Rvvb/erf1y52R+7BSd9o8cn+YTVOrUv3UmKG48tNSNrpg604U1JcDbSxr/s2IBr97VpF31xw5Q6DzR6SHJpS/f1fGz6IaHuqXt7d+I++e3l55Xwwo/LO7+uDvT5R/a7imE60p+VZKpmCV1z94yHf88o9I+sxUh99bN4X6AuqVPskoa+Mjd3f1y5JyD7IyChlbbjoO1OfXoTV4LixpVaZto/rUlz0CilcNbn6jJ0+K+jyXkjHaXxGLmcreHHTkDIHj7SPtiEcfrdarwC8zyk7X/G0fppU7YJEimpHtgE7fTtQXUGcqWPN0NKiEpGzUJ4/Ho+TKSRfAXf0yEah5khxI6OkTZ3v2Is5uOHdYivqyW496e73qvxBVPP251v+negpXYSqsxENnhdKdPyJtSY8CbxiKVw165LS27sSHCi4xFJIhKfGw9jS0MwcsfCXkjEdpTkF9AXW8o5kDBnXyMiSF00WVyye8RZir+uUh2TALhp4OlLV7nnlAoWlJU7m6gNTcyEojEYVsGw2mvpyo97Kh1O+GK46UNPcbZ80QIJA+TE9QoR9XH1ovPbGnLB0hoLF0WJoKVowY7a6OlqFJ21dHOw31BTgP/fK4AtdSCiuhYMUaq73EJ8Yth8xNdhDqS/JfGdNY5QGHzRB4zu4COFePTn27+kiuVJLkvM3A3cI7mlHZn5Qn4NF+LrKRlIrl7jgZNIv6ApyHfnlMfVFlyn4lPUF59rMG7oz4OmZuspNQX9J3BhS4LC083DuQk1mSdMDmEHYgkEZ7DcVVLsftLoV7UF/AM+wsVmorN/fLobjaXV31dv7PXFGD1JcDnNKpmm2k1x+XJIfcujK14yj/V/1l+AVn/KcBAAB0h2/0Tc0StR4HDQMTSB9qTfn3q4/4vT57igIAANCNtk2tP6w+dP6McwY2CaQPsb2yrNSnlUfGFfoXJ2Z5BwAA6EzbnywrVXUkqv4X7CnLQQikD/J1QXM/T2it8ti1kILOTfUOAADQWb4uyHhzrjrR0cirCjpnQLqzA+nCf1zU9XeXtf5VE5t3b61pLhpWompT/wHN3gyLOBoAAKAJm2ldH76h+Q/XtdVMLpWvckr8KKxk1ewAr+Kvhx2yzHBHXSD9dMN7B6XJtOofOS3cfFXnv3tKvpde1Y2pBWVX1lXa2tL2Pyp+bntLW1+uKfvudV3sH9Tk+9VJXr1vzGr85fYWHQCeKil9tSbjWlXmtQp1mf/2XhGlXZSRD0DnePLhvG4Mn9fpUz6d/9ENJe5llfvU1NbWVnXK76+3ZH6a1cKbEZ397kUlP66Jx348rxsXnDXNtqNHpCuV/rqs+ZnrigTOy3f6tE79U8UF5tRpnfYPKnJzQbnq/zN5LxjKToXkrP+2djvgIj5jLVFqYab6cyKLpWe/qYtRX4DzuKZfriQPuamydh6v/bs9V9Ny6F8Oxypp/f15Jf8toosDZ3X69GmdqmxT3z6tswMRXX87W5+9cMhQ9rfOGo2WuiiQtsI/clfLf4or8LzdJbFTQUmPT7GX8tUpeaeCTZ5Ed4Lx4GcpFfc+53FKivosB+WdjfoCnMdl/XIofkBK9Z0yhyWFzzWaYOyAv7tcVEox+TzJuvTVQKt5X5vV6ofOjMc6OpDufy2l2deHm89FeG5YE+nPtXp/XAMO/E9rq5WcEgordS1QcTCgeMGQljLKNfqoeGVBsaWwUncqsn/1RZUpGNLULI+ca1FfgPN0SL8s3Isp20xK882cMku1Kam9it7ZSV+dWznivUDfsGZzKRnXApbjsfU/TWjAoQvVHLSldev1vhzVxG+jmnhnW6WNNeULea3+Ja/CRlHmw0LFYwO/Apf9Ov9yWKHwsML/7HfUZt/2y8rclHSMOfMlc1XSoPy1n9HnV1gJZT4pKdroSb0LUF+o5lX0fllRu4vR5TqiX26mNTslhdNjCjz7p6usmiVpyOF/HxyoV/4LUcUvRBX/XSPx2IAGh4YVCoc0/H3nx2MOL16LPNcj74sBhV8MKHxtwu7SuMtQSIakRMCj1XRRmVGvpJLSdxLSdL7hBanmRlbSYP03+vwalJTYMOWUdJ9OQH0BztMJ/bL0SUZZGco3E/D3hRQZkWJRnzwbeZVv74TghXsxZUdSmh86ocKi83RgPNbRUzvQCgHFy2Xlp6Vs1Le7IMCnzJXi/sm0Ef5zYUmrOyPbeCbqC3Ae9/fLghaiWQuj0TtPRIrpcNWuMEHlVb4fdfitA3CyCKTxDLuLTJSvWqSSbXJxjXd0Uoayit2qXqBYWpxVQs0seukO1BfgPG7vlzvlbGJudIXCjEe+B5HdxYZ5GdJOUM3OHehyBNI4UmlxXLElQ/m90ee+qDLlpyMTyYYXmQQU31/l/XSrm3FFZEga9DOmUY36ApzHzf1yZzRa06Gm50ZrJangVOUiy50nleWCIS3FNO7U7f+ANiCQxpHMjaw04q9babszMrO7+KRhO48HK7dhyvhNJRSuX7wDUV+AE7mzX+6MRtfuwNTgew9bZDk0ptSIlN2o2/EX6BrdsdgQx7Nkqm4Jzaap1RZ8dOFhc4sWux31BTiP8/vl3mj0ccq4Mzc8UPV+U+aSpJeOXUDAtRiRxpEC13b2CQ1WzYMrKX1rd7W25a2eKjb4b2LRYveivgDncUe/PM5otFQxN/xMdfKVwkxQCVVM/QO6EIE0jtYXVaZuTuBupsMmV2uXFiMV6WV3d/5gxfehqC/AeVzXLzfTGo9mpenJY4xG7+3elFCwYm74TqbDePNzroEOwtQONKA1ySC8oxmVR1tSoK5AfQHO47p+2RdVptyaVD6B22WVb7fko4COwYg0AAAAYAGBNAAAAGABgTQAAABgAYE0AAAAYAGBNAAAAGABgTQAAABgAYE0AAAAYAGBNAAAAGABgTQAAABgAYE0AAAAYAGBNAAAAGABgTQAAABgAYE0AAAAYEHbA2mPx8OrgZckPXr0yPZyuOVFfTVfX/RLa/VGO6O+TrK+6JfW6o12Rn2dZH0dqdxikni14HXp0iXby+CmF/XFqx0v2hn1xct5L9oZ9WXni6kdAAAAgAUE0g516dIlXbp0ye5iuAb1hXagnTWH+kI70M6aQ321VtsD6XK5zKuBl7TT2O0uh1te1Ffz9UW/tFZvtDPq6yTri35prd5oZ9TXSdbXURiRBgAAACwgkAYAAAAsIJAGAAAALCCQBgAAACwgkAYAAAAsIJAGAAAALCCQBgAAACwgkAYAAAAsIJAGAAAALCCQBgAAACwgkAYAAAAsIJAGAAAALCCQBgAAACwgkAYAAAAsIJAGAAAALOjCQLqk9FWPPJ7qV3LF7nIBQPuVFiN150PP1bRKdhcM6EKFmfr4xDNTsLtYOEL3BdKbOWWUUrFcVnnvVTCUCHgUWeTSAaCblJR7IKUeV5wPy3kZSzH5PElx+QbaqaDclKF8ZXzyOKXwVJCbWwfrvkC6L6rM/ai8lceG4spPS9kHORoqgC7iVfR+RtG+ymMBxQuGpFWZmzYVC+hKAcXLcQUqD/VFNZ8OS0umTLuKhSN1XyB9FBoqAKhkrtpdBAC7zI2s3UXAEZ6zuwDOUFBuStKIX367iwIAdtpMazyaVThdrBmpBtB2K0kFpySjUDNSDcdgRFpSaXFWCUnhK6HqKR8A0CX2Fx2eySjyuKzMKGdDwC77iw4DUr5cVnzI7hLhMATSu6MvGklpngsHgC7lHc3sLnCal26xcwdgp8DtvQWHIeXYucPRujuQ3kwrciamrAzlaxcgAkBX8ip6J6XwUkwLbAsK2Gx38e/UrNIs/nWk7g2kK4Po2lWyAACtmoxJA86QZRcdh+rOQHoviB5JqUgQDQDVNk1lJQ36XfqcbiVZn9TC4ov8ArDbzi46YflZ/OtI3RdIVwbRTOdAG22vJBWsukh3X8KLA7PoHfvVffXYMptpRermQheUDCSkkZTGWOCECubvL5Jt7yStJOvrdW8d1/Qku+g4VNcF0qVPMspK0lJMPkYf0C5fpjV2JUHAB2fpCymi2nNhUInpvMoMNKCKqdyDnN2F6GxDIRlTweq45ExMShdVvs2zc6fqun2kvaMZlUftLgW6ylZBydGY0tyjwXG8it4vK2p3MeBwWyr8x3UlPrS7HJ0uoHi5rLjdxUBTui6QBtrq64KSrwSVYPcDwD7TeUb0mrS9taXtLVP5Qk7Z389q4WNGAoCDEEgDJ8ZU+t/DBNEVWvNEaE1zgUFNUq9Ai5WUvupTbMnucgDu0XVzpIH22FZhJqbYH/dGcbyKplM8smuB0qJRFUQPTIc0YF9xAABdjEAaaLltrf9+TOGpp0sLA9NZLYz6dcrGUnWEr3OavZWtOBDW5LWAemwrEACgmx0aSG/9bVkLUzcU+WFQZytWkPpeuqiL/zap+cVlrW1ut7OsgCuYi2MK/fTplmKB6bxytwn2WmHt9wnNVUzVDNxJsCUUAMA2dXOkt/6alnFzQnOHLCwo/TWn0l9zyt2bkyT5XxnXxM8mNPaKn0ABXW97JalY9GkQ7f1xSimC6NbYTMu4VbGBoHdCxk+Y1AG0zhG7uKwk5Qkk2l0gwPEqRqS3tf77mPpfiu0E0efCMtIf6fPiNyqXy/uvb558odXsXY2/4pckmR/O68ZwWms2/QGOUJtFi43qD1SbjKPj9uyu3St6yFD2t1H57SxTx9hW7p0JVU7qGH5rXKHnbSsQAJyYjr9enhQb4rH9QLrycbT/WkpfrGcUHw2p31s9ltbT69fAlXHdXf5CTz57T2PnTryMjlaY8cgTkPIVNxtss1SrpPRVj3wPIipW1FNmtIPSPXyZ1fXLFTR4vdUAACAASURBVHtFD43rg8W4AgR6rfHpvBJvV1xIXjaUGOUWBUCn6YLr5QmxKx7bCaQ305rcfRzt/XFKH/13VP4GNsbr/f6Y3lv7XO9d684H16XFiIJThvLluAidD1eY8SmmDk7J/nVBydGIFjZ2v/ZGlVq8q+EX7CxUJykp/dZkRVZIr8anxxXoztMOrPjDhILfq89kezZwURev3lDi3bRyf9uyu5RA518vT4id8dhz0rZyv917ZDosY6rJR9HP92vsv/tPpHDOVtBCNKtwep4g+iibac1OSUahU08KtXtFB2Q8WFD0BRuL1GG2H85qonJf21cMTbzWa1t54EIbBR30gNdcyclcySm3NK+kJO+FMSWmZzX+r7Qv2KDjr5cnxd547Fvazit3b/eR6bUxRbp8qkbDNk2tKqyIFmpGOSJKb9pdOAfZNJWVIb8Zqamn5IEXNnfZOniv6CGGSltnTfNTc3o6qcOr+Bsx5p3jRJQ+XtCNH/Tr4lROjE+j7Tr6enmCbI7HvqW/rWl59yoVvhwU9+EN2jSVVVaxjVDVYsz8dFaxMwTTe0rmqqSEMpqvqKeiUiMJBV19cthWYWZYwf29or2K/iGvFPN2W6o2+YpG5nTjAjcqOEkl5WYuanimIDZ4RTt17vXyhNkcj31r67G5v+PGoJ+HCY3aafBhpa5VP0gI3M7LUFaxezR5STI3spIMTVYtlPAqeielsBKadelKZHPxgIQrPyaIbqm65CsBzf6KR55oRI8CI+OKv5PSB4XPVXzyRN9ULkAql/XNkycqrueVeWdcwwc8iS1Mjcv4M6E02qdTr5cnze547FvbXxdP9Bd0Kq9/8JDv+OUfkfSZKZq85D8XPvgbfX4NSspumG0tTyuwV3R71CZf8b5haPxl+8oDFxmaUP7+XRk/i2p4qF/e3t66/tnT2yvviwGFf3ZXH/z9ifJvDdfcpK0p+VZK7jtDwa068XrZDnbHYw2mCN/ZjqV2xTPzd7IymcLRgNUOqqc1zVXsFe29wF7RJ6I2+YqGZfw0xM0KTkivAr/MKDtds1Tpw7RyGwe/AzgZnXS9bCf74rFv9Tzvs+c3u91QSIakxMPaWwhT5pIUvhLiEbQk7w8iCiurzCc194ObplYlGZfdtufJtipvbUsfJxT89lE3mZWvoKrzgiUUrP0ZkvnooOQrA9MJxVgIjRPVo8AbhuJVJ+6c1tZZdoj26LzrZZvYHI99q/eMX3tJdlf/fthjg520oeWaOWb56RMsmeMFNJYOS1NBJfcXQ5WUvhpUom6OUxfri2pyWspGxysm/BeUPBNTdiSlsSE7CwdHqk2+4h2X8TpTZ9AGPUGFflx9aL30xJ6yoPtwvbTI3njsOb04oJCkNUnZj9e09WM/O3c0yDuaUdmflCfgeTrSOJJSscyCqEqB22UVz0XkO+NRbO/gdJ4MkDhAbfIVKfDmmIa/Y1uB0FV6dOrb1UdypZLE5C20CddLa+yMx76lnqCGf7n7a+7NauHTE/6NnWYoXj1STzaiA3lHM9X1xEkBB6hLvuKdkPGTgUN/HgA6DddLi2yKx74l9Sj0b4aGJUkFTb6eVOHrNvxmwJUCipfrpzk19srLqPosQ/nan+nqE2Zt8hUpfGdSoedtKxC60f9Vfxl+gaERAIfb2bXj3JiMO7sX8JWEwtE5rbG+AkAb1SVfGZpVgrUGaKs15d+vPuL3siAfwOH2t78b+Pmy8m/trGwsvT+pwf6Luv5uVmtfblVld9re2pL56bLSb9+Q8Yf2FxhAB6pLvuLV+K/GxKQOtNP2yrJSVdMbxxX6F5a5Ajjcc0//2avALz/S2tCcxn86qexGTgs3c1q4efQH+F8Z18TPolzwAFhWm3xFrxiaeI1lz2ijrwua+3liP9OvJOlaSEGaIYAjPFd7wHthQpm/j6v06bI+yOa0vLKqtYeF/exO/qGQBgYCGr4cUejygPzMXwRwHHXJVwZkTMXYJwGWFP7johaen9DEaEj932lwNHlrTXP/L6xE5dQiDWj2ZphdrAAcqS6Q3tEj78thjb0c1lh7ywOgq9QnX9G1hMaHeJwOi/7x9Gmq9/vDilwJKzQcVPBFn3qf71XP3lVve0tbJVO59+c1/9aCcjU5MLxvzHZhSvqS0ld9ii09+yc1FZRn6qBvhJV6nFG0r8VFAxyqwRThAHACapOvKMAoYMNKSl9tTWbMwkz150QWS89+kwuU/rqs+ZnrigTOy3f6tE79U8Xfeeq0TvsHFbl5QBB9wVB2ipT0wMlz/3mMQBqATeqTr3jfMLpwFNCKgpIen2Iv5au3V5wKynM1rcYvHzsXseBnKRX3PudxSor6ujZdvX/krpb/FFeAaYvACeuM8xiBNABb1CVfUVhzNxkFbMhKTgmFlbpWue94QPGCIS1llNs89J01n7Og2FJYqTsViQv6osoUDGlqtiJNsXv0v5bS7OvDzc+xPzesifTnWr0/rgGCaODkdch57JA50gBabyeZS9zuYjhEz+VZFcuzdhfDxbIyNyUdYy5qyVyVNCh/7Wf0+RVWQplPSoq6bC/v3pejmvhtVBPvbKu0saZ8Ia/Vv+RV2CjKrFg4L/kVuOzX+ZfDCoWHFf5n/9P5013Lq+j9sqJ2FwNdxP3nsa4/bQCA6wyFZEhKBDxaTReVGfVKKil9JyFN5xte6GVuZCUN1n+jz69BSYkNU2pLkt0T8FyPvC8GFH4xoPC1CbtLA6BWh5zHmNoBAK6z83QjPy1lo77dxTU+Za4Um0oz7z8XlrS6MyIEAG3VGecxAmkAcJ3dxTXK7y+sCWv3YtTE4hrv6KQMZRW7Vb2wp7Q4q4Sk8Dl28wZwUjrjPEYgDQAuU1ocV2zJUH5v1KYvqky5rGI6LE0FlVw5+v1PBRQvF5VSTL6KbaPGFZEhadDv0mkdAByvU85jBNIA4DLmRlYa8dftTLEzMiOtms3sn7qzwOzp9lNlZfymEgrXL94BgBbplPMYiw0BwI2WTNUtodk0tdqCjy48bG6xDwBY0gHnMUakAcBlAtdSCiuhYFXSgpLSt2LKjqQ0b3mrp4rEBk0s9gGAZnXKeYxAGgDcpi+qTN2cwN0MYfejTW30VFqMVKTV3V0x3+RnAEDTOuQ8xtQOAHCl1iTP8I5mVB5tSYEAoEnuP48xIg0AAABYQCANAAAAWEAgDQAAAFhAIA0AAABYQCANAAAAWEAgDQAAAFhAIA0AAABYQCANAAAAWEAgDQAAAFhAIA0AAABYQCANAAAAWEAgDQAAAFhAIA0AAABY4CmXy+WWfqDHc+DxS5cu6dKlS638VQCO4dGjR5JEvwQchH4JOM+jR4/2+2at59pZCImTA+AEtScF+iVgP/ol4DxHBdFSG0ek97T413WsX//615KkX/ziFzaXxB2or+bU9lP6ZWNoZ82hvppDv7SGdtYc6qs5z4prmSMNAAAAWEAgDQAAAFhAIA0AAABYQCANAAAAWEAgDQAAAFhAIA0AAABYQCANAAAAWEAgDQAAAFhAIA0AAABYQCANAAAAWEAgDQAAAFhAIA0AAABYQCANAAAAWEAgDQAAAFhAIA0AAABYQCDdrVaS8niSKthdDgC2Ki1G5PF4ql9X0yrZXTCgCxVmPPX9cYYrtZMRSHelktJ3EnYXAoDtSso9kFKPyyqX9155GUsx+bjRBtqsoNyUoXy5oj8+Tik8FeTm1sEIpLtKQUmPRx6PT7Elu8sCwH5eRe9nFO2rPBZQvGBIWpW5aVOxgK4UULwcV6DyUF9U8+mwtGTKtKtYOBKBdFcJKL57l1tMh+0uDACHKpmrdhcBwC5zI2t3EXCE5+wuAADAQTbTGo9mFU4Xa0aqAbTdSlLBKcko1IxUwzEYkQYAPF10eCajyOOyMqNeu4sEdK39RYcBKV8uKz5kd4lwGAJpAIC8o5ndBU7z0i127gDsFLi9t+AwpBw7dzgagTQAoIJX0TsphZdiWlixuyxAt9td/Ds1qzSLfx2JQBoAcKBVkzFpwBmy7KLjUF0XSG/9Laf02zcU+WFQZ/c3PPfpfOiirr85r/TH69r6h92lhGusJOs3z7f4iiwStMAhNk1lJQ36mSfdjba3TK19mNb81A1FfnhRwe9Vnqt2rpeRf09o4cGaStt2l7bz7eyiE5afxb+O1DWB9Pbf0pocPqvT/RcVe3Ne2YeFij0ZS1r/OKeFt28oFjqv0/2vanJxXZwfAPttryQVrLrpIFFIy2ymFambC11QMpCQRlIaY4FT99gytfzuDb36kk+nTp/V4HBMN2bmlX2YU2Gj8gd3rpfZ/0rqenhQvlNnFXk7pxIDUMe3kqyfC727i46mJ127i86B2VOP/XLOdaALAultrd+7rvP9Mc192OB25hvLmoueV+jmcodtgL6XkMUjXzQrKbEfoCSZCwkn+jKtsSsJx5wwO05fSBHF5Ku6QAWVmM6rfP//t3e/oW3c9x/A34Y+UCADBzY4QwpRSCEKLcRmA59YHlhuBlFIIWccsEQGqdxBJjfQyM1opPiBfcpYayeQRh101gIrkiHGCjREgaW5PGjRGTqsQEtUmOkFatDBL2DBAhG04N8Dx87dWXasi23pTu8X3AOdJfXbi+7uc98/n08I7I9uHfrdYRw/l0L++3pHxjTkLvSi40gCypNtaVrr6A5AHvGbA8bXw0C2jKVLTH7XrFweSFdR+kcEgXfTtgJi9dPj6H0356Jg+kVBFuvG1DrUdCoqkgNhZDnjZRsJCN2scU3gTZvqNZtE74kk1KeNboiT1b5HMxVlc3N1IF2dnUDkT5ZhSyGAyLU7eFRexLPVH+ozLGpzmPlYgtfyHdqNKBJT7gmlaZuNFmo+qGxm48XS4KmK5DE/EhwpIdpxwptBRC9NYkaZw4+Li3j2s+Fa9fMzLGoFZEbX3i8xm0D0qsppkdRS3BtIV1VMnLUMCXfHcf+7+5h8Pwif0A7P6h88aN/XCenDGfxYvmPpndWRPT+BPIesiHaIhuyfJQbRRDtqD6TRDAo/PUP5uzu4PhqB1NMJb3s7PMYayK950L5PROjSDH7UMghZnv+LIxkolR1tODW5FznqX2Wbw3iTjpy7NpCu3E0j8dCwQwghMyUj8OuXfFAIQp6yXBz0FFK32StNtP2qUMfCCH+xMo4kIJTNIN7QNhG5nzAwiZlLIYh7PS9/84p9IaSn4+g07UxB+ZZ90rS19CkZw4bOlc7RgOV31zguDaR15KfSpj3BURmhfZv8+L4QJq5Ipl35azkUt6ZxRFTT8poGaeTFOJI4mkN6wItdDWwVEa3P8/s+hA+b92lP2CVNW+ipgvHzOcMOCcNnRNTxyLet3BlIVx9hbtq4IwCpZ81srg0JJ6OIG3ulH2agPFz37UT0irSpCAKGNQ3iaAHKpea5WBJRLV74uDaVtlHxHwlMGBa7iVcSTZUK0J2BtK5bMm2IOHSgzu/wdMF/0rijiLn/Mn0A0XaoziYRDr0IooXTGWQYRBM5gAee3Y1uA7nWQhbyecNqNyEG+b1mmdSx7Hkg/SK/8Jpk4OtQx5ovKfYqfbkq1wt2Bobb4esMmPYo8+VXaBStslYD3ORvjlzKmiu6W0bus9DajABE1ITK0OfNezp28xH4VVmLmLRm5dsqlGsxUzwXvBxFoMke3NzZI71FdrWblyPrP5XBmV+vRh1rQ5sIFJizlgDgcQ6DRw25orujuDMVh9hkF0oiWkelhMIt444AOn3tjWqNC+jInmpDx60+lFs9PerDFBKfGB4gDstIDDRfF4s7A2nBC/NSwTIWbUTAwuuHzDueVJgf8xXoU33wj8goLMXh2tD5XzH431hbznS/2IveU0NIfJqF8gMfxwAs54oe6EN6pTdLCCEzdR3BfY1sFBHVo/Igh5Rxx7EQAvVOpaRV6lgHwsig3PKVRXVkLw8bZjwIiI5GITbhYIdLA2nBMiw8g0KRIXBjqUiHcpCyEfcG0QAwr0KdX7tbm1WgTKeQPBdGr28POgKDSH3TygG1NVe0CPlWevOZdYio8aoqUqPmDFmR9/o4LcuuhSzGRwD5fKsH0UD13jhixqQRx2TETjTnSIc7A2nPIXT1G3foSH6ScVGpbwda0DAHCX1IW3pr+5BdaHTjdp7+II2hIz70jigtOF2oUjtXdHcTdjUQ0TqqUD+Jmes1dI8jerI5gx1HWNCQgwyv1me5TzbhWrRtVURqZMJQlVpA/MNw0z6guTOQhoDgQMS86+4get/NQvtlk19R1ZHPzWx5y1rWgoYccgjPB0zVigqjOYRfb81gGtChjPUiONZKJXWrUMeC8K/mihYQ+lcBmSac90ZE69OmzDnfARHjf481TZEMJ9K1OQAJzCBluE+WkelPwN9CwbS1+Ar6JzDU07wdLS4NpIH2Y1HIlnKS2o0w9vv6kJxSUNIrqBqD6l+qqOglqLfSGH7Xj/27OnD8E5Zg2SrLFwgJmTPmiR3ipQJk5BC+4dRLhAdifxTxaxncUR+hvLiIZ5bSps8WF1EuFTBzLYpgjbmD6kgU8jetEUpbb77iaA7p0wyiiZzEmq5yZVQpdniDD9FLafM5ADKGTQsLBYSuZCAhgfFWyNyxpviKiPGLzT3V5bVGN2DbeDoRuyrjjpgwP8XN55AI5ZCw9Z3N+0TU7ARvF4C5Gn/xwtsP4DsNOsSmPllq6o6hcHPjt3ja2yG0i5AOipDel6H+NQzpYt5wEyoieTmDSD7StENXW4G5oomcrzqbRMByX12pQEqvxntAqv2HvV50AUjMa4Dz7pJ1sRZfET6UEW3yB7S1PdIj/jUZB2pt/pEGtLZOnu448l/LCNj83QmC5YNvdLj8J7zdctBacgqHUTvEj2aQG7UsubybhVJjkaJ7FDFhyBUt9DBXNJHTVGeTOH7SGkSzAunWmmvd+6S1+AqCkP8UaPrflmundqxo/30c94v3Md6/+Vu20BPBdaWMwsd+035pH8No27oDkAEk7lmncGjQpgHpZKCFHlI8ED+UzSXooaBYcvOywyoMXfDQHyTg/9XLH9iXN79lBCkBv/U9LOpDtK0q3ywH0YqxVPNoAXkG0VtGONIHCTnMfG2ZwrGgYQ6AfNTNOa/WFl/pHE0g7IBUimsD6dGCaX7nelthtAGttUsIIHbzRyz+9z4y12KIHA3AZ5qC5EPgaASxaxncLy2irEwi2iNA/6+5PqLPy/4z+0REshIw4kdydRGBjuwpPxJr5oS1AI8fgdPmXSV9sTFtISLaQOVeAsEjxiBaQODyck80c3Rsob0hDI8CuVDUsABfRfL1MHL9GUS6N/qww1mLrwhRyGed8ZDm3jnSNbQfCCD0fgCh9zfz7iIKt42vo/C/uT3tahXCwAyWvEm0iW0vehj7MygvNfdCgu3hwa5fmfcoug5wsgMRNRFtahC9obQhfayA4JU8Zj7odESQ4zTipSWUD/Sh4/U2hFd2jhZcXgHYWnwFEC9EEPx1wxpUl5YKpOsyP4e8MT9mvx9dfPR+dd1xLC3FG90KIiLaUAXFq2EEzxsXRnsRyd7HJBcWbithYAZLA41uxc5ZU3xFiEF+zzmJFF0/R9qu4q0UFMPr4DEHZpSg5vaz+aW75+CLiG9iyljtrQDZ9F0yCtb3uLq3hmiH/aIh+24XuoxBtBBA/N9zDKJpi1mLrwDSlWEEdjesQXVjIF3LQhbyBWMO6QgiJ3jxoK1knToEeIWOxjSFiGjFEwWJP/gRvmGoBXwggskHdyAf5bAsba01xVe6x5Fw2JopTu1YQ0P2onXlqHPm6pAzVGfzyBinDiGKwO8445CIGqf6QxqRnkFkjWu+euLI3JQR4D2Qttqa4isCohcjjquOyUDaREP+XBjhL5y5cpQc4qmKiQ8SMNXNPBOAn509RNQg2q0hhKWUacGX90wG9z8PwctIgbaBtfgKjsmInXDejZBTO1boCpLv+HH8U+NlREDoWoK90VST+tdeDH6aR+lJHeW9K0VMhCQkjENZ6MT4OYlppIioMf6ThN8URC+nt5v7J4No2iZriq90Qh4JOzJvlfsD6YUcBkNJZB+UoD81/qGKSkVD8W4WydAhdHT0InHbnARdHM0h3e+suTq0g35RkD53HId+swsdbx3H0EgaudkS9EoF1V8M76tWUHlcRO7TQfT6ujBs+Z0JH443fQlUInKxX0z1kgDoUC76sWdTBZPW2U5lLd9JtGJt8RWcSSDa7cyx/xZ41qxicSqB8FTi5W9dJSBwOYc7H3FKB22O/n0eqe/zSI3V9zmhR0ZupPlLoFIz0pE91YGwMW2U6/PNbg11rA3+EcOO/gzKN1sxnz1RA1iLr0B09Kjs8x5pQ2qqTV6ExUsrqaficNVlWwggni/iPoNo2mbe/uvIfxmH6KA0P9QsVCTbOhB+q2BOEzjiZ0/ghnRkT7XB/10G5dXjVkYGYXS0JcFC80TbbW3xFeFD2dGjsu6f2rFZgg+hj++jrN2HfIz9EvRyvhMZjJ8N1j+n60AQsewjzN2MopNBNNkxqyABCZkzxm4MEXFVBqZnoCys+8nWtqBgZhqQzxt7nwWErmQgIQFldoPPEtErW1N8BRImzjl7VNb9Uzt2exE4K6FSLEKZNebFFBHwHkLnURH+owEE3/TC4/6jQVuo/XAIsc9CiF2rQp8voqAWMPdtAep8Gdo91VBS1wvxqBeHDksISEFIv+VvrT7LI2ash2mVg7YAYG+j2+E8c5oOdLPDZBUrztIO8RwdR3lpvNHN2FLuv523i4h+NoNoo9tB7vWaB8JBEdJBEdKZWKNbQ62gOwAZQEJsw1y2jJkBAYCO7JUEMFpAiMF1bXsD6OsHwqEOtM2/mE+u3ggj159BqrvB7SMix+HUDiIix1nupS+MArlQx/NMCR2YOVnmYsMNCQjdXEI5KwEj/tUME34UsMTFhkRkAwNpIiLHeb5oDs8XG/6UgYTnQfUYl8xtRB1rQ8etvueLDQuQgeWgmos0icgGBtJERA6jT0URnpZRWOl93hvCzNKLntYkF83VNpuEf0RC5spK7/PzjFWqDEyHEZ1iKE1E9WEgTUTkMNp8Duj3rskYIwwMQ8bzxXS0hq7NAeiC1zqHvDuCTD+Qm9dqfYyIaF0MpImInGhaw5qwb0HDXCPa4ihzy9lOTDRo07XeS0S0MQbSREQOI55ZznvsN83r1ZE9/zz7xACXzdWy3GOfQ/h1c/EVdcyPBAxTZYiINomBNBGR0+wNYWa1Il/bataO8FvMPrGxlWwnCfhXj9tKpUOXVekloh3h/jzSRESutJzKLdToZjiQeGkJS5ca3QoicgP2SBMRERER2cBAmoiIiIjIBgbSREREREQ2MJAmIiIiIrKBgTQRERERkQ0MpImIiIiIbGAgTURERERkAwNpIiIiIiIbGEgTEREREdnAQJqIiIiIyAYG0kRERERENjCQJiIiIiKygYE0EREREZENbUtLS0tb+oVtbTX3v/3223j77be38j9FRK/gq6++AgCel0RNhOclUfP56quvVs9Nq9d2shEALw5EzcB6UeB5SdR4PC+Jms9GQTSwgz3SK7b4P+daf/vb3wAAf/nLXxrcEmfg8aqP9Tzlebk5/J3Vh8erPjwv7eHvrD48XvV5WVzLOdJERERERDYwkCYiIiIisoGBNBERERGRDQykiYiIiIhsYCBNRERERGQDA2kiIiIiIhsYSBMRERER2cBAmoiIiIjIBgbSREREREQ2MJAmIiIiIrKBgTQRERERkQ0MpImIiIiIbGAgTURERERkAwNpIiIiIiIbGEgTEREREdnAQJqIiIiIyAYG0kRERERENjCQJiIiIiKygYE0EREREZENDKSJiIiIiGxgIE1EREREZAMDaSIiIiIiGxhIExERERHZwECaiIiIiMiG1xrdgJ1WXSgify+D/FQRjzQF6vzKX7wQj3aiqzuIgHQcwcMCPI1saKNVK9B+KED9uoDC1ypKP2lQZrUXfz8gIuA9hM4TAQSPBuE/2N7ax4u2UBWVHwrI31OWf3ulR1C+11f/KrwZgP9IENGLMQT2NrCZDVCtaCipKgpqAcpsCWXTNUyAr+cQfAdFBI/24fixTgg8KYmItlXrBNK6golzgxie1tZ5gwb1ngb1Xg6pMQAHJMgfy4id9LVQgFiBdjeDib+nMHO7BH2jt86rUOZVKPfSmAAgvBnC8LUJxHqEHWoruc4vOtQvxiFfnkB+fv236d8ryH2voOuPLRJIVzTkv5hA6vMZ5L/f6KzUUXqgo/RAQe7vSQBeSB9PIvVBAELrXOk3RftHL/b/SVl+MVrA0iWxsQ0iIpPqbBIBMQF1dY+MwlIczXimtsTUDu3WEPwdvRsE0TXM55CQDiFwLo86PuVsC3kMB4eQelkQXYP+fRbDgU70jiiobEvjyM0q/0mhz9cB/7sbB9GtSL87jOPnUi8JomvRkLvQi44jCShPtqVpDqVBuaU0uhFEtJ7HWUROGoPo5ub6QFqbCsMvpWz/g6ifHof/j7m6A8vWpEMZ60Xwr0VUG90UcogqSv8Iw/e7IeQYQG+P2SR6TyShPm10Q5pBBepfB5G42+h2EFFNFRXJgTCyDgq63B1IP85iOJS1BMECAu9dx0zxRyz+bwlLS8+3Z4sol+7g+tkgvJav0b+IQr7dYv2sgg/Bs3FM5u5jTls0H6ulJTxbXMSPagZyv/VoAerFBDIMimgTtKkIAn+ynqOA91gU13MFPCov4tnPht/e/xbxY3EG188GW2jK1QvCm0FEL01iRpnDj4uWY/PzMyxqBWRGpTXXMMwmEL2qtuQDbrVSQeVxEfmpCQwGfPBfVNgxQtSMnqpIHvMjMdvohtTHxTPnqlA+jyFn3CUEMX47g9hv29e+3dMO4WAQ0c+CiJxLI9IzaHgi0pH6dAaxE5G1NyhX8WDPgIzMuQik7o0XW3ra2+HtDiF+M4TQF2H4/2gMhvLIPtAQOeDuo0WvpjqbRNj6ekcVVwAAD5hJREFUoHsggsnpcUQO1zhHAWB3O7yHJUQ/k3aiiU1iD6TRDIbPSBD3bnBWvuZB+z4RoUszCJ3OIiyae3WKIxko74sIrnNo3UVH9lQHwtONbgcRbY6G7J8lxwXRgKt7pItQb5j7HaQr6dpBtIXnYATp6Tg6jTvv5aE+3sr2NaG9EiazcYReEkRbeU+nkX7fvE8pljhXmtZXVTFx1jwHTuiRUfh2cv0gukUJA5OYuRTaOIi22hdaew1DCsq3rdgnTUTNrQp1LIzwFysxm4BQNoN4Q9u0ee4NpBc0zJni6CgixzafUcLz+z6EDxv35KBxPHAdHnSJlh7CJ5WWHEamzdG+kJF4aNjRLSP3ZRwiY+gts/YaBmhP+HhLRM2kitI/IpBGXnSriKM5pAe82NXAVtXDvYH0Gh3YU9dNugMdb2xXW1rAr5lXmtZRVZAeyRt2dCL+SQzi7oa1yKW88DVjrigioues62TE0QKUS6Kj4gf3BtKveSz/EAoevdICOAneVshZa1N5wZwkMPg7H9i5SLVU7maRNI7unElg+PdOumw6hQeeln04ERC6aV4gvbqpcqMbR0RYu05GOJ1BxmFBNODmQFrwoss0rKkg9a86Vq1XH2HOuFDlWBAiA+nanirIXCm+eC1EET3BhYZUSwWFe2nDawHx00E+dG2LMnRL50HHbqfdoqjR1LE2tLXV3pIOXBi2U/SpvnWPW98U54muyRXdLSP3WciRCR3cG0ijE9K5oGlPcUxC39XiphbBVe5mMbH6SkD0bJ8j/4G3XaWIiVAYE6vXBQGhKzEEf93IRlHTqs5B+btxRxgBkcHdtqiUULhl3BFAp4+PLGRDfwblGr378e5GN6zZySjUOG4zAy1eAfhxDoNHDVmFuqO4MxV37PS+dQPp9Z+m+pBd2Mkm2uc9cx2Z08YfrI78+S74AsNIz+rr904/ziL65xe9ZsLpCcRO8Aa06mkF2sM8smN92L+nC8O3DSttP1eQHuAjB63jhyJMNeVO+3HoeRxdXSgid2MYg3/oxaEO4zVnP/x/6MPQSBr5H7hYbrMqD3JIGXccCyFwoFGtISLCcq7ogT6kV0bLhBAyU9cR3NfIRr0aF/dIA4AXoc/yGD9hfvrTH0xgUOzArjeOY+jTPErG8rmPcxgyVNURepw73LB1VCSND1O/2oP9nccRHsmtlk8XemLIfFdC5j2f4+Y30c6p/KShaNzxRgc832cxHNyPXa93oe/dCaTvKSiZRj41qPdySI0N4rhvD/YHh5H9gTlhNlRVkRpNm3ZF3uOoGhE1kjVXtAj5VhqhfQ1s0hZYN5AWBmZMQxHlrEMLIOzuROzLEuau1aj2NZ9H6txxHPpNG/aLgxgeGYTf24fULAAICHwwg8K/nTvcsCPOXEehtIiyMo7Qm+y1p40t6iXTa+FfYfjeCmPirrbOJ9bS7k4g7Atg6PbmP9NaqlA/iVnSC44jepLnJ9k0HUaHsTNlTH35ZwhAAn7jcTu1topr66jUzhXd7fyuN5f3SK9oR+f7acxcCa77Dm02jYmx9POJ7z7Evizi/hUJXhfXftwSN4bgPxHG0Cc5FJ+8/O3U2nRdMb+e12zeWFSk3gkjOcueaSttypyTFRAx/veYpTgL0eaIlyxzfH/KQBrxt3hQ+HLWzsilpQLk6TA62pJovceQKtSxIPyr1yUBoX8VkHHJNNCWCKQr32cxJO5B1/nl3LVCTwyT2euInvCh9pT/Eibe6UTv+SxKnJL5cvN5pC70oes3+9H36eYWc1IrquLZ/2rtF+AbiGEyV8Cj8iKe/Wy8+TzD4uKPmMtdR6THeraqSJwcRp4PcKvWll1f7vWJHd7gQ0T12BtCKisB0zNQHLJeqjmIiKsygASUFst2Yn24F0dzSJ92RxANtEAgrd0eQvCt8PPpGoD40X2UlHFEBqK4/uUjlP+3fJOOHrP+o+pQroZxyNeL5DetHhqKiC9Zg5syHikZyAPGhxENuXNdCI7VkWaQWkgF+mPzns6zGcz9XxmPsuOInBThE9rhMY0CedDe7kXnySgmlRLuf2SpMKKnkLhRBC0H0QHRXHZ9pUIY0VYSjvRBQg4aA+n6dAcgA5hroTLJbskVvRFXB9LV2STC76RWbyziaAHK5YA5Z+3u5Zv09fyPePZTAZMfBMy91LqCxJEgh5BNPGhvF+DrCSGefYTSv+MwhjfqiITEPR4vejnvkQA6N50qsR2ByxlLJh6gmFXQ6qF0dTaJ4yetQbTzKoSRQyxoyDW6DU60oGGu0W3YUUVMGK5Lbk3e4N5Auqpi4qzhxnI4jokPNr6pePaKiFy5D62UQdSUH1NF4mQEOT5919R+VEbmc+P8cx0TVzPgUjDael6Ezg+b5/s+LKD0uEHNaQKVb5aDaMXQySWOFpBnEE3bRNfmAMgIMI90fRY05CCh70ir5JGuwjiRXn+QgP9X6xf4MW9+JEzfZVm42USLXl0bSGtTsmnVevBcZNPZNzwHQ7h+rwDZeJHQs5CnWr3fa33ekxFEjDvuZqG8Ukl2ch8B3re24GsO+2FeNpxDC42UmlTuJRA8YgyiBQQuL/dEM0cHvbKFLPqsiwpnk+gI5SBlIxDX+1zLU5G0LipcyKJPTACjwwixSrKruDSQ1qHezRtedyLQWedgwm4R0Qum0JBDyBv5dSfEo8YdSssGN7TdvDjU3+g2NJ42NYiuPxhv1gKCV/K48xF7ommL7PWiy5r6TkxAVlmdb2NeePstPaivh4FsGUuX+PjhNi4NpDVo08bXXnTYKFnd/paIgHHHQw3lVl93uK5d2GXpAiv9xEiazLwHzPnoc/OcAFS/CopXj8MfShumT3kRyRZw54NOBtG0hawLzVkafHMEhG6yNHircGcgvVUT+j27LMOjZVSebsUXu9EzPLM8ZHiYg5sshDe6zIt5i5qNufRllP+7ZU1yll80ZN/tQtf5/IvhdiGA+L/nMMnsHETUVGo/iG1uK0A2fZeMgvU9TdK7785Aeq8XPtOOHOZKNrJIPClbbvIdaGeVw9qqGkr3zLsOvc6nb7I40Ik+4+tbM1DrXcRbKUMzVu1DCL59r9owB3iiIPEHP8I3DFelAxFMPrgD+ShnRBMRNYI7A2l4sMdSgCBzr1B3bmOtaJkTfdiLDt6vaqp+nUfGtKdFghuqT7sfgTPGHTmM17mIt/Igh5Rxx+EueF3+zFb9IY3wW71IPjCUWumJ4746ichBTuYgImoUlwbSnfBL5jur/skw5G/qCKWfKkhdzJt2dYYCLLNby1MV8oUJ88ru/uPwuzy4ITvaEeiPmqZ3FC9EN5+n/amK1Mdp067gOcnV56V2awgB3yCyhhPMeyaDwr9lBGys/SAioq3j0kAaEE8MW1LzFJE8EkDi7iYWwD1RkHgnjAnTW4OInnTx7Xohi8HgEFJ3S6jU03X/REHiHQlJ01C7gPhZaZ3y69Tq2o9FMLwmT3sfJv7zkpW8T0tI/1lCwlheV4giesLFc4P/k4RfSpkycwQuFzD3zxC8XINARNRwmwykKyjce17H6LAfPifkQDwcxcQla+CrIhnswP5TSWQflKAbFw5WK9B/UJAdC+OQZQgVAMTLMsIHtr3VDbV4N4Wh4CHs2dWBQ+8MIXEjB+WhhkqlYp4W87QC7WEO6Qt92P+btcdKOJ3CUA+Hm2k9nYhelc0Punoew7/zofd8GsoPOqq/vPhTVS9BmUqir/MQBr8w/tYEhK4lEHRzr+wvMI/0QIdy0Y89myposM5mzQvsSjqyp9b5/xfNZR4w4l/nWPUhyyJcRPQS5j6NhRwGL2iQRiIIHGxfTqP0VIPy6RCiN5bfIl0IO2QY1QPxQgryNxISlkBPm04gPJ1Y53Nrec/MIPNRK6WV0lG6nULydgrJej/aLSP3mZt6o3VkT3UgPL3e3yVkfpphgv06ebpjmLisQLqoGII6HcrVQShXN/cd4mgO6X73/NKI3E4da4N/5MVrKVtmSjhyPEuPdBWLU8M47tuDXStP5b/aj96LeegQELh0H2kn/eh3i4h/mcf1frtDv8v/z3P/lFxXG347CCfGMXc3vukKks5QOx/o0tISCqMA0AUvg2gbPBA/uoP8laCNhy4BwStzUFgCm8ghlkcI/N9lUF65hv6UAUIdTVPmmcgucyC92wv/mQACPb4XN7cDIgJnZGTUIu6PBpxXdnZ3J6I35/AoG0OwjqkZQk8Mk9+WnPn/bMfeIMaVDOQzYv0PDQeCiGUfofRlDJ0tcbAALGQxPgKWyX0lHnR+cAelbycR6dlcOC30xJD5rsTCI0ROMptGeFpC5kroRWyxN4QZVQZGxjmFhhzNPLWjXUTsn/cRa1Bjtk87fAPjuDMgQ3+Yx52cgvxsCaXvFJRWxpUFHwJv+dF5IoDg0SACB1slIlzRDm9PCPGeEOKfV6HPF1FQC5j7tgB1vgztnmqqoiYe7URXdxABKYDgm96WK76i3ggjBxkFJ43QNKn230YwqYQhP8zjTjaP7H8KePSg9HzKhwBfzyH4fxuC9G4fgq12XnbHsbQUb3QrHGh5JCnU6GYQAEDX5lBz9G6vFxISmPlaR4jXUjJZLubihKtfi4U/HgiHJUQOS4g0uinN7DUPhIMipIMipDPue6x6dSoU9kZvMZ6bRG6lzecAdK39w14vugAk5jXARStrqLW4Nv0d0XbRp8aRgIxh9qAQEb2U94AEYA4ap3CQCzGQJqqLinQox95oIqJNEgaGISOH8Hlz6sXlTglAOsDl/ORcDKSJ6rB84ZfQd4S90UREmyMivlRGBmF0GHJ1R9EHGUCXl9dTcq4WmyNN9CqWe6MxWmDeaCKiutRYADqbRBskZHg9JQdjIE20SSu90ZkznNRBRPSq1HsJdkyQ4zGQJtoU9kYTEW2N5xVjkUH5JjsmyNk4R5poE9QxP3ujiYhs0qf6VudGt7V1YOZkGUs3Q0x6R47HHmmiTRAvLWHpUqNbQUTkTMLADJYGGt0Koq3HHmkiIiIiIhsYSBMRERER2cBAmoiIiIjIBgbSREREREQ2MJAmIiIiIrKBgTQRERERkQ0MpImIiIiIbGAgTURERERkAwNpIiIiIiIbGEgTEREREdnAQJqIiIiIyAYG0kRERERENjCQJiIiIiKyYccD6ba2Nm6b2ADgq6++ang7nLLxeNV/vHhe2jtu/J3xeG3n8eJ5ae+48XfG47Wdx2tDS1sMALct2N5+++2Gt8FJG48Xt53Y+Dvj8eLWfBt/Zzxejdzange/W2ZT0TsRERERkcNxjjQRERERkQ0MpImIiIiIbGAgTURERERkAwNpIiIiIiIbGEgTEREREdnw/6VTL+d1ONl4AAAAAElFTkSuQmCC;" vertex="1" parent="1">
          <mxGeometry x="52.5" y="150" width="722" height="782" as="geometry" />
        </mxCell>
        <mxCell id="jcv9un-va7KM5RT3XpyI-3" value="" style="shape=image;verticalLabelPosition=bottom;labelBackgroundColor=default;verticalAlign=top;aspect=fixed;imageAspect=0;image=data:image/png,iVBORw0KGgoAAAANSUhEUgAAAtIAAAMOCAYAAAAz4eFKAAAgAElEQVR4nOzdUWgbV9o38L+XfuBAXnCgCyNIoQop1KaByOyCR7y9sNwUopBCZBywRBdSuQup3EBjp0srxRe2lLKtnUJjdaG1GmiRDAlSoMEKrOvJRRfJ0Bcr0GIVajKBGjSwAQsasKCF+S4k2yNZtiVZtqSZ/w9E5bGkHE+PZp45c87zQDWITMShAlAxnmh0U5rX7+vq41RUnbnuUR1nRNUM5PcZzKp4xq36Iwk183ujG9mM1tW19IIa/mxEdZ+xqZ3Cxn6Dau6xqe5rM+rcL2uNbmQLWVcT4+LmPvQnG92eJpP0b+6bSh6OSKbRLW5O/11W574q9531qnP8uqqqqqqJ8cr72eZjIKyyx21Z+2VOnbnmVm2vCJv7SHjFpjouT6tzaXa0naz9MqdOX3ao4klNHDLgUSdjS+pak8UhaHQDDsdjNTwABtK7WlL9QgUHyZNudSa93ujGNpEldfJkJScYQbVdX1B52Nzb44hTFTT7joF0CQbS+/P7YzV6za4ZKCh9ONTwr41uZHNgIL0fa+rCdVvRsazcQ3x3Tn3c6KY2lQr2W49HnZMb3c4tf4Ke5bJQfo5j6mIfXHcb3ZhmlwMUAEInnONhJOQ1rP+uQlVVqOtrWI77YRcArIQw1DuK+NNGt7dZ5JBbAQAz7JenMZfOYG29sN/UdazJC5gcMANQIE30wfWl3OD2NrfcYgAuZwRKoxvSIvzJjb628yM6KDS6mc3jWRKB163o/yQOWbDB/dkcljPrm/tq/b/LmLvRifZGt7NJiNf37l8bj8df2Rvd3CaSQ3LCjr4JCQrMcHy8gMdrmn4mJzDzng0CgOStc3BNJJFrdJObgna/ifB8lcDj38rEIYtBnBsMIPms0e0tOLSQ/VAlVP9OVzIckd7Bkjr9Xlhd3mXIdD3pV8XCfrR9wWvovIQ6OTCpLuw6BPNYnTlb6H+nJ9Wlw2paq5HDqlOACoiqf9zDEemdaEakuW+qkVGjbwqbI1pRudHt0ZHfFtSRwh1NO88NqvrLjGrfuCP09U77Y11NXLfwLojG+r9HCiPRgjry7/J3vtdTk5v71jKeUJvh/ri+R6SpChZ4bjrR2bHzK9p7nHCfyT+X5pMcNQQAiBi5MwLbroN+ZnSJhaePchx5KOdZEoFBFyKKAGckDO8ZU6NbRDqTve+H5xsFgAPh2Wk4Xmx0i/Qj9aUPUwoAYQQjg+ZGN6fhlJSEOADAgf7enfZHO0SHCxYAQAzy6iE1rmkpiH05lY8rzvrhOVP+vlD76RH4P87vtdRYGFL28Fq4E50G0iK8RbedEvA3ukm6cARHdgm0aRe/F/57up23jUs9SyJwxgrfIiCOxxDiiZjqTkb0X0EoACwf++B8sdHt0ZGncYQ+TgIA7Dc8sB1tcHuaShbrHDmpTG4ZS4UpuMKr3djtLGB5tR/5sasgpB8av4N1GkjTwVjHehNc/bWcJxFMf5l/an/HURiBoDwZkXcc8C0CwpthhK+LvNCg+nsUQ/ABAFjgOsNvYP3kkPyXD0EFwGk/fLwIBgAIL3UXjvMSfOMR7LQyRkknkAIAwQvx9GG1rkk9VTb3k/XFPe5IvmxBf+Fp6knmIFtVEQbSVLkVCbH5/FOL2AkuYdrDMwXpB1PoP5OfsmC7kUD4bZ5otuSQnHDB9Y0C4c0ZSJ87dx2FoO18Yhva2jYeJnTZ+jD0fgjxFV7xask/FgIW2GF9JQv5QRDDF/vQZdrYdydgfX0IgdkklD8a3NhWshKGfyy/Zx3vuyHyKjjvtAfB8fx8PuUbF6y2UUQelXwnnyUx/XEMgADnTTds3Hdb/ljf/fcdx7ARaktKE0wybfQk7cOhWXzIxYY10i6MsKiTqUa3p1mVLnQVVNvbk2r0Rya+K7WZ5q7HryZ+K/klF9TtrKL0d0y3qLWZxu1lUZOXtjVSazWvdXXhmsBF1DtaUxMfO4rSLAqvONWRr+bUpWRY9fTkcyO7v1puigVzjadJwXttYY990lwxHUekqSK5xSmMTORHHoRrk/AY/TZUxRRI90MIfR6G1AQXzs1iM82d4ER41guR8yor1+Mtn4LstwyWpRmM9ArYSLdo/zTV6NY2AQXyj4WnPyehWPwIS8vI/La179bXHiPxlQci0HyptZrVoyB8nygABHjG3Zyytk0HxLcnMfmBuLlF+SmCqbfOoVt0IbjYCfedBcxcYrrFvE6Ilwr3uT/xYWqx8XOfK9bAIP4QNdfVS8vZTEu2w+ghlff7uromJ9SZdwtV+gSb6k9y7GE9PbOV5m6n/cER6dr9tqRObqRbhFuN/rfRDWq0zFZBrgvhXYtfrMVHNgtB2L9iGredralzlzdSCXI0upz11LTqOJk/znnjmXzl4GRYnbxcXAzIPDCpJgz/HS3QxhqCTfXGltWMJt5YX3usLsWmVXfvVpXIZojpGEjT7uSo6t64FSo41bDc6Aa1Is1J57RfTRg8ls7fZhdUZ2SXQIWB9L6sS97NgNDzrdEneGgC6T2r7j1WZ85UFnQb2XrSr1r2yPdraL9GCwHhDse5tcfq3A37VvU+DlBt2roA2fkh9No2a1o0Q+VWTu2gnT2V4BvsR2gFgODEzMMQ00bVpAN2pzv/9NE0pJ8a25rmoCDiPKFZKFfyEH2br9xaUNePiOFzrVam/aUuWAvPM89a6BZpw5nR1VN4ek9mrvyyZITHffnFm7vk+zWuHKTPPYgoAM74ymcy6TDD/sEcEhFnftH+og+eLzkNCwDaT3sQ/TGDhc88cPRqkhqcFGG75Ec4mYH8lXtzsWHnC41Pe8BAmsp7Esfw+T4EFrEZRLtf5gGzZse74AAAKFj6hadnosMjwHyq8PR7GXsmy/p/B9ycFpebD8L3AAAEeK+5mGlnmzSStwvH+Fe70bnLK82DoxgtrDdKJdO8cNvQLsD27jSi0jIyG2tAfklg4SsvnD0C8MsSYgAAD6yvNLitYCBN5TyJYOjMOQQXAZx0I5wMM4jer6cyEoWnpqPG3pfi9TIL5Uofya0SSv7kxvYonMcb2PBWklvHRrKt9uca2pKmYD6Zv4yFsoT0rnc1sljbiLRZPKmMFIJjhepzA1MY7uUe2i6HyiNiE0wvHWRb9CiHxHw4//SyHdYmKBLHQJqK5B5N4Zzoyk/n6PFiITnD6Rx1IP+YKBxbbbDsVoedqA7k72OQAAB22CyNv/XZaMJf7bADAGIIz+9UHgNAbgmJe4X3OKzMRFEiez+EyUUAsMB/1cFaAmW1o30jq9X3S0jv+loZ8veFp8938MKtArnFqUK2GBGTf7ejGc6mDKRpU3beB5tlFHEFEN6cwfK8H7bnG92q5qbcHcXobBq7lr94EoHvw3j++VknbCcPo2WkS6sxjI7Foew27VnT34TLHvSzvwEn++G5nA/74h/6EHlS/mXy3SACCgCIGD0vln+RUeWSCI7ly6zjkg+eHoZ95Vlg+1uh78z74Z/d+cJNnp3GtAIAArwDtqYICpvakwjcF3xIAhDHp5onDW+jVjkeLmbt2Mta3LO5glh8d46r1SuUiTg2E+37IwvqcmZtK5H8b4/Vpdjk1gpkZj2pHLN2lPdrWHUAKoRO1TkeVhOypr+tr6nLcfa3HWlTa510qJPSY3X998LvfnusLmiKZ4g3llgko8TGsQ4QWZBrL78lVH/PVnEk+405dfm/Wz1q/b/L6pymv5kvRffIJmMgv0ZV/8cL6uPNLCbr6pq8pEZL9lczxSg6DaRLq8vt8mBgraqq9iBZxYP7Ts3E3FspjHZ7nHSo0ymemivGQLq8TFR1VtTf3OpMmv2t1Hp6ZiudZ9mHWXV8xiB6m98W1JHCRYhweY4VMyvx3wXVq813XPbBCqTbbAwW7PL9bLb9xakdRPsgXJhB5rfHWIrNwHvZAVuPZg270AnbgAeTkQQy6Sg8p3krlPZJcCC8ntm9v8WWsJae4QLhMtpfdmMmnUEi4odbk1pLeMUG97UZLGQeI/quhXNVS6S+9GFKAQA7/FebY15q03veBr8kI5MMw3/JBtsrWzPKzT2F/varjIVxTuko8lwHzGXPowt4vJb/fjbb/mpTVVVtdCOIiIiIiFoNR6SJiIiIiGrAQJqIiIiIqAYMpImIiIiIasBAmoiIiIioBgykiYiIiIhq8Fy9P7Ctra3eH0lERERE1HQ4Ik1EREREVAMG0kRERERENWAgTURERERUAwbSREREREQ1YCBNRERERFQDBtJN6rXXXmt0E1oK9xcdBvaz6nB/0WFgP6sO91d9MZBuUq+99ho7exW4v+gwsJ9Vh/uLDgP7WXW4v+rr0ANpVVX5qOAB5Dt7o9vRKg/ur+r3F7+Xte039jPur4PcX/xe1rbf2M+4vw5yf+2GI9JERERERDVgIE1EREREVAMG0kRERERENWAgTURERERUAwbSREREREQ1YCBNRERERFQDBtJERERERDVgIE1EREREVAMG0kRERERENWAgTURERERUAwbSREREREQ1YCBNRERERFQDBtJERERERDVgIE1EREREVAMG0kRERERENWAgTURERHQQViPob2tDW9EjgGSj20V1w0CaiIiI6AAo30eBSAaqqm4+EuM+WNv6EVltdOuoHhhIExERER0AYTCK6KBQtE28noAfMUS/VxrUKqonBtJEREREhyy2Ije6CVQHDKSJiIiIDsuiBB8Ax0lzo1tCdcBAmoiIiOhQKIjc9AFwoP9VYc9XU/NjIE1ERER0CJRZD1x3AUckCOfxRreG6oGBNBEREdEBU2b7YXLGgPHEtgWI1LoYSBMREREdIG0QrV4XG90cqqNdA+ncQx9MmiTiQ/eyh9Wu+stlIT+KI3LLh+GLfegTTxQnSH/Jir7XhzB6KwLp5yxyjW5voywGShLH1/7onzVeap/cagqx26MYer0P1pe0++MErK/3Y3gshNgjxbj9awfZnyVEPhlG/+tWnNjcZyZ02fow9H4QkYdpZP9odCubVS6//zaObadMRd9D06k+9L8zBYk5a4kaYiOIdkQyDKJ16Lmdf5VDYj4EbSgUui9h8oIDHQferHrJQn4QxtS/gojeT2PXsG4lCWklCWk+hCkAwitOjH42hZFe3n6hCigSpq4MYfTuTumMZCTnZSTnYwhOADjpgP9jP0YudKL9MNvZZHI/R+C76sPUg3L7TUH6oYL0QwmhTwCctGNkfBL+QWPvs01/KEh+Mwn/jSnEV3Z+mfKThNhPErr/NgKbzudkbo761ZUfCdULhj9UC20Qzekcu5O/7MOJv0v5H1po5H7nEelcAvGP8qGn/aw9v+12GPFWGtVYjWPUPozgXkF0GcpPEYzaLOgbk9DC4/B0COR7w7Ca+nYJostYicHn6ILtShzGzCSaQ/r2ELo6XTsE0WWsxDHlNPI+25L9vyD6O02wvrV7EE1EjaRAupe/sIs5TWXu3LK64RYZ0j2p0Y2oyY6BdHY+hikAgBvuj91wAwBiCM8b6RSmQJrog/2jFG/FU1nyrAtWRxDJGt+fvHUO1r/Fqr7Qa205pL90w/ZWqKaAOHnrHPreihk0mM4h/aULnX8dRowBNFGTE+C8oxaVBy9+RJm5AwCQRfKjIfgeNLodtdkhkM5CuhfMP73sgO0VG+yX8j/G70qteQITOmG/7MVMbAFL8hrWfivu0Otra3icDMM/sD1BevJDH8JGPWmNJ3Y5COz+0P1trCcRjDojJUGwANvb04imHhf3sfU1ZNJzmL5sR2kPU77xwH/fOPc9cotTcP+9ZL8JNrg/m8NyZg3rm31oHWvyEqIfO7btM/m2B77ZljwS7Ys864atdN8BMJ/1YDqWyO+/3zX97rc1PE5FMX3ZzukwRNQ0ctkssk9SiM9OYcjWCeuHUssOKJUPpJ9KiN/OPx25YEMHOmC74MlveBCB1DJBZTuODfoRTmawnlnG3Od+uC/YYHmxAx1HS17Z0QFzjxPeO4/x+GsnikPAOCIPjXfSpt3kIH0xgqLZmIIdkz+ksfCFB47T5uI+1t4B4WU7PJ/PYTk9A2dRB1MQvBVtzQvUauWSmLrsKx7B7/Fi4ccFzLxrR6fQoQn42tHxogWOa1E8zszB26N9k4LI1SnEnx5Su5tAbjEAV+mF20k3ZlJreByfhueCmN9/2pUvRztgPu2A5/M5jPRA94TBaM0X/luPJUwaYF8RHT4FkYv5aS1Hjh3DMXM3zjlHEXrYqiF0XtlAWpkPIwQAghf2V/OntY4zDowAACQE76cOq337c9yBmYgXzh6hqtEY85shhN4t3ial0pwrTRopJG8Xf/kdN0MY+cveS3HbX3YjdNcLi3bjfBzJJ/VsX3PKPgjB90izQXAiPOuH7fk93ijY4Z8NF1+AKEEE7xvi8qPsBYjQ60fihxm4T7fO8u9WoMz6Mbq49bNl3Fb8XSUi0igTSMuY+yY/ziZcssG6EYG2W2G/ln+a+lpCi4TSNWpHt+go3vTUwCnxaLtVGUtFcbQH7rOVT2Vp/99+uE5rt8Qgt/ZFeQUUxGdDRVvs4344X6zw7S86MXWz+HsZ/yym82NRnvyNv/gCpMeP2LdeiIyh6+uZhMmr2vtMDoxeEjkthoh2tD2QXpEQewAAAtxnrEW3Wa1nvfkpD4/CkB5te6e+Pd/BgyntwoRjVQU1JpheOqi2NKncMpbuajfY4OjdviZhN8IFD7za6xUjHItyEkJjcc0GC7yfjEA8uuM7qEapL32Y0lzQijd9XAxGRLvaFkjLDyOIA4AwjHO9xaFju2iDWwCAFCbv15qnoDVkVotvGdv/2tlC+bPpwD3XXnJhJWF5X2sHHDDr/YStKCXzwEV0nazyM9q7Yb2g3ZDC0i/6HsrPPoggoP0TL/kw+r+8rK+71Qj8VzXnNWEE/rc5qYOofnbJYpL0N7pxNSsJpGVId/N5/CxX7dsT0LfbcO6d/HCQ8vkcJL3OdXgmIXxTc8NY8MBzvrqRM9I5wYzuoqkZEoJfJyuf/lM6OnvWDlH3gbRcvDgTR2r4kA50WmxFW6SVzD4a1eyySMxrp8MI8L5p50V93eUgfVa8eNh+wwObEUb9VyPob2tD24S+B8f2rVD114gVe2l3xYH0oxiC8wBggetM+Stx8cxwfnqHEoKU1GEknU1hyunS3N4T4Lw5Avtei6HIYCxwXLEXbUlNOND/aaqiRanZB5FCnnYAEOC53L8txRuVd6SjeC668mtGvwuBc0uQ/qXd4IJN5Gh03T0KwveJJkA67Ydv0AjfyCQCL7hQ71qQurMaQb/oa3QrqEkVBdKp+XBh4U4Ko5bSCjyFh+grpF9SEHiQ0McCvGdZyI/iiEz048Sxboze3zigCnB+ISFkiAPqDr4egfWl7f3ghNiHvovD8N2KQPpZt2HMrsyXphF+syiNBOJXu9FpG0VoUdn5u/EkAs87W6OMwptTGDlvgDFGwYzipYIZrNXQdYQXuoo36Hkh8M8pFNX6etOKrkIcnVtNIXZ7FEOv96HLpP1+noD19X4Mj4UQN+h3szoKIjdGNRlRBHjGPTDC9UpywgrfgB/+gUa3pJkpiFx1ITbuR+tOPqCDpAmkU5AiVa5//yQGqSWP00kEtIHh/xzDCcs5uMa2qqUJvSMI/5hG+O1OYy8yXEkiWWbur7woQbobROCKC32dx2CyDSH4n5bsDPtghvPzOCbPl4yQPpzCkGjCkZfOYfhWHGltruMnMQwPuhApXKsJvX7EPncaYzRaEEr+zigSKd2GwHWR/VUuzkrykgntP0Uwaj+BIy90o/+tKYTmJaSL7jbLSM7HEJwYwrnOYzhhH0XkZ+7nneTmJzFSNM3Kb4gLW2W2H9YxPxJ33MY4/tQoOWGCC2Fkrtv2fjEZ0lYgvRjH5CMAsGAytUfC+tRkIa9mEPHvdRY8XZpGIr2GjDQJ5yv6P5jWi/IwhOFXO9E3Jun3Nns5Ry0Y+TaNpc+2V9/DShzBK+fQ9ec2nBCHMDo2BKu5H8FFABBgey+KxL+9xsm+0N6F7qKRLwWBT8LGKERTozUlXfSz8LULnadcmHpQ+V6TH0zB1WnDsFFyblclheDYlKbIjQDvNZf+A8vFAExOIPyrd/taKNq0dbFRWqSNaEshkM5B+nY6fzA57YLt9G5vAXDatpkDN3hPZ4HT7WFYz7sw/EkMKQNVTasPBdJEH+wTVSy604UOWN4NIXrTvuMr5MUQpiZChdvHnRj5NoWFmw6Yn9vxLTokwD7oLt70YAh9b0Ug/1HhR+QUxGPRuresWSmKVPzzilxjGd0kgm+4EFg01jdzL6XFVzAwheFend+DLMz39SejTO23G15sUIXygXQuAalQpc32jqOCKk4W2P5WeNXtOCS9BZwrcQTf70f3n0+g/1Zli8f0ox3igAfez8KYSy4js7aG9ZI7Eutra8ikE4h+5oG9TPqy5JgH/v8Y54Sd/SmCYfEYuq/mc/0KvSOYiUzDc75zh1GMNKbesKDvagRpY3UudJz1wF9Sflm+7cKJzn4EZiWklSxy2qD6jxyyShrJeyGMvmXFiSMmnPvECCVYACCH9d/KbRfQOTiCmVgCy5k1rP+u/X6uY23tMZZi03D3lva+JHwXRg1VVn1X24qviJj8UO8jj4XFheMJeFkGfWeFiw1HJMiLDdrTnwAg9328kKfUBmeFBRIsva5CwB1CeL7V0sGI8KqlJ58MlqUw/IPa4EdG7Eq3sUZYe0aQuDMN/7tO2Hs6IXRsL0TT3tEB4WURjnenMffLGhI37CUnnxQCN4xxy16+Pwz7KVdhugYgfrCAtDQJ96AH098uI/NbPqjxnC39XimQPnWhq7MPASPNLW+3YORT//YRnpUYfM4+dJmO4cj/06xf+H9HcMzUBatjCFO3k+X7VLteRxCzUJ4Ub7FcDmPpvxksRybhviCiU+hAe9FdjXZ0dJhhueDBjJTGwgcle1oJwnfbKBciuystviJc88Oz193YVrcowTcQRuY6x1h3o3wfRWw8geigvi+rqD7+BGQh3Ssk4jrrhK3SAgmnHfCcyT+NfTPX4kFTOzo6BHT2OuGNLCP97+JbOckxB3zzhgmlq9QB8YMoYuMlB+YHEUj7KlDS/HKLAbjeCG6u9hfHE5Bu2Ipz/B7NBzXT8cdY/zWBmfdsxRcdigTfq3ZD3XJv7/Ei/r0fthrPUYJQ8saXTDofRdxiftUGS8WpODtguxEuySwDpCKSIcqq76q0+Ars8P/dZoyF5XddMBVlYTLBdRfAmJV5krUK+2PrYYUPQMxpQltbGwKLe34CGcSf8FRCrJCn1D5gq2KRhRm2gcIq1gcxXQVNHWf8CH+hne+qYOpTY4yw1qYd4jV/celmSEjped5CLompy76tlFmnvZh6T9z1RNx+XIT75gLkdBieotuqSfguuBFbPbDWNp2O//ViIbWAyYHKjzhCrxvTUgaJj61F2x0vGiWMroUZzqujxdP1HiWQftKg5jSF7cVXLOM+uKqtstmKerxlEghkEB4AMJ6AqqochQUgDEbL7KcE/AAckQxUVeXUGNr0JzzvwEyho8xdqm6tsvnthUIHm4NbZwch8wU3ipZFGWCEdV/arbC9Wbwpraw1pi2HQJ71w/do62f7FXfF2TfaX3Ziej5RPFdYicA/a7BxQsGGkTuPsfbLAsKfjcB9xoZO7Tlc6ITtjBsjn4WxkF5DRpqBp1eA8ktx+YhOs15zLAgwn6rDx5y2ongZbAyykQcdS4uvCB74L+9+EUxEtBND5QyoyvMWiGeA0PzGBil/8tHZBUP9tOPI/xRvkRQF0GUiKQXJB3HNzxbYLFX+nUdFeN53w+fYKsySikhIXbNUsNhXXzpO2uB81wbnu5W8OoXEfe3PHlhfOZh26YcZXQMA7u75QgMoLb4CiO+7WbmWiGr2p71fYlRHcKQkjXT6VyMP49AWGXJRUGKGqYYTcccpEUUp/h/JyOh4NkxdrCwhrrkTgAErunWc7t18srgWZGyFE8z2Y1vxFWEE/reNdulaSoDzjgqVCxD3kE9SwKkvVIqB9I7WsV4S1LRz/H53vxf/qNu5q6sylurxOe1HihcmIoPss3p8sH6l7gWLSmbbz4q6XmgovNRd/Pel5BrWamSQ+aVuTWphpcVXAMfNUdiMUhCJiA4EA+md5GSk54s3db2g51P2fpXecgfMgqkxTTlox83oLNoQw1K6hqwbTzMlQZEJHTyp72w1Av/72nnkbrjP63HqkMZJC/q1P9+LIlntotRsBrJ2FB9OdL6434a1nm3FV3om4ePoIhHtEwPpHeS+jyNctMWYJ59K5RbjCBedrD2w/VWvy3facawk32x4PlF1rnE5VZKG7LQZJh1PU9gfGZEPSzMtGGBua4cVtkvaDTFMVrkoNfswhqB2w+lumI0WP24rviLA86HbcOsRiKj+GEiX8ywJ//vFtwAxcA5Wo518KvUsian3fMVB4SUbrLoNCi2wOoo7g/LJaHXVHJ9JCH4YL9pkcdp4Yi9LRvyKC65vjJhpoQO2AU/R9I7U+57K844/SyL4cahok/1KJdVr9aW0+ArO+jFyXrcHKCI6RPoNpFcjGLIPI/ggjWw1Q4VPJfjecCBQNLoqwHvZoeu5mACQ/KgPQ7fiSD+tYodlU5hyOuArSk5vweQVB/R8mhLPj5ZU50sh8KoNvgcVLEh9KsH3hqv4xA47PBeMFt5UQJEQeMOKc7e0eRYEOD/z6X80uqDjrBuj2/KO92Pq//ZYmfosjdA7Jd9NwQOP3qfDlNpWfMUC/5hLl/mEiOjw6TeQBrD2IIhhexeOHTGh641h+G7HID2Skc1mi2/DP8tCfhRD6P1+nPhzHwIPi4Mh4c0ghnv1P/aFPySErpxD15+PwHTqHIbHQogtpqFks8j9oXldLovskxRit4bQ19mN0fsl++vapP5L7Z72YOp6aeCbRMBuwomLAUQepqFoFw7mslB+lhCZcKHr1PY+Jt7wG6MgxIbVGKgUnwIAACAASURBVIacZfYTcshmZaQeRBBwdsFk6oOvpH+J4zGEBvR+Watlgae0rLoSx+hfO9F3NQTpZ6Xo+5lT0pBmA+i3dGFIO4pvsAuQvO3FV3DJB0+PAY7nRE1HQeRiW0nFyMJD9BW/dFtlyY1HPyJNVrzMIHkoFKTvBxG4H0Sg2rf2+BH7XP+j0aWUn+II/hRHcKK69wm9fsTGjFBqtx3i+0H4/+OAryQolu/64Lrr2+F925kvRRH+wGKAfaaVw9qsD67ZyvcTIMB2I4a5D4wwpaNYe88Ipm5IcHwoaaacKZA+HYL0aWWfYbwLEGwvvgJR93fLiOhw6XpEer+E85NYeuCtuGKd0ZkHphH/1kD766gI77dxTFdR5rqYANv1BSx95eBt5r0INnjjKSwYMIjOa4f4wRziN+01XNQLsN9cgnTdaPtue/EV4Zpf/3fLiOhQ6TeQPm7HpBSG/5JYfZBy0o6RyDLS347AYqChi87zYUxette8v5bueGAxShC94agFnjtLWI6MwF7F1AyhdwQzP6SxMG7j6NhuhE44P15ARl6A/6zBRlO3aYflvTmkf5iBu7eyfSH0jiD8Yxpz7xntjkeZ4itwYOqKEe6WEdFh0vHUjg6Ye53w9jrh/SIHZSWFRDKBpR8SSK5kIM8nNTl8zRDPWNDdY4fNYYP9FbMhi690nHZi5HMnRj6rZH+Z0XXaAZvDDsdfjLm/tnSgc3ASc4N+KI/imItJiC+mkf5RQnrjrrLQCdspKyznbbCfscP2ssHD56Nm2C47kE2lIC1qsmmfFGEzd8FyRoT1jHG/i7vp+IsbM5IL/kdxzEXiiPxfAssP04UpHwI6e7tg/YsTjrf6YTdwP2s/M4mMOtnoZhDRpnwVTWejm1FnxjhFPdcO4WURjpdFOC6NNLo1zY/7q0btEE474D7tgLvRTWl2HSI8n0fhaXQ7Whb7GhFRM9Dv1A4iIiIiogPEQJqIiIiIqAYMpImIiIiIasBAmoiIiIioBgykiYiIiIhqwECaiIiIiKgGDKSJiIiIiGrAQJqIiIiIqAYMpImIiIiIasBAmoiIiIioBgykiYiIiIhqwECaiIiIiKgGDKSJiIiIiGrAQJqIiIiIqAYMpImIiIiIasBAmoiIiIioBgykiYiIiIhqwECaiIiIiKgGDKSJiIiIiGrAQJqIiIiIqAYMpImIiIiIatCmqqpa1w9sayu7/bXXXsNrr71Wz3+KiPbhu+++AwB+L4maCL+XRM3nu+++2/xulnruMBsB8OBA1AxKDwr8XhI1Hr+XRM1ntyAaOMQR6Q11/ud065///CcA4B//+EeDW9IauL+qU/o95feyMuxn1eH+qg6/l7VhP6sO91d19oprOUeaiIiIiKgGDKSJiIiIiGrAQJqIiIiIqAYMpImIiIiIasBAmoiIiIioBgykiYiIiIhqwECaiIiIiKgGDKSJiIiIiGrAQJqIiIiIqAYMpImIiIiIasBAmoiIiIioBgykiYiIiIhqwECaiIiIiKgGDKSJiIiIiGrAQJqIiIiIqAb6CaQXA2hrCyDZ6HaQPrF/ERERUQmdBNIKIjd9jW4E6Rb7FxEREW33XKMbsD9JBNqsYIhDB4P9i4iIiHbW4iPSIryqClVVkYk4Gt0Y0h32LyIiItpZiwfSRERERESNwUCaiIiIiKgGDKSJiIiIiGrAQJqIiIiIqAYMpImIiIiIasBAmogaJ5eF/CiOyC0fhi/2oU88gba2tq3HS1b0vT6E0VsRSD9nkWt0extlMVC8X/bx6J9VGv3XHJpcVkbqQQTBsWH0v94H60vafWFCl60P/e/4ELqXgmLYzkX1kltNIXZ7FEPb+toJWF/vx/BYCLFHinGPYzrV4nmkqZFyiwHYRJ+m2p8fCdULsYFtolaQhfwgjKl/BRG9n8auYd1KEtJKEtJ8CFMAhFecGP1sCiO9wiG1lVpOVkb8mykEv4gi/tNuvUtB+qGC9EMJsX8FAJjh+HgGwfdsEHhmpGooEqauDGH0rrzDC2Qk52Uk52MITgA46YD/Yz9GLnSi/TDbSQdCMyKdRGCPkQzTqT70vTWK0AMZ2ca1WWOrzSZnDIAP1sLPgcVGt03nnkTgvuDTecls9q8DsRrHqH0Ywb2C6DKUnyIYtVnQNyY1yTGImo3yYBTnrgT3CKLLkRF7vw+mV32Qnh5I00iH5HvDsJr6dgmiy1iJwefogu1KHFW8i5pUVVM7lJ8kSLenMGQ/gc43ppB6dlDNqtRWwYzSh7en0W3TsWwSgUEXIrq/Q8z+1ZwUSBN9sH+U4i1Sqr/FAPrOB5Bs+PmNmp0864LVEax5QCl56xysf4tVPaBAzaV8ID2eKBM8rGMts4TwezYIAJT7o7DfkHgiM5pnSQTOWuHjiCzVg9AJ+2UvZmILWJLXsPZb8XFnfW0Nj5Nh+AfM296a/NCH8EoD2twMyh6jK3tEB40zLUZ4xQ7P9RlEpSU8XlvD+u+affH7OtbkBMLjDmzrXYs+eD5N8vxGO3sSwagzUhIEC7C9PY1o6nHxsWx9DZn0HKYv27f1NeUbD/z3eX+tlVUxIt2ODsEC580Z+M/mtyi3k0gfTLuoKcmIvONgEE371I5jg36EkxmsZ5Yx97kf7gs2WF7sQMfRkld2dMDc44T3zmM8/tqJ4hAwjshD3hilUsfgGA8j8es6Mj/OYXrcDUevBeaODrRr5z4/146OF0U4r0fxWA7DWXJ9kRoLQ2J8Q2XlIH0xgph2k2DH5A9pLHzhgeO0ufhY1t4B4WU7PJ/PYTk9U9LXFARvRTnFo4XVkLXDjK6N1WQKeMVuGDkkJ1xwfbNx/S3AGQnD29A2UUs67sBMxAtnj1DVQhvzmyGE3i3eJqXSnCtNRYTBGUSvOyEer6J3vehE6K4XlqKNQUg/8AxH5aSQvF08Fu24GcLIXzr2fGf7y+7tfW0+juSTeraPDlMNgXQO678VngrgilNDyCH9pRuOsa2ZYOJ4DKFBM440sFVkNO3oFh3Fm54aOCUe1VX7//bDdbp4m/yUl2lUxqqMpaI42gP32cqnTG3vazHInCjdsqoPpJ8lEP8m/1R8315yBU96JM+6Yfv71lwwcTwB6brIiyhqvOc72A+pTszoZO5OqokJx/YejC56vemlg2oLHbbKA+k/clAeRTD6hgtTCmC+FEX4PYbRepdbDMClWVAhvBlGmEE0NUhmtXgmof2vnajq/EW0o3a0H937VUR4rr3kHChheV8Lnx0wH99Xi6iBygfSY9bteaT/3xGYLC5MPVTQ+XYY0Y/LrHQ2qtKqYxM6ya5cmiu6x4/Y507+fz9seu1f1XomIXwztfWz4IHnPHsj1UsGSkkwZDrKIYN6UWb79VNhUzCju2hqhoTg11VkecktY+mu5uezdogMpPelkf2rphLh6S9d6P6ziUURACQn2tAmAgltiqnrOrg/+CSGoTOaXNE9HszNeiFyxOZQ6bZ/VSubwpQzfzcsT4Dz5gjszzeyUaQr2TQS97QbbLB08n7H/imIXGyD6V4/MrpJw2iB44q9aEtqwoH+T1MVxUTZBxFMbf4kwHO5nwNUNWt8/6oij3Qhl7ScwMx7NgiFogid78QNG0wrs/2wjumwLPazJAKD/QhtjM4IToRnp2F/sZGNMh7d9q9KPctCfhRHZKIfJ451Y/S+JmPMFxJCgwY+9Xw9AutL26vPnhD70HdxGL5bEUg/G/XIXJvswxiC2g1nnbCdbFRr9CM5YYILYWTulKavbG3mS9MIv6n9ixTEr3aj0zaK0KKy8+j0kwg874Q2fxTenMLIeV6w1aoZ+leVI9L5vJvumwtIfJG/GlP+5UNw0Yjr5pMIOWNwRNw6C3JKc0WL8N8LwfliA5tkSHrtX7vZKsne1taGtv85hhOWc3CNxTZzrAq9Iwj/mEb47U5jz9NfSSJZZk6mvChBuhtE4IoLfZ3HYLINIfgfBtR7yiURHA8VbXK/zVHCfVuNYHIM8F/VVxCdZ4bz8zgmzxf/ZcrDKQyJJhx56RyGb8WR1pabfxLDsKYqsNDL6ZL70iT9q6apHQBgHvDAAwBIYfqhAcuyrMpYggP9CJWMCvUjstroxtUqWz5XdI+hQ5bG0GX/2odL00ik15CRJuF8haM3lVIehjD8aien4e0qh+QnI/A90mzqmYTnAvvZvq3KiMEPs9xfchwL1FxWu6kctWDk2zSWPiuzZmwljuCVc+j6cxtOiEMYHRuC1dyP4CIACLC9F0Xi35wuuS9N0r9qDqTRcQymwlMlLRuvVvyqjBhicK3Yiqa/JMZjcL3QisFODskJO6ybuaIFOL9OIGzk2+eNpLv+tU+3h2E978LwJzGknu79ctLKT8OzT7DkdTnybHGOfEDE5L9GmNq1DhR5CYAPUQQ1x7EMwgM+WPUSTKMDlndDiN607/gKeTGEqYlQ4e/txMi3KSzcdMD83I5voQo0S/+qPZDWEjoMl4Iq/z/QgfCl4hvv4vUE/IjBdbu1DhGlJxNxPIbQmwyiG0Vv/asuVuIIvt+P7j+fQP+tyhb16Ec7xAEPvJ+FMZdcRmZtDesla1jW19aQSScQ/cwDe5m5vckxD/z/YSitVZrec+Mu3MjpXd5EFZNXYgD8GC1a+CXAeTMMB3yYbOXMHQXZnyIYFo+h+2ocQH762UxkGp7znTtMN0hj6g0L+q5GkDbWQazumqV/1R5IryxDKjy1vWQ23HxFwdy9w2/MMA8A+LF1RumZK7r56Kl/VU6Et3Rx81oGy1IY/kHtSUlG7Eq3sUZYe0aQuDMN/7tO2Hs6IXRsL0TT3tEB4WURjnenMffLGhI37CUn8hQCN8KQQUD+uGcTfUWjVhsVW6k+zCcd5X9x3IxuALGV1u6N8v1h2E+5CtM1APGDBaSlSbgHPZj+dhmZ3x5jKTYNz9nSPqVA+tSFrs4+BLiGoWbN0r9qDKRlRMZ9hUDaDmevUQ88Mcgtf4s9hSlNrmgufmgmeuhf+9GOjg4Bnb1OeCPLSP+7OHtJcswB37xhQukqdUD8IIrYeMlS1QcRSPsqHKEPucUAzl0oDaJZsfVgLOnyOJZbDMD1RnCzD4njCUg3bMV354+aYbngwXT8MdZ/3ch4pqFI8L1qR8CQCRvqpfH9q6pAOpfNQl6MIHCxr7AgTYAzMg23EVME9djgB+CbL73FLkO+Czgu2FpklXIO2qFN5aEP1v/Znlar/MMKX9Fn+WAtfY1Ri4fsl276V/10nPEj/IV2HqKCqU85wrqzdojX/PAWdRQJKYPfT87+Jx9ES5rjnjieQJxBdN0Jr/bDgRii35fcP1uVsQTAf6ZFcxLlkpi6rLkQO+3F1Hu795/24/mMZ3I6DE+P9jdJ+C64EdPhxcZBa5b+VXllw7Y2HDl2DCdEF3x3ZQAiPBEj53IV4Y44gDErApup4hRELlrh2zZnh6ha7F/lmC+44dZu4Ajr7tqtsL1ZvCmtrDWmLU0gO++D/VVtEC3AdiM/Em20dT6H4rgTo+NAzOnRLJBOIvCCC7GBMNw9u725ecmz/qIsL/Yr7oqzb7S/7MT0fAJ+7d+uROCfTe34HtpBk/Sv6qZ2CJ2wnXFj5Ks5PF5LYHrQ2LlchcEo1KQfPnHjYqOQGNyoBTSorti/ynjeAvGMdoMEWX+TxeuoHUf+p3iLpBhzh8mzQ+h+XbuSX4D9ZhxzH3Ak+iCJ11VkIoDrBc2dzPEE1JYt0KIg+SCu+dkCm6XKAcWjIjzvFw0JIBWRwFC6es3QvzTJV/ILfbyH9A/rRo8Xqsq9RgeE/avEERwpGTpM/5qfZkZUXhapT12wX41rZrGZ4Y4sYMawd1QPlzAYhTrY6FbUS3563RYzTM9X/ykdp0TYENpM2oBHMjJZwMJbI1VrdP+qT/o7amGlmRKqeSTgL/osPxKlr7lu2LFTOhDrWC+Z4tvOXKy7+734R8eLBrro+ENG5K1udGuDaMEG77+XGERTbQrzb/et/UjJdKIMss/q8cF02BhIE1HryMlIzxdv6nrBQIFh1VJI3C/eYhZM5V+qN08l+F63wnVbsxz1pBszD+fgP8NhP6rRcTM6izbEsJSuIevG00zJQmkTOljlsCUxkCailpH7Po5w0RYnOl9sTFtaQW4xjrC29DU8sP1V/zOCcz+H4DrVh8BDTamVXi8WkjNwv6z/v58OUjuOlRTsCc8nqs5pL6dK5kSfNsPE67uWxECaiFrDsyT8708VF6IZOAcrB6TLe5bE1Hu+4pP1JRusOj9Zy/eGYescQkTTUcyXwkj82w9bDXNZiYpZYHUUH3SUT0arqxr6TELww3jRJovTxrL0LYqBNBEdntUIhuzDCD5II1vNEM5TCb43HAgUja4K8F526H6ZYfKjPgzdiiP9tIodlk1hyumAb1G70YLJKw59p3n7vwCsjmBRZg7bjQSWvnLCzLn0VCfi+dGSzEkpBF61wfeggow4TyX43nBhquildnguMIxuVQykiehQrT0IYtjehWNHTOh6Yxi+2zFIj2Rks9ni26PPspAfxRB6vx8n/lx8mx4AhDeDGO41wG36PySErpxD15+PwHTqHIbHQogtpqFks8j9oXldLovskxRit4bQ19mN0fsl++vaJDwlt6R15w8U37GAAulDK45VVGBqh8fFCIyZMJB2dNqDqeulgW8SAbsJJy4GEHmYhqJdOJjLQvlZQmTCha5T249l4g0/XEYsbKcTLXyNnkRgW2U9LT8SRs63S7qQnGiDdWzrZ0ckg6huirEoSN8PInA/iEC1b+3xI/a5/kejSyk/xRH8KY7gRHXvE3r9iI3ZmC+ZGkBB5KIJLk3KOH9ShbdFi7HktUN8Pwj/fxzwlQTF8l0fXHd3jkxKmS9FEf7Awu9mzRrfv1p4RHqntG0ZhAcADJjB5EbUuhRELrbB+mMYmY2+/WsYcJoMX3ZdOD+JpQfeiiuJGZ15YBrxb7m/qBGSCLSZ4DqV2DpHF4pM9c+2+Dj/URHeb+OYHqg10hBgu76Apa8cjFVq1hz9q4UD6R0shuC6C/ivtmrVJCIU+rED4ZuafnzciWjSD4xNasqhtpjjdkxKYfgvidWfPE7aMRJZRvrbEUMVLeg8H8bkZXvN+2vpjgcWBtHUAMrsJHzwI6GtJ9DjRSbiQMwZQssPCRy1wHNnCcuREdirmJoh9I5g5oc0FsZt+l6zcMCapX+18NSOchREbvqAQ6yxbmyshnlQFHkJQDfMx0t+cdwMB3yIfq/A2ZJTPDpg7nXC2+uE94sclJUUEskEln5IILmSgTyf1ORWNUM8Y0F3jx02hw32V8yGLL7ScdqJkc+dGPmskv1lRtdpB2wOOxx/MeD+YiXQpiKvxICB/m0XgYK5G4AP0qIXYsufqzvQOTiJuUE/lEdxzMUkxBfTSP8oIb0xKCp0wnbKCst5G+xn7LC9zPC5Hpqlf+nrMLsqIXoX8Cc5Gk2tTV6JAeje/ovjZnQD8K3IaPmy2M+1Q3hZhONlEY5LI41uTfPj/qKWokD+cYdfHTfDAWBJVoCeFj+ObWqHcNoB92kH3I1uiiE0T//S1dSO5G0XYhyNJh0wn3QAWILcqlM4iMjgBJhPAbgrl1TwI6qH5ulf+gmkVyOYHOPcaNIHYXAUfsTgulqceis/JwxwnOTyFCJqbuKlMBzwwVqyQDp524UYgG4zz9ZUu2bpX7oJpPM7zg8bR6NJF0R41QzCcMGkyWnrQT/84AmIiFrAcSeiagL+MWtRbm7pZBgOOLavASGqRpP0L30E0oXRaEfEzbzRpCMCnHeK0ztGzTJ8PAERUcvYnqrWjShi5RZTE1Wt8f1LF4sNN0ajEy2ZxYCocsl5HzCegJMnICJqSQqkezE4IkEOfNEBOPz+1foj0hyNJkPQFGi5zp5ORK1oq4CGfiq0UvNoTP9q8UBaQeRqfjR6lF9K0hlltl8z78uE6IUM1DtcTEtErSM50aY5jlmBpAqVgwFUJ83Qv1p8akd+Dqmz0c0gOgDCYBTqYKNbQURUO/G6CvV6o1tBetUM/avFR6SJiIiIiBqDgTQRERERUQ0YSBMRERER1YCBNBERERFRDRhIExERERHVgIE0EREREVENGEgTEREREdWAgTQRERERUQ0YSBMRERER1YCBNBERERFRDRhIExERERHVgIE0EREREVENGEgTEREREdWgTVVVta4f2NZWdvtrr72G1157rZ7/FBHtw3fffQcA/F4SNRF+L4maz3fffbf53Sz13GE2AuDBgagZlB4U+L0kajx+L4maz25BNHCII9Ib6vzP6dY///lPAMA//vGPBrekNXB/Vaf0e8rvZWXYz6rD/VUdfi9rw35WHe6v6uwV13KONBERERFRDRhIExERERHVgIE0EREREVENGEgTEREREdWAgTQRERERUQ0YSBMRERER1YCBNBERERFRDRhIExERERHVgIE0EREREVENGEgTEREREdWAgTQRERERUQ0YSBMRERER1YCBNBERERFRDRhIExERERHVgIE0EREREVENGEgTERHR4ViNoL+tDW1Fj35EVhvdMKLaMJAmIiKiQ6F8HwUiGaiquvlIjMfgeqENgcVGt46oegykiYiI6FAIg1FEB4WibeL1BPwAlmSlMY0i2gcG0kRERNQ4qzKWGt0Goho91+gGEBERkVEpiFx1ITYQRqZkpJqoFXBEmoiIiA7X5qJDE6IXMlDvOMEwmloRA2kiIiI6XMediBYWGwbhYeYOalkMpImIiKhhhMEgwgMxuG4nG90UoqoxkCYiIqLG+1EG83ZQq+FiQyorl5WRTiaRSCYgLaaRkSUkVzZ+K6CztwudL4uwn+nHubMWCO2NbC0REbUuGfJdAONmzpOmlsMRadqSlRG/NYxzp0w4cuwEuu0uDE8EEZvXBtEAoCD9UELsXwEMObphOnIC/Z9IUP5oVMNJb+Qv+7aqnk3wdi+RPiiIXNw+Fzo5YYUPDoQviY1pVpWU2f6Syoz1eATAI11r4og0bVIejOLclVgN75QRe78PsZgXC/f9sD1f96aRociQ7kmNbgQR1Z0A2wXA9EIbXEXb/UioXrRGGE1UjCPSVD+LAfSdDyD5rNENodaVRfKjIfgeNLodRHQQhMFoUXnw/INBNLWunQPpP7JIPwhh9K0+9J0ybd1+eMmKvovD8N2OIbWaO8Sm0mESXrHDc30GUWkJj9fWsP675qD3+zrW5ATC4w6YS9+46IPn0yTYM6hSuWwW2ScpxGenMGTrhPVDiQuOiIioJZSZ2pFDetaH4atTkMqdzVaSkFaSkO4GEQBgPjsC77gP7r90HHRb6cAdg2M8jNFLDojHd1k9+Fw7Ol4U4bwehfPNCFyiCxFNX0mNhSG9K8LOLkE7UhC5aILrbqPbQURUHWEwCnVwv5+SwpTYjdHFerSIGqlkRDoL6UMbupz5IFrodWM6vozMb5rRyN8yWJbC8A92QgAgP5jC0MdxjiDpgDA4g+h15+5BdKkXnQjd9cJStDEI6QeOSRMREZWjzPqLgmjLuK3kPEqtQhNI55D6yI6+j/LrRsXxBNLSDDxnOyEc1bzjqIDOXie8kWWkf5yB++ThNpiaT/v/9sN1unib/DTbmMYQERE1s2cSJq9qF/Y7MHpJBLPItqatQPpREJ4P80G08GYY4esi9roz3/GKGzOpJUye5P9+YzOjkytFiIiI9pT60ocpzW188aYPzuONaw/tTyGQzkG6M1nIYejA1A3n9kVkOzlqwcgNB5OoG1o72o/u/SqiLQKcd0pX7hceSX+jG0dEdDBWI/Bf1WSMFkbgf5uTOlpZPpDOJRD/qHB5dNkNO6+MKlKalL1/1qgzxTNQVoq3mI7yLsV+sX8RVWE1gn4W8NlTcqINbW3bi6LsZbciJLUdm5IIGK4gSQ7SZyPQTuqw3/DAZuCBqHx/LP8I1LIQczFQ/DmHcDzIB9I/p7BR/sDxaveeUzpIQeRiG0z3+pHRjKRFBw06Lp9NI3FPu8EGSyd7Ue3Yv4iqk0TgBRdqKSdlJMpsP6xj+/kEPxJl7iJVfWxaDKCtzQokDZZL+lEQvk80Fx2n/fANVnz/X78GwkXnuo2Ht6e6j0lOtKFNRHEfvX7wvepPAJD9VUaqsKHbzJP1XpITJrgQRuaOk1NaAGQfxhDUbjjrhI2LUGvG/kVUneSEFb4BP/wDjW5JE1uNwOOMwT/e4KlTqxH0iz74k9UHSq1NQeTGqGbUXYBn3AORN2/rIn+R2JgKmX8CgNyzzCH/sy1sNYLJMcB/lUEOACCXRHA8VLTJ/XZ/5XPsqRj7F1FVNk+gd9w87uwoP2KPSAbeMw1uyW0XYgNhuA0VRAO5+UmMaPPmn/Vj5Dzv3NZHEiFnDI6IuyF3NVgivFqrMmLwwyyXzhczwvyuUjkkPxmB75FmU88kPBd4cKgZ+xdR5RYDMDmB8K8GmBZQMwWRi1b4xhN1mB7mg1V7XLoYqbKGhAL5R8BxAQjVZZ51q0ghODal2VcCvNdcvPDbcNcF037mNa/KWIID/QiVnDerXwtQiz8BQPtR08H/SzqhyEsAfIgiqJnLk0F4wAerwYIdedYNx5j2LxYx+a8RJpXfB/YvogptThGIMnXYLjaniu1zrqgwGC2Zw5qA/64LpqqOSzLku0DMKcNWkqkn5jTpNpguLb6CgSkM93JOBwCI10vmRv8ahmPMWt1F2qqMGGJwrdiKPisxHoPrhYMPpv8EAB0m0+Zt5OVf9dmR60VeiQHwY7Toyl6A82YYDvgwqdMDQancYgAuZ6ToCtsZCWPk9C5voj2xfxFVorC4cDxhsHm21clPe3EgfPMgpoqJ8Cb9AHyQKs2usCpjCdh+C77Hi8Q4EHOG9DdYsK34iojJDzl1b0fHnQhGHMDdKKQKA+D8AJQD4UvFF4vi9QT8iMF1+2B7VX5qx0kL+gsbIg8SYE26nZlPOsr/4rgZ3QBiK/KhtqcRcosB2ERfJKzI/gAAIABJREFU0QFPHI8hxNXH+8b+RVSBRQm+gf2PsuqbAule7GBH7Hts8ANYkiu8wC8cx8rJH/uWIB/CrfjDVFp8Rbjmh4cDTrsSXu2HA7GK+4Jg3rFXwTwA4Ee5yilI1ckH0h1W2C8XttwOIbqy8xsI0OOXvVK5xQDOXSgNohOQrrO8af0Yt38RVax0XmWbCa67AMasBphzWzmfWJKfV/QBiMH1Qh3WXhRGmKtlmAGB0uIrsMP/dxvPlXtZlWtIZVl54F1vhcWGHbD9zV+Y2xqHbzyCirv5szRCH8UONNpvJhtXStHvS/7iwgHFf0a/IyTZ/+SDaElb2nQ8gTiD6Loxcv8iqliPt0xVzAzCAwDGE8y7DmDH6qFJPwAHwr/WIXfzqowYHOh/tdJ9LcI2DmBM2hbAyysxYKAfNt3Md99efMUy7oOLqWH3lJ+q4Yet0mlbhTsjvvltvQryXcBxwXagU2k2s3a094wgOJ7/SinfuOD6UNpzikf2pwiGz3RhKJU7wCY2meNOjI4DMadHM4G9MF9Pxyl9svM+2F/VBtECbDfyI9HM0VFHBu1fRNTMkgiUjl4XFntifLSqqSPipfx6D6smM8NGoRhdpf0sLb4ieOC/zEGnIqsR9JcuKlwMwFR1KjsR7ogDGLNqqiEWstVsW3NUf89tPW2HeD2M8C9WuL5RkPyoD52LbviujaBfNEPoKPzvf5aFvCIh/nkQ/i+l/A544UDb2HTE6yoyJ/theqENro2N44lDqaDTCPLsEPqcIc1dCgH2m3FE37PwoHAAjNa/iKjZmWEe8MHa5iva6ohkoFYbpBx3IqqaEWizom2zymJ+hFw/2VdKi68A4vtu2J9vWIOa03Ezuu9aYWpzFW2upViPMBiFag6gTWzDZi8dCCOjHvzF2XPFP5rh/DoN8yk3XO/HID8MYfhhCMM7vl1A5+AoJsft+rmKrJAwGIU62OhWHLQsUp+6YL8a11wxmuGOLGCGCwsPlDH6F1E95acyOBvdjGbX44WqVvumeu9bEV5Vhbdun9dcthVfEUbgf5uJYbercz/o8UJVD79XPbd9UwfEa1E8fldB8l4U0fkYUj8sQ/qpEEqdFGF71QrHGTtsZ2zo5BWWPv0hI/L3Prhua2bLCzZ4v47Cf4aTOYiIiLYrLb4COG6Owna0YQ2iA1YmkC5oFyAOeiAOeg6xOdQUnkrwXXQh8FBzKDjpxsz9abhf5mQOIiKicrYVX+mZhM/wC1/1bedAmgwp93MI7t4hRLRrJHq9CN/xw8a7D0REROVtK74iwPOhm9V+dY6BNG2S7w3D5QgWLZAwXwpj4QsnzOwpREREOyotvoKzfoyc51RIvWN4RHn/F4DVESwq+W27EUP0A6a3IyIi2tW24isW+Mdc4LJ8/fvT3i8hQ/gDJUV1FEgfWnGsraQqVjWP0vyQRJsURC7u0G/E4hRbG5Xqtj/6Nbm2iYgaZXvxFVzywdPDNUVGwECaqOlsDzIDi3u/i4wrOcGLWGohiwF99dfS4isQMXnFwbu5h6z0ONg/ezi9ioE0UVNJItBmgutUoqikr088vIMCtZL8RZf1xzAy2lLZcMFUWomOqAkos/1oE5cKJcr10F+3F18RrvnhOd2wBhlQmePgr2HAaULbxMH3KgbSRE1EmZ2ED34ktFUMe7zIRByIOUMteqKhA7MqIXq3tLSyAOfNfBlmiXcyqKkkEXLG4IgENVUMBTjvJOCHD5MtOFiwrfgKHJi6YmPV38O0GILrrgPhm5rj4HEnokk/MDZ54FMAGUhTXo93awS0Xo87B1+aU2/klRgwYN62QEUwdwO6CozyldL218eiOiopvD9LcusFIGRAqzKWAHSbS88MZpgHgNg9qeWmeLSfmdTcDeJxqREUeQlAN8yl+/24GQ7EEP3+YHsVA2mipqFA/nGHXx03wwEGTFTiuA39A0Cs5BZm8rYLsYEw3D0NbBtRqVW5eEHeJgHmUwDuypDL/p5oZ/JK+V6F42Z0A4itHGyvYiBN1DR4MqFq5Uf2MxFHUXYTKxK8I0TNhwMCdADMJx0AliA3KIsTA2miJiJeys9ttZYskEjediGGcrdEyeiSE20w3esv3F5OwA/kg+pWz4RA+nPcidFxIOb0FM9bXf3/7N1xaBv3/T/+p0Y/4EAHDnRwAgeqkEEdVojNZ+ATn/4RORlEIYOccMAn+oPM6aBTGljsdqxS/Id96oetdgZt3EEXfwIbOkOMLrBSBz5pLn906Az7YAda4sJMrxCDDr4FCxaIYQP9/pCd3Em2I50lnU73fMBBfLaVdy7vu3vd+17v90vFzCR2TWsjehFhdAIKNCSvOq95lTlHgHSstb2KgTRRJ+mTkS8XoFStnawfy0GCVJsDRsG2nEV00j7JRkR6e6UXLCaR8uHkLepu4rUyiiqQPGJbquwqkJgC8HqEb1HIBRHpZ6u/PO9XKSSgoPUDUAykiTrOdjBk28aQh7bbZAoKtD0n2QyNITfS+txAIjeE0XzVxPQIzMnWjxxSN6udwJ6PmMi0YQCKgTRRx7Og39EgqWMQX/zDFDi75QaaMBd3+1miDrSsIwMFE6Mcj6bmMe5lgKmJlq+iwkCaqKM9L9CS502GqjzLDTziLGZhTEdr1yMn6kDPC7SkOVBATWIr0NKGayADaaIO4yxzGgWMMsoMiGhXlTSgwlQGUVtuYKXCFwMT6kAbKhK2vlqZKMu1l+lgrIWE7b4ZRv58sW0rF73Uhr+DiBogXiujfM3rVpCfsM+Qb/TJyJdlr1tBXUYYzaM86s3fzRFpIiIiIiIXGEgTEREREbnAQJqIiIiIyAUG0kRERERELjCQJiIiIiJygYE0EREREZELDKSJiIiIiFxgIE1ERERE5AIDaSIiIiIiFxhIExERERG5wECaiIiIiMgFBtJERERERC4wkCYiIiIicqHtgXQoFOJWxwYAX3zxheft8MvG49X48eJ56e64sZ/xeLXyePG8dHfc2M94vFp5vPZVbjIA3JqwnTp1yvM2+Gnj8eLWjo39jMeLW+dt7Gc8Xl5uTO0gIiIiInKBgXSHOnXqFE6dOuV1M3yDx4vagf2sMTxe1A7sZ43h8WqutgfS5XKZWx0bUOnsXrfDLxuPV+PHi+elu+PGfsbj1crjxfPS3XFjP+PxauXx2g9HpImIiIiIXGAgTURERETkAgNpIiIiIiIXGEgTEREREbnAQJqIiIiIyAUG0kRERERELjCQJiIiIiJygYE0EREREZELDKSJiIiIiFxgIE1ERERE5AIDaSIiIiIiFxhIExERERG5wECaiIiIiMgFBtJERERERC4wkCYiIiIicsH3gbQxHUJo2nD/uyHnlliwmtxC8rOO6F8bKhKh6s9KQN1w1SwiIqIOYEG9UHufzC573a7G+DuQ3lAxM+n2lw3okwoK5TLKO9vjHCCHXQdO1GU6pH9ZX+YBtfj8c8plFKY0JI/474JDREQEANjQkUcORft90lCQEf01qOnPQHo5W3lyOZKE5vpDRKTLaYj2XX0y5lQJmNTBUDrAOqx/CaN55EcF56dfK0ABsGL652JDRET0TJ+M/G0ZjrvbUBqFKUC7o8Mvdzd/BtJD6e2nlyJyI634C1Zg8rV5cPmhf22YWGlKW4iIiDrMognT6zbUyZ+BdMtY0O9oAAYR6fO6LdR9mtW/LKhXk9BGcpirGqkmIiLyLwP6JICRCCJeN6VODKTtlueRXAQwFXO+kidqhoP2r2eTDsPIny+iXP1KjIiIyMeshRlkAEjnY765vzGQfsZAVswAUFC4xjCamq0J/atPRn57QsYcUly5g4iIuseGipSsAT5728pAGgBgIBuKIgMJucdpjkZTkzW/fwmjc8iNaEje4rRYIiLyuQ0ViSNJaFBQ8NnbVgbSjiAnD5m50dRULe5fX5m+mdlMRERUwx5EV6925QMBD6R3ghwFhTKDaGq2VvYvE+YigNcjvnpyJyLqVqVvdKgfXkbiZ1EcfVZgJIzjsWFcem8O6oM1lP7tdSs7zE4QPZJD0YdBNBDoQNoe5PjzP6+ZrIVETXWhg2/ZAK/H3az+ZUG9UJsLbUxvj3JfDHrPpWpby1lEeR4Stc3WNyom4kdxuH8YyffmoN0zbEu3WVh7oGP+w8tIxo7jcP9ZTCysYcvD9nYMexDts3QOO38G0jsFM0LhyioIk9HGbxjLOjIAgEzVTWd7Y3XD4Oqo/iUgdh5IHnH+fnSSb1FoF9+pGDufYeBM1BZbWLt1Ccf7k5i9W+eqx+tLmJWPI3ZlyTfrJLeK9WW+UvRsMYnwLvdJv1Q3fMnrBrgylEa5nPb+M6g7dVj/EkbzKI825aOom5UMZEeTUP1x7yHyuS2s/WkMsV+qruapGB+fxfCTPO7/j+Sb9ZKbrVvubZUR6WcjcLttRxH92TASv8pgbsGA+cTjFhMRkdMTA9kzUWSWvW4IUTBsLc9irDqIFmIY++hzPCpu4un2UqXl8lNsmivI/742YDZvpZBZCPq4tP/VkdphwrinQ/tjFpflKI7+MIzhqyrWSq1vHLWPMJrfPukPsq1gZsjrfwlR0JhQfyUxiCZqly0Ds29XpVANpXH/q/u4+U4c/UIvep59owe9rw5AejePb4ufI+24R1pQr85i6fs2tZtaoiaQVoyq4OhfT7G5+S1WtBtInYkAsKD/IYnjP72E+W+YLk/PWQsKJmw384GpGAa8aw5RAGzBmE4i+ZedcTEBspoDk9aIWqd0dx6Zh7YdgozcgoLYKy/4RSEOZSEH2T6rzprD3GcclfazF49Iv9SD3t4IBs6ncGPpWxR1BXEBwPo8Lp0cg/pdy9tIfvBEx8xVzbZDwsRF0fZUTkTNVcnRlCafj4uJUxrmRyM45GGriLqbhaWFecee+JQC+dU6f/1VGbPXJceupY80rDanceSBhlftEE6m8bmx/URlqUi+5y7RnrrL6p8ymLV1BPF6hitKELWQueCc6CROFaBf48MrUUttPcLKon1HDNLJxqYLCudTSNtHpR/moD/c88epw7lb/s7+RLU4jhsPmOIRaBsqlKu2bDFhHMpbTOogapWt5SyS8vMgWngzhxyDaKLWs6yqZetEHD/W4Gf0DCJ63r5jFSv/4JCkX7leR/r5E5WF7KIOzj0EKkU4glYIYQv6R+OwJ3XEP0gh9rJnDepiwehf+xUH8su6oi1VvVb0kALtEzmwS2i1W3X/7PY+aUzvXXQr62aCa/UqYX6r2WCZjvsdXCVS9aJ/IObYo68XD9Ao/+qG/uW+IIv9ieqPBaw1pz3+tZxFKBQFHJM1A1Ax8eEcMh/abiQnFGRGeUtvusD1LwWFXVaGyY/6tfZVk3yn4dJp21rRQyl8vpCGyAfXNrCgXgghfCeBYtD65EjO8W/e2dINrtJkTIcQEuE8t69171VsP4d6nf3GelwM7oCkz/vXASob2p+o1mBu7PvD3W1DRULMQDEa/4/3NwvqBxO2UVEBqakURL5fbq7A9i9yeGIgO5rA/Pr214KM3MINxF/1slHBYUyHkYS/Sxl7yVpIbFdk9fkAgBCBc6pgEZsuImDhyHHnju9LLBt+AF72rwOVCD/0cm+z2uFrxq1KrfixgAU5W/dmMG6fdHFGwfg59olmC2r/IrvqtaJFKHfm618pgA5mQ8XMJKBcZRDtjoF5WYOkjvk7iAYAQahKo8qjsMoQ2Fve9q8DBdIEABbMrwDpPDAfqHzOVcxNztpWbBGQfjfJPM2mC2r/yiBq//deCPLqQKXd14oe4qufttkwoUFBxKzO3+/OeQo1FpMIHyTvdMPECiQkMF91/BJQ/fY2u+c4BkfsOyxkP8yBK0EfgM/714EC6adPApvRY2PCXAQ02UTMnpdjKNDkcNcGO9XFVzAyi8sneWNvvuD1r9oqmwUoi0mEgxK0OGzBmI4j+mytaAHynwvIcR5CW1nmCoAM8piz9csiciMZRLu8X4rXqnJXH+cgTUYbe7jdMKFBQ3I95viswpSG5BG/BdMC4qNjzl13L2H4FyrMf9f5EVsWlrR801vmR93Qvw4QSG/B/Ide+aMwiP6grhm8YWIFqH2lMJRGYQrQ5Pnuu8jWFF8RMfM+X3m2RBD7Vw0RaUMBkIEesDLY5sIuBVfeZBDdbua6BkDBhGNioQD5eg4SMpjpwgfaPfXJmFMlYDEPvc4ApfIgIiF30fniXbxWgAINyVv+uor1nklBqUq1M28lcbQ/geyCjjWrhC17UP3vLZSsNRh35jHxiyiOHgrj7IcswbIrH/Yv94H0VgH6Xyp/FC6K6G9Sg3ynL4LBPb4VOSYBWOm6iZjVxVeEdxWkTnjXnq4WwP61q6EYFAArZnACFq4V3Tkq59outs9PbT1YL/aFNxKQoNV97REie17FEBkB8JXpr9StngGM/0Gpzcdd15CRh3E8fBiH/sOWYvAfh3A4fBxR6RJmbxm7p4H08Mze4bf+5TqQtu7MIWsBwAAmLsQCf3EPzIW0uvgK4lB+yf//VgtM/9rL9sh8cKxi1rZWtHCSa0V7LyAPrfXYqF5LuR71B0Z+0DOUxtKXCmIuX8UKQtUv/jjMt7o7fNa/3AXS36kY3361L7ytYCzQo5EiYlMAJvWaV+zmugaMJBDrmrSX2uIrA1MZJBut6kQNCFL/2seGCQ0SEm8E5VazBfsQivUgg+gP9y5c4NyiyDg+q2riph+LYHhsZ4Qs/2XVuNb2A55y2vdrUTSk8ipdQazelYS23yhl7tVcxWAuAtL5mC+DyN7/SuP+6n3MjNT/iCucHMMNvYjC76OO/dKrfjwCreG3/tVwIF36eh5JcbsgwJAC7fdxBH3BM/FiJU8uars5VdY07LLlkqqLrwgpKG/zVXOrBaZ/AahUb6yavLW9jjamJiAH4aGBOk+fjIkpQJNTtolLBrJHunxpyg0ViepJX8tZhBteakzEmCoBk1FbtToL6oUoMjW55z4jxDB++1ts/uM+ch+NY+x0DP2OVPp+xE6PYfyjHO6vbaKo30TqpADrH84x1/5IAN83dUn/eunFP7KFUqkI0zCw9BcFNxbWKv/oY2PIs6JWRZ+MfDmCbCiK0OTOTgm5x+UuuvFXF18BxPfGEH/FswYFRyD6144IIiMZREPOMVVJLaLs55st+Z54rYzisQTCR0JI7uycKnR3Zb6+CAYXowiHko7dbopDCaN5lCNZhMTQ8zcmIzkUy90xGNB7LAb5nRjkd+r56VUUPrN/nUL0J61pV0frkv5VE0hn7I3YVQTxdxXMTMroZxBtIyJdLiPtdTNapKb4ijAO5a0Bz9oTPN3dv54TIN8uQ/a6GUS7EEbzKI963Yp2avJ1ZyiNcrn7r2IvtL6CpYe2r0eiGAzkq/3u6F91jEgL6D95HOFXByCdjiN2OoZ+jkIGTHXxFUC6PoEYH6SIWuQgNxgDWUeedBeUZSbqIqt35qDbvo6fEbtiVD6oKoE0nxJpHzXFV4ZmkOFrdiIiosZsqFDes68hPYaxcwHMj+4iLBFO+6spviIg9f4YmNRBRETUCBPq+9UrX3Gukd8xkKZ9VRdfwRkF4+cCmcxFRETkkomlK0kk/8KVr7oNA2naW03xlQEok0kWhSAiIqqXpSP78yjOfmy/nwqQP8pwNLoLMJCmPdQWX8HFDFJDfHYmIiLChoZLchbqgzVYT+zf2EKpZGL1roqsfBzh8DAynzmL+YhTGuZHONeoGzCQpt1VF1+BiJkrUuCL7xARBYsF9QIrY+5uC5sLGSRjxxF2VB49hMOHj2IwnkRmp/bGMwJiHxSgX2NKR4X/+xcDadpFbfEV4V0FqUCXgiciChoD2VAYydcLKJfL21sBymQUoeqKdPRiQgzppVXc/y2D6Iru6F8MpKlGTfEVSJi9EuOJT0QUJMs6MpCQu2hfhVxE2lCAxTz0jT1/k+yEfsi/v4+ieR/KGaZzPNMl/auOgiwUND2nZ1Asz3jdDCJyJShVMKk9NJgbAPq8bkcHejmC2NsSSqur0JfN5/uPiYhFjmPgtIjo6RjiP4mgh9HWHvzfv/hfS0RERLWGYlAAZMQQVtQi8qMCAAvq9QwwVYDs4+CnKXpFpD7JI+V1O/yqS/oXA2kiIiLaReXtRmw6hKgcRkiu7JXUIsqsbksH1h39iznSREREtIvKigpRbE8Ge5yDBECTw75bWYE6UXf0LwbSREREVMNaSCG5qKBwbXsyWJ+MfLmMoioBk1Fkl71tH/lbt/QvBtJERERUw1zXgJFITTVbYXQCCoAV0y8LlFEn6pb+xUCaiIiIdrdowqzet2FixYu2UPfpgv7FQJqIiIhqiBdzkJBB1FEcw4J6NQltJIc5H00Io87TLf2LgTQRERHV6pORLxeRQxLhZyWctyvR3ZbhjzCHOlaX9C8uf0dERER7ECDfLkP2uhnUpfzfvzgiTURERETkAgNpIiIiIiIXGEgTEREREbnAQJqIiIiIyAUG0kRERERELjCQJiIiIiJygYE0EREREZELDKSJiIiIiFxgIE1ERERE5AIDaSIiIiIiFxhIExERERG5wECaiIiIiMgFBtJERERERC6EyuVyuakfGArtuv/UqVM4depUM/8qIjqAL774AgB4XhJ1EJ6XRJ3niy++eHZuVnupnY0AeHEg6gTVFwWel0Te43lJ1Hn2C6KBNo5I72jyX9e1fve73wEAfvOb33jcEn/g8WpM9XnK87I+7GeN4fFqDM9Ld9jPGsPj1ZgXxbXMkSYiIiIicoGBNBERERGRCwykiYiIiIhcYCBNREREROQCA2kiIiIiIhcYSBMRERERucBAmoiIiIjIBQbSREREREQuMJAmIiIiInKBgTQRERERkQsMpImIiIiIXGAgTURERETkAgNpIiIiIiIXGEgTEREREbnAQJqIiIiIyAXfB9LGdAihacP974acW2LBanILO9RyFqFQFu6OXHCwfxERBROv/61mQb1Qe5yyy163qzH+DqQ3VMxMuv1lA/qkgkK5jPLO9jgHyGHXJ45/WFCvZ7xuROdj/yIiCiZe/1tvQ0ceORTtx8lQkBH99dDhz0B6OVt5cjmShOb6Q0Sky2mI9l19MuZUCZjUu3Sk1kA2FEIoFEZy0eu2dDD2LyKiYOL1v336ZORvyxDs+4bSKEwB2h0dfgml/RlID6W3n16KyI204i9YgbnRis/1moj09lNfUZW8bkznYv8iIgomXv87w6IJ0+s21MmfgXTLWNDvaAAGEenzui3Ufdi/iIiCidf/+hjQJwGMRBDxuil1YiBttzxfSXmYijlfyRA1A/sXEVEw8fpfF2thBhkA0vmYM+WjgzGQfsZAVswAUFC4xm5Ozcb+RUQUTLz+12VDRUrWgJEc5kb9EkYzkN5mIBuKIgMJucdpPi1Sk7F/EREFE6//ddlQkTiShAYFheoJiB2OgbSjk+chM3eJmor9i4gomHj9r4s9iK5e7cQHXvK6Ad7a6eT+/M+jTsf+Va+tjVUs3cthaWEVj0wdxvrOdyIQTw9gcCiOmHQW8RMCerxsKPnLVgnmNwUYXxZQ+NLA2mMT+rJtLYBjImKR4xg4F0P8dBzR13rZv6hJeP2vy04QPZJD0Wcj0TsCHEizk1MrsX/VxdIxe+USJhb3WujIhHHPhHFPw9w0gGMSlN8rGD/fH4iAx1pIICy7X812d93eJ0sw7+Yw+8c55D9b238t2nUD+roB/d48ZgEIP5Ex8dEsxk/68XZOnYPX/7p0QRAN+DW1Y2fB9J3CIpPR7a8bKHm9rKNS2y+DaKi2RGV3Vh/aKcgS2r45P/+3+60kZ0uxf7WFeecyouHhfYLoXaxryEjHEbuy5Js1RqnNNpYwEb+MuRcF0buwvlYxERvA8KSOUksaRx2P1/+2sb7MV4reLCYR3uU4+aW6oT9HpIfSKJfT3n+G71QKsgTtX90w9q+WMxeSiMqq68pVxsdnES3lsfpnybejGNSpLOjTw4gfWoH+24FAvPkgG17/20YYzaM86nUrDs6fI9JE5F/fqZioCaIFxN66gfzqt9j8Z3m7slgZ5aebKK59jhtvx2sW57f+koLyGccNaR9CP+Jvp3FTu48Vc9PZt8plPN3cxLdGDspIbekH4/0Mcuu7fCYRkQ0DaSJqoy3on47DkfUrxDHz9zXc/zQF6UQEvS/bvtfTC+G1OFKffI5HazchO4afLcx9nO/qFA9hNO8I/NxtK5gZ8vpf0k49ODyqIGcU8bT4CJ9/omDsfAwDr/Y6+xaAnt5eRIZkpG9/i2//XJ2juQT1QTf3LiJqBmcg/Sw3qP7NLzksRNQJVmHccl4zpOvzGP/P3hf+Zs9rY5hfTGPAvvPeEozvmtm+7mMtKJiwzYEYmIo5j2G36ZNwU01DHmpshZfIm/OYf8e5T19dY640Ee2LI9JE1D4bJlYccXQKY2fqz3Lu+a8EkifsezSYfJbf2xMdM1ft4/8SJi6KzPvdVQ8GRcm56/sStrxpDBH5xJ6BtGLU99ow76MyjkTUacI4/OLBaMfPh3/cqrZ0n9U/ZTBre9AQr2dYFKIRr3BdaSLaH0ekiah9XuqpCkx0PDrQhC4JEQaGu9tQoVy1LbMljEN5q6uTOg6suOHMiY7/tB8NPecRUeB0RSBtTIcQCiWgbnjekmfrNDe87iTRC3VB/xIiGHSkZuiY+7NR/+vzrUdYWbR9fSYOkYH0Lragf+Sc1Bn/IIXYy3v+Aj3Rkbu++vxrIYXUudrVPPzO7f3SWkg0ea6UP65njC9aq3J8d99c1beonuvXhjW7fR9IWwsJRCe9bgW2//OigCMlhhWNqEm6pn8NQLoSd+xZnZaQ+MNqXZO6SndVzD77SkDq7UTNsngE4OEcMh/agpsTCjKjPFJ7Kq1iVk7a0mAEyNfHEX/Fy0Y138HvlwoKzUjx9Mn1jPFFm4zkUNylX6UbXG3ImA4hJMLZR6+1/ij5O5DeUJGSNShTiuftSIgZKEZo7ogoAAAgAElEQVTj//FEL9Rl/Sty8QZyb9pvvBaWrg6iPzaB+WVr79Hp71SkfjX/7EvhzVmMn+OL91oW1A8mbKNVAlJTKYhM9nV6UoL5cAnqdAJHDw9i4rOdKFqA/KmO+W578OD9sjE8Xr5SeejxpiS7jwNpA9kjSUAtIn3a45bcqtSKH2Mnpxbovv4VgfzJEmbOOUexrAezuCSGcejHZ3H54yWsfW/75ncaLo8moW7HOsJJBdonMkejd7F1bwbjjvQXhQ8cAGpejf/wMI4OnEVyUnu2Frlwchy5r9aQe6u/yyYZ8n7ZGB4vfzEwL2uQ1DFPRun3DKQzYievI21BvRBFZqrQAauGWDC/AqTzwHxHHBvqLl3av14ewPhf17DykVQbDK8vYe7KWRz/UQhHxUuYmLyEaCSBuWUAEBD7dR6F/01DZL7vLlYxNzlrqxopIP1ukg8cL3LxBgprmyjqM5B/0m0PHc28X2YQtV+HLlRXKH1xWzr/esb4ou0WkwgfJK95w8QKJCQwXxWjtie33Zcj0sZ0GEnkUGxD7suLmTAXAU02EbPn5RgKNDncXZ2dPNDN/asXA+/MI389vudPmMvzmJ2e305T6Mf4X1dx/7qEyEvtaqO/VBdfwcgsLp/srrHVlrh1GdFzSVz+UMPq9y/+cT9p1v2ytspmAcpiEuGGJr11/vWM8UV7ideqcqMf5yBNRht7SNswoUFDcj3m+KzClIbkkdYH075bR7qSByMhd726nKtHNkysALWvFIbSKEwBmjzfFTNrySNd3L9KX6u4LB7G4NUlAJXX6jfVG0id69/j3F7D7M8HMHxVxRrLzdWqKb4iYub9DrlO+sH6EubeS2DwR0eR+Li+ya+drrX3SxFpQwGQgV7v6godfj1jfNEB+mTMqRKwmIdeZwBsmSsAJOQuOh9+xGsFKNCQvNXao+SzEWkL+h0NipHvnKICfREM7vGtyDEJwApMz5fNId/q0v5lfnYZ8deT2+kagPjb+1jTZzA2msKNvz5C8Z/fYkW7gdSZ6qQEC/ofkjjeP4zs37oh1Gme6uIrwrsKUif2/vngEZF2DAQ9xeZmEY/0HJRR+8ObCe3KIOLTDSzL2JHacL8cikEBsFJvedGOvp4xvugUwhsJSNDq/rcJkT2PEiIjAL4yG0xBaozPAumKmvxtMQNAQ/KId2srauvmi3+IyKVu6l9by1kkfz737DwVpwrQP4g5C1+8HMHA+RRuLH2Lp48LuPnrmHOEyNKReSOO7LK/Q52mqS6+gjiUX8a6bMJcs/Wgt1dA/0kZafUR1v7XOdvfmJSQuef//tXS++X2iGmjOvl6xviiA2yYjjXw61N/4N1sPgukBci3d0kxMRQAEnKPvVhbUURsCsCkXnOCmesaMJJArFOebsmHuqx/bRmYfTvz/N9yIo3ZX4v7Bnw9fSLGrt+HuZZDyjFz3UDm/Bi0LhyRaUxt8ZWBqQySxzxrkC/1nlaQ+9Ser29h9g85+DeEacP9csOEBgmJN+pNhOjk6xnji05RSdVQEKt3pZLtNyOZezVHCeYiIJ2PtTRVx2eBdGcSL+YgIYOobabpzkLuytUOybUi3+qm/mUuKMg8fP51/MpY3atv9Lwm48a9AhT7xdVSoSys7vk7gVBdfEVIQXl7/4cT2l3k/BjG7DvuqtAPVMK+WxjIVo/Gbq9vjKmJhlIhuul61g5dfbw2VCSqJxUuZxFueCk7EWOqBExGbdUQt1dfgYKJFs/l49z3ZuiTkS9HkA1FEXpWBanyBNsxuVbkX13TvywYd5dsXw8gNtDgwmwvi0i9N4aM9Lwwy6qqY/XdAQw0p5E+U118BRDfG+u6inxt88oAxNPA/L2dHTpMC0DgR/cjiIxkEA1lHHsltYhyo0FK11zP2qSbj1dfBIOLUYRDScduN8VnhNE8ypEsQmIIz3rpSA7FcusfNrojkB5Ko1z2uhGViSxpr5tBXaob+lflNdtzEYRdBHy9r4uIYR76zo6HJoolYKDblv+tQ03xFWEcylvBfKRojkM4VNWP1h5bgL/H/Zxc3S8raQ9y0xrho+sZ44sWavK/ayiNcrn9R4mpHUTUHi4nJtXoOeScmIgiSk+a8cF+U118BZCuTyDGQjUH8BRPqxaD6emO4SYiahGfVjYkIt/pi6DfsUPDypqLVRG+L1ZNAAujN4DBY03xlaEZZDyvxOZzWybW7jl3HT/CY0pEe+OINBG1SQ8OV61rnLtXaHitXnNVh2N64YkIwkFL66gpviIg9f5YQPPEm2fryyXkHHtk9L/qTVuIyB+cgfRQuq5qhl5WNiQivxpAVHJeL6wPJ6D8rYFQ+omOufeXHLsG5FjgAsjq4is4o2D8XNCeJprsiQHlPWeqDEbOIspbHBHtgyPSRNQ24rmJqiWNVpF9I4bM3TpSxL7Xkfl50hlAIo7U+YCF0TXFVwagTCbR4Pon3WlDxaX4ZczdXUOpkVcd3+vI/FxC9qF9p4D021I3TTMkohZgIE1E7XMihdlr1YGvgWw8jKMXslAfrMGyTxzcKsH6Roc6ncTx14eRfeAMuMUPlIAVHqktvoKLGaSGuGr0js27c7gcP47Dh8I4/vPLyNzSoD80USqVnGlET0owH2qYfy+Boz+q7VvCm3O4fJLHlYj2x/nI1FbGdAjRyedfS2qR6UH1WM5ul6rdNpJD8bYfF+PvgfjeHJS/SchUBS7mYgbJxcwev1crcjGP3G8HglV4pLr4CkTMXJHApI7dWFj7bA7Zz+aQbfRXhxRon3A0mohejCPS1CYW1AshRL/KobiTY/84B8hhhKary3qSnbWQQEhc2S5RW0a5XEQOSYSrK435xcsi0n9dwo0Rt8kIAmLX7mPlf6SApTPUFl8R3lWQOrHnL5ALwrkZrNxN111xk4iCjYE0tcfyPJKLEnLXbaOofTLyhgJMzkDd8LJxnczAvKxBUudsVawEyLcLUJDBjF+Xn3x5AKnbK3ikjiPeQGqGcHIcN/++hvtTscCNwtYUX4GE2SuxYI3Iv0hfHDN6DspFsfGHrGNxjKuPsPbX8UAW9yEid5jaQW1hmSsABhGpLmnaF4GEDPJfWpCZ4lFru4jJYKT62EQQGQEyd3RYo35M8QCAXvSPzuDzUQXWwyV8rulYWl7D2lc61naeD4R+xF6PYuBcDPHTccReC26E03N6BsXyjNfN6HC9iJyUkT4pI/3pFqz1VRSMAlb+XoCxXoR5z7CtQR6BeHoAg0NxxKQY4j+JsPgKETWMlw1qC3NdAzBY+42+CAYBZNZNdFUZ3mbZMLH7kRMQeR3ApAn/H7keCCckjJ2QMOZ1U6h7vNQD4TUR0msipIvjXreGiLoUUzuoLSLHJAArMJnC0Zi+CCQAK6ZPUziIiIi6GANpagthdAIKNCSvqo6CB9bCDDIApGPBmjZWtz4ZE1OAJqeceeQbKmYmAYxEAjbhjoiIqHMwkKY2EZF+ttpECKHtLYUEFOyWA0w7xGtlFFUgeeT5cQtdBRJTAF6P+Dytg4iIyL8YSFMbCZBvV5WYj5jIQKqdhEgOwmjecdzKtyMwJzmST0RE5CVONiRPGfcywFTBtrQb1WVZRwYKClzphIiIyDMMpMkjFtQLYSSRQ/G26HVjfMVaSCAsA7nHefDIEREReYepHdQ21kLieY5vKIz8+SLKvixz3WYbKhK2vPLwnQSK5TxH8YmIiDzGEWlqG2E0j/Ko163woT4Z+bLsdSuIiIioCkekiYiIiIhcYCBNREREROQCA2kiIiIiIhcYSBMRERERucBAmoiIiIjIBQbSREREREQuMJAmIiIiInKBgTQRERERkQsMpImIiIiIXGAgTURERETkAgNpIiIiIiIXGEgTEREREbnAQJqIiIiIyIVQuVwuN/UDQ6Fd9586dQqnTp1q5l9FRAfwxRdfAADPS6IOwvOSqPN88cUXz87Nai+1sxEALw5EnaD6osDzksh7PC+JOs9+QTTQxhHpHU3+67rW7373OwDAb37zG49b4g88Xo2pPk95XtaH/awxPF6N4XnpDvtZY3i8GvOiuJY50kRERERELjCQJiIiIiJygYE0EREREZELDKSJiIiIiFxgIE1ERERE5AIDaSIiIiIiFxhIExERERG5wECaiIiIiMgFBtJERERERC4wkCYiIiIicoGBNBERERGRCwykiYiIiIhcYCBNREREROQCA2kiIiIiIhcYSBMRERERucBAmoiIiIjIBQbSREREREQuMJAmIiIiInKBgTQRERERkQsMpImIiIiIXGAgTURERETkAgNpIiIiIiIXGEgTEREREbnAQJqIiIiIyIWXvG5Ayy1nERIzTfkoSS0iPyo05bOICNgqmVgzDBSMAvTlNRRNHcb6zncF9J88jv7XRMRPJ3D2zACEHi9bS0REB7ZVgvlNAcaXBRS+NLD22IS+bD7//jERschxDJyLIX46juhrvejkS3/3B9JE1FlKJpb+Mou5T/NY+tra5wctrD2wsPZAh/bHLIAIpN/fxNyvYxB45XIw/zSMo7/UK19MFVC+JnrbICIihxLMuznM/nEO+c/WsN+VH+sG9HUD+r15zAIQfiJj4qNZjJ/szIFMpnYQUVtZdydw9srcC4Lo3ZjQ3htG+I0M9O9b0jSfMqHf0b1uBBHR3jaWMBG/jLkXBdG7sL5WMREbwPCkjlJLGncwDKSJyF+Wsxg+l4XxxOuGdIISjP++hMxdr9tBRNRKFvTpYcT/exVbXjelSvAC6akCyuWyq4350UTNJfwkjtS1m8jrK/h2cxNP/2U75/71FJtmAbkpCZHqX1zOIPUHo+MuqO2wVSqh9N0qlhZmcSnWj+j7esMjPEREnhH6EX87jZvafayYm9j8pzPWerq5iW+NHJSRmis/jPczyK3v8pkeYqYhEbXZYUhTOUxclCD27TOF5KUe9L4qQr6Wh/ymiqSYhGqLGFcnc9DfERHvbX2LvWdBvRBGctHrdhARudGDw6MKclfGIA0J+04e7OntRWRIRvq2DPkvSUT/P9U2WLAE9YGJsWO1QbZXgjciTUSeEkZvIn9N3j+IrvaqjPnFNAYcO+eg/z2IY9JERD7TJ+Gmmob8giC6WuTNecy/49ynr651VK40A2ki8oWe/0ogecK5z/y+ky6nRETUXD0YFCXnru9LHZXWVxNIWwsJhEKhBrYsDC9aTkQBE0E/V3UjIgq2VzprXWmOSBORT/Sg52Wv2+AVAfLtPSZCG4rXjSMiapnihun4Ov7TfnTS1Jh9AmkJucf1rGaRBgeJiJqv+u1QYiHoazMUYVXN1g6/3EnjEhQEfj8vjekQQqEE1A3PW4Ksn95uL2e9+f/e/nufbdMdfZSa74mO3PXV518LKaTOdc5EQ4Aj0kQdyIJ6IYTwnQSKXH7xudIaCnfsO2IY6O+kcQnqbv4/L62FBKKTXrcC28FhFDB8Mii3oSIhZtr+1xrTIYREoGAfvAxS1dLSKmblJGafPbsIkK+PI/6Kl42qFbxA+s/jiP64Ntf7qDiM4QuXkflYhf4NJzCRd4zpMJLIoXhbhn9u0a1XeqBhzr7jjIzYMa9aQ0Hj+/NyQ0VK1qBMeZwKtB2UKkYZ6SFvm1IfC+rVJLQpBe08cpWHHgWFTn7AaIUnJZgPl6BOJ3D08CAmPtuJogXIn+qYH+2s0WggiIH0ugFjl8W8zWUd+uIcsleSGO4/jHDsEub+xoCa2mxDxcwkoFz16c26VbYMzE3NO3aNvZWoLdRC1Aq+Py8NZI8kAbWI9GmPW3IrCW0khzFfBNG2B6hrsXb+rZiXNUjqWACC6KoUnx8extGBs0hOatjJjBZOjiP31Rpyb/V31CTDHcELpOtkPZjH5Tf6O7a2O3WpDRMaFETM6tVzOjx/sKW2YHw4jsxD266hGaTOM62D2sTX56UF9UIUmalCB6ShWDC/AqTzwHzVW+FOzDV/Nirc7rcQGyZWICGB+ar+1gm57W108QYKa5so6jOQf9K513sG0vvaru0+HcxSxNR+lrkCIIM85my5g0XkRjKI+uKm3XzmwhikSfu/XMTMH8erirMQtY6fz8vnI6qdMLZpwlwENNlErGrlGU0Od1YwvZxFWAZyjz1IrdgwoUFDcj3mWNyhMKUheSRAwfSty4ieS+LyhxpWv/e6MXvbJ5DWkDzygjWkfTF7tAfiSArpj3L43HiE4uYmnlatPPJ0cxPFtQLyH6UQ3yXn0phMQfkbQ2lqPXNdA6BgwjFyJEC+noOEDGY66UbTBlvLWSRle3lYAbKaw/iJfX6JqMn8el5WRlQl5K53SErKhokVoDZlYSiNwhSgyfOd8VCyncctqXOQ+9r/11ce3CTkLjpDePFaAQo0JG91xFFqj/UlzL2XwOCPjiLx8WpHZgh0/4j00DgKt29AeUdGfKgfQm/tQt49vb0QXhMhvXMDn/9jE4UP4lUXnVVkP8jBBFFrRY5Ju3+jL4JBANp6cHrh1nIWMTHjuLGKU1pHTjah7ubP89KCfkeDYuQ9CQZ3tX28dlM5xiswO2C01foyD83DVBghsudRQmQEwFcmOvPRzQ0Racfg5lNsbhbxSM9BGe23xWImtCuDHZkhcLB1pDviVVGz9UL8bR7aVNW/7a4KfZdJikTN1xk3Ey9tLWdx9nx1EF2Afk3syMkmFAT+PC8zYtWbZDGD52+cvUlL6cwHjyqT0aq38FFkAGhyGKFQCNnlVjdA82V/O7ge9PYK6D8pI60+wtr/OlNrjEkJmXudFUp3/4i0Kz0Q31WQdjyM6lhd68SXCtRNhDcSkKAh/2XVeMP2K1HldDc+vDqV/lYJonXbIRCnClhiEE0e8ed5uUc1TEPB84Gyduf/iohNAZjUawJ4c10DRhKIdcDouTCa32XwsAAFgKQWUS63eOm+oRgUAJl7NUcJ5iIgnY91RqpOG/SeVpD7NG7bY2H2D52VIcBAei89UcTedO5asza9aQsFR5+MiSlAk1O2CSWVpav8tGSUW6V7GcTfsAfRAmIfVEaiO3fONnW9gJ+XzSRerOSVR21zrHYKxfh3ecFmEzGmSsBk1Dbyvb36Sk2ufveLnB/DmH1Hh2UIvOR1AzpXDw790LlHtyyAK9dSi4nXyigeSyB8JITkzs6pQpemUj1nLlzCsDxvG2kQEL++hPyvBzgSTZ4L6nnZdH0y8uUIsqEoQs+qLFZGyDsml7sDCKN5lCNZhMQQntVUHMmhWA7gw8YrAxBPA/P3dnboMC0AHVKQi4E0UQcSRvMoj3rdinYpYfUPScSvLtkm0EQwpt7HTU4spA7SFeflUBrlsteNqEwwS3vdjIZU2txWQ2mUy/46Sq1xCIeqXkmuPbaADnmkYGrHfv7l/FJ6tTP+04i6xr9NqL8YxKA9iBZiSP/vCoNoIiIC8BRPq6ao9XTQMDAD6T2tovCZc09ECHvTFKJu9L2OzM+iSN6yTRs5NoabDz6HcpoZ0UREBGDLxNo9567jRzpnYLODYvrOsrW8hJy9JDFSiP2UmZpEzbD1zTzGTl6CalsEQTiZRu62gtgr3rWLiIg6y9aXS8g59sjof9WbtuyGgfRunhiY/XUGq/Z9F2OIcpCM6MDMO5eRlOYcy19FLuZw/1MZEV6RiIhoxxMDynuzzgI0I2cR7ZwB6e5O7TD+exiXPl7C2vcNLN5dWsWsLCHjWGx9ADNXJC6/RXRQ/5dF1BFEV5a3W/kfBtFERF1pQ8Wl+GXM3V1DqZFaKt/ryPxcQtaRHSAg/bbUIdMMK2oC6ecLkXdQWVG3/q1j/spZHP/RIYRfP4vLk/PQltdglUrY+rft57ZKKH23Cu3jSxjuH8TEZ85F94V3Z5A60d6mE3Wlf6OqtK0F/f0oDoeqqq81sl1Qu6hc7l4sqBf2+PeLGeeP1lRk29kStjWQiYjaZ/PuHC7Hj+PwoTCO//wyMrc06A9NlEolZ8nvJyWYDzXMv5fA0R8NI/ugKh57cw6XT3ZWmm1Xj0jbWV8vYW76EhLicYQPH8ah/7DdYA4dxuHIIBJX5h3V1ABAOKlAm4wFfB3bXW7i0+4KyxrTzs9JLHR/CNS42uPd+nK0RLQ/H56Xy9n9H0IbvI5XX7+D8RBLzWVh7bM5ZH+RwPDAURw+fBiH7H3qh4dxdCCBSx9qtdULhxRon3TWaDQQoEDajcjIDSz9NQ3xZa9b4iUD2VAYydcLzlKpk9EGL6KVm1D0qxyKO5/zOAfIYddBeXfa5XgbCjIiHzqIvOPT83IovUup68q1VwIgHat3icldrt/lInJIIhzK1pT7Jmo24dwMVu52ZjzW1YF0/7kcZt6ON16L8Fgc4+ojrNxOYaAD/9PaallHBhJyF+3Vu0SkDQVYzEOv91Xx8jySixJy121Vmfpk5A0FmJzhK+dt1sIMMlBQsFdLG0qjqErQ5HnesIg80G3npXErCa2RUtMbOvKL1SW8BcjXK+W+9U4fmSdv9cUxo+egXBRdx2Nrfx3HQIdOVOvq6T29J2SMfyJj/KMtWOurKBgFrPy9AGO9CPOeYXttEIF4OoLjJyTEpDik/4x01GLf3tNgbgA4QM68Za4AGESk+jP6IpCQQf5LC3K9F/UuZq5rwEii5mIjRAYBZKAvpyEOedGyJmGlLpcEyLfLkL1uRkB11Xm5oWJmEpDUMTRa3HzFtIAhXqepUb2InJSRPikj/Wk98dgABofiiEkxxH/S+fFYhzevSV7qgfCaCOk1EdLFca9b4y9DMSgAMmIIK2oR+VEBgAX1egaYKtQ9IdVc1wAM1n6jL4JBAJl1E51S7tM7Fsyv9vhWXwQSeCMjar/uOi+tL/PQoKDQyMBFXwyJESAphxFaL6C8PTJv3EpCG8lhzi8PEeS9LozHujq1g5pBRLpcRmEK0OTw9oSAMPLni88upvWIHJMArFRGtmkPAiKvA1g0aydZEJFHuum8NDAvay5GoytvRIqq5FgVJooCyrflwA+BULAxkKYX2J5kgoJjkorW4CRBYXQCCjQkrzonKFZyDxuZ9NLdxIuVnMNo1bGt5DQCgxHesojarVvOy51c77pzo22M6RDCdxLbkw0LUIBKUM2VOyjgGEjTvqyFFJKLtkk2fTLy5ecjE/Uv/yQi/WyW9/OlblJIQIF/bkQt1ycjv7Mqiu046cdykCDV5pgTUet1xXlZGY3GVKzh3GgsZxGdtE8Wr7ypLBsKsJhEqpNXLiFqMQbStK/KJJtI7SSb0Qko2M4NrFvl9aB9GaZ8xETGNzeidtm+Sdm2MeSh7TZZk4jaxN/nZWU0unoFpjp/d6/J4kNjyI0A2rr/k16I3GIgTS+2W27ghomVJny0cS8DTE34v4pmS1nQ77jJaySi1vHTebkzGn2Qa+1uc1xMmIsHaxmR3zGQpn09yw105MFZUK9uz9Z2vWSdbYH/BiYtBs/zQhB5Lg9I1CH8dV4eZDQasM1xOeIsvmJMR2vX1yYKGAbStL8+Gfma3ObtCl8Nzta2FhK2/MLtlT8447uGswxvFDDKDa2QQkTN59vzckNF6sCj0TurN2UQteWIVyodpn0wIk/UOsFYR5oOqDnFIITRPMqjTWlQVxOvlVG+5nUriMjOt+dln4x8uTmlfHx7DIhaiCPSREREREQuMJAmIiIiInKBgTQRERERkQsMpImIiIiIXGAgTURERETkAgNpIiIiIiIXGEgTEREREbnAQJqIiIiIyAUG0kRERERELjCQJiIiIiJygYE0EREREZELDKSJiIiIiFxgIE1ERERE5ELbA+lQKMStjg0AvvjiC8/b4ZeNx6vx48Xz0t1xYz/j8Wrl8eJ56e64sZ/xeLXyeO2r3GQAuDVhO3XqlOdt8NPG48WtHRv7GY8Xt87b2M94vLzcmNpBREREROQCA+kOderUKZw6dcrrZvgGjxe1A/tZY3i8qB3YzxrD49VcbQ+ky+Uytzo2oNLZvW6HXzYer8aPF89Ld8eN/YzHq5XHi+elu+PGfsbj1crjtR+OSBMRERERucBAmoiIiIjIBQbSREREREQuMJAmIiIiInKBgTQRERERkQsMpImIiIiIXGAgTURERETkAgNpIiIiIiIXGEgTEREREbnAQJqIiIiIyAUG0kRERERELjCQJiIiIiJygYE0EREREZELDKSJiIiIiFxgIE1ERERE5EKgA2ljOoRQyLklFiyvm0VE1HK7Xf9C04bXzSIKNJ6X/hPgQNqAPqmgUC6jvLM9zgFymJ2WiLrc7tc/aTKK0AUVHE4g8gLPSz8KcCAtIl1OQ7Tv6pMxp0rApA6G0kTUvfa5/i2aML1qFlGg8bz0owAH0vtZgbnhdRuIiNrLXNe8bgIRVeF52dkYSDtY0O9oAAYR6fO6LUREbbScRXQSUIyqETEi8g7Py47HQNpueR7JRQBTMXZYIgqEZ5ObRKBQLiM95HWLiIjnpX8wkH7GQFbMAFBQuMYwmoiCQby2M7EpBp0rBBB1BJ6X/sFAGgBgIBuKIgMJucd8fUJEQSQibSjA5AxUzhEh6hA8LzsdA2lHEJ2HzNxoIgo0jZOtiToOz8tOFfBAeieIVlAoM4h+sS2UvtGhfpzB5QvDGH497Fg0Pvz6MBK/moXOk53IlyxzBYDk/8nWy9naohYuNxbpIq91zXnZpQIcSNuDaKZz7OvfFoxbEzj740M43D+M5JUs5hZ16F87bzDW1zq0P07AYCC9q63lLKKOm3Q2cOuVWwuJpgU4QT6OB7acrc253FCRkjVgaoKDCrQr80/DrLbXSjwvfSm4gfSyjgwAIFMV3PAiYVf6vzkk+sOI/mIWS+tet8bHvlMxdj7DgI86w1AMymTUec07kgTUIsqcbE27MqHf0b1uRHfjeelLL3ndAM8MpVEup71uRQfbwtqfxhD7JcuSHljJQHY0CZUHkjqGiHS5DF4BqT4lGP99CZm7Xrej2/G89KPgBtK0L3Nh9yA6ciaF8beSiIn9iLzSi56dHvSkBHNdxxxlaHYAACAASURBVNKn89hqd2M72RMD2TNRZJa9bghRgE0VOKLXoK1SCVslEwVDh/anGcw/4EgA0W4YSFONreUsknJVEH1sDDcXZzB2onf3X3q5F5ETElKfSO1ook+YUH8lMYi2EUbzKI8e9FNWMSsOYoLHlajJLKgXwpXCZERUl+DmSNPutgzMvu3M5RVOKij8/ebeQTTtYgvGdBLJv+w8jgiQ1Rxf2TWBtaA4guiBqRgGvGsOEREFGANpcjD/oiDz0LZjSIH21zRExtANqOSXS5PPH0fEKQ3zoxEc8rBVXeGJjpmrmm2HhImLIno8axAREQXZnoF06ZslzE9eRuJnURytWit4+BcTmFtYwuoGs2G7ypaO+ckl244BpD8ch/iyZy3yper8cnGqAP0ag71mWP1TBrO2nCPxeoZLQhERkWdqcqRLX6tQroxjdo+JBdbXOqyvdei3ZgFsTz57ZxxjZyIMFHyudFdF1v7ffjGDif/i/2ojqvPLhTdzyDGIbo4NFcpVW9KRMA7lLSZ1EDWPAPl2GfJu31rOIiRm2t0goo5nG5Hewtqfkuh/PVkJoo9JUNT7eFR8inK5/Gx7uvktVrQbSJ2JAADMu3O4HFex6tE/gJqlhMK9edvXAtJvxsGMjgZUrxU9pED7REbEyzZ1jS3oH43DntQR/yCFGN+WEBGRh54F0vbX0ZGLOXy7lkd6NIZ+wTmW1tMbwcD5FG4sfYvNr25i7Fi7m0wtsbUC/Y/2HUnERI6j1u07DZdO29aKHkrh84U002Ka5eEcMh/aXpecUJAZ5SMKERF5qxJIb6iY2H4dLbyZw/3/kRGpY2G83p+M4ebqI9y8yIDL975ZhaNm1ZtRHN/+b93aWIV2awKXfjaM42F7BcijiP4sgcuT81j6puRFqzvDEwPZ0QTmdyo/CjJyCzcQf9XLRnUTC+oHE7aVZASkplLgcx7V7c/jiP64toLtUXEYwxcuI/OxCj3I1zAicu0HwBb0T3ZemcahTDb4Kvrlfoz9zzi41L2/lR6bzvScH4fR87WKifhRHDoyiMQvZjF/T8eaI3XehHFPw9z0JZztP4yj8Qmo3wRtAmr1WtEilDvzkF/1sEldZuveDMbt69qeUTB+jklH1IB1A8Z67W5zWYe+OIfslSSG+w8jHLuEub8xoCai+v0AWwXot7ajo4tjSDBVI5A2rTXH18Kft/Pl75p1f4Z5dxbJ/hguf1b/7/hbafe1ooc4VNo8q5ibnLUVBxKQfjfJvHNqCevBPC6/0Y/hSR0Mp4moHj/AN6tY2r5LSaejnFwWUJalO79eN2vKg9fHwNzPk8gud/vI9BaM6Tiiz9aKFiD/uYAc83abqrr4CkZmcfkkH1SolSzo08OITxvo9qsYER3cD+yv9AcjgqeNIa9s4ek/d9svoH90HDe1Ah4VN/H0X2XbCi5Psbm9gsvYyep+YyBzfgJL37eh6R4xF3YpuPImg+imqim+ImLmfRm8StGL9UAcSSH9UQ6fG49Q3NzE03K5agWqTRTXCsh/lEJ8lzexxmQKyt8YShPR/n6w9aTodRvIcyVY3zn3DLydw8r/K+KROoOx8yL6hV70OCag9qB3ewWXm/oa7v+2KkvemkPmVncuisi1otujuviK8K6C1Anv2kM+MjSOwu0bUN6RER/qh9DbW3N+9vT2QnhNhPTODXz+j00UPohXPaStIvtBDkFJVCMid+osEW5BvVA74/n5lrXNqKduEHkjhoFX6v3pXsQ+yCH3ZtVtSNW7cH3xVcza1ooWTnKt6JaoLr6COJRfxviwQi3SC/G3eWhTVQMCd1Xou0xSJCLa8YOel8Net4G6QgTy1Qk46sw9LGDtO4+a0zJbsCePWw8yiP5wv4dM+xaFsy5YBtHqn5nmI+luxVcGpjJIciI0tVQPxHcVpB3jATpW1zjtkIj29oPeI5Fnwc/KP/Z6iVUpG1quyjErTLWrmdRaAiKvN+FjTkQRd+zQYLqbsUhBVl18RUhBeZupM9QGPVHE3nTuWrM2vWkLEfnCD/DaAGLbX2gPVrnkDx1ABMdHvG4D+Vt18RVAfG8M8brTjIgOogeHfujco1scDSCivf0APVHEf7v9LuvWDOYfetsg8kbkmOT4WlvnFBtqv5riK8I4lLcG9vx5IiIiL/0A6EHsF8r2K3kDE29nYTzxuFXUdsKPB50z1ldNF7PViyj+o2lN6lAi0uXaNKf6tgIUx2cpKFT/zLUg1witLr4CSNcnEHvZswZREP3L+aX0KhdcJKK9VVbtODYG5fr2DXw5A0mexSpzPILl2AAS9q/v5GFsNPgZpSJMxxsNGf2vHrRhFBQ1xVeGZpAZZRBD7bSKwmfOPRGBE/KJaG/Plr8b+PUSCh/EIACwPpvAYP8wLn2sYfW7kqO601apBPPhEtQPL0P5c/sbTC3SG0Xson2HhpmFxhavKz3QMGffcWIQrPFDdakpviIg9f4YmNRB7bS1vIScYzAghdhPOc2ViPZmW0e6F+Jv72NVn4F0DIClY/5KAoORwzhkW57r0OHDODpwFsn35rC0DkTOpHBjSeYNz/d6ERtJOdI7Vt9L1V/q+4mBud/PO3bFr0jsF1SX6uIrOKNg/FyvZ+2hAHpiYPbXGefa9xdjiLIbEtE+agqyCCfHkf/HUxRX87h5LQXptOgoNhEZikF6O42b2gq+/WcZ3y7dQOpMhEtTdYHeM2OYGLLvMZA5n8Ds/70gz+fJGuZ/JSFjfy0vpJA6xzIlVIea4isDUCaTLHJDrhj/PYxLHy9h7fsGynuXVjErV13DMICZKxIYRxPRfvaobNgD4YSEsakbyP9vAd/aJkN9a9xH/hMFY+cHEOEkoC4zgNQfFDimu1lLmPhpP4avzkP/xsLWv59/a8tag76QRWLgOC79xT6cKED+KMMly6gOtcVXcDGD1BAfzcmlf+uYv3IWx390COHXz+Ly5Dy05TVYpZLj+oWtEkrfrUL7+BKG+wcx8ZlzmTvh3ZkAlqTfp4qx6CwnhcnoHoWnElAbnV9D5GN1lginoOgZGsfsdq78cxb0P1zCcH8Yh/7DluYTPo5hOQOtqoSuOKVhfoTJ0VSH6uIrEDkK2Da1QVN2+cW/5SfW10uYm76EhHgc4cOHHdev0KHDOBwZROLKPPSqpaKFkwq0SZakJ2q9XR7eXFb4Naadn5NYaM8a8AykqUoPxN9+jqXrcTQeCguIX1+Bfo1V6KgetcVXhHeVAI4CesFANhRG8vXC86UXDQUZsX03n04VGbmBpb+mIfKNK1GL7XIdKhegTEYRuqCi/itRJRiPfpVDcedzHucAOew6KG8EA2naRQ8Gfv051v5+E2Mn6wunhZPjyH21hs9/PcAgmupSU3wFEmavcBSwHayFGWSgoGBft3wojaIqQZPn0fpbT+v0n8th5u144zn2x+IYVx9h5XYKAwyiiVpvWUcGEnIX7QmlItKGAizmodebIrQ8j+SihNx1+fkAYJ+MvKEAkzMtTzV6qbUfT37W+59juKknoTxcwufqEtT/K+DRg7Xtp0QB/SePI/qfMqRfJBB/jS/jX6xSzCXtdTM6RM/pGRTLM143I5DMdQ0YSdQEm0JkEEAG+nIa4tBuv9n5ek/IGP9ExvhHW7DWV1EwClj5ewHGehHmPcNWaCoC8XQEx09IiElxSP8ZQU/g74gC5NtlyF43gwJEg7kBoM/9J1jmCoBBRKo/oy8CCRnkv7Qgt7AmQeAvG/Qi2xNPT0gY87opRNQEFsyv9vhWXwQSgBXTAoZ8Ps/hpR4Ir4mQXhMhXRz3ujVEVG0oBgVARgxhRS0iPyoAsKBezwBTBch1BtfmugZgsPYbfREMAsism4CLZNV6MbWDiChQBEReB7Bo2kZniYjarfKWtjAFaHJ4e5JgGPnzRZSviS/+9W2RYxKAlcrItgcYSBMRBYx4MQcJGUSrJuIYt5LQAAyyJCkRtdz2JEEUnk0QlLAdVDcwSVAYnYACDcmrzgmKlbkggHSstVUJGEgTEQVNn4z8zux423JR+rEcJEi1uYZERE1mLaSQXLRNeu6TkS+XUVQlYDLawHKcItLlInJIImy7nqWQgILWDwwwkCYiCqTKa9WybRtDHtpuk3aIiJqsMuk5UjvpeXQCCrbnatStMlHWfj3LR0xk2jAwwMmGREQEwIJ+R4OkzqH+7EQiogPYnqvhGDPeMLHShI827jU2adEtjkgTEQXe88II+RYuE0VEtOPZXA1H8RUL6tUktJEc5lxfi2wFWhqYtOgWA2kiogByltONAka5oZnyREQH0icjX5PbvF3p8Lbc0IJ11kLCdj3bXvmjwc9wi6kdREQBJF4ro3zN61YQUbA1pwiQMJpHebQpDWrY/9/e/Yc2kef/A38W/EAED1K4gym4YETBlBWacgedcPtHp7pgigumKDTBAzfdAzddYU3XY03sH23icWejoM0e7DUn7JIUVhphpRFWHf+4JSns0Qi7GOGKI6zQga/QwAkGdqHfP/w1M21tMrZNMvN8wPyRMYlvx8zMc97znveLPdJERERERCYwSBMRERERmcAgTURERERkAoM0EREREZEJDNJERERERCYwSBMRERERmcAgTURERERkAoM0EREREZEJDNJERERERCYwSBMRERERmcAgTURERERkAoM0EREREZEJDNJERERERCa0LS8vL2/oF7a1rbr+wIEDOHDgwEb+VUT0Fm7fvg0A3C+Jmgj3S6Lmc/v27Vf7ptG2rWwEwIMDUTMwHhS4XxI1HvdLoubzphANbGGP9Esb/NdZ1t/+9jcAwF/+8pcGt6Q1cHvVx7ifcr+sDX9n9eH2qg/3S3P4O6sPt1d91su1HCNNRERERGQCgzQRERERkQkM0kREREREJjBIExERERGZwCBNRERERGQCgzQRERERkQkM0kREREREJjBIExERERGZwCBNRERERGQCgzQRERERkQkM0kREREREJjBIExERERGZwCBNRERERGQCgzQRERERkQkM0kREREREJjBI293jLAbaBpB93OiGENFWKo63oa3NsIwXG90sIlvjftl6GKRtrng1iFyjG0FEW6wIeTSOwvIyll8uP2fgH/Wi7VgWaqObR2RL3C9b0bZGN4AaQUX2WAeC1xrdDiJqDBHRZVG/amcAqewMcgEFCgChIe0isjPul62IPdK2JCDwzYur3WK80Y0hoiahLPD+FFGz4X7Z3BikiYgImEvAOwrEi1GI67+biLYC98umxyBNRGRjrx5uEoHC8jKiPY1uERFxv2wdDNJERDYmnnv5YJMEmTMEEDUF7petg0GaiIgAiIgW48DoBKfDJGoa3C+bHYM0ERFp5KDwhE3UZLhfNivbBenKAxnZC8MYeN+L3a8mPO9Ap9SHoTMpZO+WUfm10a2kljGXWDl5vsllYJqzhFJjqco8AD9cOxvdko1VfVxC7uoIht7vg3evdr/bDe/7AxgeTSN3T0W10Q1tEtWKgtLNLFKjwxhYsc2eny8HPo4hfb0ElRtt01l1v7QK2wTp6oMsRny70e7uQ/BMCrlbRSiv/lRF+a6M9IVhBKVOtLv7MTJd5kGVqAlU5xLw6i46EuBowbc0l1g55vJxFuFADhgbQcAqJ2xVRvLYbmx/pxsDHyaRviWjuKB9g4LirRxS40MY8HRg+94BJK7b9NhfUZC/Moz+/R3Y3r4b3b4ghsdTyK3YZs/Pl7l/JDDk70bH9t0YuCBDZQfU27PofqlOD2xYh1MzngdsEKSrKF8dQqc7iORNZf23A8BCHslAJ6RTedT4iRajInvs5RPBMQA5BN9hryg1oUdZhI7EmuaAaRk9EuKjXv2J6Z0gkF3E8jlrTLKlXB+Gt6MPI9fqOIov5BDzW/nYvzb15gj6T6WQ/6nec4CC3Jk+dLwXg/xkU5pmHzbYL63I4kG6ivI/Q5A+TJs6KBav9KPvw5wFD6iagiyGZWaQdZOoSVSKSAwGkeW13SYQEbXw/q9MB+H1p0xfgBWv9MP7pxxLMtdjLoG+wwkUnza6Ia3M2vulVVk6SFfnkgj92VCfXpAQujyL+4tLePbqh/oMS8o8Zv7uh8vwHcrVMGLT1ovStEnGCqteoNSy8GCp8bSIxCEvYnONbgi1nEdZjAQMx30IkD6axEzpIZb+p9nvni1hsTyLyZO+Fcd+9esw4jcqW9fuJiK860P43BRm5Hk8XFrCs1802+yXZ1hSCsiMrTxfYi6G8KWiPYfGkG1ZN0hXi0ieNNwS7onizo93MPWJD27BCcerP3DAucsD/2czeLg4a5j4XEX2dBJ53rIi2iIKsh/7GaLJhCrkLyPQFVQWfJj4oYw7X4bh73LBuUPzZw4nhH0+hL+Yxf3yFAK6a1kVqSszFrwjuZZ2+McyKPz8DIs/zmJyLAR/rwcupxOObZq3bXPAuUtE4NwMHioZwzYDSqMZyPa8/qA1CIMzpjuYXi/zmGjSojSWDdKVm2nE7mlWCAFkpuOQfrvOBwUf4tOGg4OaQuqGfQ6nRI1TRXE8iODXL/sTBQSyGUQb2iZqHSUUr+r7ov0X04j83rnuJx37Qkhfi8KjXXkrj+KjjWxf8xIGpzBzLgBxp2P9N7+0K7BymyEF+Qf2SdPGUqfjGNF0rnjGJMPvrnEsGqRV5KfTujW+sTgCu2r8+K4Akhf9ulX5yzmUNqZxRLSq5880+Edf30cSx3JID7qwvYGtohbyWMG8LkeHETpU+5Apxx8HEOzSrslB4UDpN1q5zQDlCbukaQM9lTFxWnufyY+REyLquOTbVNYM0tX7mL+mXSHB37tiNNcbCUfCiGqPv/cykO+t+XYiekvKdAiS5pkGcawA+VzzHCypFXWgff3OaN37O/ZuVlusygU3J5SgTVT6ZwxJzQWteDHWVFMBWjNIq6phXJuIzj11foejG94j2hUlzP+XXRNEm6E6l0BQ84CYcDyDDEM01Wubw/CbkXF/YY331oRFMNbngGPH+u8iMuVxFvHTmqfdhAjiHzXLoI7nXgTpIhIv5yw0Tga+huJ4802K/Yqq6B82MXVj2Am3R9KtkRcW36JRRLQq41zRPXHkvgisnBGAaD2CC926YQYyUl/VMYuE8W7mIR9EBul1LEI1XKx07OAl8NsyFjGxZ42HKuTL+oeHfefDkJrsws2aPdIbZLtTP7ZO/XkRHPlFtIEe5TB0UDNXdE8Ys9NRiE12oKRW4YH/lE+3pjTux8ClUk3H7srNLJKvXgkInxzgBd16KmUUrmtXSPC46xpPQzrPC6Z1XB/Aot2nR72XQuyC5gKiK47YYPPtkdYM0oIL+kcFF7FkIgEL73TqVzypcH5MerOvIvDuXVnOdLfYh75jw4hdyUJ+wMsxAM/nih4cQPplb5YQQGZ6Er5djWwUtTrXiUlkjuumXUL+dDfc0gjSc+rax/BHWYQ/fv2QunA8ichhBsL1VO7mkNKuOBSAVO9QSnqlON6BIDJY/CYAG0ZnDRXZ8yOaEQ8CwmNhiE14s8OiQVow9CLMoFBiBKYtsFBEcZUxmcqcDPlaColTQfS529EhDSH1vZ0DtXGuaBHx6+naZ9YhWpMLgS/ymDhsuKN4N4khsQPb9/Zj+EoeZW1tgEc5DGuqaAq9HF5Uk2oRqTH9DFmhj9iLb9rjLCZGgfhpu4dooHprAhHdMKt4017YWjNIOzrRfVS7QkXiQsZGE+tTs1PvpjH8nht9o7INhwtVVp8ruqcJuxqoNe3wIPJtGfOXV6m+t5BH6lQ/On/Xht3iEEZGh+B1DSA1BwACpE9nUPiOw4vWV0XxQkRfr6FnAuEjzRl2WsJjBTnE4VIGDHc1m/BZtE1VQmo0qalOKiD6WbBpL9CsGaQhwDcY0q+6OYS+D7NQfq3xK6oq8rmZDW8Z0Wsq5PE++MbtVFK3iuK4D95Xc0ULCHxVQKYJx71Rq3PC80kaMxd9a75DmUsjOZ5+EVLciHxbwp2Lfri2rfkRekGZ1s/5DoiY+EekaYpktCJVmQcQwwxSmop+i8gcjcFrozBtLL6Co0kM9zZvR4tFgzTgPBRG3FBOUrkaxG73ABLTMspqBVVtqP61iopaRvF6GiMferF7ewf6L7AEC63HAfFoGNHLGcwW72NxaQnPDKVNny0tYbFcwMzlMHyrjB0sjoYR/94eUdp48hXHckgfZ4imjVf5KYthsR3dp/MAAKE3gqnsJMKH3WvcNi8j+YEHfaezKNvvNlFdjNNVvryrFOl6w4doXcpCDkAcI7oHCwUELmbgRwwTdpi5Y0XxFRETZ5t7qItlgzQcHkQuxbFinviFHGKBPnR2tGP7/2lunfzfdrR3dMLrH0LyanH1YSCO5r0iogbpiaDwzSTinwTg63FDcDpXzH3scDoh7BPh/2QSs/9dQuG8z3BQKCFx3vpDjzhXNG0V5cYwfPuDL4ZrAOLnd1CWJxAaDGPy2/tY/N9DzOcmET5kvIhTIV8KotPdh4Stn2FYW3UuAUmM6XpHX1Ygpbfj2uNf/Q92utANILdg9bPEyuIrwmdxhJv8Am1lkB71rphxYLXFO9qA1tbJ0RNF/t9xSCYvZQTB8MG9HU19VUStwAnx8xnkxgyXeDezkN+qcESzKyGpmSuaD3PRZqnOJRD8IPXqtyaOFSCfl6AbubvDBc+RMCbzD/Hs5wKmPpX0x3ZVRuw9HxJz9rhTVKvqXAL9R4whmhVIN9Y8lMeNbkODGIuvwIf4n6Wm/21Zt0f6Becfo7hTuoOJo7WfsoXeECblRRT+7tWt9+9ijKaN4ID4WVxfgh4ySpa+n1yF5j4w1LsxeH+z/gX788WLmO67YvAa31NjISmyuGoRyZOaoNcVRfLTN4c8x04RoYt3oJQzCOuGAxYROxJCzq6hxqDy/fMQLWtLNY8VkGeI3jDCewPwI4eZfxuGcDxWMA8gftDKtdhXFl/xjMUQbIGpFFcG6bGCbnznWkthrAGtNUuQEPnmIZb+eweZyxGEDkpw64YguSEdDCFyOYM75SUsylMI9wpQ/6uvj+h2sf+MNojDC+m4flVZXWpMW4gsQpmO62aR8J0K1Tz7hmNfAJO3Cvpna9Qs4tN8VqZyKwbfe9oQLUA6/7wnmnN0bKCdAYyMAblAGNlXF3BFJN4JInc0g1DPmz7c4ozFV4Qw4idb4yLNVs8mO/dICHwiIfBJLe8uoXBD+zoM77ub0y6yIwe2/0a/RlZVgIMdiExSUbyZ17z2QPLUuT/tEBE+E0LM/3pu5FJWRukzj21no1Cmh9AXSGue4RDgu5jHzKeelgg5rUY8t4zFPQPoeKcNwZcrxwpYPmfl3mhj8RVAPBOC77cNa1BdLD+0w7SFeeS182Me9aKbl95ERE1KgaIt4AAXOkyciJ37RUjaFfcULFp51NWaKihd6odXF6JdCGULmGWI3lTC4Ix+FIClQ/QqxVeECOIftc6lK4P0GkrXU5A1r32HRD5oSBvrF/1La4/BFxGtYcjY6ksBcd13xVEwvsfiJxqqwYtxpG/Nsd0wXGERlacb8cUt5FcF2Q+70X06//rRBkFC9Lt5THF2DtpQxuIrgP/iCKQWKojEIL2ax1nEz2jHxYUQOsyDB20k49AhwCV0NKYpRFaw0wW3bkUO82UTs248WTRMRdkBZwud1N/aExmx970IXtVshT0hTN2dRfwgb8vSxlpRfKVnArHB1upUYpBeQUH2rPHJ0dYZq0OtoTqXR0Y7dAhhSH/gzVIi8xxoN8w3m7lVqLtqqFKSoXu8sMuFDpvkx+qDNIL7+5C4qym10hvFneIUQvt4fKINtqL4ioDw2VDLPY/AIK2jIH8qiODXrfnkKLWIp0UkP43pT9YnJHhtcrIm2hweeP36niz1wkh9VUOfykidzetWeQJSy53YzVCuD0NyDyGrOf25TmRQ+C4OiR1JtAmMxVdwKI7I4dY7ETJIv6TKSHzgRf8V7XOjAgKXY+yNplUV/9qHoSt5lJ/UcaKulJAM+BHT3sqCBxOn/JxGiugtiYdHDNVsS0i8JyF2s4bSyk9kxD4I6k/s8CF8xAYx+j8JeP0pzawJz6e3m/9XAC5bze1FW2ZF8RUP4qPBlpy3yvpB+nEOQ4EEsnfLUHUPjFRRqSgo3cwiEehER0cfYjf0B1txLIf00dYaq0Nb6FcZ6VP96PzddnTs78fwaBq5uTLUSgXVXzXvq1ZQeVRC7soQ+tzdGDH8zoTPJpq+BCpRS+gKI3nOGHyLSPg6sPvYKueBagXqAxnZ8SA6DUMaAEA8H2+JghBv7VddvSQAKuSzXrTXVDBpjeVYFjVcvpAtrSy+ghMxhHta896/Da41q1iajiE4HVv/ra8IkM7nMPs5h3RQbdSf8kj9lEdqvL7PCb1x5EabvwQqUWtwQDyTQvx7P2KGUKxciyF4rfbzgOvEDDKfc5o3og1nLL4CsaXvyr7okdZMTVXjNFLiuZdTT0VhqYmnBAnRfAl3GKJpk7mOTiL/bbTmymtEVIMdIqLf5jF51OxNYgHSuTuY/5e/JW8zEzW3lcVXhM/iLX1X1vpDO2oluBH4+x0sKncQP8ThHLQ+9+EMJk766j/Z7vEhkr2P+W/C8DBEE228HR6Ev5nH/WwEvjqGZgi9EUz9UMadMalle8eImtmK4ivwI3mqte/KWn9oxw4XpJN+VEolyHPaeTFFSK5OeA6K8B6U4HvXBYf1twZtIGdXAJEvAohcrkJdKKFQLGD+hwKKC4tQbhV11cDEgy50dvkh+X3w/56/tfo8v2MWbXQzqMU44R6cwOxgHOq9PGZzMvJzZZR/lFF+eVdZcEPa74XnsATfQR+kfTaNzz1RLC9zD6PN5zg4gcXliUY3Y0NZ/3TuFBH+YgbhRreDrGubA8I+Ef59IvwnIo1uDRHpOCB0+RHq8iPU6KYQkeVwaAcRERERkQkM0kREREREJjBIExERERGZwCBNRERERGQCgzQRERERkQkM0kREREREJjBI/cbmSwAAFjBJREFUExERERGZwCBNRERERGQCgzQRERERkQkM0kREREREJjBIExERERGZwCBNRERERGQCgzQRERERkQkM0kREREREJjBIExERERGZwCBNRERERGQCgzQRERERkQkM0kREREREJjBIExERERGZwCBNRERERGQCgzQRERERkQlty8vLyxv6hW1tq64/cOAADhw4sJF/FRG9hdu3bwMA90uiJsL9kqj53L59+9W+abRtKxsB8OBA1AyMBwXul0SNx/2SqPm8KUQDW9gj/dIG/3WW9be//Q0A8Je//KXBLWkN3F71Me6n3C9rw99Zfbi96sP90hz+zurD7VWf9XItx0gTEREREZnAIE1EREREZAKDNBERERGRCQzSREREREQmMEgTEREREZnAIE1EREREZAKDNBERERGRCQzSREREREQmMEgTEREREZnAIE1EREREZAKDNBERERGRCQzSREREREQmMEgTEREREZnAIE1EREREZAKDNBERERGRCQzSREREREQmMEgTEREREZnAIE1EREREZAKDNBERERGRCQzSREREREQmMEgTEREREZnAIE1EREREZAKDNBERERGRCQzSREREREQm2C5IVx+XkLs6gqH3++Dd24a2tpfLbnjfH8DwaBq5eyqqjW5oo1UrUO7lkb0Sw/CxPvSJuzXbqg1te73oe38II1eykB9UuL1oA1VReSC//u3t79D99jr292Hg4yTkx41u59arVhSUbmaRGh3GwIpjWAc6pT4MfBxD+noJKndKos01l9CfF99iGZhWG/2vIZO2NboBW0aVkTw1hJFryhpvUFC8paB4K4fUOIA9fsT/HkfkiBuOrWxnQ1Wg3Mwg+Y8UZm6U8cbdeqEIeaEI+VYaSQDCuwGMXE4i0itsUVsbS50eQEcgt8HfGkdhOQpxg7+1Zfyqovj1BOLnk8gvrP029ScZuZ9kdP8pAmnn1jWvYSoK8l8nkfpyBvmf3rRXqijfVVG+KyP3jwQAF/x/n0LqUwmCfY70NVH+2Yfdf5afvxgrYPmcbfc6oqZUnUtAEmMovlrTvOdHW/RIK9eH4e3oe0OIXsVCDjF/J6RTedTxqdb2OI8R3zBS64XoVag/ZTEiedA3KqOyKY0jK6v8J4UBdwe8H745RNuRenME/adS64To1SjInelDx3sxyE82pWktSoF8XW50I4hoLY+yCB3RhujmZvkgrUwH4fWnTP+HFK/0w/unXN3B0p5UyON98P21xKEeVKMqyv8Mwv2HYeQYoDfHXAJ9hxMoPm10Q5pBBcW/DiF2s9HtIKJVVYpIDAaRbaHQZe0g/SiLkUDWEIIFSB9NYqb0EEv/W8by8ovl2RIWy7OYPOmDy/A16tdhxG/YrJ9VcMN3Moqp3B3MK0v6bbW8jGdLS3hYzCB+1Li1gOLZGDIMRVQDZToE6c/GfRRwHQpjMlfA/cUlPPtF89v73xIelmYwedJnoyFXrwnv+hA+N4UZeR4Plwzb5pdnWFIKyIz5VxzDMBdD+FLRlhe41UoFlUcl5KeTGJLc8J6V2TFCm2OsoDtP1rPMDNpjWOQbPS0icciL2FyjG1IfCwfpKuQvI9CNYhV8mPihjDtfhuHvcsG5Q/NnDieEfT6Ev5jF/fIUArrftIrUlRkbDPFwoH0wjkxxEc8W72P2izhCRyR4djn12wqAw+mEqyeA6DcP8fCrAPSHgDyyd629tYTBGdMHzNfLPCZ6Gv0vaZzqXAJB44XunhCmSkt4mJ9E+IgIt+CEQzu+d4cTri4/wl/MImKbbdcO/1gGhZ+fYfHHWUyOheDv9cDlNGybbQ44d4kInJvBQyVjOIYBpdEMZNv0B6jIHnv+ENf29na0u7rRHxhB+i4jNFFzUpD92N9yIRqwdJAuoXhVf9D0X0wj8nvnup907AshfS0Kj3blrTyKjzayfU1opx9T2SgCPUJdvX2u42mkP9Gvk0tljpVehzodx4jmoOEZk/S/OSurFpE8qR8DJ/TGUfhhCqGu9fdROxEGpzBzLgBxZx175a7AymMYUpB/sGOfNBE1tyqK40EEv36Z2QQEshlEG9qm2lk3SD9WMK/L0WGEDtV+68TxxwEEu7RrclDYmbEGB7pFv37VE06J90ZPZUyc1t4v8WPkhGib4QrK13HE7mlW9MSR+zYKkRl6w6w8hgHKE17eElEzqaL8zxD8o6+7VcSxHNKDLmxvYKvqYd0gvUIH2us6SXegY+9mtcUGfuu0TSg0o/TPGJKaCzPxYgwBO0zlBgBVGenRvGaFB9ELEYg71vwEmeKCuxnniiIiesH4nIw4VoB8rrU6lawbpLc5DP8RMu6/1QNwfrjsEnRMWHysHxPt+4Mb7Fxcw+Ms4qc1gxqECOIf2WZQByo3s0ho7+6ciGHkj6102GwVDjhse3EiIPDNGs8mFOONbhwRYeVzMsLxDDItFqIBKwdpwYVu3W1NGamv6nhqvXof89c0rw/5IDJIr+6pjMzF0uvXQhjhwytn8yAAqEK+rH8I1nc+DMk2gaeCwq205rWA6HEfL7o2xSJUQ+dBx45WO0URkSUZ54ruiSP3RWDljEMtwLpBGh74T/l0a0rjfgxcKtX0EFzlZhbJV68EhE8OtOR/8KarlJAMBDXDFAQELkbg+20jG9XE7qUQu6Dpju2KIzZoo19WdR7yP7QrgpBEhrtNUSmjcF27QoLHzUsWImqwRzkMHdTMFd0Txux0tGWH960ZpNXpgTVqwg8g+3grm2ie68QkMse1DxiqyJ/uhlsaQXpOXbt3+lEW4Y9f95oJx5OIHOYJ6JWnFSj38siOD2B3ezdGbmietP1SRtpOwbAuKrLnRzQzVQgIj4Vhqxz5oARdTbnjXnS++PdXH5eQuzqCoff70NmhPebshvf9AQyPppF/wIflalW5m0NKu+JQANKeRrWGyAa+isC7d2Vu2i32oe/YMGJXspDtfgx7WkRicADpl3fLhAAy05Pw7Wpko96OhXukAcCFwBd5TBzWz9ah3k1iSOzA9r39GL6SR1lbPvdRDsOaqjpCb+vebtg4RSS0B4bftGO3px/B0dyrubWF3ggyP5aR+cjdcuObtkr11gQiuuFCcdtdoFV+VlDSrtjbAcdPWYz4dmP7O90Y+DCJ9C0ZZd0MOQqKt3JIjQ+h392O3b4RZB9wTpg3qhaRGkvrVoU+4l01ok21UERxlWexlDkZ8rUUEqeC6HO3o0MaQup7OwZq41zRIuLX0wjsamCTNsCaQdpYcGIx61/rrc1thweRb8uYv7xKta+FPFKn+tH5uzbsFocwMjoEr2sAqTkAECB9OoPCd617u2FLnJhEobyERXkCgXftFQrrU0JqNKkpPiIg+lnQdsFmSS3rXgtfBeHeH0TyZu0FfJSbSQTdEoZvWLvoj3lVFC9EDNMLTiB8hPsnUTNQ76Yx/J4bfaOyjeotVFafK7qn9bveLN4j/ZITnk/SmLnoW/MdylwayfH0i9vubkS+LeHORT9c29b8CAHA1WF4DwcxfCGH0pP1325XxuIrOJrEcG/rH0Dqpaqy/vWCYrJccxGpD4JIzLFn2kiZ1s/JCoiY+EfEPsV+iFqCCnm8D77xOiZBaFlVFMd98L46LgkIfFVAxiLDQG0RpCs/ZTEstqP79PO5a4XeCKaykwgfdmP1Ei1lJD/woO90FmX7XC6at5BH6swAun+3GwNXanuY01ZWFF8RMXHWWFbdDqp49r/V1gtwD0YwlSvg/uISnv2ina7sGZaWHmI+N4lQr3GLFRE7MoI8L+BeWVl2/XmvT6TrDR8iIpMcEI+GEb2cwWzxPhaXlvDMMN3is6UlLJYLmLkchm+VZxSKo2HEv7d2lDZe3ItjOaSPWyNEAzYI0sqNYfj2B18M1wDEz++gLE8gNBjG5Lf3sfi/5yfp8CHjf6oK+VIQne4+JGw5lklLRHTZGG4WcV/OID6ovRhRkDvVbZMr7NoZi68In8URtmWwqUB9pF/jOZnB/P9bxP3sBEJHRLgFJxy6u0AOOJ0ueI6EMSWXcedzQ4URNYXY1RLoeYiWRH3Z9ZcVwohoE/REUPhmEvFPAvD1uCE4VxYiczidEPaJ8H8yidn/LqFw3mfoRCkhcT4Dqw5Us8pc0W9i6SBdnUsg+EHq1YlFHCtAPi/p56zd8fwkPZl/iGc/FzD1qaT/kasyYu/5eAtZxwGnU4C7N4Bo9j7K30WhjTfFUT9it7i9AKwsvgIf4n+WLHUQeRuu9yR4ap4q0QnpfMYwEw9Qysqwe5SuziXQf8QYoluvQhiRtTkhfj6D3JihQ+BmFvJbFYxrViUkNcclq07eYN0gXS0ieVJzYumKIvnpm08qjp0iQhfvQClnEO7R/kkRsSMh5Fpk2r+t5jwYR+ZL7fhzFclL1r3Crt3K4iuesRiCnILsLbgQOD2iH+97r4DyowY1pwlUvn8eomVtyfmxAvIM0URNyAHxsziiuv4AGSVLjiOtQvsQjHo3Bu9vVptWebXFi5juu2LwGt8zXkQzsGyQVqbjuqfWfadCNc++4dgXwOStAuLaMK1mEZ+2e7/X2lxHQghpV1j2CrsOxuIrQhjxk3YONwJc+zfga7q80D82nINi7onFlle5FYPvPW2IFiCdf94TzTk6iJqUwwvpuH5VWV1qTFvorVk0SKso3sxrXnsgeeq8mbBDRPiMLhryFvKb/NYD8aB2hWzbcPOcsfgKIJ4JseLjhnCh82ij29B4yvQQut9P6Ar8+C7mMfu5nS/WiFqBA9t/o18jq7Y+YbY0iwZpBYq28AVc6DARYJz7RUjaFfcULFrx7suG2I7thi6w8s/2PTCsKL4iRBD/iBOQufbo56PPLXAAUP0qKF3qhzeQ1gyfciGULWD2Uw9DNBHRFrJmkH6sYH4jvsex3XB7dBGVpxvxxVb0DM8MFxkO287BbSy+AvgvjkBiYR8Ie7v1D/OWFBNj6Rex+N8Na1Jr+VVB9sNudJ/Ov/59CRKi381jirNzELWOX/Qv/busOCGqccavepYC4rrviqNgfM85cY2/d2tZM0jvdMGtW5HDfNnELBJPFg0n+Q44GYZWV1VQvqVf1fmOFQ8M61tRfKVnArFBe26LFfZ4MKB9fX0GxXof4q0sQtFW7UMA7l1v27AW8ERG7H0vglc1R6U9IUzdnUX8IEdEE7WOEgo39GtcQkdjmkJvzZpBGg60G+bpzdwq1D23sVIyjInucqGD56tVVf+dR0a3xibhxmhF8RUB4bMhVpV7yemFdEK7IoeJOh/irdzNIaVd0dUNl8WvU6oP0gju70PirqbUSm8Ud4pTCO3jYA6iVlKdyyOj6wwIQ/oD9+NWZdEg7YHXrz+zqhdG6qse9FRG6mxet8oTkBiIVvO0iPgZ/VAGHO2H1+LhZjXG4is4FEfkMK++XnNCOhrWDe8onQnXPk/70yJSf0/rVvlO+S29XyrXhyG5h5DV/K5cJzIofBeHxIdXiVrL0yKSn8b0nXQnJHh5mmhZFg3SgHh4BPrRMyUk3pMQu1nDA3BPZMQ+COoDEXwIH7Hw6fpxFkO+YaRullGpp+v+iYzYB34kdFfXAqIn/fYrgb2i+IoH8dGg5Saff1vOQyGMrJinfQDJ/6zzJO/TMtIf+xHTDpsRwggftvAW/k8CXn9KNzOHdL6A+X8F4LLtMwhEjVf8ax+GruRRflLHCbNSQjJgOIbBg4lTfk5X2cJqDNIVFG69uF3d5YV75+Y1aMN0hZE8Zwy+RSR8Hdh9LIHs3TJU7YOD1QrUBzKy40F0Gm6hAoB4Pm75QhpLN1MY9nWifXsHOj8YRuxqDvI9BZVKRT8s5mkFyr0c0mcGsPt3K7eVcDyF4V673aZaWXwFJ2II99htO9TCg/CluP5CV81j5A9u9J1OQ36govrr6z+qqmXI0wkMeDox9LX2tyYgcDlm7SkFf4X+Tg9UyGe9aK+poMEay7EsrD+fjorssTX+/aK+zANGvWtsqwFkWYSL1vKrjPSpfnT+bjs69vdjeDSN3FwZaqWiO36hWkHlUQm5K0Poc3dj5IbhfPnZBMKGoajUWvR9Go9zGDqjwD8agrTvRc34pwrkK8MIX33+Fv+ZYIvcRnVAPJNC/Hs/Yoagp1yLIXgttsbnVnKdmEHmcztNK6WifCOFxI0UEvV+tCeO3Bc27I02Fl+ByF6GN3D0RJA8L8N/VtaEOhXypSHIl2r7DnEsh/RR2/3SiFqMiuyxDgQ104HGi8uI9qz9iVaj/pRH6qc8UuP1fU7ojSM3KtkoW1iToUe6iqXpEfS727H95VX5b3aj72weKgRI5+4g3UqzD+wQEf02j8mjZm/9Pv83z//Lz9vzNRAOT2D+ZrTmCpLWsbL4ivBZnL0Mb+SA+Pks8hd9Ji66BPguzkNmCWyiJldEoq0Dwf2F11OWFeOIiW0YmLb+fZE3cR2dRP5bO54vrUcfpHe44D0hQep1vz657REhnYgjUyzhzpjUej1sOzwIfzOP+9kIfHUMzRB6I5j6odya/2YzdvowIWcQPyHWf9Gwx4dI9j7K30bgscXG0ltRfAV+JE+xl2F9Dng+nUX5hymEemuL00JvBJkfyyw8QtQC1OkJxBBHQTvfb08Ui1k/coG0rvOh1bgPZzBx0mf6fDn/TRgehmhL0A/tcIqI/OsOIg1qzOZxwj04gdnBONR7eczmZOTnyij/KKP88qJYcEPa74XnsATfQR+kfXZLhE64egOI9gYQ/bIKdaGEQrGA+R8KKC4sQrlV1FVREw960N3jg+SX4HvXZePiK4Dj4AQWlyca3YyW5fx9CFNyEPF7ecxm88j+p4D7d8svhnwIcPd2wvv7APwfDsBnt/2yJ4rl5WijW9GCBAS+WUag0c2wOWUhBxwdWBE2BVc3gBjkuSjEFh3i4ewKIPJFAJHLtZwvXejs8kPy++D/vb3Pl7V7XsylFY5+NvvvdEDo8iPU5Ueo0U1pZtscEPaJ8O8T4T9hvcsqakbcN4msRYXy4xp/tNMFP4B5RQV6Wmi46Gp4vrQ9y05/R0RERI0iwLUfwDXFUCGYyFoYpImIiGjDiScy8CMG77h+NHTxahA5AN1WL0lKtsAgTURERBtvZwAzywXEDXN1y3sy8MMPVyvUpCBaB4M0ERERbZLnD40ta5YQZpBDN4M0WQKDNBEREW0RFfL1HPzZkL66KVGLYpAmIiKiLfC6QMtMKxV3I3oDBmkiIiLaFMXxNs34aC9QXMbyOfZFk3XYbB5pIiIi2iriuWUsn2t0K4g2D3ukiYiIiIhMYJAmIiIiIjKBQZqIiIiIyAQGaSIiIiIiExikiYiIiIhMYJAmIiIiIjKBQZqIiIiIyAQGaSIiIiIiExikiYiIiIhMYJAmIiIiIjKBQZqIiIiIyAQGaSIiIiIiExikiYiIiIhM2PIg3dbWxqWGBQBu377d8Ha0ysLtVf/24n5pbrvxd8bttZnbi/ulue3G3xm312Zurzda3mAAuGzAcuDAgYa3oZUWbi8uW7Hwd8btxaX5Fv7OuL0aubS9CL8bpqb0TkRERETU4jhGmoiIiIjIBAZpIiIiIiITGKSJiIiIiExgkCYiIiIiMoFBmoiIiIjIhP8PP1Yqi6brKGwAAAAASUVORK5CYII=;" vertex="1" parent="1">
          <mxGeometry x="910" y="150" width="722" height="782" as="geometry" />
        </mxCell>
      </root>
    </mxGraphModel>
  </diagram>
</mxfile>
